<svg width="200" height="200" viewBox="0 0 200 200" fill="none" xmlns="http://www.w3.org/2000/svg">
<path fill-rule="evenodd" clip-rule="evenodd" d="M63.6699 114.767C63.8187 105.863 67.8014 97.4886 74.051 91.4017C78.8934 86.6853 84.3557 83.4483 90.7609 81.5129C96.6669 79.7282 104.623 79.8541 110.504 81.5507C117.661 83.6153 123.06 86.3994 128.747 91.201C137.369 98.4806 140.427 112.038 137.98 116.647C136.996 121.548 131.083 138.201 128.776 145.557C126.869 150.106 127.059 155.268 126.793 160.127C127.477 165.684 125.003 170.984 122.128 175.549C119.131 178.757 114.968 180.106 112.325 183.54C108.695 188.255 103.978 183.847 100.403 184.67C95.8673 183.933 91.1447 188.785 88.1791 183.301C85.2772 177.934 78.1934 175.492 74.6278 170.433C71.0401 167.941 72.3021 162.968 72.1343 159.217C72.5711 152.516 72.2383 145.573 69.2737 139.425C68.9834 138.575 64.7457 122.224 63.6699 114.767V114.767Z" fill="url(#paint0_linear_104_1523)" stroke="url(#paint1_linear_104_1523)" stroke-width="3.65714" stroke-linecap="round" stroke-linejoin="round"/>
<path fill-rule="evenodd" clip-rule="evenodd" d="M74.5501 117.16C73.6639 121.861 74.8549 127.794 69.7606 130.545C66.342 133.723 63.801 141.423 67.9096 145.982C74.8897 149.323 80.23 147.593 81.8062 156.723C82.5689 164.888 90.7106 165.389 95.3792 164.923C100.503 165.006 107.709 165.221 112.584 164.875C119.314 164.626 116.71 151.02 124.02 150.767C131.092 149.9 134.394 143.565 134.019 137.361C131.952 132.096 128.132 127.607 129.673 121.348" fill="url(#paint2_linear_104_1523)"/>
<path d="M74.5501 117.16C73.6639 121.861 74.8549 127.794 69.7606 130.545C66.342 133.723 63.801 141.423 67.9096 145.982C74.8897 149.323 80.23 147.593 81.8062 156.723C82.5689 164.888 90.7106 165.389 95.3792 164.923C100.503 165.006 107.709 165.221 112.584 164.875C119.314 164.626 116.71 151.02 124.02 150.767C131.092 149.9 134.394 143.565 134.019 137.361C131.952 132.096 128.132 127.607 129.673 121.348" stroke="url(#paint3_linear_104_1523)" stroke-width="3.65714" stroke-linecap="round" stroke-linejoin="round"/>
<path fill-rule="evenodd" clip-rule="evenodd" d="M108.722 124.923C106.388 127.767 105.97 128.823 105.374 132.548C105.43 134.983 108.429 138.061 110.456 139.125C113.369 140.775 116.123 140.753 119.491 139.992C121.341 139.631 123.767 138.347 124.028 136.349C124.5 133.998 125.525 126.717 124.406 125.561C122.875 124.23 117.308 122.997 115.423 122.546C114.305 121.978 109.658 123.961 108.722 124.923V124.923Z" fill="url(#paint4_linear_104_1523)"/>
<path fill-rule="evenodd" clip-rule="evenodd" d="M79.916 123.787C77.7843 125.99 76.9353 127.719 77.3525 132.067C77.6509 134.632 77.8433 137.434 79.8397 139.163C86.6263 140.303 92.7023 138.309 93.7974 136.208C96.0542 133.472 96.7431 131.623 96.8384 128.218C96.4936 124.697 93.2736 121.783 90.0553 122.235C87.1165 122.592 84.53 121.39 79.916 123.787V123.787Z" fill="url(#paint5_linear_104_1523)"/>
<path fill-rule="evenodd" clip-rule="evenodd" d="M101.023 132.954C100.151 133.242 99.4521 135.457 99.0474 136.291C97.526 140.008 95.242 145.766 96.2339 148.517C97.4068 149.252 99.6922 147.275 100.559 147.579C101.603 147.825 102.873 149.099 104.525 148.813C105.816 149.37 104.627 138.888 103.123 136.562C102.452 134.817 102.114 132.595 101.023 132.954Z" fill="url(#paint6_linear_104_1523)"/>
<path d="M81.498 154.275C83.5551 159.588 81.2031 165.616 85.8098 167.642C90.7077 169.107 95.3048 169.721 100.394 169.595C106.824 168.373 112.872 170.956 116.815 165.595C118.292 162.29 117.562 156.583 120.043 153.829" stroke="url(#paint7_linear_104_1523)" stroke-width="3.65714" stroke-linejoin="round"/>
<path fill-rule="evenodd" clip-rule="evenodd" d="M98.3363 157.885C98.0439 158.19 97.0565 158.892 96.6115 159.782C96.2791 160.447 96.238 162.311 96.0941 162.886C95.7874 164.113 96.2562 164.519 97.1289 164.956C97.922 165.352 98.8143 165.062 99.371 164.783C100.149 164.395 100.041 163.655 100.233 162.886C100.434 162.084 100.233 160.953 100.233 160.127C100.233 159.069 100.135 158.649 99.5435 158.057C99.0456 157.559 99.5336 157.644 98.3363 157.885V157.885Z" fill="url(#paint8_linear_104_1523)" stroke="url(#paint9_linear_104_1523)" stroke-width="1.82857" stroke-linejoin="round"/>
<path fill-rule="evenodd" clip-rule="evenodd" d="M101.268 157.885C101.258 157.875 100.528 159.809 100.406 160.299C100.214 161.067 100.779 161.912 100.578 162.714C100.296 163.843 100.079 164.275 100.751 164.611C101.638 165.055 102.11 165.08 102.993 165.301C104.05 165.565 104.706 164.741 105.062 164.266C105.508 163.671 104.82 162.262 104.717 161.851C104.483 160.914 104.123 160.318 103.683 159.437C103.43 158.932 102.522 158.523 102.13 158.229C101.883 158.044 101.556 158 101.268 157.885V157.885Z" fill="url(#paint10_linear_104_1523)" stroke="url(#paint11_linear_104_1523)" stroke-width="1.82857" stroke-linejoin="round"/>
<path fill-rule="evenodd" clip-rule="evenodd" d="M105.062 158.574C104.188 157.919 105.062 160.759 105.062 161.851C105.062 162.675 105.094 163.703 105.235 164.266C105.36 164.767 106.948 164.694 107.304 164.783C108.404 165.058 109.151 164.366 109.546 163.576C109.911 162.847 109.029 161.802 109.029 160.989C109.029 159.643 108.48 158.877 107.994 158.229C107.307 157.313 105.608 158.137 105.062 158.574V158.574Z" fill="url(#paint12_linear_104_1523)" stroke="url(#paint13_linear_104_1523)" stroke-width="1.82857" stroke-linejoin="round"/>
<path fill-rule="evenodd" clip-rule="evenodd" d="M110.236 158.057C110.236 158.052 109.891 160.402 109.891 161.161C109.891 162.159 109.733 162.742 110.064 163.404C110.257 163.79 111.887 163.872 112.133 163.748C113.132 163.249 112.996 161.384 112.996 160.299C112.996 159.584 112.023 158.433 111.616 158.229C111.101 157.972 111.01 158.057 110.236 158.057V158.057Z" fill="url(#paint14_linear_104_1523)" stroke="url(#paint15_linear_104_1523)" stroke-width="1.82857" stroke-linejoin="round"/>
<path fill-rule="evenodd" clip-rule="evenodd" d="M113.513 157.712C112.484 157.197 113.341 160.01 113.341 161.161C113.341 162.311 112.795 162.618 113.513 163.576C114.046 164.286 114.95 162.944 115.411 162.714C115.917 162.46 115.755 160.841 115.755 160.299C115.755 159.41 115.383 158.519 115.066 157.885C114.792 157.337 113.857 157.643 113.513 157.712V157.712Z" fill="url(#paint16_linear_104_1523)" stroke="url(#paint17_linear_104_1523)" stroke-width="1.82857" stroke-linejoin="round"/>
<path fill-rule="evenodd" clip-rule="evenodd" d="M92.2997 158.23C92.2997 158.222 92.6448 160.389 92.6448 161.161C92.6448 161.734 92.8427 162.841 92.9897 163.576C93.2064 164.66 92.1119 164.438 91.2649 164.438C90.3328 164.438 89.8259 163.67 89.3677 163.059C89.0096 162.581 89.4167 160.62 89.5402 160.127C89.751 159.284 90.5684 158.836 91.0924 158.574C91.618 158.312 91.3603 158.417 92.2997 158.23V158.23Z" fill="url(#paint18_linear_104_1523)" stroke="url(#paint19_linear_104_1523)" stroke-width="1.82857" stroke-linejoin="round"/>
<path fill-rule="evenodd" clip-rule="evenodd" d="M88.5053 159.092C89.0414 158.824 88.5053 161.02 88.5053 161.679C88.5053 162.692 88.9514 162.856 88.5053 163.749C88.1478 164.464 86.4068 163.475 86.2632 163.404C85.5675 163.056 85.5732 161.962 85.5732 161.161C85.5732 160.314 86.2866 159.343 86.4357 158.747C86.8642 157.033 88.0383 158.508 88.5053 159.092Z" fill="url(#paint20_linear_104_1523)" stroke="url(#paint21_linear_104_1523)" stroke-width="1.82857" stroke-linejoin="round"/>
<path fill-rule="evenodd" clip-rule="evenodd" d="M92.6445 159.609C93.1729 158.765 93.1531 158.188 94.369 157.884C94.451 157.864 95.8736 159.418 95.9214 159.609C96.1237 160.419 95.8683 161.639 96.0938 162.541C96.3956 163.748 95.9391 164.046 95.059 164.266C93.8361 164.572 93.614 164.523 93.3342 163.403C93.1635 162.721 92.9437 161.668 92.8169 161.161C92.6916 160.66 92.6445 160.141 92.6445 159.609V159.609Z" fill="url(#paint22_linear_104_1523)" stroke="url(#paint23_linear_104_1523)" stroke-width="1.82857" stroke-linejoin="round"/>
<path fill-rule="evenodd" clip-rule="evenodd" d="M85.5732 158.402C85.8126 159.022 85.7458 160.976 85.7458 162.196C85.7458 163.533 85.2011 163.404 84.0211 163.404C83.0787 163.404 82.8138 162.635 82.8138 161.679C82.8138 160.518 82.7158 159.977 83.3312 158.747C83.7403 157.929 84.0766 157.656 84.5384 157.195C84.9132 156.82 85.3764 157.91 85.5732 158.402V158.402Z" fill="url(#paint24_linear_104_1523)" stroke="url(#paint25_linear_104_1523)" stroke-width="1.82857" stroke-linejoin="round"/>
<path fill-rule="evenodd" clip-rule="evenodd" d="M86.9531 164.956C86.3027 164.305 86.9531 166.795 86.9531 167.715C86.9531 168.762 87.2897 168.922 88.3328 168.922C88.6305 168.922 89.1112 166.844 89.1952 166.508C89.3992 165.692 89.3525 164.723 89.1952 164.093C88.7559 162.336 87.1416 164.484 86.9531 164.956Z" fill="url(#paint26_linear_104_1523)" stroke="url(#paint27_linear_104_1523)" stroke-width="1.82857" stroke-linejoin="round"/>
<path fill-rule="evenodd" clip-rule="evenodd" d="M99.1983 170.13C99.0498 169.536 98.9525 167.766 98.681 166.68C98.4225 165.646 98.2206 165.358 97.4739 164.611C96.5506 163.688 96.4872 166.439 96.4389 166.68C96.2505 167.622 96.9293 168.125 97.1288 168.923C97.3733 169.901 97.95 170.13 99.1983 170.13V170.13Z" fill="url(#paint28_linear_104_1523)" stroke="url(#paint29_linear_104_1523)" stroke-width="1.82857" stroke-linejoin="round"/>
<path fill-rule="evenodd" clip-rule="evenodd" d="M99.5432 170.13C99.8224 171.247 99.3707 167.832 99.3707 166.68C99.3707 165.576 99.066 165.433 99.7157 164.783C100.41 164.089 101.476 165.717 101.613 165.991C101.988 166.742 102.13 167.059 102.13 168.233C102.13 169.296 101.329 169.409 100.578 169.785C99.5653 170.291 102.767 169.485 99.5432 170.13Z" fill="url(#paint30_linear_104_1523)" stroke="url(#paint31_linear_104_1523)" stroke-width="1.82857" stroke-linejoin="round"/>
<path fill-rule="evenodd" clip-rule="evenodd" d="M102.82 170.13C102.678 170.201 102.647 167.585 102.647 166.853C102.647 165.775 103.077 165.734 103.682 165.128C104.476 164.335 105.39 166.256 105.579 166.508C106.04 167.122 105.689 168.485 105.579 168.922C105.494 169.264 103.239 169.962 102.82 170.13V170.13Z" fill="url(#paint32_linear_104_1523)" stroke="url(#paint33_linear_104_1523)" stroke-width="1.82857" stroke-linejoin="round"/>
<path fill-rule="evenodd" clip-rule="evenodd" d="M96.6113 169.785C96.3731 170.738 96.1659 167.811 95.5765 167.025C94.754 165.929 95.2355 165.561 94.0242 164.956C93.3308 164.609 93.0456 166.396 92.8169 166.853C92.3536 167.78 93.3104 168.566 93.6793 168.75C94.3627 169.092 94.5334 169.694 95.404 170.13C95.8059 170.331 95.9928 170.363 96.4388 170.475" fill="url(#paint34_linear_104_1523)"/>
<path d="M96.6113 169.785C96.3731 170.738 96.1659 167.811 95.5765 167.025C94.754 165.929 95.2355 165.561 94.0242 164.956C93.3308 164.609 93.0456 166.396 92.8169 166.853C92.3536 167.78 93.3104 168.566 93.6793 168.75C94.3627 169.092 94.5334 169.694 95.404 170.13C95.8059 170.331 95.9928 170.363 96.4388 170.475" stroke="url(#paint35_linear_104_1523)" stroke-width="1.82857" stroke-linejoin="round"/>
<path fill-rule="evenodd" clip-rule="evenodd" d="M91.9547 169.095C92.2135 169.224 91.9547 166.526 91.9547 165.818C91.9547 164.476 91.8353 164.783 90.4024 164.783C89.4122 164.783 89.5401 166.459 89.5401 167.37C89.5401 168.574 89.5981 168.865 90.4024 169.267C91.1336 169.633 91.0384 169.782 91.9547 169.095Z" fill="url(#paint36_linear_104_1523)" stroke="url(#paint37_linear_104_1523)" stroke-width="1.82857" stroke-linejoin="round"/>
<path fill-rule="evenodd" clip-rule="evenodd" d="M106.614 169.612C107.553 170.082 106.662 167.446 107.132 166.508C107.519 165.734 108.625 165.473 109.374 165.473C110.466 165.473 110.236 166.401 110.236 167.37C110.236 167.996 109.287 168.664 108.856 169.095C108.407 169.544 107.32 169.612 106.614 169.612Z" fill="url(#paint38_linear_104_1523)" stroke="url(#paint39_linear_104_1523)" stroke-width="1.82857" stroke-linejoin="round"/>
<path fill-rule="evenodd" clip-rule="evenodd" d="M110.926 168.577C110.519 168.984 111 166.903 111.443 165.128C111.676 164.197 112.715 164.454 113.341 164.611C114.311 164.853 113.704 166.471 113.513 166.853C113.022 167.835 112.026 168.577 110.926 168.577Z" fill="url(#paint40_linear_104_1523)" stroke="url(#paint41_linear_104_1523)" stroke-width="1.82857" stroke-linejoin="round"/>
<path d="M99.4877 83.416C99.1625 84.3103 99.9755 84.4144 99.9755 85.8551C99.9755 86.5122 97.424 89.5329 97.7803 90.2455C98.2937 91.2723 99.6898 92.1549 99.9755 92.4406C100.17 92.6351 94.0485 91.8344 93.4052 93.9041C92.8543 95.6762 90.9392 92.3272 89.1749 92.7682C87.9669 93.0702 85.6659 97.2858 84.6244 97.8066C83.1137 98.5619 81.6376 95.9347 81.2097 97.6464C80.9098 98.846 80.9977 99.7138 80.7219 100.817C80.2214 102.819 81.5217 100.071 78.2828 100.611C76.8063 100.857 76.5754 99.9954 76.5754 103.294C76.5754 103.372 73.5547 104.833 73.1608 105.489C72.3968 106.762 72.1247 107.164 71.6973 108.873C71.1392 111.105 67.5115 109.827 66.3618 110.977" stroke="url(#paint42_linear_104_1523)" stroke-width="3.65714" stroke-linecap="round" stroke-linejoin="round"/>
<path d="M98.5268 93.7932C99.5837 92.7362 100.641 91.6793 101.698 90.6224C102.755 89.5655 99.5837 92.7362 98.5268 93.7932ZM98.5268 93.7932C97.3886 94.9314 100.976 91.6663 101.942 90.3785C103.307 88.5575 105.993 90.9198 106.576 92.0858C107.283 93.4998 108.365 94.6711 109.015 94.281C109.983 93.6999 111.544 93.3054 112.673 93.3054C115.021 93.3054 116.093 95.267 117.064 97.2079C117.762 98.6044 119.574 96.2323 121.454 96.2323C123.381 96.2323 124.324 97.1924 123.893 98.9152C123.707 99.6611 126.283 100.573 126.82 101.11C128.189 102.479 126.292 103.722 128.527 104.281C130.582 104.795 134.448 106.127 135.723 106.446" stroke="url(#paint43_linear_104_1523)" stroke-width="3.65714" stroke-linecap="round" stroke-linejoin="round"/>
<path d="M79.8818 116.837C81.6706 116.928 85.6398 115.802 88.5051 115.802C91.5072 115.802 93.5958 115.588 96.0938 116.837C96.5597 117.07 97.026 117.303 97.4736 117.527" stroke="url(#paint44_linear_104_1523)" stroke-width="1.82857" stroke-linecap="round" stroke-linejoin="round"/>
<path d="M106.442 117.527C107.682 116.508 110.341 115.112 112.306 115.112C114.49 115.112 116.309 115.112 118.515 115.112C119.894 115.112 121.274 115.112 122.654 115.112" stroke="url(#paint45_linear_104_1523)" stroke-width="1.82857" stroke-linecap="round" stroke-linejoin="round"/>
<defs>
<linearGradient id="paint0_linear_104_1523" x1="79.8515" y1="103.819" x2="148.66" y2="239.961" gradientUnits="userSpaceOnUse">
<stop stop-color="#A08060"/>
<stop offset="1"/>
</linearGradient>
<linearGradient id="paint1_linear_104_1523" x1="61.8413" y1="133.088" x2="140.624" y2="133.088" gradientUnits="userSpaceOnUse">
<stop/>
<stop offset="1"/>
</linearGradient>
<linearGradient id="paint2_linear_104_1523" x1="94.6523" y1="109.892" x2="117.474" y2="183.889" gradientUnits="userSpaceOnUse">
<stop stop-color="#A08060"/>
<stop offset="1"/>
</linearGradient>
<linearGradient id="paint3_linear_104_1523" x1="63.959" y1="141.113" x2="135.876" y2="141.113" gradientUnits="userSpaceOnUse">
<stop/>
<stop offset="1"/>
</linearGradient>
<linearGradient id="paint4_linear_104_1523" x1="105.374" y1="131.468" x2="124.911" y2="131.468" gradientUnits="userSpaceOnUse">
<stop/>
<stop offset="1"/>
</linearGradient>
<linearGradient id="paint5_linear_104_1523" x1="77.2495" y1="130.842" x2="96.8384" y2="130.842" gradientUnits="userSpaceOnUse">
<stop/>
<stop offset="1"/>
</linearGradient>
<linearGradient id="paint6_linear_104_1523" x1="95.9922" y1="140.885" x2="105.076" y2="140.885" gradientUnits="userSpaceOnUse">
<stop/>
<stop offset="1"/>
</linearGradient>
<linearGradient id="paint7_linear_104_1523" x1="79.6694" y1="161.72" x2="121.871" y2="161.72" gradientUnits="userSpaceOnUse">
<stop/>
<stop offset="1"/>
</linearGradient>
<linearGradient id="paint8_linear_104_1523" x1="99.0666" y1="161.776" x2="99.5218" y2="152.685" gradientUnits="userSpaceOnUse">
<stop stop-color="#A08060"/>
<stop offset="1"/>
</linearGradient>
<linearGradient id="paint9_linear_104_1523" x1="95.0856" y1="161.421" x2="101.237" y2="161.421" gradientUnits="userSpaceOnUse">
<stop/>
<stop offset="1"/>
</linearGradient>
<linearGradient id="paint10_linear_104_1523" x1="99.0666" y1="161.776" x2="99.5218" y2="152.685" gradientUnits="userSpaceOnUse">
<stop stop-color="#A08060"/>
<stop offset="1"/>
</linearGradient>
<linearGradient id="paint11_linear_104_1523" x1="99.3924" y1="161.618" x2="106.126" y2="161.618" gradientUnits="userSpaceOnUse">
<stop/>
<stop offset="1"/>
</linearGradient>
<linearGradient id="paint12_linear_104_1523" x1="99.0663" y1="161.776" x2="99.5215" y2="152.684" gradientUnits="userSpaceOnUse">
<stop stop-color="#A08060"/>
<stop offset="1"/>
</linearGradient>
<linearGradient id="paint13_linear_104_1523" x1="103.76" y1="161.33" x2="110.549" y2="161.33" gradientUnits="userSpaceOnUse">
<stop/>
<stop offset="1"/>
</linearGradient>
<linearGradient id="paint14_linear_104_1523" x1="99.066" y1="161.776" x2="99.5211" y2="152.684" gradientUnits="userSpaceOnUse">
<stop stop-color="#A08060"/>
<stop offset="1"/>
</linearGradient>
<linearGradient id="paint15_linear_104_1523" x1="108.939" y1="160.923" x2="113.916" y2="160.923" gradientUnits="userSpaceOnUse">
<stop/>
<stop offset="1"/>
</linearGradient>
<linearGradient id="paint16_linear_104_1523" x1="99.0668" y1="161.776" x2="99.522" y2="152.684" gradientUnits="userSpaceOnUse">
<stop stop-color="#A08060"/>
<stop offset="1"/>
</linearGradient>
<linearGradient id="paint17_linear_104_1523" x1="112.092" y1="160.673" x2="116.694" y2="160.673" gradientUnits="userSpaceOnUse">
<stop/>
<stop offset="1"/>
</linearGradient>
<linearGradient id="paint18_linear_104_1523" x1="99.0666" y1="161.776" x2="99.5218" y2="152.685" gradientUnits="userSpaceOnUse">
<stop stop-color="#A08060"/>
<stop offset="1"/>
</linearGradient>
<linearGradient id="paint19_linear_104_1523" x1="88.3093" y1="161.343" x2="93.9318" y2="161.343" gradientUnits="userSpaceOnUse">
<stop/>
<stop offset="1"/>
</linearGradient>
<linearGradient id="paint20_linear_104_1523" x1="99.0664" y1="161.776" x2="99.5216" y2="152.685" gradientUnits="userSpaceOnUse">
<stop stop-color="#A08060"/>
<stop offset="1"/>
</linearGradient>
<linearGradient id="paint21_linear_104_1523" x1="84.659" y1="160.975" x2="89.658" y2="160.975" gradientUnits="userSpaceOnUse">
<stop/>
<stop offset="1"/>
</linearGradient>
<linearGradient id="paint22_linear_104_1523" x1="99.0662" y1="161.776" x2="99.5214" y2="152.684" gradientUnits="userSpaceOnUse">
<stop stop-color="#A08060"/>
<stop offset="1"/>
</linearGradient>
<linearGradient id="paint23_linear_104_1523" x1="91.7303" y1="161.156" x2="97.1009" y2="161.156" gradientUnits="userSpaceOnUse">
<stop/>
<stop offset="1"/>
</linearGradient>
<linearGradient id="paint24_linear_104_1523" x1="99.0663" y1="161.776" x2="99.5215" y2="152.684" gradientUnits="userSpaceOnUse">
<stop stop-color="#A08060"/>
<stop offset="1"/>
</linearGradient>
<linearGradient id="paint25_linear_104_1523" x1="81.8938" y1="160.262" x2="86.6687" y2="160.262" gradientUnits="userSpaceOnUse">
<stop/>
<stop offset="1"/>
</linearGradient>
<linearGradient id="paint26_linear_104_1523" x1="99.0663" y1="161.776" x2="99.5215" y2="152.684" gradientUnits="userSpaceOnUse">
<stop stop-color="#A08060"/>
<stop offset="1"/>
</linearGradient>
<linearGradient id="paint27_linear_104_1523" x1="85.7498" y1="166.168" x2="90.2455" y2="166.168" gradientUnits="userSpaceOnUse">
<stop/>
<stop offset="1"/>
</linearGradient>
<linearGradient id="paint28_linear_104_1523" x1="99.0664" y1="161.776" x2="99.5216" y2="152.685" gradientUnits="userSpaceOnUse">
<stop stop-color="#A08060"/>
<stop offset="1"/>
</linearGradient>
<linearGradient id="paint29_linear_104_1523" x1="95.4919" y1="167.276" x2="100.113" y2="167.276" gradientUnits="userSpaceOnUse">
<stop/>
<stop offset="1"/>
</linearGradient>
<linearGradient id="paint30_linear_104_1523" x1="99.0663" y1="161.776" x2="99.5215" y2="152.685" gradientUnits="userSpaceOnUse">
<stop stop-color="#A08060"/>
<stop offset="1"/>
</linearGradient>
<linearGradient id="paint31_linear_104_1523" x1="98.385" y1="167.482" x2="103.044" y2="167.482" gradientUnits="userSpaceOnUse">
<stop/>
<stop offset="1"/>
</linearGradient>
<linearGradient id="paint32_linear_104_1523" x1="99.0662" y1="161.776" x2="99.5214" y2="152.684" gradientUnits="userSpaceOnUse">
<stop stop-color="#A08060"/>
<stop offset="1"/>
</linearGradient>
<linearGradient id="paint33_linear_104_1523" x1="101.733" y1="167.534" x2="106.725" y2="167.534" gradientUnits="userSpaceOnUse">
<stop/>
<stop offset="1"/>
</linearGradient>
<linearGradient id="paint34_linear_104_1523" x1="99.0664" y1="161.776" x2="99.5216" y2="152.684" gradientUnits="userSpaceOnUse">
<stop stop-color="#A08060"/>
<stop offset="1"/>
</linearGradient>
<linearGradient id="paint35_linear_104_1523" x1="91.7785" y1="167.693" x2="97.5256" y2="167.693" gradientUnits="userSpaceOnUse">
<stop/>
<stop offset="1"/>
</linearGradient>
<linearGradient id="paint36_linear_104_1523" x1="99.0666" y1="161.776" x2="99.5218" y2="152.684" gradientUnits="userSpaceOnUse">
<stop stop-color="#A08060"/>
<stop offset="1"/>
</linearGradient>
<linearGradient id="paint37_linear_104_1523" x1="88.6203" y1="167.165" x2="92.9841" y2="167.165" gradientUnits="userSpaceOnUse">
<stop/>
<stop offset="1"/>
</linearGradient>
<linearGradient id="paint38_linear_104_1523" x1="99.0661" y1="161.776" x2="99.5213" y2="152.684" gradientUnits="userSpaceOnUse">
<stop stop-color="#A08060"/>
<stop offset="1"/>
</linearGradient>
<linearGradient id="paint39_linear_104_1523" x1="105.7" y1="167.57" x2="111.17" y2="167.57" gradientUnits="userSpaceOnUse">
<stop/>
<stop offset="1"/>
</linearGradient>
<linearGradient id="paint40_linear_104_1523" x1="99.066" y1="161.776" x2="99.5212" y2="152.684" gradientUnits="userSpaceOnUse">
<stop stop-color="#A08060"/>
<stop offset="1"/>
</linearGradient>
<linearGradient id="paint41_linear_104_1523" x1="109.858" y1="166.542" x2="114.79" y2="166.542" gradientUnits="userSpaceOnUse">
<stop/>
<stop offset="1"/>
</linearGradient>
<linearGradient id="paint42_linear_104_1523" x1="64.5332" y1="97.1964" x2="101.808" y2="97.1964" gradientUnits="userSpaceOnUse">
<stop/>
<stop offset="1"/>
</linearGradient>
<linearGradient id="paint43_linear_104_1523" x1="96.4775" y1="98.0789" x2="137.551" y2="98.0789" gradientUnits="userSpaceOnUse">
<stop/>
<stop offset="1"/>
</linearGradient>
<linearGradient id="paint44_linear_104_1523" x1="78.9676" y1="116.657" x2="98.3878" y2="116.657" gradientUnits="userSpaceOnUse">
<stop/>
<stop offset="1"/>
</linearGradient>
<linearGradient id="paint45_linear_104_1523" x1="105.528" y1="116.32" x2="123.568" y2="116.32" gradientUnits="userSpaceOnUse">
<stop/>
<stop offset="1"/>
</linearGradient>
</defs>
</svg>
