<svg width="200" height="200" viewBox="0 0 200 200" fill="none" xmlns="http://www.w3.org/2000/svg">
<path fill-rule="evenodd" clip-rule="evenodd" d="M44.6429 163.2L44.5127 178.179L71.0515 195.385L149.63 193.975L149.535 181.128L124.136 160.802L44.6429 163.2V163.2Z" fill="url(#paint0_linear_104_1466)" stroke="url(#paint1_linear_104_1466)" stroke-width="3.74869" stroke-linecap="round" stroke-linejoin="round"/>
<path fill-rule="evenodd" clip-rule="evenodd" d="M77.9203 90.0486C77.1376 90.3819 76.691 91.5752 76.6638 93.7912C76.3743 117.442 70.9616 160.089 68.2827 168.528L79.5758 175.89L119.301 170.065C119.301 170.065 105.174 124.959 90.019 102.517C87.556 102.217 85.2029 101.554 83.0199 100.58C80.5396 97.5832 78.7585 93.9911 77.9203 90.0486V90.0486Z" fill="url(#paint2_linear_104_1466)" stroke="url(#paint3_linear_104_1466)" stroke-width="3.74869" stroke-linecap="round" stroke-linejoin="round"/>
<path fill-rule="evenodd" clip-rule="evenodd" d="M112.679 92.8774C108.189 98.839 101.051 102.698 93.0198 102.698C90.2307 102.698 87.5455 102.235 85.0452 101.378C88.343 135.795 80.7286 174.159 81.6084 175.955L126.153 175.092C126.153 175.092 113.473 127.584 117.705 100.073C115.064 98.2268 114.675 93.9959 112.679 92.8774V92.8774Z" fill="url(#paint4_linear_104_1466)" stroke="url(#paint5_linear_104_1466)" stroke-width="3.74869" stroke-linecap="round" stroke-linejoin="round"/>
<path d="M49.6357 167.794L72.4672 182.495L72.0522 191.406" stroke="url(#paint6_linear_104_1466)" stroke-width="3.74869" stroke-linecap="round" stroke-linejoin="round"/>
<path d="M75.7876 182.36L142.888 181.565" stroke="url(#paint7_linear_104_1466)" stroke-width="3.74869" stroke-linecap="round" stroke-linejoin="round"/>
<path fill-rule="evenodd" clip-rule="evenodd" d="M75.6264 73.173L89.0052 72.8447V63.3258L98.0358 61.0281L98.7047 82.3637L73.2852 82.0355L75.6264 73.173V73.173Z" fill="url(#paint8_linear_104_1466)" stroke="url(#paint9_linear_104_1466)" stroke-width="3.74868" stroke-linecap="round" stroke-linejoin="round"/>
<path opacity="0.99" fill-rule="evenodd" clip-rule="evenodd" d="M110.794 18.7427L77.2622 19.5115L80.019 42.3445C69.7363 45.1145 57.1348 56.5927 55.0308 69.0579L24.7212 66.7224L26.1032 97.7731L36.5168 101.545L58.2162 96.6271C65.5465 114.933 79.9799 118.88 89.2057 122.042C113.037 130.211 134.23 114.088 139.589 96.279L166.861 96.7214L168.243 65.2064L156.927 62.5518L137.682 64.6117C132.66 54.2742 128.853 48.4255 115.288 42.9828L116.973 22.5143L110.794 18.7427V18.7427ZM101.504 60.3033C101.556 60.3023 101.607 60.304 101.659 60.3033C101.765 60.3023 101.871 60.3033 101.977 60.3033C105.536 60.3033 108.921 61.0587 111.977 62.4212C115.5 66.6786 117.616 72.1409 117.616 78.0953C117.616 91.676 106.597 102.698 93.0194 102.698C89.4601 102.698 86.0749 101.943 83.0197 100.58C79.4962 96.3228 77.3805 90.8604 77.3805 84.906C77.3805 71.4841 88.1457 60.5568 101.504 60.3033V60.3033Z" fill="url(#paint10_linear_104_1466)" stroke="url(#paint11_linear_104_1466)" stroke-width="3.74868" stroke-linecap="round" stroke-linejoin="round"/>
<path opacity="0.99" d="M139.345 84.4427C139.345 94.4149 135.358 103.979 128.261 111.03C121.165 118.082 111.54 122.043 101.504 122.043C91.4679 122.043 81.8429 118.082 74.7464 111.03C67.6499 103.979 63.6631 94.4149 63.6631 84.4427C63.6631 74.4704 67.6499 64.9066 74.7464 57.8552C81.8429 50.8037 91.4679 46.8423 101.504 46.8423C111.54 46.8423 121.165 50.8037 128.261 57.8552C135.358 64.9066 139.345 74.4704 139.345 84.4427V84.4427Z" stroke="url(#paint12_linear_104_1466)" stroke-width="1.87434" stroke-linecap="round" stroke-linejoin="round"/>
<path d="M81.5371 22.7786L87.5082 25.4433L112.341 24.634" stroke="url(#paint13_linear_104_1466)" stroke-width="1.87434" stroke-linecap="round" stroke-linejoin="round"/>
<path opacity="0.99" fill-rule="evenodd" clip-rule="evenodd" d="M111.977 62.4214C115.5 66.6787 117.616 72.1411 117.616 78.0955C117.616 91.6762 106.597 102.698 93.0196 102.698C89.4603 102.698 86.0752 101.943 83.0199 100.58C87.5326 106.033 94.3529 109.509 101.977 109.509C115.555 109.509 126.574 98.4869 126.574 84.9062C126.574 74.8857 120.576 66.2562 111.977 62.4214V62.4214ZM78.2602 78.3711C78.238 78.4517 78.215 78.5295 78.1937 78.6105C78.2149 78.5302 78.2382 78.4511 78.2602 78.3711ZM77.3955 85.8128C77.3975 85.8583 77.4005 85.9052 77.4025 85.9506C77.4005 85.9046 77.3965 85.8589 77.3955 85.8128ZM77.4025 86.0159C77.4045 86.0612 77.4075 86.1084 77.4095 86.1537C77.4075 86.1077 77.4045 86.0619 77.4025 86.0159ZM77.4095 86.1755C77.4115 86.2154 77.4145 86.2517 77.4165 86.2915C77.4145 86.2524 77.4115 86.2146 77.4095 86.1755ZM77.4612 86.9081C77.4642 86.9489 77.4652 86.9907 77.4682 87.0314C77.4652 86.9909 77.4642 86.9486 77.4612 86.9081ZM77.5055 87.423C77.5135 87.5019 77.5263 87.5765 77.5351 87.6551C77.5261 87.5771 77.5135 87.5012 77.5055 87.423ZM77.5868 88.1484C77.5918 88.1877 77.6036 88.2252 77.609 88.2644C77.604 88.2243 77.5921 88.1885 77.5868 88.1484ZM79.1167 93.9944C79.1257 94.0173 79.1297 94.0441 79.1389 94.0669C79.1289 94.0425 79.1264 94.0188 79.1167 93.9944ZM82.1543 99.4706C82.1762 99.5003 82.1988 99.5279 82.2208 99.5575C82.199 99.5281 82.176 99.5001 82.1543 99.4706Z" fill="url(#paint14_linear_104_1466)" stroke="url(#paint15_linear_104_1466)" stroke-width="3.18608" stroke-linecap="round" stroke-linejoin="round"/>
<path d="M29.4263 70.9609L36.3607 74.0524L36.4604 95.8296" stroke="url(#paint16_linear_104_1466)" stroke-width="1.87434" stroke-linecap="round" stroke-linejoin="round"/>
<path d="M140.235 70.6695L161.364 68.355" stroke="url(#paint17_linear_104_1466)" stroke-width="1.87434" stroke-linecap="round" stroke-linejoin="round"/>
<path fill-rule="evenodd" clip-rule="evenodd" d="M100.933 61.7583C98.4052 61.7907 95.9793 62.2633 93.7294 63.0971L94.2039 64.3195V77.5655H80.7065L80.4297 77.2874C79.8171 79.3136 79.4873 81.4629 79.4873 83.6905C79.4873 85.6655 79.7463 87.5807 80.232 89.4016L94.2039 89.1558V104.058L93.9798 104.375C96.2425 105.181 98.681 105.623 101.216 105.623C103.918 105.623 105.791 104.891 108.178 103.981L107.912 103.23H108.123L107.701 89.1558L122.134 89.6215C122.659 87.7349 122.939 85.7455 122.939 83.6905C122.939 81.261 122.548 78.9225 121.825 76.7376H107.701L108.545 64.3195L109.263 63.317C106.773 62.313 104.06 61.7583 101.216 61.7583C101.122 61.7583 101.026 61.7573 100.933 61.7583V61.7583Z" fill="url(#paint18_linear_104_1466)" stroke="url(#paint19_linear_104_1466)" stroke-width="3.34277" stroke-linecap="round" stroke-linejoin="round"/>
<path fill-rule="evenodd" clip-rule="evenodd" d="M87.8057 89.9133L88.0016 100.745L94.022 104.028L93.3531 90.2416L87.8057 89.9133V89.9133Z" fill="url(#paint20_linear_104_1466)" stroke="url(#paint21_linear_104_1466)" stroke-width="3.74868" stroke-linecap="round" stroke-linejoin="round"/>
<path fill-rule="evenodd" clip-rule="evenodd" d="M108.755 72.3872C110.41 72.3872 117.269 72.3872 117.269 72.3872L122.945 76.565H107.809L108.755 72.3872V72.3872Z" fill="url(#paint22_linear_104_1466)" stroke="url(#paint23_linear_104_1466)" stroke-width="3.74868" stroke-linecap="round" stroke-linejoin="round"/>
<path d="M88.6768 44.2093L87.2427 28.4668" stroke="url(#paint24_linear_104_1466)" stroke-width="1.87434" stroke-linecap="round" stroke-linejoin="round"/>
<path d="M59.2854 74.4795L39.79 74.4925" stroke="url(#paint25_linear_104_1466)" stroke-width="1.87434" stroke-linecap="round" stroke-linejoin="round"/>
<defs>
<linearGradient id="paint0_linear_104_1466" x1="100.663" y1="140.463" x2="106.643" y2="202.378" gradientUnits="userSpaceOnUse">
<stop stop-color="#A08060"/>
<stop offset="1"/>
</linearGradient>
<linearGradient id="paint1_linear_104_1466" x1="42.6383" y1="178.094" x2="151.504" y2="178.094" gradientUnits="userSpaceOnUse">
<stop/>
<stop offset="1"/>
</linearGradient>
<linearGradient id="paint2_linear_104_1466" x1="60.8037" y1="83.8544" x2="149.006" y2="130.772" gradientUnits="userSpaceOnUse">
<stop stop-color="#A08060"/>
<stop offset="1"/>
</linearGradient>
<linearGradient id="paint3_linear_104_1466" x1="66.4084" y1="132.969" x2="121.176" y2="132.969" gradientUnits="userSpaceOnUse">
<stop/>
<stop offset="1"/>
</linearGradient>
<linearGradient id="paint4_linear_104_1466" x1="103.102" y1="84.2612" x2="176.032" y2="183.574" gradientUnits="userSpaceOnUse">
<stop stop-color="#A08060"/>
<stop offset="1"/>
</linearGradient>
<linearGradient id="paint5_linear_104_1466" x1="79.6628" y1="134.416" x2="128.027" y2="134.416" gradientUnits="userSpaceOnUse">
<stop/>
<stop offset="1"/>
</linearGradient>
<linearGradient id="paint6_linear_104_1466" x1="47.7614" y1="179.6" x2="74.3415" y2="179.6" gradientUnits="userSpaceOnUse">
<stop/>
<stop offset="1"/>
</linearGradient>
<linearGradient id="paint7_linear_104_1466" x1="73.9132" y1="181.962" x2="144.762" y2="181.962" gradientUnits="userSpaceOnUse">
<stop/>
<stop offset="1"/>
</linearGradient>
<linearGradient id="paint8_linear_104_1466" x1="71.3931" y1="71.6959" x2="100.597" y2="71.6959" gradientUnits="userSpaceOnUse">
<stop stop-color="#A08060"/>
<stop offset="1"/>
</linearGradient>
<linearGradient id="paint9_linear_104_1466" x1="71.4108" y1="71.6959" x2="100.579" y2="71.6959" gradientUnits="userSpaceOnUse">
<stop/>
<stop offset="1"/>
</linearGradient>
<linearGradient id="paint10_linear_104_1466" x1="48.9987" y1="38.8495" x2="149.094" y2="152.806" gradientUnits="userSpaceOnUse">
<stop stop-color="#A08060"/>
<stop offset="1"/>
</linearGradient>
<linearGradient id="paint11_linear_104_1466" x1="22.8469" y1="71.4837" x2="170.117" y2="71.4837" gradientUnits="userSpaceOnUse">
<stop/>
<stop offset="1"/>
</linearGradient>
<linearGradient id="paint12_linear_104_1466" x1="62.7171" y1="84.4427" x2="140.291" y2="84.4427" gradientUnits="userSpaceOnUse">
<stop/>
<stop offset="1"/>
</linearGradient>
<linearGradient id="paint13_linear_104_1466" x1="80.5999" y1="24.1109" x2="113.278" y2="24.1109" gradientUnits="userSpaceOnUse">
<stop/>
<stop offset="1"/>
</linearGradient>
<linearGradient id="paint14_linear_104_1466" x1="174.657" y1="117.38" x2="68.5225" y2="68.1571" gradientUnits="userSpaceOnUse">
<stop stop-color="#A08060"/>
<stop offset="1"/>
</linearGradient>
<linearGradient id="paint15_linear_104_1466" x1="75.8025" y1="85.9652" x2="128.167" y2="85.9652" gradientUnits="userSpaceOnUse">
<stop/>
<stop offset="1"/>
</linearGradient>
<linearGradient id="paint16_linear_104_1466" x1="28.4891" y1="83.3953" x2="37.3975" y2="83.3953" gradientUnits="userSpaceOnUse">
<stop/>
<stop offset="1"/>
</linearGradient>
<linearGradient id="paint17_linear_104_1466" x1="139.298" y1="69.5123" x2="162.301" y2="69.5123" gradientUnits="userSpaceOnUse">
<stop/>
<stop offset="1"/>
</linearGradient>
<linearGradient id="paint18_linear_104_1466" x1="59.3528" y1="54.9958" x2="126.054" y2="106.716" gradientUnits="userSpaceOnUse">
<stop stop-color="#A08060"/>
<stop offset="1"/>
</linearGradient>
<linearGradient id="paint19_linear_104_1466" x1="77.8159" y1="83.6903" x2="124.61" y2="83.6903" gradientUnits="userSpaceOnUse">
<stop/>
<stop offset="1"/>
</linearGradient>
<linearGradient id="paint20_linear_104_1466" x1="85.4406" y1="97.4629" x2="95.2451" y2="97.4629" gradientUnits="userSpaceOnUse">
<stop stop-color="#A08060"/>
<stop offset="1"/>
</linearGradient>
<linearGradient id="paint21_linear_104_1466" x1="85.9313" y1="96.9705" x2="95.8964" y2="96.9705" gradientUnits="userSpaceOnUse">
<stop/>
<stop offset="1"/>
</linearGradient>
<linearGradient id="paint22_linear_104_1466" x1="105.917" y1="74.4761" x2="124.837" y2="74.4761" gradientUnits="userSpaceOnUse">
<stop stop-color="#A08060"/>
<stop offset="1"/>
</linearGradient>
<linearGradient id="paint23_linear_104_1466" x1="105.934" y1="74.4761" x2="124.819" y2="74.4761" gradientUnits="userSpaceOnUse">
<stop/>
<stop offset="1"/>
</linearGradient>
<linearGradient id="paint24_linear_104_1466" x1="86.3055" y1="36.338" x2="89.6139" y2="36.338" gradientUnits="userSpaceOnUse">
<stop/>
<stop offset="1"/>
</linearGradient>
<linearGradient id="paint25_linear_104_1466" x1="38.8529" y1="74.486" x2="60.2226" y2="74.486" gradientUnits="userSpaceOnUse">
<stop/>
<stop offset="1"/>
</linearGradient>
</defs>
</svg>
