<svg width="200" height="200" viewBox="0 0 200 200" fill="none" xmlns="http://www.w3.org/2000/svg">
<path fill-rule="evenodd" clip-rule="evenodd" d="M74.7136 63.837C61.9404 79.2643 52.8088 111.512 68.3895 139.079C81.2828 161.891 39.0562 168.045 40.8325 183.458C65.5808 183.41 134.641 182.828 158.748 183.67C160.209 169.241 119.096 169.716 131.968 135.355C140.421 112.789 142.937 66.1016 126.972 50.3499C116.505 40.0222 97.3006 36.5571 74.7136 63.837V63.837Z" fill="url(#paint0_linear_104_1656)" stroke="url(#paint1_linear_104_1656)" stroke-width="3.65714"/>
<path fill-rule="evenodd" clip-rule="evenodd" d="M49.342 192.157C46.1519 186.875 54.5859 162.638 60.0103 159.174C64.9377 156.027 89.9078 190.057 90.5282 193.048L49.342 192.157Z" fill="url(#paint2_linear_104_1656)" stroke="url(#paint3_linear_104_1656)" stroke-width="3.65714" stroke-linecap="round" stroke-linejoin="round"/>
<path fill-rule="evenodd" clip-rule="evenodd" d="M53.6846 187.814C53.7293 188.711 53.8684 180.281 54.9026 177.69C56.1594 174.27 57.418 168.608 59.7 165.783C60.514 164.822 62.5446 167.71 63.4371 168.332C65.3245 169.58 71.4919 184.416 72.514 186.862C73.2422 188.288 71.5669 188.531 70.5607 188.336C68.722 188.311 54.3358 188.475 53.6846 187.814V187.814Z" fill="url(#paint4_linear_104_1656)"/>
<path fill-rule="evenodd" clip-rule="evenodd" d="M81.6864 76.4333C79.0292 76.4879 76.5836 77.2767 74.6016 79.091C69.2392 83.9996 62.0704 113.727 73.0915 132.802C76.9847 139.541 82.6815 152.761 97.4733 156.602C103.954 143.728 104.82 146.116 113.046 131.809C123.355 113.876 112.992 97.255 106.244 89.3347C102.036 84.3964 90.7983 76.3676 81.8762 76.4333C81.8122 76.4337 81.7501 76.4323 81.6864 76.4333V76.4333ZM101.295 101.323C101.305 101.331 111.834 103.666 102.755 106.589C99.535 107.625 94.8883 107.236 95.6364 104.929C96.6587 101.777 101.285 101.316 101.295 101.323V101.323ZM81.5429 101.183C85.0239 103.272 89.4556 105.089 85.5172 106.074C81.2586 107.138 79.3558 107.472 76.8827 105.073C74.1265 102.399 76.3399 102.945 81.5429 101.183V101.183Z" fill="url(#paint5_linear_104_1656)"/>
<path fill-rule="evenodd" clip-rule="evenodd" d="M104.178 196.189L98.0811 195.516L165.629 52.2655C165.629 52.2655 159.308 43.5689 146.887 38.4183C138.549 34.9609 121.591 32.2749 121.591 32.2749C122.304 27.5009 146.26 26.973 160.244 32.1041C172.723 36.6829 176.332 43.3501 175.419 49.4635L104.178 196.189Z" fill="url(#paint6_linear_104_1656)" stroke="url(#paint7_linear_104_1656)" stroke-width="3.65714"/>
<path fill-rule="evenodd" clip-rule="evenodd" d="M44.0199 159.404C41.718 158.632 37.4165 156.69 35.8829 157.303C33.9445 158.078 33.9469 160.811 34.4823 161.346C35.7954 162.659 39.3566 163.474 41.7567 163.474C44.8972 163.474 43.4284 159.286 42.1339 159.027" fill="url(#paint8_linear_104_1656)"/>
<path d="M44.0199 159.404C41.718 158.632 37.4165 156.69 35.8829 157.303C33.9445 158.078 33.9469 160.811 34.4823 161.346C35.7954 162.659 39.3566 163.474 41.7567 163.474C44.8972 163.474 43.4284 159.286 42.1339 159.027" stroke="url(#paint9_linear_104_1656)" stroke-width="2.13383" stroke-linecap="round" stroke-linejoin="round"/>
<path fill-rule="evenodd" clip-rule="evenodd" d="M43.7114 167.017C46.6266 167.017 39.6373 165.339 36.0298 164.308C32.739 163.368 34.4882 167.183 35.4912 168.901C36.1162 169.972 42.5095 170.389 43.7114 170.789C44.4752 171.044 42.7719 169.473 42.2026 168.903C41.6333 168.334 43.2085 167.646 43.7114 167.017V167.017Z" fill="url(#paint10_linear_104_1656)" stroke="url(#paint11_linear_104_1656)" stroke-width="2.13383" stroke-linecap="round" stroke-linejoin="round"/>
<path fill-rule="evenodd" clip-rule="evenodd" d="M43.5518 172.973C42.6161 172.037 40.4062 171.023 39.0253 170.332C37.0697 169.354 36.1148 173.402 36.3848 174.482C36.6187 175.417 41.0041 176.202 41.4501 176.314C43.612 176.854 43.3012 173.975 43.5518 172.973Z" fill="url(#paint12_linear_104_1656)" stroke="url(#paint13_linear_104_1656)" stroke-width="2.13383" stroke-linecap="round" stroke-linejoin="round"/>
<path fill-rule="evenodd" clip-rule="evenodd" d="M47.8606 160.227C48.0435 160.273 50.6668 163.621 51.9452 164.708C53.4916 166.023 54.9577 167.292 55.984 169.345C57.8412 173.059 62.5179 178.676 55.7174 171.875C54.2855 170.443 50.4434 169.071 49.262 167.772C48.2588 166.668 46.2869 164.624 45.6621 163.999C44.3455 162.683 45.5882 160.682 47.8606 160.227V160.227Z" fill="url(#paint14_linear_104_1656)" stroke="url(#paint15_linear_104_1656)" stroke-width="2.13383" stroke-linecap="round" stroke-linejoin="round"/>
<path fill-rule="evenodd" clip-rule="evenodd" d="M46.3976 166.861C44.7582 165.222 51.3729 168.948 53.0123 170.587C54.1802 171.755 56.5273 174.636 57.0511 175.16C57.1294 175.238 53.4315 175.139 53.1227 174.984C50.7852 173.816 46.0871 171.815 44.5116 170.633C44.1525 170.364 43.7354 168.069 43.7577 168.047" fill="url(#paint16_linear_104_1656)"/>
<path d="M46.3976 166.861C44.7582 165.222 51.3729 168.948 53.0123 170.587C54.1802 171.755 56.5273 174.636 57.0511 175.16C57.1294 175.238 53.4315 175.139 53.1227 174.984C50.7852 173.816 46.0871 171.815 44.5116 170.633C44.1525 170.364 43.7354 168.069 43.7577 168.047" stroke="url(#paint17_linear_104_1656)" stroke-width="2.13383" stroke-linecap="round" stroke-linejoin="round"/>
<path fill-rule="evenodd" clip-rule="evenodd" d="M45.2168 177.294C43.6042 176.084 45.2313 172.8 47.1868 173.289C52.2755 174.561 57.2839 178.366 54.2517 178.366C51.3268 178.366 47.5765 178.473 45.2168 177.294V177.294Z" fill="url(#paint18_linear_104_1656)" stroke="url(#paint19_linear_104_1656)" stroke-width="2.13383" stroke-linecap="round" stroke-linejoin="round"/>
<path fill-rule="evenodd" clip-rule="evenodd" d="M46.7908 153.015C45.9739 152.969 41.1159 151.133 39.4029 151.036C38.1545 150.966 36.798 151.963 35.7968 152.395C33.9258 153.203 39.5122 156.029 39.5421 156.039C40.898 156.46 42.2386 157.536 43.6696 156.919C44.3671 156.618 46.3639 153.643 46.7908 153.015V153.015Z" fill="url(#paint20_linear_104_1656)" stroke="url(#paint21_linear_104_1656)" stroke-width="2.13383" stroke-linecap="round" stroke-linejoin="round"/>
<path fill-rule="evenodd" clip-rule="evenodd" d="M33.7115 150.627C38.7002 149.24 28.9857 147.876 26.3016 146.563C22.1913 144.553 21.227 145.898 22.4541 148.432C22.9679 149.493 24.6369 150.371 25.5002 150.928C26.6852 151.693 28.9146 152.409 30.3213 152.683C32.5876 153.125 33.1446 153.534 33.7115 150.627Z" fill="url(#paint22_linear_104_1656)" stroke="url(#paint23_linear_104_1656)" stroke-width="2.13383" stroke-linecap="round" stroke-linejoin="round"/>
<path fill-rule="evenodd" clip-rule="evenodd" d="M48.9714 155.932C48.9718 154.064 56.4519 164.51 58.7432 166.229C61.2605 168.117 59.165 170.667 55.2113 166.714C53.9315 165.434 52.0383 163.942 50.3537 162.98C48.9962 162.204 47.3512 159.375 46.5629 157.799C45.9667 156.606 48.6054 157.762 48.9714 155.932V155.932Z" fill="url(#paint24_linear_104_1656)" stroke="url(#paint25_linear_104_1656)" stroke-width="2.13383" stroke-linecap="round" stroke-linejoin="round"/>
<path fill-rule="evenodd" clip-rule="evenodd" d="M62.6714 171.54C62.0241 170.245 64.1188 174.513 63.4715 175.807C62.7236 177.303 59.4369 174.851 59.1394 174.256C58.4773 172.931 60.1861 171.446 59.3982 171.273C57.9409 170.952 62.2268 171.451 62.6714 171.54V171.54Z" fill="url(#paint26_linear_104_1656)" stroke="url(#paint27_linear_104_1656)" stroke-width="2.13383" stroke-linecap="round" stroke-linejoin="round"/>
<path fill-rule="evenodd" clip-rule="evenodd" d="M57.919 176.284C58.0385 176.165 63.0615 176.496 60.1658 178.952C57.6219 181.109 55.8823 180.937 55.8823 178.806C55.8823 177.875 56.693 176.897 57.919 176.284V176.284Z" fill="url(#paint28_linear_104_1656)" stroke="url(#paint29_linear_104_1656)" stroke-width="2.13383" stroke-linecap="round" stroke-linejoin="round"/>
<path fill-rule="evenodd" clip-rule="evenodd" d="M64.9431 177.295C64.9431 175.742 68.0524 180.631 66.8102 181.562C65.7915 182.326 62.954 182.686 61.5728 182.686C60.3866 182.686 62.7683 180.381 62.5346 179.218C62.183 177.469 64.8866 177.351 64.9431 177.295V177.295Z" fill="url(#paint30_linear_104_1656)" stroke="url(#paint31_linear_104_1656)" stroke-width="2.13383" stroke-linecap="round" stroke-linejoin="round"/>
<defs>
<linearGradient id="paint0_linear_104_1656" x1="65.531" y1="89.7552" x2="141.466" y2="173.187" gradientUnits="userSpaceOnUse">
<stop stop-color="white"/>
<stop offset="1"/>
</linearGradient>
<linearGradient id="paint1_linear_104_1656" x1="38.9492" y1="113.202" x2="160.614" y2="113.202" gradientUnits="userSpaceOnUse">
<stop/>
<stop offset="1"/>
</linearGradient>
<linearGradient id="paint2_linear_104_1656" x1="49.3176" y1="175.054" x2="99.9416" y2="195.331" gradientUnits="userSpaceOnUse">
<stop stop-color="white"/>
<stop offset="1"/>
</linearGradient>
<linearGradient id="paint3_linear_104_1656" x1="46.813" y1="176.009" x2="92.3568" y2="176.009" gradientUnits="userSpaceOnUse">
<stop/>
<stop offset="1"/>
</linearGradient>
<linearGradient id="paint4_linear_104_1656" x1="53.6846" y1="176.992" x2="72.6921" y2="176.992" gradientUnits="userSpaceOnUse">
<stop/>
<stop offset="1"/>
</linearGradient>
<linearGradient id="paint5_linear_104_1656" x1="67.3096" y1="116.517" x2="117.399" y2="116.517" gradientUnits="userSpaceOnUse">
<stop/>
<stop offset="1"/>
</linearGradient>
<linearGradient id="paint6_linear_104_1656" x1="131.949" y1="56.4326" x2="194.397" y2="107.391" gradientUnits="userSpaceOnUse">
<stop stop-color="white"/>
<stop offset="1"/>
</linearGradient>
<linearGradient id="paint7_linear_104_1656" x1="96.2525" y1="112.33" x2="177.382" y2="112.33" gradientUnits="userSpaceOnUse">
<stop/>
<stop offset="1"/>
</linearGradient>
<linearGradient id="paint8_linear_104_1656" x1="44.5307" y1="167.048" x2="81.1002" y2="192.585" gradientUnits="userSpaceOnUse">
<stop stop-color="white"/>
<stop offset="1"/>
</linearGradient>
<linearGradient id="paint9_linear_104_1656" x1="33.1094" y1="160.329" x2="45.0868" y2="160.329" gradientUnits="userSpaceOnUse">
<stop/>
<stop offset="1"/>
</linearGradient>
<linearGradient id="paint10_linear_104_1656" x1="44.5307" y1="167.048" x2="81.1002" y2="192.584" gradientUnits="userSpaceOnUse">
<stop stop-color="white"/>
<stop offset="1"/>
</linearGradient>
<linearGradient id="paint11_linear_104_1656" x1="33.0532" y1="167.489" x2="45.4721" y2="167.489" gradientUnits="userSpaceOnUse">
<stop/>
<stop offset="1"/>
</linearGradient>
<linearGradient id="paint12_linear_104_1656" x1="44.5309" y1="167.048" x2="81.1006" y2="192.585" gradientUnits="userSpaceOnUse">
<stop stop-color="white"/>
<stop offset="1"/>
</linearGradient>
<linearGradient id="paint13_linear_104_1656" x1="35.2729" y1="173.281" x2="44.6187" y2="173.281" gradientUnits="userSpaceOnUse">
<stop/>
<stop offset="1"/>
</linearGradient>
<linearGradient id="paint14_linear_104_1656" x1="44.5305" y1="167.048" x2="81.1001" y2="192.584" gradientUnits="userSpaceOnUse">
<stop stop-color="white"/>
<stop offset="1"/>
</linearGradient>
<linearGradient id="paint15_linear_104_1656" x1="44.0576" y1="167.648" x2="60.3519" y2="167.648" gradientUnits="userSpaceOnUse">
<stop/>
<stop offset="1"/>
</linearGradient>
<linearGradient id="paint16_linear_104_1656" x1="44.5307" y1="167.048" x2="81.1002" y2="192.585" gradientUnits="userSpaceOnUse">
<stop stop-color="white"/>
<stop offset="1"/>
</linearGradient>
<linearGradient id="paint17_linear_104_1656" x1="42.6899" y1="170.82" x2="58.1192" y2="170.82" gradientUnits="userSpaceOnUse">
<stop/>
<stop offset="1"/>
</linearGradient>
<linearGradient id="paint18_linear_104_1656" x1="44.5308" y1="167.048" x2="81.1004" y2="192.585" gradientUnits="userSpaceOnUse">
<stop stop-color="white"/>
<stop offset="1"/>
</linearGradient>
<linearGradient id="paint19_linear_104_1656" x1="43.4931" y1="175.804" x2="56.2389" y2="175.804" gradientUnits="userSpaceOnUse">
<stop/>
<stop offset="1"/>
</linearGradient>
<linearGradient id="paint20_linear_104_1656" x1="44.5307" y1="167.048" x2="81.1002" y2="192.584" gradientUnits="userSpaceOnUse">
<stop stop-color="white"/>
<stop offset="1"/>
</linearGradient>
<linearGradient id="paint21_linear_104_1656" x1="34.3467" y1="154.069" x2="47.8577" y2="154.069" gradientUnits="userSpaceOnUse">
<stop/>
<stop offset="1"/>
</linearGradient>
<linearGradient id="paint22_linear_104_1656" x1="44.5307" y1="167.048" x2="81.1002" y2="192.584" gradientUnits="userSpaceOnUse">
<stop stop-color="white"/>
<stop offset="1"/>
</linearGradient>
<linearGradient id="paint23_linear_104_1656" x1="20.8911" y1="149.293" x2="36.1812" y2="149.293" gradientUnits="userSpaceOnUse">
<stop/>
<stop offset="1"/>
</linearGradient>
<linearGradient id="paint24_linear_104_1656" x1="44.5308" y1="167.048" x2="81.1004" y2="192.584" gradientUnits="userSpaceOnUse">
<stop stop-color="white"/>
<stop offset="1"/>
</linearGradient>
<linearGradient id="paint25_linear_104_1656" x1="45.4087" y1="162.253" x2="60.9046" y2="162.253" gradientUnits="userSpaceOnUse">
<stop/>
<stop offset="1"/>
</linearGradient>
<linearGradient id="paint26_linear_104_1656" x1="44.5305" y1="167.048" x2="81.1" y2="192.584" gradientUnits="userSpaceOnUse">
<stop stop-color="white"/>
<stop offset="1"/>
</linearGradient>
<linearGradient id="paint27_linear_104_1656" x1="57.9165" y1="173.725" x2="64.6642" y2="173.725" gradientUnits="userSpaceOnUse">
<stop/>
<stop offset="1"/>
</linearGradient>
<linearGradient id="paint28_linear_104_1656" x1="44.5306" y1="167.048" x2="81.1001" y2="192.584" gradientUnits="userSpaceOnUse">
<stop stop-color="white"/>
<stop offset="1"/>
</linearGradient>
<linearGradient id="paint29_linear_104_1656" x1="54.8154" y1="178.376" x2="62.1308" y2="178.376" gradientUnits="userSpaceOnUse">
<stop/>
<stop offset="1"/>
</linearGradient>
<linearGradient id="paint30_linear_104_1656" x1="44.5306" y1="167.048" x2="81.1001" y2="192.584" gradientUnits="userSpaceOnUse">
<stop stop-color="white"/>
<stop offset="1"/>
</linearGradient>
<linearGradient id="paint31_linear_104_1656" x1="60.1728" y1="179.839" x2="68.1701" y2="179.839" gradientUnits="userSpaceOnUse">
<stop/>
<stop offset="1"/>
</linearGradient>
</defs>
</svg>
