<svg width="200" height="200" viewBox="0 0 200 200" fill="none" xmlns="http://www.w3.org/2000/svg">
<path d="M45.3457 118.526C46.464 120.446 47.012 121.523 49.7697 122.212C51.3803 122.615 50.8757 119.574 50.8757 117.788C50.8757 114.994 51.5181 114.702 53.4563 113.733C55.3211 112.8 56.3835 115.901 56.7742 116.682C57.7023 118.538 60.2192 117.661 61.1982 116.682C62.5232 115.357 62.3042 113.731 62.3042 111.521C62.3042 110.811 60.4609 110.067 60.4609 107.834C60.4609 107.286 64.7759 107.466 65.6222 107.466C65.9378 107.466 68.7705 111.351 68.9401 111.521C70.3826 112.963 72.2914 112.192 72.9954 110.784C73.9237 108.927 71.6436 107.711 70.4148 107.097C69.2058 106.492 69.1773 103.622 68.9401 102.673C68.5186 100.987 72.6112 102.516 74.1014 103.41C76.3394 104.753 75.2534 106.348 78.1567 105.622C80.4026 105.061 79.4773 102.656 78.894 101.198C78.5068 100.23 77.1484 99.919 76.6821 98.9863" stroke="url(#paint0_linear_104_1704)" stroke-width="1.82857" stroke-linecap="round" stroke-linejoin="round"/>
<path fill-rule="evenodd" clip-rule="evenodd" d="M117.11 167.713C110.598 172.186 119.729 179.873 113.507 184.762C107.202 190.503 111.239 189.135 103.385 190.733C97.9514 192.187 79.7875 192.817 85.1887 188.968C92.3464 183.845 95.2141 175.468 101.096 169.352C104.706 166.681 119.953 153.819 117.11 167.713Z" fill="url(#paint1_linear_104_1704)" stroke="url(#paint2_linear_104_1704)" stroke-width="3.65714"/>
<path fill-rule="evenodd" clip-rule="evenodd" d="M153.574 161.946C153.719 160.126 155.161 158.361 154.345 156.517C153.567 155.126 152.956 153.169 154.118 151.809C156.078 149.709 159.065 149.311 161.555 148.128C162.953 147.618 164.366 147.148 165.8 146.75C167.453 147.147 168.007 149.099 167.8 150.599C167.658 154.173 167.131 157.754 167.517 161.327C167.635 163.646 167.356 165.989 167.854 168.278C168.063 169.535 168.286 170.944 167.442 172.034C166.519 173.503 164.56 174.175 162.955 173.465C161.111 172.873 160.154 171.065 158.747 169.891C157.18 168.634 155.058 168.022 153.861 166.345C153.166 164.977 153.542 163.404 153.574 161.946V161.946Z" fill="url(#paint3_linear_104_1704)" stroke="url(#paint4_linear_104_1704)" stroke-width="3.65714" stroke-linecap="round" stroke-linejoin="round"/>
<path fill-rule="evenodd" clip-rule="evenodd" d="M155.009 164.023C156.655 162.722 153.437 162.994 156.41 162.433C159.384 161.872 162.648 163.227 164.34 165.741C165.165 166.727 166.007 168.067 167.377 168.241C169.96 168.13 169.714 165.012 170.872 163.538C172.362 162.411 173.58 164.139 173.079 165.562C172.929 167.514 173.575 169.328 174.425 171.022C174.884 172.903 174.661 174.979 175.761 176.672C177.682 180.695 177.567 185.258 177.416 189.606C175.56 189.955 176.164 186.931 175.505 185.794C175.104 183.46 175.437 180.995 174.743 178.728C173.379 177.047 171.446 179.618 172.425 181.048C172.268 182.979 171.144 184.976 169.845 186.277C169.881 184.978 169.357 183.128 167.648 183.443C165.375 184.045 167.792 186.817 165.92 187.637C164.246 187.777 163.521 185.616 162.864 184.378C161.897 181.817 161.655 179.05 160.66 176.493C159.612 173.69 159.048 170.434 156.658 168.406C155.229 167.681 153.363 165.324 155.009 164.023V164.023Z" fill="url(#paint5_linear_104_1704)" stroke="url(#paint6_linear_104_1704)" stroke-width="3.65714" stroke-linecap="round" stroke-linejoin="round"/>
<path fill-rule="evenodd" clip-rule="evenodd" d="M153.202 136.53C153.087 134.707 154.265 132.756 153.195 131.046C152.228 129.779 151.345 127.929 152.303 126.417C153.945 124.062 156.847 123.244 159.144 121.72C160.455 121.017 161.787 120.351 163.151 119.754C164.842 119.912 165.668 121.766 165.676 123.281C166.042 126.839 166.028 130.458 166.917 133.94C167.362 136.219 167.418 138.578 168.235 140.774C168.62 141.988 169.041 143.351 168.36 144.55C167.654 146.134 165.811 147.078 164.121 146.603C162.211 146.278 161.008 144.623 159.448 143.661C157.72 142.639 155.532 142.334 154.109 140.843C153.227 139.588 153.377 137.977 153.202 136.53H153.202Z" fill="url(#paint7_linear_104_1704)" stroke="url(#paint8_linear_104_1704)" stroke-width="3.65714" stroke-linecap="round" stroke-linejoin="round"/>
<path fill-rule="evenodd" clip-rule="evenodd" d="M153.808 139.409C154.641 138.861 153.2 137.601 154.813 137.693C158.111 136.5 161.909 137.905 164.036 140.597C165.167 142.162 167.953 142.498 168.513 140.248C168.938 138.881 169.002 135.405 171.247 136.637C172.555 137.731 171.611 139.515 172.41 140.853C173.166 142.613 174.402 144.17 174.666 146.121C174.971 147.961 176.272 149.315 177.047 150.94C178.656 154.321 179.058 158.098 179.424 161.778C177.523 161.843 177.635 159.451 177.117 158.169C176.263 156.263 176.386 154.059 175.628 152.105C175.024 149.621 172.043 151.957 173.047 153.768C173.938 155.423 172.235 158.789 171.471 159.188C171.708 157.254 168.272 155.746 168.108 158.216C168.404 159.417 168.633 162.135 166.608 161.172C164.223 159.577 163.489 156.606 162.437 154.099C161.428 151.505 160.123 149.038 158.814 146.587C157.92 145.009 156.584 143.675 154.917 142.939C153.857 142.206 152.623 140.594 153.808 139.409V139.409Z" fill="url(#paint9_linear_104_1704)" stroke="url(#paint10_linear_104_1704)" stroke-width="3.65714" stroke-linecap="round" stroke-linejoin="round"/>
<path fill-rule="evenodd" clip-rule="evenodd" d="M97.277 58.9892C100.695 63.7675 125.218 95.031 109.626 110.21C102.641 117.427 93.7444 120.049 83.6264 119.321C74.5908 122.704 41.8305 142.402 31.6259 147.326C27.7483 147.869 21.1563 145.83 21.6129 142.867C26.1899 140.483 30.4532 140.636 33.2896 137.242C39.3178 135.839 45.4504 131.852 48.0136 123.582C53.7188 122.178 73.8943 108.809 80.2463 102.812C83.2896 99.2692 88.7237 95.5106 90.8585 91.3057C93.0905 86.1155 91.8891 72.1806 89.9749 65.8998C97.4659 75.1237 89.0914 51.699 97.277 58.9892V58.9892Z" fill="url(#paint11_linear_104_1704)" stroke="url(#paint12_linear_104_1704)" stroke-width="3.65714" stroke-linecap="round" stroke-linejoin="round"/>
<path fill-rule="evenodd" clip-rule="evenodd" d="M92.1087 33.3663C95.5036 32.9684 99.8782 35.6288 98.5285 39.4549C97.9861 42.7725 95.512 45.5951 92.275 46.5081C88.6978 48.4097 84.2375 47.6074 80.7742 49.5715C77.9465 53.1994 84.5774 62.7525 87.4271 62.4703C86.7849 67.9691 86.5078 85.8165 86.049 88.2997C85.1031 92.1913 74.078 100.233 69.1968 103.711C66.5477 107.253 61.1458 108.231 58.601 104.013C55.9772 101.123 59.4986 78.4441 62.1525 71.3056C63.6128 67.2523 69.5132 45.4803 74.45 40.5104C76.142 39.3776 88.0031 33.6585 92.1087 33.3663V33.3663Z" fill="url(#paint13_linear_104_1704)" stroke="url(#paint14_linear_104_1704)" stroke-width="3.65714" stroke-linecap="round" stroke-linejoin="round"/>
<path fill-rule="evenodd" clip-rule="evenodd" d="M79.5371 36.5941C78.6278 35.4156 65.6575 45.3961 62.3132 49.3893C56.1758 57.0398 48.2076 67.1594 44.9395 73.247C41.4107 76.7755 25.7266 95.6721 20.278 113.287C22.0428 112.223 30.3685 103.095 32.9412 101.857C36.1435 98.5826 29.0188 115.523 26.0001 120.145C22.8612 121.946 22.5153 125.625 21.3034 129.026C20.305 132.363 19.0076 135.839 20.9016 138.974C24.5192 137.505 28.0945 133.575 32.7058 132.85C34.1747 128.829 35.294 120.838 42.1963 120.048C49.0125 119.023 55.1772 115.551 60.2073 110.918C63.6837 107.226 79.3839 96.8669 79.216 95.844C73.4867 97.2199 67.2646 100.375 61.191 99.654C64.0446 95.6297 79.0486 80.0236 81.9176 74.868C83.4962 70.0806 85.3766 65.3817 87.5842 60.8332C89.2321 56.8331 93.4172 53.6255 87.8514 48.5258C86.0514 47.6049 85.7016 52.0265 84.0097 54.4185C81.0309 59.1527 71.4871 59.0988 70.0093 53.0625C68.354 46.2858 80.1397 37.3751 79.5371 36.5941V36.5941Z" fill="url(#paint15_linear_104_1704)" stroke="url(#paint16_linear_104_1704)" stroke-width="3.65714" stroke-linecap="round" stroke-linejoin="round"/>
<path fill-rule="evenodd" clip-rule="evenodd" d="M114.446 44.1026C115.895 46.8427 118.686 48.6819 121.649 49.4166C124.157 51.1819 121.322 54.6728 123.307 56.708C125.27 58.7341 126.659 61.3005 127.196 64.065C128.588 67.1419 130.137 70.2191 130.56 73.6138C131.688 77.1121 135.047 79.0848 137.379 81.7212C138.869 83.3713 140.619 84.9915 141.343 87.1375C142.043 89.4181 139.746 90.2522 137.978 89.9378C136.678 90.8481 138.258 95.318 135.62 93.8127C133.359 91.9707 132.716 88.9035 133.044 86.1341C132.856 82.7683 130.838 79.9123 129.678 76.8439C127.546 73.4025 124.364 70.4986 120.491 69.1833C118.036 68.2476 115.605 66.8086 114.432 64.3471C112.708 61.8252 111.173 59.0501 111.021 55.9253C110.438 51.9941 110.597 47.6056 113.152 44.3536C113.495 44.0345 114.011 43.979 114.446 44.1026V44.1026Z" fill="url(#paint17_linear_104_1704)" stroke="url(#paint18_linear_104_1704)" stroke-width="3.65714" stroke-linecap="round" stroke-linejoin="round"/>
<path fill-rule="evenodd" clip-rule="evenodd" d="M129.876 62.9614C131.762 61.5833 134.124 62.829 136.213 62.4002C139.12 62.1219 142.396 61.9517 144.847 63.8305C147.036 66.1748 148.58 69.1159 149.206 72.2644C149.97 74.5744 151.705 76.3455 153.132 78.245C153.994 79.7301 154.428 81.8903 153.178 83.2788C151.742 84.3382 150.056 82.9233 149.31 81.681C148.176 80.2058 147.195 78.229 145.596 77.3379C143.977 77.9899 146.102 80.1015 145.521 81.4225C145.49 83.1076 146.011 84.7641 146.82 86.2292C147.327 87.822 146.233 90.3045 144.294 89.8796C142.664 89.3558 142.6 87.4052 142.296 85.999C141.58 83.5894 138.631 83.0296 137.424 80.9577C134.471 76.2793 131.147 71.5481 130.191 65.9833C130.047 64.9805 129.982 63.9686 129.876 62.9614H129.876Z" fill="url(#paint19_linear_104_1704)" stroke="url(#paint20_linear_104_1704)" stroke-width="3.65714" stroke-linecap="round" stroke-linejoin="round"/>
<path fill-rule="evenodd" clip-rule="evenodd" d="M146.041 110.475C145.926 108.653 147.104 106.702 146.034 104.992C145.066 103.725 144.184 101.875 145.142 100.363C146.784 98.0071 149.685 97.1895 151.982 95.6653C153.294 94.9626 154.626 94.2965 155.989 93.6992C157.681 93.858 158.507 95.712 158.514 97.2265C158.88 100.784 158.866 104.403 159.755 107.886C160.2 110.164 160.256 112.523 161.074 114.719C161.459 115.933 161.879 117.296 161.198 118.496C160.492 120.08 158.649 121.024 156.959 120.548C155.049 120.224 153.846 118.569 152.287 117.607C150.558 116.584 148.37 116.279 146.947 114.789C146.066 113.533 146.215 111.923 146.04 110.475H146.041Z" fill="url(#paint21_linear_104_1704)" stroke="url(#paint22_linear_104_1704)" stroke-width="3.65714" stroke-linecap="round" stroke-linejoin="round"/>
<path fill-rule="evenodd" clip-rule="evenodd" d="M146.058 115.654C146.734 114.921 145.032 114.046 146.619 113.747C149.532 111.794 153.557 112.241 156.27 114.341C157.745 115.587 160.53 115.241 160.531 112.922C160.614 111.494 159.838 108.105 162.314 108.759C163.847 109.506 163.361 111.464 164.459 112.57C165.617 114.096 167.192 115.309 167.919 117.139C168.659 118.851 170.248 119.851 171.391 121.242C173.768 124.135 175.069 127.703 176.312 131.187C174.482 131.708 174.015 129.359 173.203 128.241C171.914 126.597 171.502 124.428 170.295 122.714C169.11 120.449 166.781 123.435 168.191 124.951C169.455 126.342 168.613 130.019 167.969 130.59C167.732 128.656 164.034 128.021 164.471 130.458C165.047 131.552 165.925 134.135 163.727 133.689C161.028 132.715 159.6 130.009 157.975 127.83C156.369 125.556 154.508 123.477 152.647 121.413C151.398 120.097 149.781 119.124 147.985 118.813C146.78 118.356 145.193 117.089 146.058 115.654V115.654Z" fill="url(#paint23_linear_104_1704)" stroke="url(#paint24_linear_104_1704)" stroke-width="3.65714" stroke-linecap="round" stroke-linejoin="round"/>
<path fill-rule="evenodd" clip-rule="evenodd" d="M162.45 98.9644C164.553 99.9506 164.657 102.889 166.832 103.802C168.149 104.757 169.166 106.846 168.063 108.307C166.642 109.865 164.433 107.875 164.314 106.221C164.036 103.629 161.159 102.773 159.816 100.863C159.326 100.24 159.155 98.6441 158.119 98.9491C158.713 100.414 159.9 102.593 158.256 103.837C156.017 104.438 155.402 101.657 154.076 100.584C152.279 99.3578 150.019 101.827 152.058 103.212C153.233 103.76 153.525 106.543 151.802 105.641C150.124 104.586 149.356 102.475 147.431 101.73C145.279 100.66 142.587 100.285 141.133 98.1618C139.809 96.5505 138.471 94.9199 137.445 93.1018C137.01 90.9355 139.775 90.8446 141.178 91.4547C142.805 91.8051 144.823 92.4931 146.224 91.2204C147.683 89.5168 146.287 86.6922 148.216 85.247C150.291 83.9984 151.585 86.538 152.791 87.707C154.456 88.6642 156.869 88.3579 157.961 90.2193C158.904 91.9748 159.773 93.7803 161.007 95.3621C161.647 96.454 162.798 97.597 162.45 98.9644V98.9644Z" fill="url(#paint25_linear_104_1704)" stroke="url(#paint26_linear_104_1704)" stroke-width="3.65714" stroke-linecap="round" stroke-linejoin="round"/>
<path fill-rule="evenodd" clip-rule="evenodd" d="M102.935 44.3474C100.984 42.7635 97.9035 42.2332 95.812 43.8479C92.1857 45.1886 89.9945 51.1277 93.2246 53.1177C94.7318 54.5711 98.9019 54.9868 100.432 53.9955C104.011 54.9764 105.788 57.671 107.554 58.0855C109.512 59.2008 110.054 61.5672 111.103 63.4026C111.896 64.9279 112.758 66.6336 114.324 67.4725C116.175 67.8926 117.62 66.038 116.31 64.9185C114.607 63.3487 114.526 49.9843 114.126 45.3831C114.049 43.5384 110.628 41.9526 109.768 43.5591C108.227 45.1726 107.449 53.4557 107.84 51.0529C107.222 49.0409 104.584 45.8121 102.935 44.3474V44.3474Z" fill="url(#paint27_linear_104_1704)" stroke="url(#paint28_linear_104_1704)" stroke-width="3.65714" stroke-linecap="round" stroke-linejoin="round"/>
<path fill-rule="evenodd" clip-rule="evenodd" d="M165.889 178.672C151.14 170.558 141.004 165.689 127.115 157.993C119.053 154.395 117.828 168.303 120.835 174.63C124.035 181.363 110.89 184.069 120.577 190.606C129.742 192.617 151.87 193.259 167.772 193.19C177.351 195.135 208.279 183.099 185.601 175.342C178.579 173.642 173.02 180.939 165.889 178.672Z" fill="url(#paint29_linear_104_1704)" stroke="url(#paint30_linear_104_1704)" stroke-width="3.65714"/>
<path fill-rule="evenodd" clip-rule="evenodd" d="M66.7282 67.2812C65.7999 69.37 67.5862 71.0885 68.5716 72.0739C69.4996 73.002 71.4821 73.5388 72.9955 73.9172C74.6031 74.3191 76.4014 73.4601 78.0683 73.4601C80.2586 73.4601 80.7374 70.2294 80.7374 68.3872C80.7374 66.6358 78.3392 65.0654 77.7882 63.9633C77.1388 62.6646 73.6104 62.8086 72.8186 62.0168C72.2622 61.4604 68.3552 63.6206 66.7282 67.2812V67.2812Z" fill="url(#paint31_linear_104_1704)" stroke="url(#paint32_linear_104_1704)" stroke-width="0.228571"/>
<defs>
<linearGradient id="paint0_linear_104_1704" x1="44.4314" y1="110.617" x2="80.5018" y2="110.617" gradientUnits="userSpaceOnUse">
<stop/>
<stop offset="1"/>
</linearGradient>
<linearGradient id="paint1_linear_104_1704" x1="100.063" y1="168.777" x2="121.487" y2="197.983" gradientUnits="userSpaceOnUse">
<stop stop-color="white"/>
<stop offset="1"/>
</linearGradient>
<linearGradient id="paint2_linear_104_1704" x1="82.3682" y1="176.615" x2="119.29" y2="176.615" gradientUnits="userSpaceOnUse">
<stop/>
<stop offset="1"/>
</linearGradient>
<linearGradient id="paint3_linear_104_1704" x1="119.933" y1="135.34" x2="188.352" y2="145.137" gradientUnits="userSpaceOnUse">
<stop stop-color="white"/>
<stop offset="1"/>
</linearGradient>
<linearGradient id="paint4_linear_104_1704" x1="151.615" y1="160.25" x2="169.875" y2="160.25" gradientUnits="userSpaceOnUse">
<stop/>
<stop offset="1"/>
</linearGradient>
<linearGradient id="paint5_linear_104_1704" x1="145.678" y1="158.691" x2="188.039" y2="167.604" gradientUnits="userSpaceOnUse">
<stop stop-color="white"/>
<stop offset="1"/>
</linearGradient>
<linearGradient id="paint6_linear_104_1704" x1="152.537" y1="175.97" x2="179.32" y2="175.97" gradientUnits="userSpaceOnUse">
<stop/>
<stop offset="1"/>
</linearGradient>
<linearGradient id="paint7_linear_104_1704" x1="116.129" y1="114.961" x2="185.247" y2="114.961" gradientUnits="userSpaceOnUse">
<stop stop-color="white"/>
<stop offset="1"/>
</linearGradient>
<linearGradient id="paint8_linear_104_1704" x1="150.062" y1="133.24" x2="170.55" y2="133.24" gradientUnits="userSpaceOnUse">
<stop/>
<stop offset="1"/>
</linearGradient>
<linearGradient id="paint9_linear_104_1704" x1="143.85" y1="135.368" x2="187.02" y2="138.558" gradientUnits="userSpaceOnUse">
<stop stop-color="white"/>
<stop offset="1"/>
</linearGradient>
<linearGradient id="paint10_linear_104_1704" x1="151.496" y1="149.078" x2="181.253" y2="149.078" gradientUnits="userSpaceOnUse">
<stop/>
<stop offset="1"/>
</linearGradient>
<linearGradient id="paint11_linear_104_1704" x1="73.5584" y1="82.2326" x2="116.596" y2="122.935" gradientUnits="userSpaceOnUse">
<stop stop-color="white"/>
<stop offset="1"/>
</linearGradient>
<linearGradient id="paint12_linear_104_1704" x1="19.7618" y1="102.487" x2="116.596" y2="102.487" gradientUnits="userSpaceOnUse">
<stop/>
<stop offset="1"/>
</linearGradient>
<linearGradient id="paint13_linear_104_1704" x1="98.4328" y1="42.2081" x2="64.8062" y2="75.0212" gradientUnits="userSpaceOnUse">
<stop stop-color="white"/>
<stop offset="1"/>
</linearGradient>
<linearGradient id="paint14_linear_104_1704" x1="55.8472" y1="70.0593" x2="100.608" y2="70.0593" gradientUnits="userSpaceOnUse">
<stop/>
<stop offset="1"/>
</linearGradient>
<linearGradient id="paint15_linear_104_1704" x1="30.5404" y1="72.9238" x2="86.1249" y2="95.751" gradientUnits="userSpaceOnUse">
<stop stop-color="white"/>
<stop offset="1"/>
</linearGradient>
<linearGradient id="paint16_linear_104_1704" x1="18.1045" y1="87.7358" x2="92.4759" y2="87.7358" gradientUnits="userSpaceOnUse">
<stop/>
<stop offset="1"/>
</linearGradient>
<linearGradient id="paint17_linear_104_1704" x1="106.274" y1="72.4969" x2="155.063" y2="87.4368" gradientUnits="userSpaceOnUse">
<stop stop-color="white"/>
<stop offset="1"/>
</linearGradient>
<linearGradient id="paint18_linear_104_1704" x1="108.913" y1="69.0808" x2="143.3" y2="69.0808" gradientUnits="userSpaceOnUse">
<stop/>
<stop offset="1"/>
</linearGradient>
<linearGradient id="paint19_linear_104_1704" x1="108.968" y1="88.9065" x2="178.085" y2="88.9065" gradientUnits="userSpaceOnUse">
<stop stop-color="white"/>
<stop offset="1"/>
</linearGradient>
<linearGradient id="paint20_linear_104_1704" x1="128.047" y1="76.0788" x2="155.786" y2="76.0788" gradientUnits="userSpaceOnUse">
<stop/>
<stop offset="1"/>
</linearGradient>
<linearGradient id="paint21_linear_104_1704" x1="108.968" y1="88.9062" x2="178.085" y2="88.9062" gradientUnits="userSpaceOnUse">
<stop stop-color="white"/>
<stop offset="1"/>
</linearGradient>
<linearGradient id="paint22_linear_104_1704" x1="142.9" y1="107.185" x2="163.388" y2="107.185" gradientUnits="userSpaceOnUse">
<stop/>
<stop offset="1"/>
</linearGradient>
<linearGradient id="paint23_linear_104_1704" x1="135.419" y1="114.133" x2="178.085" y2="106.82" gradientUnits="userSpaceOnUse">
<stop stop-color="white"/>
<stop offset="1"/>
</linearGradient>
<linearGradient id="paint24_linear_104_1704" x1="143.982" y1="121.208" x2="178.14" y2="121.208" gradientUnits="userSpaceOnUse">
<stop/>
<stop offset="1"/>
</linearGradient>
<linearGradient id="paint25_linear_104_1704" x1="130.765" y1="96.9128" x2="175.146" y2="99.4379" gradientUnits="userSpaceOnUse">
<stop stop-color="white"/>
<stop offset="1"/>
</linearGradient>
<linearGradient id="paint26_linear_104_1704" x1="135.571" y1="96.8906" x2="170.361" y2="96.8906" gradientUnits="userSpaceOnUse">
<stop/>
<stop offset="1"/>
</linearGradient>
<linearGradient id="paint27_linear_104_1704" x1="89.8798" y1="55.0727" x2="118.2" y2="55.0727" gradientUnits="userSpaceOnUse">
<stop stop-color="white"/>
<stop offset="1"/>
</linearGradient>
<linearGradient id="paint28_linear_104_1704" x1="89.8247" y1="55.2005" x2="118.644" y2="55.2005" gradientUnits="userSpaceOnUse">
<stop/>
<stop offset="1"/>
</linearGradient>
<linearGradient id="paint29_linear_104_1704" x1="187.171" y1="167.748" x2="182.108" y2="204.093" gradientUnits="userSpaceOnUse">
<stop stop-color="white"/>
<stop offset="1"/>
</linearGradient>
<linearGradient id="paint30_linear_104_1704" x1="115.121" y1="175.404" x2="195.565" y2="175.404" gradientUnits="userSpaceOnUse">
<stop/>
<stop offset="1"/>
</linearGradient>
<linearGradient id="paint31_linear_104_1704" x1="66.3545" y1="67.9771" x2="80.8517" y2="67.9771" gradientUnits="userSpaceOnUse">
<stop/>
<stop offset="1"/>
</linearGradient>
<linearGradient id="paint32_linear_104_1704" x1="66.3545" y1="67.9771" x2="80.8517" y2="67.9771" gradientUnits="userSpaceOnUse">
<stop/>
<stop offset="1"/>
</linearGradient>
</defs>
</svg>
