<svg width="200" height="200" viewBox="0 0 200 200" fill="none" xmlns="http://www.w3.org/2000/svg">
<path d="M128.384 19.2188C122.151 19.2188 117.093 23.8091 117.093 29.4688C117.093 33.1365 119.235 36.3441 122.427 38.1564C113.325 60.6328 104.704 81.3046 97.4735 104.188C90.49 83.6056 83.8585 61.9171 75.4211 39.0626C78.8172 37.2941 81.098 33.9948 81.098 30.1876C81.098 24.5279 76.0401 19.9063 69.8067 19.9063C63.5732 19.9063 58.5153 24.5279 58.5153 30.1876C58.5153 35.1591 62.4179 39.2835 67.5921 40.2189C67.5991 64.2003 72.498 76.8269 63.9115 110.438C50.9056 85.5073 43.3299 74.8655 27.3238 51.4377C29.0815 49.6299 30.1622 47.2556 30.1622 44.6564C30.1622 38.9967 25.1044 34.4063 18.8709 34.4063C12.6374 34.4063 7.57959 38.9967 7.57959 44.6564C7.57959 50.3161 12.6374 54.9065 18.8709 54.9065C18.8919 54.9065 18.9123 54.9066 18.9333 54.9065C29.6347 82.1684 34.1813 95.3117 43.4674 120.504C46.4173 128.506 53.1729 128.786 56.8977 137.932C58.5225 141.921 59.3024 157.717 50.8422 162.97C49.5603 163.766 33.5758 166.949 32.6576 168.126C25.7839 176.939 29.4615 191.655 42.3581 192.501C51.4169 193.095 145.509 193.254 154.866 192.22C169.224 190.632 171.441 175.62 164.816 167.313C163.801 166.041 149.469 164.385 146.288 162.032C140.48 157.735 137.627 143.28 138.989 137.838C141.056 129.572 148.761 130.228 150.845 123.319C159.931 93.2003 167.515 81.8535 180.505 54.844C180.815 54.8671 181.125 54.9065 181.441 54.9065C187.675 54.9065 192.732 50.3161 192.732 44.6564C192.732 38.9967 187.675 34.4063 181.441 34.4063C175.208 34.4063 170.15 38.9967 170.15 44.6564C170.15 47.3017 171.268 49.7122 173.082 51.5314C152.054 76.8124 145.355 86.095 130.037 111.376C124.549 84.5417 129.963 65.0788 131.316 39.3439C136.131 38.1712 139.676 34.2084 139.676 29.4688C139.676 23.8091 134.618 19.2188 128.384 19.2188H128.384Z" fill="url(#paint0_linear_104_27)" stroke="url(#paint1_linear_104_27)" stroke-width="4.99533" stroke-linecap="round" stroke-linejoin="round"/>
<path opacity="0.5" d="M51.6372 175.588H143.493" stroke="url(#paint2_linear_104_27)" stroke-width="4.99533" stroke-linecap="round" stroke-linejoin="round"/>
<path opacity="0.5" d="M63.6147 159.588H115.546" stroke="url(#paint3_linear_104_27)" stroke-width="4.99533" stroke-linecap="round" stroke-linejoin="round"/>
<path opacity="0.5" d="M60.9126 129.774H128.814" stroke="url(#paint4_linear_104_27)" stroke-width="4.99533" stroke-linecap="round" stroke-linejoin="round"/>
<path opacity="0.5" d="M124.049 111.376C118.56 84.5419 123.974 65.0791 125.327 39.3441C130.142 38.1714 133.687 34.2086 133.687 29.469C133.687 23.8093 128.629 21.219 122.395 21.219M148.877 192.22C163.235 190.633 165.453 177.62 158.827 169.314C157.812 168.041 143.48 166.385 140.299 164.032C134.491 159.735 131.639 141.28 133 135.838C135.068 127.573 142.772 128.228 144.856 121.319C153.942 91.2006 161.526 81.8537 174.516 54.8442C174.826 54.8674 175.136 54.9067 175.452 54.9067C181.686 54.9067 186.744 50.3164 186.744 44.6566C186.744 38.9969 181.686 36.4066 175.452 36.4066" stroke="url(#paint5_linear_104_27)" stroke-width="4.99533" stroke-linecap="round" stroke-linejoin="round"/>
<defs>
<linearGradient id="paint0_linear_104_27" x1="32.7406" y1="88.2078" x2="163.45" y2="103.944" gradientUnits="userSpaceOnUse">
<stop stop-color="#000E1C"/>
<stop offset="1" stop-color="#50506F"/>
</linearGradient>
<linearGradient id="paint1_linear_104_27" x1="32.7406" y1="88.2078" x2="163.45" y2="103.944" gradientUnits="userSpaceOnUse">
<stop stop-color="#808080"/>
<stop offset="1" stop-color="#808080"/>
</linearGradient>
<linearGradient id="paint2_linear_104_27" x1="-nan" y1="-nan" x2="-nan" y2="-nan" gradientUnits="userSpaceOnUse">
<stop stop-color="#808080"/>
<stop offset="1" stop-color="#808080"/>
</linearGradient>
<linearGradient id="paint3_linear_104_27" x1="-nan" y1="-nan" x2="-nan" y2="-nan" gradientUnits="userSpaceOnUse">
<stop stop-color="#808080"/>
<stop offset="1" stop-color="#808080"/>
</linearGradient>
<linearGradient id="paint4_linear_104_27" x1="-nan" y1="-nan" x2="-nan" y2="-nan" gradientUnits="userSpaceOnUse">
<stop stop-color="#808080"/>
<stop offset="1" stop-color="#808080"/>
</linearGradient>
<linearGradient id="paint5_linear_104_27" x1="26.7517" y1="88.208" x2="157.461" y2="103.944" gradientUnits="userSpaceOnUse">
<stop stop-color="#808080"/>
<stop offset="1" stop-color="#808080"/>
</linearGradient>
</defs>
</svg>
