<svg width="200" height="200" viewBox="0 0 200 200" fill="none" xmlns="http://www.w3.org/2000/svg">
<path d="M128.384 19.2189C122.151 19.2189 117.093 23.8092 117.093 29.4689C117.093 33.1366 119.235 36.3443 122.427 38.1565C113.325 60.633 104.704 81.3048 97.4735 104.188C90.49 83.6057 83.8585 61.9172 75.4211 39.0627C78.8172 37.2942 81.098 33.9949 81.098 30.1877C81.098 24.528 76.0401 19.9064 69.8067 19.9064C63.5732 19.9064 58.5153 24.528 58.5153 30.1877C58.5153 35.1592 62.4179 39.2836 67.5921 40.219C67.5991 64.2004 72.498 76.8271 63.9115 110.438C50.9056 85.5074 43.3299 74.8657 27.3238 51.4378C29.0815 49.63 30.1622 47.2557 30.1622 44.6565C30.1622 38.9968 25.1044 34.4065 18.8709 34.4065C12.6374 34.4065 7.57959 38.9968 7.57959 44.6565C7.57959 50.3162 12.6374 54.9066 18.8709 54.9066C18.8919 54.9066 18.9123 54.9067 18.9333 54.9066C29.6347 82.1685 34.1813 95.3118 43.4674 120.504C46.4173 128.506 53.1729 128.786 56.8977 137.932C58.5225 141.921 59.3024 157.717 50.8422 162.97C49.5603 163.766 33.5758 166.949 32.6576 168.126C25.7839 176.94 29.4615 191.656 42.3581 192.501C51.4169 193.095 145.509 193.255 154.866 192.22C169.224 190.632 171.441 175.62 164.816 167.314C163.801 166.041 149.469 164.385 146.288 162.032C140.48 157.735 137.627 143.28 138.989 137.838C141.056 129.573 148.761 130.228 150.845 123.319C159.931 93.2005 167.515 81.8536 180.505 54.8441C180.815 54.8673 181.125 54.9066 181.441 54.9066C187.675 54.9066 192.732 50.3162 192.732 44.6565C192.732 38.9968 187.675 34.4065 181.441 34.4065C175.208 34.4065 170.15 38.9968 170.15 44.6565C170.15 47.3018 171.268 49.7123 173.082 51.5316C152.054 76.8125 145.355 86.0951 130.037 111.376C124.549 84.5418 129.963 65.079 131.316 39.344C136.131 38.1713 139.676 34.2085 139.676 29.4689C139.676 23.8092 134.618 19.2189 128.384 19.2189H128.384Z" fill="url(#paint0_linear_104_78)" stroke="url(#paint1_linear_104_78)" stroke-width="4.99533" stroke-linecap="round" stroke-linejoin="round"/>
<path opacity="0.5" d="M51.6372 175.588H143.493" stroke="url(#paint2_linear_104_78)" stroke-width="4.99533" stroke-linecap="round" stroke-linejoin="round"/>
<path opacity="0.5" d="M63.6147 159.588H115.546" stroke="url(#paint3_linear_104_78)" stroke-width="4.99533" stroke-linecap="round" stroke-linejoin="round"/>
<path opacity="0.5" d="M60.9126 129.774H128.814" stroke="url(#paint4_linear_104_78)" stroke-width="4.99533" stroke-linecap="round" stroke-linejoin="round"/>
<path opacity="0.5" d="M124.049 111.376C118.56 84.5418 123.974 65.0789 125.327 39.344C130.142 38.1713 133.687 34.2085 133.687 29.4689C133.687 23.8092 128.629 21.2189 122.395 21.2189M148.877 192.22C163.235 190.632 165.453 177.62 158.827 169.314C157.812 168.041 143.48 166.385 140.299 164.032C134.491 159.735 131.639 141.28 133 135.838C135.068 127.573 142.772 128.228 144.856 121.319C153.942 91.2004 161.526 81.8536 174.516 54.8441C174.826 54.8673 175.136 54.9066 175.452 54.9066C181.686 54.9066 186.744 50.3162 186.744 44.6565C186.744 38.9968 181.686 36.4065 175.452 36.4065" stroke="url(#paint5_linear_104_78)" stroke-width="4.99533" stroke-linecap="round" stroke-linejoin="round"/>
<defs>
<linearGradient id="paint0_linear_104_78" x1="32.7406" y1="88.2079" x2="163.45" y2="103.944" gradientUnits="userSpaceOnUse">
<stop stop-color="#EDE3DE"/>
<stop offset="1" stop-color="#8A6737"/>
</linearGradient>
<linearGradient id="paint1_linear_104_78" x1="32.7406" y1="88.2079" x2="163.45" y2="103.944" gradientUnits="userSpaceOnUse">
<stop/>
<stop offset="1"/>
</linearGradient>
<linearGradient id="paint2_linear_104_78" x1="-nan" y1="-nan" x2="-nan" y2="-nan" gradientUnits="userSpaceOnUse">
<stop/>
<stop offset="1"/>
</linearGradient>
<linearGradient id="paint3_linear_104_78" x1="-nan" y1="-nan" x2="-nan" y2="-nan" gradientUnits="userSpaceOnUse">
<stop/>
<stop offset="1"/>
</linearGradient>
<linearGradient id="paint4_linear_104_78" x1="-nan" y1="-nan" x2="-nan" y2="-nan" gradientUnits="userSpaceOnUse">
<stop/>
<stop offset="1"/>
</linearGradient>
<linearGradient id="paint5_linear_104_78" x1="26.7516" y1="88.2079" x2="157.461" y2="103.944" gradientUnits="userSpaceOnUse">
<stop/>
<stop offset="1"/>
</linearGradient>
</defs>
</svg>
