<svg width="200" height="200" viewBox="0 0 200 200" fill="none" xmlns="http://www.w3.org/2000/svg">
<path opacity="0.99" fill-rule="evenodd" clip-rule="evenodd" d="M127.884 153.206C119.682 157.36 112.037 162.304 102.053 163.925C100.927 166.387 100.299 169.109 100.299 171.972C100.299 182.976 109.534 191.907 120.914 191.907C132.295 191.907 141.536 182.976 141.536 171.972C141.536 163.333 135.839 155.971 127.884 153.206Z" fill="url(#paint0_linear_104_140)" stroke="url(#paint1_linear_104_140)" stroke-width="3.65714" stroke-linecap="round" stroke-linejoin="round"/>
<path opacity="0.99" fill-rule="evenodd" clip-rule="evenodd" d="M71.7257 154.06C63.7362 156.807 58.0066 164.182 58.0066 172.845C58.0066 183.848 67.2477 192.78 78.6286 192.78C90.0095 192.78 99.244 183.848 99.244 172.845C99.244 169.505 98.3872 166.358 96.8829 163.592C87.793 162.415 79.936 157.736 71.7257 154.06Z" fill="url(#paint2_linear_104_140)" stroke="url(#paint3_linear_104_140)" stroke-width="3.65714" stroke-linecap="round" stroke-linejoin="round"/>
<path opacity="0.99" fill-rule="evenodd" clip-rule="evenodd" d="M122.319 175.318C122.319 175.842 122.207 176.361 121.99 176.845C121.773 177.329 121.454 177.769 121.053 178.14C120.651 178.51 120.174 178.804 119.65 179.005C119.125 179.205 118.562 179.309 117.994 179.309C117.426 179.309 116.864 179.205 116.339 179.005C115.814 178.804 115.337 178.51 114.936 178.14C114.534 177.769 114.216 177.329 113.999 176.845C113.781 176.361 113.67 175.842 113.67 175.318C113.67 174.794 113.781 174.275 113.999 173.79C114.216 173.306 114.534 172.866 114.936 172.496C115.337 172.125 115.814 171.831 116.339 171.631C116.864 171.43 117.426 171.327 117.994 171.327C118.562 171.327 119.125 171.43 119.65 171.631C120.174 171.831 120.651 172.125 121.053 172.496C121.454 172.866 121.773 173.306 121.99 173.79C122.207 174.275 122.319 174.794 122.319 175.318V175.318Z" fill="url(#paint4_linear_104_140)" stroke="url(#paint5_linear_104_140)" stroke-width="3.65714" stroke-linecap="round" stroke-linejoin="round"/>
<path opacity="0.99" fill-rule="evenodd" clip-rule="evenodd" d="M85.5784 175.275C85.5785 175.799 85.4668 176.318 85.2495 176.802C85.0323 177.286 84.7138 177.726 84.3122 178.097C83.9106 178.467 83.4338 178.761 82.909 178.962C82.3843 179.163 81.8218 179.266 81.2538 179.266C80.6858 179.266 80.1233 179.163 79.5985 178.962C79.0738 178.761 78.597 178.467 78.1954 178.097C77.7938 177.726 77.4753 177.286 77.258 176.802C77.0408 176.318 76.929 175.799 76.9292 175.275C76.929 174.751 77.0408 174.232 77.258 173.748C77.4753 173.264 77.7938 172.824 78.1954 172.453C78.597 172.082 79.0738 171.788 79.5985 171.588C80.1233 171.387 80.6858 171.284 81.2538 171.284C81.8218 171.284 82.3843 171.387 82.909 171.588C83.4338 171.788 83.9106 172.082 84.3122 172.453C84.7138 172.824 85.0323 173.264 85.2495 173.748C85.4668 174.232 85.5785 174.751 85.5784 175.275V175.275Z" fill="url(#paint6_linear_104_140)" stroke="url(#paint7_linear_104_140)" stroke-width="3.65714" stroke-linecap="round" stroke-linejoin="round"/>
<path fill-rule="evenodd" clip-rule="evenodd" d="M63.2405 158.245C58.9122 125.05 52.2089 124.834 92.9893 71.4238C149.846 111.024 132.587 124.216 136.256 158.023C101.499 154 92.8753 154.764 63.2405 158.245Z" fill="url(#paint8_linear_104_140)" stroke="url(#paint9_linear_104_140)" stroke-width="3.65714" stroke-linecap="round" stroke-linejoin="round"/>
<path fill-rule="evenodd" clip-rule="evenodd" d="M142.097 134.225C160.136 90.1188 152.146 50.6247 121.247 13.3345C101.618 27.4983 64.9235 85.2582 62.418 122.756C94.8873 116.381 109.908 126.219 142.097 134.225Z" fill="url(#paint10_linear_104_140)" stroke="url(#paint11_linear_104_140)" stroke-width="3.65714" stroke-linecap="round" stroke-linejoin="round"/>
<path fill-rule="evenodd" clip-rule="evenodd" d="M58.2539 142.013C33.415 110.99 51.4828 52.1651 80.1378 11.0758C126.206 53.4057 151.979 100.033 141.01 141.943C108.54 135.568 90.443 134.007 58.2539 142.013V142.013Z" fill="url(#paint12_linear_104_140)" stroke="url(#paint13_linear_104_140)" stroke-width="3.65714" stroke-linecap="round" stroke-linejoin="round"/>
<path opacity="0.99" fill-rule="evenodd" clip-rule="evenodd" d="M89.1717 72.8664C85.5906 72.7668 82.4759 76.2503 82.7525 79.8058C82.7128 81.8528 82.6237 83.8985 82.5464 85.9444C80.1454 85.7959 77.7041 85.2382 75.3129 85.6877C72.1434 86.5327 69.7932 90.0273 70.5777 93.3083C71.1645 96.3138 74.09 98.6201 77.1285 98.5024C79.2306 98.6121 81.3269 98.8075 83.4234 98.9934C83.9493 104.256 84.9526 109.466 86.2796 114.58C86.8146 117.945 90.2414 120.671 93.6405 120.058C97.0863 119.585 99.7649 115.942 99.0629 112.481C98.7622 110.752 98.1444 109.094 97.8583 107.36C97.2341 104.47 96.7021 101.553 96.4104 98.6123C98.9795 98.3552 101.691 98.5786 104.1 97.4955C106.834 96.0903 108.421 92.5718 107.305 89.6173C106.34 86.7501 103.253 84.8612 100.278 85.225C98.6543 85.289 97.0407 85.4937 95.4209 85.6139C95.4585 84.8453 95.3735 84.0566 95.4386 83.2793C95.4706 81.6004 95.7119 79.9146 95.597 78.2395C94.9989 75.2769 92.2545 72.7431 89.1717 72.8664V72.8664Z" fill="url(#paint14_linear_104_140)" stroke="url(#paint15_linear_104_140)" stroke-width="3.65714" stroke-linecap="round" stroke-linejoin="round"/>
<path d="M92.6985 143.376C89.897 150.723 106.49 152.766 105.014 143.488" stroke="url(#paint16_linear_104_140)" stroke-width="3.65714" stroke-linecap="round" stroke-linejoin="round"/>
<defs>
<linearGradient id="paint0_linear_104_140" x1="104.958" y1="151.589" x2="135.579" y2="165.176" gradientUnits="userSpaceOnUse">
<stop/>
<stop offset="1" stop-color="#505070"/>
</linearGradient>
<linearGradient id="paint1_linear_104_140" x1="98.4705" y1="172.557" x2="143.365" y2="172.557" gradientUnits="userSpaceOnUse">
<stop stop-color="#808080"/>
<stop offset="1" stop-color="#808080"/>
</linearGradient>
<linearGradient id="paint2_linear_104_140" x1="69.3822" y1="146.063" x2="104.555" y2="166.734" gradientUnits="userSpaceOnUse">
<stop/>
<stop offset="1" stop-color="#505070"/>
</linearGradient>
<linearGradient id="paint3_linear_104_140" x1="56.178" y1="173.42" x2="101.073" y2="173.42" gradientUnits="userSpaceOnUse">
<stop stop-color="#808080"/>
<stop offset="1" stop-color="#808080"/>
</linearGradient>
<linearGradient id="paint4_linear_104_140" x1="111.812" y1="175.318" x2="124.177" y2="175.318" gradientUnits="userSpaceOnUse">
<stop stop-color="#808080"/>
<stop offset="1" stop-color="#808080"/>
</linearGradient>
<linearGradient id="paint5_linear_104_140" x1="111.812" y1="175.318" x2="124.177" y2="175.318" gradientUnits="userSpaceOnUse">
<stop stop-color="#808080"/>
<stop offset="1" stop-color="#808080"/>
</linearGradient>
<linearGradient id="paint6_linear_104_140" x1="75.0713" y1="175.275" x2="87.4363" y2="175.275" gradientUnits="userSpaceOnUse">
<stop stop-color="#808080"/>
<stop offset="1" stop-color="#808080"/>
</linearGradient>
<linearGradient id="paint7_linear_104_140" x1="75.0713" y1="175.275" x2="87.4363" y2="175.275" gradientUnits="userSpaceOnUse">
<stop stop-color="#808080"/>
<stop offset="1" stop-color="#808080"/>
</linearGradient>
<linearGradient id="paint8_linear_104_140" x1="47.8212" y1="95.7263" x2="151.218" y2="95.7263" gradientUnits="userSpaceOnUse">
<stop/>
<stop offset="1" stop-color="#505070"/>
</linearGradient>
<linearGradient id="paint9_linear_104_140" x1="58.1314" y1="114.834" x2="138.084" y2="114.834" gradientUnits="userSpaceOnUse">
<stop stop-color="#808080"/>
<stop offset="1" stop-color="#808080"/>
</linearGradient>
<linearGradient id="paint10_linear_104_140" x1="81.0104" y1="74.9092" x2="147.329" y2="102.445" gradientUnits="userSpaceOnUse">
<stop/>
<stop offset="1" stop-color="#505070"/>
</linearGradient>
<linearGradient id="paint11_linear_104_140" x1="60.5894" y1="73.7798" x2="153.436" y2="73.7798" gradientUnits="userSpaceOnUse">
<stop stop-color="#808080"/>
<stop offset="1" stop-color="#808080"/>
</linearGradient>
<linearGradient id="paint12_linear_104_140" x1="45.4413" y1="73.9654" x2="149.783" y2="120.726" gradientUnits="userSpaceOnUse">
<stop/>
<stop offset="1" stop-color="#505070"/>
</linearGradient>
<linearGradient id="paint13_linear_104_140" x1="44.691" y1="76.5445" x2="145.352" y2="76.5445" gradientUnits="userSpaceOnUse">
<stop stop-color="#808080"/>
<stop offset="1" stop-color="#808080"/>
</linearGradient>
<linearGradient id="paint14_linear_104_140" x1="63.8553" y1="82.0571" x2="104.189" y2="87.1769" gradientUnits="userSpaceOnUse">
<stop/>
<stop offset="1" stop-color="#505070"/>
</linearGradient>
<linearGradient id="paint15_linear_104_140" x1="68.597" y1="96.5032" x2="109.494" y2="96.5032" gradientUnits="userSpaceOnUse">
<stop stop-color="#808080"/>
<stop offset="1" stop-color="#808080"/>
</linearGradient>
<linearGradient id="paint16_linear_104_140" x1="90.5506" y1="146.534" x2="106.936" y2="146.534" gradientUnits="userSpaceOnUse">
<stop stop-color="#808080"/>
<stop offset="1" stop-color="#808080"/>
</linearGradient>
</defs>
</svg>
