<svg width="200" height="200" viewBox="0 0 200 200" fill="none" xmlns="http://www.w3.org/2000/svg">
<path opacity="0.99" fill-rule="evenodd" clip-rule="evenodd" d="M136.049 138.835C142.841 142.783 147.423 150.238 147.423 158.782C147.423 171.445 137.356 181.725 124.951 181.725C112.546 181.725 102.48 171.445 102.48 158.782C102.48 154.852 103.446 151.154 105.154 147.919C115.453 147.389 123.378 145.763 136.049 138.835V138.835Z" fill="url(#paint0_linear_104_156)" stroke="url(#paint1_linear_104_156)" stroke-width="3.65714" stroke-linecap="round" stroke-linejoin="round"/>
<path opacity="0.99" fill-rule="evenodd" clip-rule="evenodd" d="M126.125 160.244C126.126 160.826 126.008 161.403 125.779 161.941C125.55 162.48 125.215 162.969 124.792 163.381C124.369 163.793 123.868 164.12 123.315 164.343C122.763 164.566 122.17 164.68 121.572 164.68C120.974 164.68 120.382 164.566 119.83 164.343C119.277 164.12 118.775 163.793 118.352 163.381C117.93 162.969 117.594 162.48 117.365 161.941C117.137 161.403 117.019 160.826 117.019 160.244C117.019 159.661 117.137 159.084 117.365 158.546C117.594 158.008 117.93 157.519 118.352 157.107C118.775 156.695 119.277 156.368 119.83 156.145C120.382 155.922 120.974 155.807 121.572 155.807C122.17 155.807 122.763 155.922 123.315 156.145C123.868 156.368 124.369 156.695 124.792 157.107C125.215 157.519 125.55 158.008 125.779 158.546C126.008 159.084 126.126 159.661 126.125 160.244V160.244Z" fill="url(#paint2_linear_104_156)" stroke="url(#paint3_linear_104_156)" stroke-width="3.65714" stroke-linecap="round" stroke-linejoin="round"/>
<path opacity="0.99" fill-rule="evenodd" clip-rule="evenodd" d="M66.3934 138.835C59.6022 142.783 55.02 150.238 55.02 158.782C55.02 171.445 65.0866 181.725 77.4913 181.725C89.8961 181.725 99.9629 171.445 99.9629 158.782C99.9629 154.852 98.9965 151.154 97.2887 147.919C85.1068 146.775 75.4386 143.116 66.3934 138.835V138.835Z" fill="url(#paint4_linear_104_156)" stroke="url(#paint5_linear_104_156)" stroke-width="3.65714" stroke-linecap="round" stroke-linejoin="round"/>
<path opacity="0.99" fill-rule="evenodd" clip-rule="evenodd" d="M84.2921 159.178C84.2923 159.76 84.1747 160.337 83.9459 160.875C83.7172 161.414 83.3818 161.903 82.959 162.315C82.5362 162.727 82.0342 163.053 81.4818 163.276C80.9293 163.499 80.3371 163.614 79.7391 163.614C79.1411 163.614 78.5489 163.499 77.9964 163.276C77.4439 163.053 76.9419 162.727 76.5191 162.315C76.0963 161.903 75.761 161.414 75.5322 160.875C75.3035 160.337 75.1859 159.76 75.186 159.178C75.1859 158.595 75.3035 158.018 75.5322 157.48C75.761 156.942 76.0963 156.453 76.5191 156.041C76.9419 155.629 77.4439 155.302 77.9964 155.079C78.5489 154.856 79.1411 154.741 79.7391 154.741C80.3371 154.741 80.9293 154.856 81.4818 155.079C82.0342 155.302 82.5362 155.629 82.959 156.041C83.3818 156.453 83.7172 156.942 83.9459 157.48C84.1747 158.018 84.2923 158.595 84.2921 159.178V159.178Z" fill="url(#paint6_linear_104_156)" stroke="url(#paint7_linear_104_156)" stroke-width="3.65714" stroke-linecap="round" stroke-linejoin="round"/>
<path fill-rule="evenodd" clip-rule="evenodd" d="M99.358 49.1505C94.5235 59.9886 87.9684 70.9347 80.2734 78.9124L100.06 96.0216L119.455 79.3204C108.966 71.0062 104.163 60.3065 99.358 49.1505V49.1505Z" fill="url(#paint8_linear_104_156)" stroke="url(#paint9_linear_104_156)" stroke-width="3.65714" stroke-linecap="round" stroke-linejoin="round"/>
<path d="M112.793 96.1906C112.793 99.4001 111.42 102.478 108.976 104.748C106.532 107.017 103.217 108.292 99.7607 108.292C96.3043 108.292 92.9896 107.017 90.5455 104.748C88.1015 102.478 86.7285 99.4001 86.7285 96.1906C86.7285 92.9812 88.1015 89.9032 90.5455 87.6337C92.9896 85.3643 96.3043 84.0894 99.7607 84.0894C103.217 84.0894 106.532 85.3643 108.976 87.6337C111.42 89.9032 112.793 92.9812 112.793 96.1906V96.1906Z" fill="url(#paint10_linear_104_156)" stroke="url(#paint11_linear_104_156)" stroke-width="3.65714" stroke-linecap="round" stroke-linejoin="round"/>
<path fill-rule="evenodd" clip-rule="evenodd" d="M50.4674 150.23C49.2493 82.4226 148.667 78.4779 153.286 149.307C136.121 134.855 65.0509 133.706 50.4674 150.23Z" fill="url(#paint12_linear_104_156)" stroke="url(#paint13_linear_104_156)" stroke-width="3.65714" stroke-linecap="round" stroke-linejoin="round"/>
<defs>
<linearGradient id="paint0_linear_104_156" x1="94.8303" y1="156.365" x2="144.506" y2="184.242" gradientUnits="userSpaceOnUse">
<stop/>
<stop offset="1" stop-color="#505070"/>
</linearGradient>
<linearGradient id="paint1_linear_104_156" x1="100.651" y1="160.28" x2="149.251" y2="160.28" gradientUnits="userSpaceOnUse">
<stop stop-color="#808080"/>
<stop offset="1" stop-color="#808080"/>
</linearGradient>
<linearGradient id="paint2_linear_104_156" x1="115.211" y1="160.244" x2="127.933" y2="160.244" gradientUnits="userSpaceOnUse">
<stop stop-color="#808080"/>
<stop offset="1" stop-color="#808080"/>
</linearGradient>
<linearGradient id="paint3_linear_104_156" x1="115.211" y1="160.244" x2="127.933" y2="160.244" gradientUnits="userSpaceOnUse">
<stop stop-color="#808080"/>
<stop offset="1" stop-color="#808080"/>
</linearGradient>
<linearGradient id="paint4_linear_104_156" x1="41.169" y1="151.62" x2="95.9041" y2="184.242" gradientUnits="userSpaceOnUse">
<stop/>
<stop offset="1" stop-color="#505070"/>
</linearGradient>
<linearGradient id="paint5_linear_104_156" x1="53.1914" y1="160.28" x2="101.791" y2="160.28" gradientUnits="userSpaceOnUse">
<stop stop-color="#808080"/>
<stop offset="1" stop-color="#808080"/>
</linearGradient>
<linearGradient id="paint6_linear_104_156" x1="73.378" y1="159.178" x2="86.1002" y2="159.178" gradientUnits="userSpaceOnUse">
<stop stop-color="#808080"/>
<stop offset="1" stop-color="#808080"/>
</linearGradient>
<linearGradient id="paint7_linear_104_156" x1="73.378" y1="159.178" x2="86.1002" y2="159.178" gradientUnits="userSpaceOnUse">
<stop stop-color="#808080"/>
<stop offset="1" stop-color="#808080"/>
</linearGradient>
<linearGradient id="paint8_linear_104_156" x1="77.7591" y1="72.586" x2="126.132" y2="90.3647" gradientUnits="userSpaceOnUse">
<stop/>
<stop offset="1" stop-color="#505070"/>
</linearGradient>
<linearGradient id="paint9_linear_104_156" x1="78.4448" y1="72.5861" x2="121.284" y2="72.5861" gradientUnits="userSpaceOnUse">
<stop stop-color="#808080"/>
<stop offset="1" stop-color="#808080"/>
</linearGradient>
<linearGradient id="paint10_linear_104_156" x1="85.1488" y1="87.8128" x2="114.373" y2="105.499" gradientUnits="userSpaceOnUse">
<stop/>
<stop offset="1" stop-color="#505070"/>
</linearGradient>
<linearGradient id="paint11_linear_104_156" x1="84.8999" y1="96.1906" x2="114.621" y2="96.1906" gradientUnits="userSpaceOnUse">
<stop stop-color="#808080"/>
<stop offset="1" stop-color="#808080"/>
</linearGradient>
<linearGradient id="paint12_linear_104_156" x1="60.1773" y1="119.015" x2="160.565" y2="156.792" gradientUnits="userSpaceOnUse">
<stop/>
<stop offset="1" stop-color="#505070"/>
</linearGradient>
<linearGradient id="paint13_linear_104_156" x1="48.6277" y1="123.997" x2="155.115" y2="123.997" gradientUnits="userSpaceOnUse">
<stop stop-color="#808080"/>
<stop offset="1" stop-color="#808080"/>
</linearGradient>
</defs>
</svg>
