<svg width="200" height="200" viewBox="0 0 200 200" fill="none" xmlns="http://www.w3.org/2000/svg">
<path opacity="0.99" fill-rule="evenodd" clip-rule="evenodd" d="M132.2 146.538C122.979 151.386 113.757 157.199 104.536 158.66C103.33 161.443 102.657 164.522 102.657 167.76C102.657 180.202 112.547 190.302 124.736 190.302C136.924 190.302 146.822 180.202 146.822 167.76C146.822 157.99 140.72 149.664 132.2 146.538Z" fill="url(#paint0_linear_104_117)" stroke="url(#paint1_linear_104_117)" stroke-width="3.65714" stroke-linecap="round" stroke-linejoin="round"/>
<path opacity="0.99" fill-rule="evenodd" clip-rule="evenodd" d="M71.3 147.76C62.7435 150.865 56.6072 159.206 56.6072 169.002C56.6072 181.445 66.5043 191.545 78.6929 191.545C90.8815 191.545 100.771 181.445 100.771 169.002C100.771 165.225 99.8539 161.667 98.2429 158.538C87.3355 155.427 79.4255 151.566 71.3 147.76Z" fill="url(#paint2_linear_104_117)" stroke="url(#paint3_linear_104_117)" stroke-width="3.65714" stroke-linecap="round" stroke-linejoin="round"/>
<path opacity="0.99" fill-rule="evenodd" clip-rule="evenodd" d="M130.432 165.925C130.432 166.497 130.317 167.064 130.092 167.593C129.867 168.122 129.538 168.602 129.122 169.007C128.707 169.412 128.214 169.733 127.671 169.952C127.128 170.171 126.546 170.284 125.959 170.284C125.371 170.284 124.789 170.171 124.246 169.952C123.703 169.733 123.21 169.412 122.795 169.007C122.379 168.602 122.05 168.122 121.825 167.593C121.6 167.064 121.485 166.497 121.485 165.925C121.485 165.352 121.6 164.785 121.825 164.256C122.05 163.728 122.379 163.247 122.795 162.842C123.21 162.437 123.703 162.116 124.246 161.897C124.789 161.678 125.371 161.565 125.959 161.565C126.546 161.565 127.128 161.678 127.671 161.897C128.214 162.116 128.707 162.437 129.122 162.842C129.538 163.247 129.867 163.728 130.092 164.256C130.317 164.785 130.432 165.352 130.432 165.925V165.925Z" fill="url(#paint4_linear_104_117)" stroke="url(#paint5_linear_104_117)" stroke-width="3.65714" stroke-linecap="round" stroke-linejoin="round"/>
<path opacity="0.99" fill-rule="evenodd" clip-rule="evenodd" d="M86.1955 166.691C86.1956 167.263 86.0801 167.83 85.8553 168.359C85.6306 168.888 85.3011 169.368 84.8856 169.773C84.4702 170.178 83.9769 170.499 83.4341 170.718C82.8912 170.937 82.3094 171.05 81.7218 171.05C81.1342 171.05 80.5523 170.937 80.0094 170.718C79.4666 170.499 78.9733 170.178 78.5579 169.773C78.1425 169.368 77.813 168.888 77.5882 168.359C77.3635 167.83 77.2479 167.263 77.248 166.691C77.2479 166.118 77.3635 165.551 77.5882 165.022C77.813 164.494 78.1425 164.013 78.5579 163.608C78.9733 163.203 79.4666 162.882 80.0094 162.663C80.5523 162.444 81.1342 162.331 81.7218 162.331C82.3094 162.331 82.8912 162.444 83.4341 162.663C83.9769 162.882 84.4702 163.203 84.8856 163.608C85.3011 164.013 85.6306 164.494 85.8553 165.022C86.0801 165.551 86.1956 166.118 86.1955 166.691V166.691Z" fill="url(#paint6_linear_104_117)" stroke="url(#paint7_linear_104_117)" stroke-width="3.65714" stroke-linecap="round" stroke-linejoin="round"/>
<path fill-rule="evenodd" clip-rule="evenodd" d="M26.3699 65.4785C35.26 81.6676 50.8929 108.144 69.879 113.547C58.8495 91.3293 64.7602 58.5517 69.2086 36.3986C78.3902 59.5711 80.9225 82.6665 96.4463 99.9143C105.703 88.685 117.72 60.0879 121.519 35.7129C131.525 60.134 129.363 86.8226 126.871 110.314C146.808 101.72 159.274 85.8034 171.344 64.7612C175.746 113.429 145.527 130.612 142.414 150.019C114.983 147.481 87.5528 147.188 60.1223 150.736C60.202 133.599 20.8443 128.057 26.3699 65.4785V65.4785Z" fill="url(#paint8_linear_104_117)" stroke="url(#paint9_linear_104_117)" stroke-width="3.65714" stroke-linecap="round" stroke-linejoin="round"/>
<path opacity="0.99" fill-rule="evenodd" clip-rule="evenodd" d="M38.3945 63.6191C38.3949 65.2392 38.0716 66.8435 37.4433 68.3404C36.8149 69.8372 35.8937 71.1973 34.7324 72.343C33.571 73.4887 32.1922 74.3976 30.6747 75.0176C29.1571 75.6377 27.5306 75.9568 25.8881 75.9568C24.2455 75.9568 22.619 75.6377 21.1014 75.0176C19.5839 74.3976 18.2051 73.4887 17.0437 72.343C15.8824 71.1973 14.9612 69.8372 14.3328 68.3404C13.7045 66.8435 13.3813 65.2392 13.3816 63.6191C13.3813 61.999 13.7045 60.3947 14.3328 58.8979C14.9612 57.401 15.8824 56.0409 17.0437 54.8952C18.2051 53.7495 19.5839 52.8406 21.1014 52.2206C22.619 51.6005 24.2455 51.2814 25.8881 51.2814C27.5306 51.2814 29.1571 51.6005 30.6747 52.2206C32.1922 52.8406 33.571 53.7495 34.7324 54.8952C35.8937 56.0409 36.8149 57.401 37.4433 58.8979C38.0716 60.3947 38.3949 61.999 38.3945 63.6191V63.6191Z" fill="url(#paint10_linear_104_117)" stroke="url(#paint11_linear_104_117)" stroke-width="3.65714" stroke-linecap="round" stroke-linejoin="round"/>
<path d="M65.9048 137.905C77.1091 135.245 124.072 133.517 136.762 137.905" stroke="url(#paint12_linear_104_117)" stroke-width="3.65714" stroke-linecap="round" stroke-linejoin="round"/>
<path opacity="0.99" fill-rule="evenodd" clip-rule="evenodd" d="M82.2041 37.3333C82.2044 38.9534 81.8812 40.5577 81.2528 42.0546C80.6245 43.5515 79.7033 44.9116 78.5419 46.0573C77.3806 47.203 76.0018 48.1118 74.4842 48.7319C72.9667 49.3519 71.3402 49.6711 69.6976 49.6711C68.055 49.6711 66.4285 49.3519 64.911 48.7319C63.3935 48.1118 62.0147 47.203 60.8533 46.0573C59.6919 44.9116 58.7708 43.5515 58.1424 42.0546C57.5141 40.5577 57.1908 38.9534 57.1912 37.3333C57.1908 35.7132 57.5141 34.109 58.1424 32.6121C58.7708 31.1152 59.6919 29.7551 60.8533 28.6094C62.0147 27.4637 63.3935 26.5549 64.911 25.9348C66.4285 25.3147 68.055 24.9956 69.6976 24.9956C71.3402 24.9956 72.9667 25.3147 74.4842 25.9348C76.0018 26.5549 77.3806 27.4637 78.5419 28.6094C79.7033 29.7551 80.6245 31.1152 81.2528 32.6121C81.8812 34.109 82.2044 35.7132 82.2041 37.3333V37.3333Z" fill="url(#paint13_linear_104_117)" stroke="url(#paint14_linear_104_117)" stroke-width="3.65714" stroke-linecap="round" stroke-linejoin="round"/>
<path opacity="0.99" fill-rule="evenodd" clip-rule="evenodd" d="M134.776 37.7143C134.776 39.3344 134.453 40.9387 133.824 42.4356C133.196 43.9324 132.275 45.2926 131.113 46.4383C129.952 47.584 128.573 48.4928 127.056 49.1128C125.538 49.7329 123.912 50.052 122.269 50.052C120.627 50.052 119 49.7329 117.483 49.1128C115.965 48.4928 114.586 47.584 113.425 46.4383C112.263 45.2926 111.342 43.9324 110.714 42.4356C110.086 40.9387 109.762 39.3344 109.763 37.7143C109.762 36.0942 110.086 34.4899 110.714 32.9931C111.342 31.4962 112.263 30.1361 113.425 28.9904C114.586 27.8447 115.965 26.9359 117.483 26.3158C119 25.6957 120.627 25.3766 122.269 25.3766C123.912 25.3766 125.538 25.6957 127.056 26.3158C128.573 26.9359 129.952 27.8447 131.113 28.9904C132.275 30.1361 133.196 31.4962 133.824 32.9931C134.453 34.4899 134.776 36.0942 134.776 37.7143V37.7143Z" fill="url(#paint15_linear_104_117)" stroke="url(#paint16_linear_104_117)" stroke-width="3.65714" stroke-linecap="round" stroke-linejoin="round"/>
<path opacity="0.99" fill-rule="evenodd" clip-rule="evenodd" d="M184.299 64C184.3 65.6201 183.976 67.2243 183.348 68.7212C182.72 70.2181 181.799 71.5782 180.637 72.7239C179.476 73.8696 178.097 74.7784 176.579 75.3985C175.062 76.0185 173.435 76.3377 171.793 76.3377C170.15 76.3377 168.524 76.0185 167.006 75.3985C165.489 74.7784 164.11 73.8696 162.949 72.7239C161.787 71.5782 160.866 70.2181 160.238 68.7212C159.609 67.2243 159.286 65.6201 159.286 64C159.286 62.3799 159.609 60.7756 160.238 59.2787C160.866 57.7818 161.787 56.4217 162.949 55.276C164.11 54.1303 165.489 53.2215 167.006 52.6014C168.524 51.9814 170.15 51.6622 171.793 51.6622C173.435 51.6622 175.062 51.9814 176.579 52.6014C178.097 53.2215 179.476 54.1303 180.637 55.276C181.799 56.4217 182.72 57.7818 183.348 59.2787C183.976 60.7756 184.3 62.3799 184.299 64V64Z" fill="url(#paint17_linear_104_117)" stroke="url(#paint18_linear_104_117)" stroke-width="3.65714" stroke-linecap="round" stroke-linejoin="round"/>
<defs>
<linearGradient id="paint0_linear_104_117" x1="105.362" y1="151.567" x2="141.065" y2="172.23" gradientUnits="userSpaceOnUse">
<stop/>
<stop offset="1" stop-color="#505070"/>
</linearGradient>
<linearGradient id="paint1_linear_104_117" x1="100.829" y1="168.42" x2="148.65" y2="168.42" gradientUnits="userSpaceOnUse">
<stop stop-color="#808080"/>
<stop offset="1" stop-color="#808080"/>
</linearGradient>
<linearGradient id="paint2_linear_104_117" x1="66.5045" y1="134.145" x2="102.6" y2="150.88" gradientUnits="userSpaceOnUse">
<stop/>
<stop offset="1" stop-color="#505070"/>
</linearGradient>
<linearGradient id="paint3_linear_104_117" x1="54.7786" y1="169.652" x2="102.6" y2="169.652" gradientUnits="userSpaceOnUse">
<stop stop-color="#808080"/>
<stop offset="1" stop-color="#808080"/>
</linearGradient>
<linearGradient id="paint4_linear_104_117" x1="119.677" y1="165.925" x2="132.24" y2="165.925" gradientUnits="userSpaceOnUse">
<stop stop-color="#808080"/>
<stop offset="1" stop-color="#808080"/>
</linearGradient>
<linearGradient id="paint5_linear_104_117" x1="119.677" y1="165.925" x2="132.24" y2="165.925" gradientUnits="userSpaceOnUse">
<stop stop-color="#808080"/>
<stop offset="1" stop-color="#808080"/>
</linearGradient>
<linearGradient id="paint6_linear_104_117" x1="75.44" y1="166.691" x2="88.0035" y2="166.691" gradientUnits="userSpaceOnUse">
<stop stop-color="#808080"/>
<stop offset="1" stop-color="#808080"/>
</linearGradient>
<linearGradient id="paint7_linear_104_117" x1="75.44" y1="166.691" x2="88.0035" y2="166.691" gradientUnits="userSpaceOnUse">
<stop stop-color="#808080"/>
<stop offset="1" stop-color="#808080"/>
</linearGradient>
<linearGradient id="paint8_linear_104_117" x1="20.6481" y1="92.0164" x2="158.818" y2="134.198" gradientUnits="userSpaceOnUse">
<stop/>
<stop offset="1" stop-color="#505070"/>
</linearGradient>
<linearGradient id="paint9_linear_104_117" x1="24.0096" y1="93.2243" x2="173.61" y2="93.2243" gradientUnits="userSpaceOnUse">
<stop stop-color="#808080"/>
<stop offset="1" stop-color="#808080"/>
</linearGradient>
<linearGradient id="paint10_linear_104_117" x1="11.2376" y1="63.6191" x2="36.2915" y2="75.9381" gradientUnits="userSpaceOnUse">
<stop/>
<stop offset="1" stop-color="#505070"/>
</linearGradient>
<linearGradient id="paint11_linear_104_117" x1="11.4599" y1="63.6191" x2="40.3162" y2="63.6191" gradientUnits="userSpaceOnUse">
<stop stop-color="#808080"/>
<stop offset="1" stop-color="#808080"/>
</linearGradient>
<linearGradient id="paint12_linear_104_117" x1="64.0762" y1="136.564" x2="138.591" y2="136.564" gradientUnits="userSpaceOnUse">
<stop stop-color="#808080"/>
<stop offset="1" stop-color="#808080"/>
</linearGradient>
<linearGradient id="paint13_linear_104_117" x1="55.0472" y1="37.3333" x2="79.6582" y2="50.0618" gradientUnits="userSpaceOnUse">
<stop/>
<stop offset="1" stop-color="#505070"/>
</linearGradient>
<linearGradient id="paint14_linear_104_117" x1="55.2695" y1="37.3333" x2="84.1258" y2="37.3333" gradientUnits="userSpaceOnUse">
<stop stop-color="#808080"/>
<stop offset="1" stop-color="#808080"/>
</linearGradient>
<linearGradient id="paint15_linear_104_117" x1="107.619" y1="37.7143" x2="132.001" y2="49.1664" gradientUnits="userSpaceOnUse">
<stop/>
<stop offset="1" stop-color="#505070"/>
</linearGradient>
<linearGradient id="paint16_linear_104_117" x1="107.841" y1="37.7143" x2="136.697" y2="37.7143" gradientUnits="userSpaceOnUse">
<stop stop-color="#808080"/>
<stop offset="1" stop-color="#808080"/>
</linearGradient>
<linearGradient id="paint17_linear_104_117" x1="157.142" y1="64" x2="179.806" y2="76.6642" gradientUnits="userSpaceOnUse">
<stop/>
<stop offset="1" stop-color="#505070"/>
</linearGradient>
<linearGradient id="paint18_linear_104_117" x1="157.365" y1="64" x2="186.221" y2="64" gradientUnits="userSpaceOnUse">
<stop stop-color="#808080"/>
<stop offset="1" stop-color="#808080"/>
</linearGradient>
</defs>
</svg>
