<svg width="200" height="200" viewBox="0 0 200 200" fill="none" xmlns="http://www.w3.org/2000/svg">
<path opacity="0.99" fill-rule="evenodd" clip-rule="evenodd" d="M147.297 169.688C147.298 172.774 146.711 175.829 145.569 178.68C144.427 181.531 142.754 184.121 140.644 186.303C138.535 188.485 136.03 190.215 133.273 191.396C130.516 192.577 127.562 193.185 124.578 193.185C121.594 193.185 118.639 192.577 115.882 191.396C113.125 190.215 110.621 188.485 108.511 186.303C106.401 184.121 104.728 181.531 103.586 178.68C102.445 175.829 101.857 172.774 101.858 169.688C101.857 166.603 102.445 163.548 103.586 160.697C104.728 157.846 106.401 155.256 108.511 153.074C110.621 150.892 113.125 149.161 115.882 147.981C118.639 146.8 121.594 146.192 124.578 146.192C127.562 146.192 130.516 146.8 133.273 147.981C136.03 149.161 138.535 150.892 140.644 153.074C142.754 155.256 144.427 157.846 145.569 160.697C146.711 163.548 147.298 166.603 147.297 169.688V169.688Z" fill="url(#paint0_linear_104_166)" stroke="url(#paint1_linear_104_166)" stroke-width="3.65714" stroke-linecap="round" stroke-linejoin="round"/>
<path opacity="0.99" fill-rule="evenodd" clip-rule="evenodd" d="M99.9174 170.985C99.9179 174.071 99.3307 177.126 98.1891 179.977C97.0476 182.828 95.3742 185.418 93.2644 187.6C91.1546 189.782 88.6498 191.512 85.8931 192.693C83.1363 193.874 80.1816 194.482 77.1977 194.482C74.2138 194.482 71.2591 193.874 68.5023 192.693C65.7456 191.512 63.2408 189.782 61.131 187.6C59.0213 185.418 57.3478 182.828 56.2063 179.977C55.0648 177.126 54.4775 174.071 54.478 170.985C54.4775 167.9 55.0648 164.845 56.2063 161.994C57.3478 159.143 59.0213 156.553 61.131 154.371C63.2408 152.189 65.7456 150.458 68.5023 149.278C71.2591 148.097 74.2138 147.489 77.1977 147.489C80.1816 147.489 83.1363 148.097 85.8931 149.278C88.6498 150.458 91.1546 152.189 93.2644 154.371C95.3742 156.553 97.0476 159.143 98.1891 161.994C99.3307 164.845 99.9179 167.9 99.9174 170.985V170.985Z" fill="url(#paint2_linear_104_166)" stroke="url(#paint3_linear_104_166)" stroke-width="3.65714" stroke-linecap="round" stroke-linejoin="round"/>
<path opacity="0.99" fill-rule="evenodd" clip-rule="evenodd" d="M130.821 175.496C130.821 176.093 130.702 176.683 130.471 177.235C130.24 177.786 129.901 178.287 129.473 178.709C129.046 179.13 128.538 179.465 127.98 179.693C127.421 179.922 126.822 180.039 126.218 180.039C125.613 180.039 125.015 179.922 124.456 179.693C123.897 179.465 123.39 179.13 122.962 178.709C122.535 178.287 122.196 177.786 121.965 177.235C121.734 176.683 121.615 176.093 121.615 175.496C121.615 174.9 121.734 174.309 121.965 173.758C122.196 173.206 122.535 172.706 122.962 172.284C123.39 171.862 123.897 171.527 124.456 171.299C125.015 171.07 125.613 170.953 126.218 170.953C126.822 170.953 127.421 171.07 127.98 171.299C128.538 171.527 129.046 171.862 129.473 172.284C129.901 172.706 130.24 173.206 130.471 173.758C130.702 174.309 130.821 174.9 130.821 175.496V175.496Z" fill="url(#paint4_linear_104_166)" stroke="url(#paint5_linear_104_166)" stroke-width="3.65714" stroke-linecap="round" stroke-linejoin="round"/>
<path opacity="0.99" fill-rule="evenodd" clip-rule="evenodd" d="M82.4895 176.211C82.4897 176.808 82.3707 177.399 82.1395 177.95C81.9082 178.501 81.5692 179.002 81.1417 179.424C80.7143 179.846 80.2068 180.18 79.6482 180.409C79.0896 180.637 78.491 180.755 77.8863 180.755C77.2817 180.755 76.6831 180.637 76.1245 180.409C75.5659 180.18 75.0584 179.846 74.631 179.424C74.2035 179.002 73.8645 178.501 73.6332 177.95C73.402 177.399 73.283 176.808 73.2832 176.211C73.283 175.615 73.402 175.024 73.6332 174.473C73.8645 173.922 74.2035 173.421 74.631 172.999C75.0584 172.577 75.5659 172.242 76.1245 172.014C76.6831 171.786 77.2817 171.668 77.8863 171.668C78.491 171.668 79.0896 171.786 79.6482 172.014C80.2068 172.242 80.7143 172.577 81.1417 172.999C81.5692 173.421 81.9082 173.922 82.1395 174.473C82.3707 175.024 82.4897 175.615 82.4895 176.211V176.211Z" fill="url(#paint6_linear_104_166)" stroke="url(#paint7_linear_104_166)" stroke-width="3.65714" stroke-linecap="round" stroke-linejoin="round"/>
<path fill-rule="evenodd" clip-rule="evenodd" d="M94.6168 14.173C85.5094 14.3217 82.3006 24.5318 89.4011 38.7994C76.981 35.8342 62.2771 37.9168 62.3612 47.4866C62.4312 55.6966 75.1861 56.2947 89.7043 55.7952C91.5865 62.4113 93.1471 71.0144 96.4969 79.1366L102.118 79.4866C104.363 71.0684 105.254 61.4145 105.972 54.5146C121.259 55.8095 133.166 54.145 132.811 45.1223C132.439 35.6615 116.7 34.4261 104.2 38.394C105.547 26.1006 103.028 14.0397 94.6168 14.173V14.173Z" fill="url(#paint8_linear_104_166)" stroke="url(#paint9_linear_104_166)" stroke-width="3.65714" stroke-linecap="round" stroke-linejoin="round"/>
<path opacity="0.99" fill-rule="evenodd" clip-rule="evenodd" d="M123.184 93.7445C123.184 99.556 120.755 105.129 116.432 109.239C112.109 113.348 106.246 115.657 100.132 115.657C94.0188 115.657 88.1556 113.348 83.8326 109.239C79.5097 105.129 77.0811 99.556 77.0811 93.7445C77.0811 87.933 79.5097 82.3596 83.8326 78.2502C88.1556 74.1409 94.0188 71.8323 100.132 71.8323C106.246 71.8323 112.109 74.1409 116.432 78.2502C120.755 82.3596 123.184 87.933 123.184 93.7445V93.7445Z" fill="url(#paint10_linear_104_166)" stroke="url(#paint11_linear_104_166)" stroke-width="3.65714" stroke-linecap="round" stroke-linejoin="round"/>
<path fill-rule="evenodd" clip-rule="evenodd" d="M56.079 151.982C59.3419 137.604 32.4187 140.481 26.4374 113.806C21.652 92.4634 32.319 75.1338 55.1647 73.4124C81.7238 71.4112 100.165 109.105 100.165 109.105C100.165 109.105 115.96 77.831 136.758 73.2294C159.387 68.2228 178.969 85.8146 175.417 109.928C171.604 135.818 140.872 134.085 143.681 149.868C112.654 147.319 84.4835 148.923 56.079 151.982V151.982Z" fill="url(#paint12_linear_104_166)" stroke="url(#paint13_linear_104_166)" stroke-width="3.65714" stroke-linecap="round" stroke-linejoin="round"/>
<path d="M61.5269 138.696C72.7312 136.036 126.373 135.043 139.415 137.324" stroke="url(#paint14_linear_104_166)" stroke-width="3.65714" stroke-linecap="round" stroke-linejoin="round"/>
<defs>
<linearGradient id="paint0_linear_104_166" x1="110.866" y1="161.551" x2="156.366" y2="192.93" gradientUnits="userSpaceOnUse">
<stop stop-color="white"/>
<stop offset="1" stop-color="#D0B090"/>
</linearGradient>
<linearGradient id="paint1_linear_104_166" x1="99.9524" y1="169.688" x2="149.203" y2="169.688" gradientUnits="userSpaceOnUse">
<stop/>
<stop offset="1"/>
</linearGradient>
<linearGradient id="paint2_linear_104_166" x1="63.4859" y1="162.848" x2="108.986" y2="194.227" gradientUnits="userSpaceOnUse">
<stop stop-color="white"/>
<stop offset="1" stop-color="#D0B090"/>
</linearGradient>
<linearGradient id="paint3_linear_104_166" x1="52.5726" y1="170.985" x2="101.823" y2="170.985" gradientUnits="userSpaceOnUse">
<stop/>
<stop offset="1"/>
</linearGradient>
<linearGradient id="paint4_linear_104_166" x1="119.818" y1="175.496" x2="132.618" y2="175.496" gradientUnits="userSpaceOnUse">
<stop/>
<stop offset="1"/>
</linearGradient>
<linearGradient id="paint5_linear_104_166" x1="119.818" y1="175.496" x2="132.618" y2="175.496" gradientUnits="userSpaceOnUse">
<stop/>
<stop offset="1"/>
</linearGradient>
<linearGradient id="paint6_linear_104_166" x1="71.4867" y1="176.211" x2="84.286" y2="176.211" gradientUnits="userSpaceOnUse">
<stop/>
<stop offset="1"/>
</linearGradient>
<linearGradient id="paint7_linear_104_166" x1="71.4867" y1="176.211" x2="84.286" y2="176.211" gradientUnits="userSpaceOnUse">
<stop/>
<stop offset="1"/>
</linearGradient>
<linearGradient id="paint8_linear_104_166" x1="73.9579" y1="33.6293" x2="126.697" y2="64.6982" gradientUnits="userSpaceOnUse">
<stop stop-color="white"/>
<stop offset="1" stop-color="#D0B090"/>
</linearGradient>
<linearGradient id="paint9_linear_104_166" x1="60.5323" y1="46.8292" x2="134.647" y2="46.8292" gradientUnits="userSpaceOnUse">
<stop/>
<stop offset="1"/>
</linearGradient>
<linearGradient id="paint10_linear_104_166" x1="85.4604" y1="83.5435" x2="113.883" y2="93.7999" gradientUnits="userSpaceOnUse">
<stop stop-color="white"/>
<stop offset="1" stop-color="#D0B090"/>
</linearGradient>
<linearGradient id="paint11_linear_104_166" x1="75.2497" y1="93.7445" x2="125.015" y2="93.7445" gradientUnits="userSpaceOnUse">
<stop/>
<stop offset="1"/>
</linearGradient>
<linearGradient id="paint12_linear_104_166" x1="12.6654" y1="102.219" x2="178.319" y2="170.047" gradientUnits="userSpaceOnUse">
<stop stop-color="white"/>
<stop offset="1" stop-color="#D0B090"/>
</linearGradient>
<linearGradient id="paint13_linear_104_166" x1="23.4849" y1="112.178" x2="177.664" y2="112.178" gradientUnits="userSpaceOnUse">
<stop/>
<stop offset="1"/>
</linearGradient>
<linearGradient id="paint14_linear_104_166" x1="59.6983" y1="137.375" x2="141.243" y2="137.375" gradientUnits="userSpaceOnUse">
<stop/>
<stop offset="1"/>
</linearGradient>
</defs>
</svg>
