<svg width="200" height="200" viewBox="0 0 200 200" fill="none" xmlns="http://www.w3.org/2000/svg">
<path d="M47.3337 45.9154C47.1522 90.1069 50.357 136.064 47.3337 179.53H156.061C151.326 136.486 155.285 88.9146 156.061 45.9154H47.3337Z" fill="url(#paint0_linear_104_188)" stroke="url(#paint1_linear_104_188)" stroke-width="3.65714" stroke-linecap="round" stroke-linejoin="round"/>
<path d="M115.563 73.688C109.599 78.554 104.52 84.6288 104.52 93.9496C104.52 102.237 107.139 104.186 112.018 109.151L141.006 109.836C145.886 104.872 147.618 99.128 147.618 90.8405C147.618 81.5198 145.067 73.2982 139.103 68.4321L115.563 73.688V73.688Z" fill="url(#paint2_linear_104_188)" stroke="url(#paint3_linear_104_188)" stroke-width="3.65714" stroke-linecap="round" stroke-linejoin="round"/>
<path d="M63.2796 64.9736C57.3151 70.0156 54.5356 78.5345 54.5356 88.1922C54.5356 96.7793 56.4897 102.792 61.3695 107.935L90.3573 107.717C95.237 102.574 98.3407 96.7793 98.3407 88.1922C98.3407 78.5345 94.3415 76.7451 88.3771 71.7032L63.2796 64.9736Z" fill="url(#paint4_linear_104_188)" stroke="url(#paint5_linear_104_188)" stroke-width="3.65714" stroke-linecap="round" stroke-linejoin="round"/>
<path opacity="0.99" fill-rule="evenodd" clip-rule="evenodd" d="M34.381 170.071C30.0794 170.187 26.6667 172.699 26.6667 175.8V182.807C26.6667 185.982 30.2483 188.535 34.6953 188.535C75.9879 189.481 117.855 190.09 163.402 188.535C167.849 188.535 171.431 185.982 171.431 182.807V175.8C171.431 172.624 167.849 170.071 163.402 170.071C121.167 171.834 78.366 172.102 34.6953 170.071C34.5911 170.071 34.4843 170.068 34.381 170.071Z" fill="url(#paint6_linear_104_188)" stroke="url(#paint7_linear_104_188)" stroke-width="3.65714" stroke-linecap="round" stroke-linejoin="round"/>
<path opacity="0.99" fill-rule="evenodd" clip-rule="evenodd" d="M64.6857 23.4714V35.7071C64.6857 39.732 61.2788 42.9714 57.0429 42.9714H53.2857C49.0498 42.9714 45.6357 39.732 45.6357 35.7071V20.2214C39.3171 20.4432 35.1209 20.737 34.1 21.1C28.3047 23.1605 22.7233 22.2745 21.2214 28.8143C19.4827 36.3859 19.1291 46.2842 21.2214 53.7786C22.3488 57.8165 26.9766 61.8381 34.1 61.4929C75.9793 59.4631 116.969 60.1108 166.2 61.4929C173.33 61.6952 177.951 57.8165 179.079 53.7786C181.171 46.2842 181.171 36.3087 179.079 28.8143C177.951 24.7763 173.257 22.0276 166.2 21.1C163.96 20.8056 158.867 20.5469 151.921 20.3357V36.85C151.921 40.8749 148.515 44.1143 144.279 44.1143H140.521C136.285 44.1143 132.879 40.8749 132.879 36.85V23.5857C125.067 23.468 116.484 22.4726 107.736 22.4286V35.3286C107.736 39.3535 104.322 42.5929 100.086 42.5929H96.3286C92.0926 42.5929 88.6857 39.3535 88.6857 35.3286V22.3929C88.6477 22.3929 71.5539 23.3841 64.6857 23.4714V23.4714Z" fill="url(#paint8_linear_104_188)" stroke="url(#paint9_linear_104_188)" stroke-width="3.65714" stroke-linecap="round" stroke-linejoin="round"/>
<path opacity="0.99" fill-rule="evenodd" clip-rule="evenodd" d="M83.497 95.5252C83.4972 96.1301 83.3581 96.729 83.0875 97.2879C82.817 97.8467 82.4203 98.3545 81.9202 98.7823C81.4201 99.21 80.8263 99.5493 80.1728 99.7808C79.5193 100.012 78.8188 100.132 78.1114 100.132C77.404 100.132 76.7036 100.012 76.0501 99.7808C75.3966 99.5493 74.8028 99.21 74.3027 98.7823C73.8026 98.3545 73.4059 97.8467 73.1353 97.2879C72.8648 96.729 72.7256 96.1301 72.7258 95.5252C72.7256 94.9204 72.8648 94.3214 73.1353 93.7626C73.4059 93.2037 73.8026 92.6959 74.3027 92.2682C74.8028 91.8404 75.3966 91.5011 76.0501 91.2696C76.7036 91.0381 77.404 90.9189 78.1114 90.9189C78.8188 90.9189 79.5193 91.0381 80.1728 91.2696C80.8263 91.5011 81.4201 91.8404 81.9202 92.2682C82.4203 92.6959 82.817 93.2037 83.0875 93.7626C83.3581 94.3214 83.4972 94.9204 83.497 95.5252V95.5252Z" fill="url(#paint10_linear_104_188)" stroke="url(#paint11_linear_104_188)" stroke-width="3.65714" stroke-linecap="round" stroke-linejoin="round"/>
<path opacity="0.99" fill-rule="evenodd" clip-rule="evenodd" d="M127.976 97.599C127.976 98.2038 127.837 98.8027 127.567 99.3616C127.296 99.9205 126.9 100.428 126.399 100.856C125.899 101.284 125.306 101.623 124.652 101.855C123.999 102.086 123.298 102.205 122.591 102.205C121.883 102.205 121.183 102.086 120.529 101.855C119.876 101.623 119.282 101.284 118.782 100.856C118.282 100.428 117.885 99.9205 117.615 99.3616C117.344 98.8027 117.205 98.2038 117.205 97.599C117.205 96.9941 117.344 96.3952 117.615 95.8363C117.885 95.2775 118.282 94.7697 118.782 94.3419C119.282 93.9142 119.876 93.5748 120.529 93.3433C121.183 93.1118 121.883 92.9927 122.591 92.9927C123.298 92.9927 123.999 93.1118 124.652 93.3433C125.306 93.5748 125.899 93.9142 126.399 94.3419C126.9 94.7697 127.296 95.2775 127.567 95.8363C127.837 96.3952 127.976 96.9941 127.976 97.599V97.599Z" fill="url(#paint12_linear_104_188)" stroke="url(#paint13_linear_104_188)" stroke-width="3.65714" stroke-linecap="round" stroke-linejoin="round"/>
<path d="M82.6407 171.446C82.6407 167.136 81.7618 154.661 83.7182 140.199C86.0224 123.166 117.214 125.922 118.198 140.199C118.817 149.181 118.198 170.369 118.198 170.369" stroke="url(#paint14_linear_104_188)" stroke-width="3.65714" stroke-linecap="round" stroke-linejoin="round"/>
<path d="M85.6135 135.127C94.2335 125.789 110.33 127.801 111.473 142.67C112.302 153.442 111.408 170.684 111.408 170.684" stroke="url(#paint15_linear_104_188)" stroke-width="3.65714" stroke-linecap="round" stroke-linejoin="round"/>
<defs>
<linearGradient id="paint0_linear_104_188" x1="13.0566" y1="96.4997" x2="169.609" y2="143.243" gradientUnits="userSpaceOnUse">
<stop stop-color="white"/>
<stop offset="1" stop-color="#D0B090"/>
</linearGradient>
<linearGradient id="paint1_linear_104_188" x1="45.4976" y1="112.723" x2="157.889" y2="112.723" gradientUnits="userSpaceOnUse">
<stop/>
<stop offset="1"/>
</linearGradient>
<linearGradient id="paint2_linear_104_188" x1="105.702" y1="84.3342" x2="149.374" y2="107.503" gradientUnits="userSpaceOnUse">
<stop stop-color="white"/>
<stop offset="1" stop-color="#D0B090"/>
</linearGradient>
<linearGradient id="paint3_linear_104_188" x1="102.691" y1="89.1341" x2="149.447" y2="89.1341" gradientUnits="userSpaceOnUse">
<stop/>
<stop offset="1"/>
</linearGradient>
<linearGradient id="paint4_linear_104_188" x1="51.5642" y1="81.904" x2="99.5432" y2="102.009" gradientUnits="userSpaceOnUse">
<stop stop-color="white"/>
<stop offset="1" stop-color="#D0B090"/>
</linearGradient>
<linearGradient id="paint5_linear_104_188" x1="52.7071" y1="86.4544" x2="100.169" y2="86.4544" gradientUnits="userSpaceOnUse">
<stop/>
<stop offset="1"/>
</linearGradient>
<linearGradient id="paint6_linear_104_188" x1="24.8382" y1="178.798" x2="177.448" y2="178.798" gradientUnits="userSpaceOnUse">
<stop stop-color="white"/>
<stop offset="1" stop-color="#D0B090"/>
</linearGradient>
<linearGradient id="paint7_linear_104_188" x1="24.8382" y1="179.778" x2="173.26" y2="179.778" gradientUnits="userSpaceOnUse">
<stop/>
<stop offset="1"/>
</linearGradient>
<linearGradient id="paint8_linear_104_188" x1="71.2045" y1="-11.7306" x2="150.657" y2="81.8986" gradientUnits="userSpaceOnUse">
<stop stop-color="white"/>
<stop offset="1" stop-color="#D0B090"/>
</linearGradient>
<linearGradient id="paint9_linear_104_188" x1="17.9532" y1="40.8675" x2="182.476" y2="40.8675" gradientUnits="userSpaceOnUse">
<stop/>
<stop offset="1"/>
</linearGradient>
<linearGradient id="paint10_linear_104_188" x1="70.796" y1="95.5252" x2="85.4269" y2="95.5252" gradientUnits="userSpaceOnUse">
<stop/>
<stop offset="1"/>
</linearGradient>
<linearGradient id="paint11_linear_104_188" x1="70.796" y1="95.5252" x2="85.4269" y2="95.5252" gradientUnits="userSpaceOnUse">
<stop/>
<stop offset="1"/>
</linearGradient>
<linearGradient id="paint12_linear_104_188" x1="115.275" y1="97.599" x2="129.906" y2="97.599" gradientUnits="userSpaceOnUse">
<stop/>
<stop offset="1"/>
</linearGradient>
<linearGradient id="paint13_linear_104_188" x1="115.275" y1="97.599" x2="129.906" y2="97.599" gradientUnits="userSpaceOnUse">
<stop/>
<stop offset="1"/>
</linearGradient>
<linearGradient id="paint14_linear_104_188" x1="80.6153" y1="149.941" x2="120.302" y2="149.941" gradientUnits="userSpaceOnUse">
<stop/>
<stop offset="1"/>
</linearGradient>
<linearGradient id="paint15_linear_104_188" x1="83.785" y1="150.075" x2="113.654" y2="150.075" gradientUnits="userSpaceOnUse">
<stop/>
<stop offset="1"/>
</linearGradient>
</defs>
</svg>
