<svg width="200" height="200" viewBox="0 0 200 200" fill="none" xmlns="http://www.w3.org/2000/svg">
<path fill-rule="evenodd" clip-rule="evenodd" d="M86.756 104.063C75.291 99.1402 74.8107 88.4231 54.5324 84.2361C47.5255 82.7893 56.2687 101.644 57.4986 117.609C58.7287 133.577 50.7519 147.55 58.2369 160.403C68.184 177.483 75.4993 179.154 82.2329 185.403C94.497 196.784 110.485 195.886 120.163 186.667C128.35 178.867 139.853 174.968 148.853 157.63C156.054 143.757 151.741 133.356 152.673 118.593C153.759 101.371 158.933 82.0061 151.865 83.1654C130.245 86.7109 128.951 102.985 119.389 105.812C109.201 108.824 96.1821 108.111 86.756 104.063Z" fill="url(#paint0_linear_104_1126)"/>
<path fill-rule="evenodd" clip-rule="evenodd" d="M86.756 104.063C75.291 99.1402 74.8107 88.4231 54.5324 84.2361C47.5255 82.7893 56.2687 101.644 57.4986 117.609C58.7287 133.577 50.7519 147.55 58.2369 160.403C68.184 177.483 75.4993 179.154 82.2329 185.403C94.497 196.784 110.485 195.886 120.163 186.667C128.35 178.867 139.853 174.968 148.853 157.63C156.054 143.757 151.741 133.356 152.673 118.593C153.759 101.371 158.933 82.0061 151.865 83.1654C130.245 86.7109 128.951 102.985 119.389 105.812C109.201 108.824 96.1821 108.111 86.756 104.063Z" fill="url(#paint1_linear_104_1126)" stroke="url(#paint2_linear_104_1126)" stroke-width="3.65715" stroke-linecap="round" stroke-linejoin="round"/>
<path fill-rule="evenodd" clip-rule="evenodd" d="M113.66 141.309C117.017 130.531 126.34 127.268 135.725 134.377C138.063 136.149 132.475 151.112 113.66 141.309Z" fill="url(#paint3_linear_104_1126)"/>
<path fill-rule="evenodd" clip-rule="evenodd" d="M91.5763 141.021C88.2194 130.243 78.8967 126.98 69.5119 134.089C67.1732 135.861 72.7616 150.824 91.5763 141.021Z" fill="url(#paint4_linear_104_1126)"/>
<path fill-rule="evenodd" clip-rule="evenodd" d="M93.207 162.973C93.7021 165.165 98.0704 167.184 99.842 166.189C100.689 171.49 101.549 169.069 102.41 168.932C103.173 168.811 104.359 171.843 104.453 166.212C106.387 166.527 110.774 165.802 111.08 162.955L111.219 162.815C105.596 162.11 97.7127 162.189 93.207 162.973V162.973Z" fill="#C1856E" stroke="url(#paint5_linear_104_1126)" stroke-width="3.65715" stroke-linecap="round" stroke-linejoin="round"/>
<path d="M92.316 165.469C80.7318 161.913 69.4572 161.762 58.2412 162.257" stroke="url(#paint6_linear_104_1126)" stroke-width="3.65715" stroke-linecap="round" stroke-linejoin="round"/>
<path d="M83.5181 166.955C71.4891 165.491 60.3635 167.324 49.4092 169.783" stroke="url(#paint7_linear_104_1126)" stroke-width="3.65715" stroke-linecap="round" stroke-linejoin="round"/>
<path d="M90.2207 168.864C78.1244 169.585 66.3246 171.414 55.9907 175.801" stroke="url(#paint8_linear_104_1126)" stroke-width="3.65715" stroke-linecap="round" stroke-linejoin="round"/>
<path d="M122.697 178.003C112.348 181.755 101.686 176.861 102.785 172.221C103.484 169.266 100.952 170.072 101.607 172.219C102.757 175.992 88.5268 181.791 81.1064 177.914" stroke="url(#paint9_linear_104_1126)" stroke-width="3.65715" stroke-linecap="round" stroke-linejoin="round"/>
<path d="M94.066 161.742C93.4203 157.869 97.2632 154.924 93.6751 143.404C90.3182 132.626 80.3787 126.603 69.512 134.09C67.7574 135.298 70.9733 150.718 89.6566 142.015" stroke="url(#paint10_linear_104_1126)" stroke-width="3.65715" stroke-linecap="round" stroke-linejoin="round"/>
<path fill-rule="evenodd" clip-rule="evenodd" d="M79.1179 134.202C81.6549 136.358 81.0532 138.964 79.7972 141.663C78.6759 139.65 77.9411 137.432 79.1179 134.202Z" fill="black" stroke="black" stroke-width="3.65715" stroke-linecap="round" stroke-linejoin="round"/>
<path fill-rule="evenodd" clip-rule="evenodd" d="M74.4565 117.045C79.2894 121.383 79.3279 122.104 82.7959 127.484C85.1877 121.153 86.2618 114.822 92.8508 108.491L74.4565 117.045V117.045Z" fill="url(#paint11_linear_104_1126)"/>
<path fill-rule="evenodd" clip-rule="evenodd" d="M90.1787 111.581L93.7336 131.331L94.1286 111.186L90.1787 111.581V111.581Z" fill="url(#paint12_linear_104_1126)"/>
<path fill-rule="evenodd" clip-rule="evenodd" d="M57.4373 146.181C61.181 143.378 66.1094 141.761 67.9598 137.066C62.9726 137.682 63.8585 132.12 55.415 140.507L57.4373 146.181V146.181Z" fill="url(#paint13_linear_104_1126)"/>
<path fill-rule="evenodd" clip-rule="evenodd" d="M80.7142 159.134C85.2418 154.479 84.384 157.629 89.8984 154.38C83.6686 151.736 80.5458 149.619 68.5593 147.126C61.6832 152.928 72.5964 154.331 80.7142 159.134Z" fill="url(#paint14_linear_104_1126)"/>
<path fill-rule="evenodd" clip-rule="evenodd" d="M132.048 117.836C127.215 122.173 127.176 122.894 123.708 128.274C121.316 121.943 120.242 115.612 113.653 109.281L132.048 117.836Z" fill="url(#paint15_linear_104_1126)"/>
<path fill-rule="evenodd" clip-rule="evenodd" d="M114.934 111.458L111.379 131.207L110.984 111.063L114.934 111.458Z" fill="url(#paint16_linear_104_1126)"/>
<path fill-rule="evenodd" clip-rule="evenodd" d="M147.832 146.576C144.088 143.773 139.16 142.156 137.31 137.46C142.297 138.076 145.321 136.984 153.765 145.371L147.832 146.576Z" fill="url(#paint17_linear_104_1126)"/>
<path fill-rule="evenodd" clip-rule="evenodd" d="M124.16 159.924C119.633 155.269 120.49 158.419 114.976 155.17C121.206 152.526 124.329 150.409 136.315 147.916C143.191 153.718 132.278 155.121 124.16 159.924Z" fill="url(#paint18_linear_104_1126)"/>
<path d="M87.897 172.419C76.8808 177.467 68.3605 184.853 60.3135 192.681" stroke="url(#paint19_linear_104_1126)" stroke-width="3.65715" stroke-linecap="round" stroke-linejoin="round"/>
<path d="M84.5229 171.988C72.6959 174.627 62.8222 180.072 53.3188 186.049" stroke="url(#paint20_linear_104_1126)" stroke-width="3.65715" stroke-linecap="round" stroke-linejoin="round"/>
<path d="M113.398 165.074C124.982 161.518 136.257 161.367 147.473 161.862" stroke="url(#paint21_linear_104_1126)" stroke-width="3.65715" stroke-linecap="round" stroke-linejoin="round"/>
<path d="M122.196 166.56C134.225 165.096 145.351 166.929 156.305 169.388" stroke="url(#paint22_linear_104_1126)" stroke-width="3.65715" stroke-linecap="round" stroke-linejoin="round"/>
<path d="M115.494 168.469C127.59 169.19 139.39 171.019 149.724 175.406" stroke="url(#paint23_linear_104_1126)" stroke-width="3.65715" stroke-linecap="round" stroke-linejoin="round"/>
<path d="M117.817 172.024C128.834 177.072 137.354 184.458 145.401 192.287" stroke="url(#paint24_linear_104_1126)" stroke-width="3.65715" stroke-linecap="round" stroke-linejoin="round"/>
<path d="M121.191 171.593C133.018 174.232 142.892 179.677 152.396 185.654" stroke="url(#paint25_linear_104_1126)" stroke-width="3.65715" stroke-linecap="round" stroke-linejoin="round"/>
<path fill-rule="evenodd" clip-rule="evenodd" d="M55.6875 89.7966C56.5219 93.2137 59.8797 108.373 62.0054 120.31C64.1683 114.585 74.7371 114.416 80.6954 108.691C67.0275 86.6992 59.7837 90.3438 55.6875 89.7966Z" fill="url(#paint26_linear_104_1126)"/>
<path fill-rule="evenodd" clip-rule="evenodd" d="M152.039 87.5098C151.204 90.9268 150.028 107.797 147.902 119.733C145.74 114.009 133.495 113.84 127.537 108.115C141.205 86.1232 146.79 88.0569 152.039 87.5098Z" fill="url(#paint27_linear_104_1126)"/>
<path fill-rule="evenodd" clip-rule="evenodd" d="M73.481 112.533C70.0678 90.0604 64.7817 89.9144 96.9403 53.7568C141.776 80.5652 128.167 89.4963 131.059 112.383C103.651 109.659 96.8504 110.177 73.481 112.533V112.533Z" fill="url(#paint28_linear_104_1126)" stroke="url(#paint29_linear_104_1126)" stroke-width="3.65715" stroke-linecap="round" stroke-linejoin="round"/>
<path d="M111.277 161.211C111.923 157.338 108.08 154.393 111.668 142.873C115.025 132.095 124.964 126.073 135.831 133.559C137.586 134.768 134.37 150.187 115.687 141.484" stroke="url(#paint30_linear_104_1126)" stroke-width="3.65715" stroke-linecap="round" stroke-linejoin="round"/>
<path fill-rule="evenodd" clip-rule="evenodd" d="M125.534 132.98C122.997 135.136 123.599 137.742 124.855 140.442C125.976 138.428 126.711 136.21 125.534 132.98Z" fill="black" stroke="black" stroke-width="3.65715" stroke-linecap="round" stroke-linejoin="round"/>
<path fill-rule="evenodd" clip-rule="evenodd" d="M99.1075 152.538C94.005 134.569 94.3458 111.316 103.223 111.446C110.343 111.553 109.135 140.026 106.815 154.316C106.815 154.316 102.04 162.866 99.1075 152.538Z" fill="url(#paint31_linear_104_1126)"/>
<path fill-rule="evenodd" clip-rule="evenodd" d="M135.665 96.272C149.891 66.4129 143.589 39.6762 119.223 14.4314C103.745 24.02 74.8079 63.1223 72.832 88.5074C98.4367 84.1916 110.281 90.8517 135.665 96.272Z" fill="url(#paint32_linear_104_1126)" stroke="url(#paint33_linear_104_1126)" stroke-width="3.65715" stroke-linecap="round" stroke-linejoin="round"/>
<path fill-rule="evenodd" clip-rule="evenodd" d="M69.5484 101.544C49.961 80.5426 64.2089 40.719 86.8056 12.9023C123.134 41.5588 143.458 73.1248 134.808 101.497C109.203 97.1812 94.9321 96.1241 69.5484 101.544V101.544Z" fill="url(#paint34_linear_104_1126)" stroke="url(#paint35_linear_104_1126)" stroke-width="3.65715" stroke-linecap="round" stroke-linejoin="round"/>
<path opacity="0.99" fill-rule="evenodd" clip-rule="evenodd" d="M93.9298 54.7331C91.1058 54.6657 88.6496 57.024 88.8677 59.431C88.8364 60.8168 88.7662 62.2017 88.7052 63.5867C86.8118 63.4862 84.8867 63.1086 83.001 63.4129C80.5016 63.985 78.6483 66.3507 79.2669 68.5719C79.7297 70.6066 82.0366 72.1679 84.4328 72.0882C86.0904 72.1625 87.7436 72.2948 89.3968 72.4206C89.8115 75.983 90.6027 79.5105 91.6491 82.9723C92.071 85.2507 94.7733 87.0958 97.4538 86.6806C100.171 86.3609 102.283 83.8948 101.73 81.5517C101.493 80.381 101.005 79.2588 100.78 78.0846C100.288 76.1284 99.8681 74.1532 99.6381 72.1626C101.664 71.9886 103.802 72.1397 105.702 71.4066C107.858 70.4553 109.11 68.0733 108.229 66.0732C107.468 64.1321 105.034 62.8534 102.688 63.0997C101.408 63.143 100.135 63.2816 98.8577 63.363C98.8874 62.8427 98.8203 62.3087 98.8717 61.7825C98.8969 60.6459 99.0873 59.5046 98.9967 58.3707C98.525 56.365 96.3609 54.6497 93.9298 54.7331V54.7331Z" fill="url(#paint36_linear_104_1126)" stroke="url(#paint37_linear_104_1126)" stroke-width="3.65715" stroke-linecap="round" stroke-linejoin="round"/>
<path d="M96.7108 102.467C94.5016 107.441 107.587 108.824 106.422 102.543" stroke="url(#paint38_linear_104_1126)" stroke-width="3.65715" stroke-linecap="round" stroke-linejoin="round"/>
<path fill-rule="evenodd" clip-rule="evenodd" d="M145.388 131.91C141.644 129.108 136.716 127.49 134.865 122.795C139.852 123.411 142.877 122.318 151.32 130.705L145.388 131.91Z" fill="url(#paint39_linear_104_1126)"/>
<path fill-rule="evenodd" clip-rule="evenodd" d="M60.6966 133.144C64.4403 130.342 69.3687 128.725 71.2191 124.029C66.2319 124.645 67.1178 119.084 58.6743 127.471L60.6966 133.144V133.144Z" fill="url(#paint40_linear_104_1126)"/>
<defs>
<linearGradient id="paint0_linear_104_1126" x1="103.679" y1="177.745" x2="103.679" y2="146.504" gradientUnits="userSpaceOnUse">
<stop/>
<stop offset="1" stop-color="#505070"/>
</linearGradient>
<linearGradient id="paint1_linear_104_1126" x1="102.611" y1="76.3476" x2="102.611" y2="143.047" gradientUnits="userSpaceOnUse">
<stop stop-color="#64779C"/>
<stop offset="1" stop-opacity="0"/>
</linearGradient>
<linearGradient id="paint2_linear_104_1126" x1="50.0117" y1="138.438" x2="157.346" y2="138.438" gradientUnits="userSpaceOnUse">
<stop stop-color="#181818"/>
<stop offset="1" stop-color="#181818"/>
</linearGradient>
<linearGradient id="paint3_linear_104_1126" x1="124.943" y1="130.599" x2="122.302" y2="148.84" gradientUnits="userSpaceOnUse">
<stop stop-color="#A7CC52"/>
<stop offset="1" stop-color="#AFC14D" stop-opacity="0.270833"/>
</linearGradient>
<linearGradient id="paint4_linear_104_1126" x1="80.2933" y1="130.311" x2="82.9345" y2="148.552" gradientUnits="userSpaceOnUse">
<stop stop-color="#A7CC52"/>
<stop offset="1" stop-color="#AFC14D" stop-opacity="0.270833"/>
</linearGradient>
<linearGradient id="paint5_linear_104_1126" x1="91.3785" y1="165.986" x2="113.048" y2="165.986" gradientUnits="userSpaceOnUse">
<stop stop-color="#181818"/>
<stop offset="1" stop-color="#181818"/>
</linearGradient>
<linearGradient id="paint6_linear_104_1126" x1="56.4126" y1="163.759" x2="94.1446" y2="163.759" gradientUnits="userSpaceOnUse">
<stop stop-color="#181818"/>
<stop offset="1" stop-color="#181818"/>
</linearGradient>
<linearGradient id="paint7_linear_104_1126" x1="47.5806" y1="168.108" x2="85.3467" y2="168.108" gradientUnits="userSpaceOnUse">
<stop stop-color="#181818"/>
<stop offset="1" stop-color="#181818"/>
</linearGradient>
<linearGradient id="paint8_linear_104_1126" x1="54.1622" y1="172.333" x2="92.0493" y2="172.333" gradientUnits="userSpaceOnUse">
<stop stop-color="#181818"/>
<stop offset="1" stop-color="#181818"/>
</linearGradient>
<linearGradient id="paint9_linear_104_1126" x1="79.2779" y1="174.815" x2="124.526" y2="174.815" gradientUnits="userSpaceOnUse">
<stop stop-color="#181818"/>
<stop offset="1" stop-color="#181818"/>
</linearGradient>
<linearGradient id="paint10_linear_104_1126" x1="67.2647" y1="146.251" x2="97.0566" y2="146.251" gradientUnits="userSpaceOnUse">
<stop stop-color="#181818"/>
<stop offset="1" stop-color="#181818"/>
</linearGradient>
<linearGradient id="paint11_linear_104_1126" x1="83.6539" y1="127.484" x2="81.3962" y2="111.667" gradientUnits="userSpaceOnUse">
<stop/>
<stop offset="1" stop-opacity="0"/>
</linearGradient>
<linearGradient id="paint12_linear_104_1126" x1="92.1539" y1="129.652" x2="92.1539" y2="110.66" gradientUnits="userSpaceOnUse">
<stop/>
<stop offset="1" stop-opacity="0"/>
</linearGradient>
<linearGradient id="paint13_linear_104_1126" x1="71.447" y1="135.824" x2="55.4151" y2="141.002" gradientUnits="userSpaceOnUse">
<stop/>
<stop offset="1" stop-opacity="0"/>
</linearGradient>
<linearGradient id="paint14_linear_104_1126" x1="84.7635" y1="147.126" x2="75.2238" y2="157.119" gradientUnits="userSpaceOnUse">
<stop/>
<stop offset="1" stop-opacity="0"/>
</linearGradient>
<linearGradient id="paint15_linear_104_1126" x1="122.85" y1="128.274" x2="125.108" y2="112.458" gradientUnits="userSpaceOnUse">
<stop/>
<stop offset="1" stop-opacity="0"/>
</linearGradient>
<linearGradient id="paint16_linear_104_1126" x1="112.959" y1="129.529" x2="112.959" y2="110.536" gradientUnits="userSpaceOnUse">
<stop/>
<stop offset="1" stop-opacity="0"/>
</linearGradient>
<linearGradient id="paint17_linear_104_1126" x1="134.94" y1="137.461" x2="150.413" y2="142.018" gradientUnits="userSpaceOnUse">
<stop/>
<stop offset="1" stop-opacity="0"/>
</linearGradient>
<linearGradient id="paint18_linear_104_1126" x1="120.111" y1="147.916" x2="129.651" y2="157.909" gradientUnits="userSpaceOnUse">
<stop/>
<stop offset="1" stop-opacity="0"/>
</linearGradient>
<linearGradient id="paint19_linear_104_1126" x1="58.4849" y1="182.55" x2="89.7255" y2="182.55" gradientUnits="userSpaceOnUse">
<stop stop-color="#181818"/>
<stop offset="1" stop-color="#181818"/>
</linearGradient>
<linearGradient id="paint20_linear_104_1126" x1="51.4903" y1="179.019" x2="86.3515" y2="179.019" gradientUnits="userSpaceOnUse">
<stop stop-color="#181818"/>
<stop offset="1" stop-color="#181818"/>
</linearGradient>
<linearGradient id="paint21_linear_104_1126" x1="111.569" y1="163.364" x2="149.301" y2="163.364" gradientUnits="userSpaceOnUse">
<stop stop-color="#181818"/>
<stop offset="1" stop-color="#181818"/>
</linearGradient>
<linearGradient id="paint22_linear_104_1126" x1="120.368" y1="167.713" x2="158.134" y2="167.713" gradientUnits="userSpaceOnUse">
<stop stop-color="#181818"/>
<stop offset="1" stop-color="#181818"/>
</linearGradient>
<linearGradient id="paint23_linear_104_1126" x1="113.665" y1="171.938" x2="151.552" y2="171.938" gradientUnits="userSpaceOnUse">
<stop stop-color="#181818"/>
<stop offset="1" stop-color="#181818"/>
</linearGradient>
<linearGradient id="paint24_linear_104_1126" x1="115.989" y1="182.155" x2="147.229" y2="182.155" gradientUnits="userSpaceOnUse">
<stop stop-color="#181818"/>
<stop offset="1" stop-color="#181818"/>
</linearGradient>
<linearGradient id="paint25_linear_104_1126" x1="119.363" y1="178.624" x2="154.224" y2="178.624" gradientUnits="userSpaceOnUse">
<stop stop-color="#181818"/>
<stop offset="1" stop-color="#181818"/>
</linearGradient>
<linearGradient id="paint26_linear_104_1126" x1="46.1117" y1="112.054" x2="83.4707" y2="104.477" gradientUnits="userSpaceOnUse">
<stop/>
<stop offset="1" stop-opacity="0"/>
</linearGradient>
<linearGradient id="paint27_linear_104_1126" x1="162.121" y1="111.478" x2="124.761" y2="103.901" gradientUnits="userSpaceOnUse">
<stop/>
<stop offset="1" stop-opacity="0"/>
</linearGradient>
<linearGradient id="paint28_linear_104_1126" x1="18.8917" y1="45.1114" x2="117.052" y2="123.99" gradientUnits="userSpaceOnUse">
<stop/>
<stop offset="1" stop-color="#505070"/>
</linearGradient>
<linearGradient id="paint29_linear_104_1126" x1="69.0655" y1="83.1449" x2="132.888" y2="83.1449" gradientUnits="userSpaceOnUse">
<stop stop-color="#181818"/>
<stop offset="1" stop-color="#181818"/>
</linearGradient>
<linearGradient id="paint30_linear_104_1126" x1="108.287" y1="145.721" x2="138.079" y2="145.721" gradientUnits="userSpaceOnUse">
<stop stop-color="#181818"/>
<stop offset="1" stop-color="#181818"/>
</linearGradient>
<linearGradient id="paint31_linear_104_1126" x1="102.203" y1="51.6167" x2="102.203" y2="163.534" gradientUnits="userSpaceOnUse">
<stop/>
<stop offset="1" stop-opacity="0"/>
</linearGradient>
<linearGradient id="paint32_linear_104_1126" x1="50.564" y1="18.0649" x2="125.746" y2="88.7195" gradientUnits="userSpaceOnUse">
<stop/>
<stop offset="1" stop-color="#505070"/>
</linearGradient>
<linearGradient id="paint33_linear_104_1126" x1="71.0034" y1="55.3517" x2="144.993" y2="55.3517" gradientUnits="userSpaceOnUse">
<stop stop-color="#181818"/>
<stop offset="1" stop-color="#181818"/>
</linearGradient>
<linearGradient id="paint34_linear_104_1126" x1="-5.77184" y1="-9.28078" x2="110.315" y2="119.799" gradientUnits="userSpaceOnUse">
<stop/>
<stop offset="1" stop-color="#505070"/>
</linearGradient>
<linearGradient id="paint35_linear_104_1126" x1="58.4663" y1="57.2234" x2="138.619" y2="57.2234" gradientUnits="userSpaceOnUse">
<stop stop-color="#181818"/>
<stop offset="1" stop-color="#181818"/>
</linearGradient>
<linearGradient id="paint36_linear_104_1126" x1="17.3927" y1="26.1422" x2="110.335" y2="46.8191" gradientUnits="userSpaceOnUse">
<stop/>
<stop offset="1" stop-color="#505070"/>
</linearGradient>
<linearGradient id="paint37_linear_104_1126" x1="77.3184" y1="70.7348" x2="110.342" y2="70.7348" gradientUnits="userSpaceOnUse">
<stop stop-color="#181818"/>
<stop offset="1" stop-color="#181818"/>
</linearGradient>
<linearGradient id="paint38_linear_104_1126" x1="94.6304" y1="104.605" x2="108.325" y2="104.605" gradientUnits="userSpaceOnUse">
<stop stop-color="#181818"/>
<stop offset="1" stop-color="#181818"/>
</linearGradient>
<linearGradient id="paint39_linear_104_1126" x1="132.495" y1="122.795" x2="147.968" y2="127.352" gradientUnits="userSpaceOnUse">
<stop/>
<stop offset="1" stop-opacity="0"/>
</linearGradient>
<linearGradient id="paint40_linear_104_1126" x1="74.7062" y1="122.787" x2="58.6744" y2="127.966" gradientUnits="userSpaceOnUse">
<stop/>
<stop offset="1" stop-opacity="0"/>
</linearGradient>
</defs>
</svg>
