<svg width="200" height="200" viewBox="0 0 200 200" fill="none" xmlns="http://www.w3.org/2000/svg">
<path fill-rule="evenodd" clip-rule="evenodd" d="M82.2174 104.052C70.7524 99.129 70.2721 88.4118 49.9938 84.2249C42.9869 82.7781 51.7301 101.633 52.9601 117.598C54.1902 133.566 46.2133 147.539 53.6984 160.392C63.6455 177.472 70.9608 179.143 77.6943 185.392C89.9585 196.772 105.947 195.875 115.624 186.656C123.812 178.856 135.314 174.957 144.314 157.619C151.516 143.746 147.203 133.345 148.134 118.582C149.221 101.36 154.395 81.9949 147.326 83.1541C125.706 86.6997 124.413 102.974 114.85 105.801C104.662 108.813 91.6435 108.099 82.2174 104.052V104.052Z" fill="url(#paint0_linear_104_1005)"/>
<path fill-rule="evenodd" clip-rule="evenodd" d="M82.2174 104.052C70.7524 99.129 70.2721 88.4118 49.9938 84.2249C42.9869 82.7781 51.7301 101.633 52.9601 117.598C54.1902 133.566 46.2133 147.539 53.6984 160.392C63.6455 177.472 70.9608 179.143 77.6943 185.392C89.9585 196.772 105.947 195.875 115.624 186.656C123.812 178.856 135.314 174.957 144.314 157.619C151.516 143.746 147.203 133.345 148.134 118.582C149.221 101.36 154.395 81.9949 147.326 83.1541C125.706 86.6997 124.413 102.974 114.85 105.801C104.662 108.813 91.6435 108.099 82.2174 104.052V104.052Z" fill="url(#paint1_linear_104_1005)" stroke="url(#paint2_linear_104_1005)" stroke-width="3.65715" stroke-linecap="round" stroke-linejoin="round"/>
<path fill-rule="evenodd" clip-rule="evenodd" d="M109.121 141.298C112.478 130.52 121.801 127.257 131.186 134.366C133.524 136.138 127.936 151.101 109.121 141.298Z" fill="url(#paint3_linear_104_1005)"/>
<path fill-rule="evenodd" clip-rule="evenodd" d="M87.0378 141.01C83.6809 130.232 74.3581 126.969 64.9733 134.078C62.6346 135.85 68.223 150.813 87.0378 141.01Z" fill="url(#paint4_linear_104_1005)"/>
<path fill-rule="evenodd" clip-rule="evenodd" d="M88.668 162.962C89.1631 165.154 93.5314 167.173 95.303 166.178C96.1495 171.479 97.0096 169.058 97.871 168.921C98.6341 168.8 99.8194 171.832 99.9144 166.201C101.848 166.516 106.235 165.791 106.541 162.944L106.68 162.804C101.057 162.099 93.1737 162.178 88.668 162.962V162.962Z" fill="#C1856E" stroke="url(#paint5_linear_104_1005)" stroke-width="3.65715" stroke-linecap="round" stroke-linejoin="round"/>
<path d="M87.7775 165.458C76.1933 161.902 64.9186 161.751 53.7026 162.246" stroke="url(#paint6_linear_104_1005)" stroke-width="3.65715" stroke-linecap="round" stroke-linejoin="round"/>
<path d="M78.9795 166.944C66.9506 165.48 55.8249 167.313 44.8706 169.772" stroke="url(#paint7_linear_104_1005)" stroke-width="3.65715" stroke-linecap="round" stroke-linejoin="round"/>
<path d="M85.6821 168.852C73.5858 169.574 61.786 171.402 51.4521 175.79" stroke="url(#paint8_linear_104_1005)" stroke-width="3.65715" stroke-linecap="round" stroke-linejoin="round"/>
<path d="M118.158 177.992C107.809 181.744 97.1465 176.85 98.2455 172.209C98.9453 169.255 96.413 170.06 97.0675 172.207C98.2176 175.981 83.9878 181.78 76.5674 177.903" stroke="url(#paint9_linear_104_1005)" stroke-width="3.65715" stroke-linecap="round" stroke-linejoin="round"/>
<path d="M89.5274 161.731C88.8817 157.858 92.7246 154.913 89.1365 143.393C85.7796 132.615 75.8402 126.592 64.9734 134.078C63.2188 135.287 66.4347 150.706 85.118 142.003" stroke="url(#paint10_linear_104_1005)" stroke-width="3.65715" stroke-linecap="round" stroke-linejoin="round"/>
<path fill-rule="evenodd" clip-rule="evenodd" d="M74.5788 134.191C77.1158 136.347 76.5142 138.953 75.2581 141.652C74.1369 139.639 73.4021 137.421 74.5788 134.191Z" fill="black" stroke="black" stroke-width="3.65715" stroke-linecap="round" stroke-linejoin="round"/>
<path fill-rule="evenodd" clip-rule="evenodd" d="M69.9175 117.034C74.7504 121.372 74.7888 122.093 78.2568 127.472C80.6486 121.142 81.7227 114.811 88.3117 108.48L69.9175 117.034V117.034Z" fill="url(#paint11_linear_104_1005)"/>
<path fill-rule="evenodd" clip-rule="evenodd" d="M85.6401 111.57L89.1951 131.32L89.5901 111.175L85.6401 111.57V111.57Z" fill="url(#paint12_linear_104_1005)"/>
<path fill-rule="evenodd" clip-rule="evenodd" d="M52.8987 146.169C56.6424 143.367 61.5708 141.75 63.4212 137.054C58.434 137.67 59.3199 132.109 50.8765 140.496L52.8987 146.169V146.169Z" fill="url(#paint13_linear_104_1005)"/>
<path fill-rule="evenodd" clip-rule="evenodd" d="M76.1751 159.123C80.7027 154.468 79.8449 157.618 85.3593 154.369C79.1294 151.725 76.0067 149.608 64.0202 147.115C57.1441 152.917 68.0573 154.32 76.1751 159.123Z" fill="url(#paint14_linear_104_1005)"/>
<path fill-rule="evenodd" clip-rule="evenodd" d="M127.509 117.824C122.676 122.162 122.638 122.883 119.17 128.263C116.778 121.932 115.704 115.601 109.115 109.27L127.509 117.824V117.824Z" fill="url(#paint15_linear_104_1005)"/>
<path fill-rule="evenodd" clip-rule="evenodd" d="M110.396 111.447L106.841 131.196L106.446 111.052L110.396 111.447V111.447Z" fill="url(#paint16_linear_104_1005)"/>
<path fill-rule="evenodd" clip-rule="evenodd" d="M143.293 146.564C139.549 143.762 134.621 142.145 132.771 137.449C137.758 138.065 140.782 136.973 149.225 145.36L143.293 146.564V146.564Z" fill="url(#paint17_linear_104_1005)"/>
<path fill-rule="evenodd" clip-rule="evenodd" d="M119.622 159.913C115.094 155.257 115.952 158.408 110.438 155.158C116.667 152.515 119.79 150.398 131.777 147.905C138.653 153.707 127.739 155.11 119.622 159.913Z" fill="url(#paint18_linear_104_1005)"/>
<path d="M83.3579 172.408C72.3417 177.456 63.8214 184.842 55.7744 192.67" stroke="url(#paint19_linear_104_1005)" stroke-width="3.65715" stroke-linecap="round" stroke-linejoin="round"/>
<path d="M79.9839 171.977C68.1569 174.616 58.2831 180.061 48.7798 186.038" stroke="url(#paint20_linear_104_1005)" stroke-width="3.65715" stroke-linecap="round" stroke-linejoin="round"/>
<path d="M108.859 165.063C120.444 161.507 131.718 161.356 142.934 161.851" stroke="url(#paint21_linear_104_1005)" stroke-width="3.65715" stroke-linecap="round" stroke-linejoin="round"/>
<path d="M117.657 166.549C129.686 165.085 140.812 166.918 151.766 169.377" stroke="url(#paint22_linear_104_1005)" stroke-width="3.65715" stroke-linecap="round" stroke-linejoin="round"/>
<path d="M110.955 168.457C123.051 169.179 134.851 171.007 145.185 175.395" stroke="url(#paint23_linear_104_1005)" stroke-width="3.65715" stroke-linecap="round" stroke-linejoin="round"/>
<path d="M113.279 172.013C124.295 177.061 132.815 184.447 140.862 192.275" stroke="url(#paint24_linear_104_1005)" stroke-width="3.65715" stroke-linecap="round" stroke-linejoin="round"/>
<path d="M116.652 171.582C128.479 174.221 138.353 179.666 147.856 185.643" stroke="url(#paint25_linear_104_1005)" stroke-width="3.65715" stroke-linecap="round" stroke-linejoin="round"/>
<path fill-rule="evenodd" clip-rule="evenodd" d="M51.1484 89.7854C51.9828 93.2024 55.3406 108.362 57.4663 120.298C59.6292 114.573 70.1981 114.405 76.1564 108.68C62.4884 86.688 55.2446 90.3326 51.1484 89.7854Z" fill="url(#paint26_linear_104_1005)"/>
<path fill-rule="evenodd" clip-rule="evenodd" d="M147.5 87.4985C146.666 90.9156 145.49 107.786 143.364 119.722C141.201 113.997 128.956 113.829 122.998 108.104C136.666 86.1119 142.252 88.0457 147.5 87.4985Z" fill="url(#paint27_linear_104_1005)"/>
<path fill-rule="evenodd" clip-rule="evenodd" d="M99.595 15.8969C97.2348 16.0898 94.5108 15.9524 92.6199 17.5924C91.6937 20.0929 92.8454 22.7072 93.2293 25.2002C93.6975 27.1435 94.221 29.08 94.2424 31.0888C88.8365 30.1872 83.2562 28.7329 77.7931 29.8993C75.7941 30.9792 75.687 33.5771 75.5015 35.5701C75.4445 38.2739 75.8665 41.2111 77.5636 43.3801C80.7304 44.5667 84.1408 43.5162 87.3202 42.9352C89.393 42.4891 91.5869 41.7652 93.6268 41.7785C93.7002 46.6041 93.3063 51.5443 92.3035 56.1962C92.1834 56.9623 89.8766 63.9582 90.7202 63.9579C92.796 64.3188 101.852 64.5038 103.943 64.6896C105.433 64.6599 102.287 53.6437 102.218 51.9934C101.519 48.5403 101.11 44.9776 101.781 41.4551C107.118 41.2961 112.408 43.2714 117.735 42.3315C119.823 41.3099 120.171 38.7144 120.567 36.6763C120.827 34.0244 120.602 31.0258 118.846 28.9133C116.051 28.0329 113.143 29.0581 110.347 29.3724C108.141 29.769 105.951 30.2494 103.737 30.6036C105.1 26.5338 107.693 22.8453 108.224 18.5054C107.773 16.6154 105.437 16.4599 103.873 16.1421C102.469 15.9258 101.025 15.8746 99.595 15.8969V15.8969Z" fill="url(#paint28_linear_104_1005)" stroke="url(#paint29_linear_104_1005)" stroke-width="3.65714" stroke-linecap="round" stroke-linejoin="round"/>
<path opacity="0.99" fill-rule="evenodd" clip-rule="evenodd" d="M112.194 73.3779C112.194 77.6035 110.676 81.6561 107.973 84.644C105.27 87.6319 101.604 89.3106 97.782 89.3106C93.9596 89.3106 90.2938 87.6319 87.5909 84.644C84.8881 81.6561 83.3696 77.6035 83.3696 73.3779C83.3696 69.1523 84.8881 65.0998 87.5909 62.1119C90.2938 59.1239 93.9596 57.4453 97.782 57.4453C101.604 57.4453 105.27 59.1239 107.973 62.1119C110.676 65.0998 112.194 69.1523 112.194 73.3779V73.3779Z" fill="url(#paint30_linear_104_1005)" stroke="url(#paint31_linear_104_1005)" stroke-width="3.65714" stroke-linecap="round" stroke-linejoin="round"/>
<path fill-rule="evenodd" clip-rule="evenodd" d="M74.7184 109.584C78.9654 92.5297 55.0033 91.191 55.525 75.3238C55.991 61.1513 62.6545 56.3543 75.0295 55.178C91.2982 53.6317 96.0526 77.72 98.3668 77.1866C100.942 76.5931 107.9 54.8813 119.145 55.0296C132.036 55.1995 141.981 60.2549 141.537 76.4456C141.136 91.5266 117.088 92.3264 121.09 108.365C104.314 106.297 90.0761 107.102 74.7184 109.584V109.584Z" fill="url(#paint32_linear_104_1005)" stroke="url(#paint33_linear_104_1005)" stroke-width="3.65715" stroke-linecap="round" stroke-linejoin="round"/>
<path d="M106.739 161.2C107.384 157.327 103.542 154.382 107.13 142.862C110.486 132.084 120.426 126.061 131.293 133.548C133.047 134.756 129.831 150.176 111.148 141.473" stroke="url(#paint34_linear_104_1005)" stroke-width="3.65715" stroke-linecap="round" stroke-linejoin="round"/>
<path fill-rule="evenodd" clip-rule="evenodd" d="M120.996 132.969C118.459 135.125 119.06 137.731 120.316 140.43C121.438 138.417 122.172 136.199 120.996 132.969Z" fill="black" stroke="black" stroke-width="3.65715" stroke-linecap="round" stroke-linejoin="round"/>
<path fill-rule="evenodd" clip-rule="evenodd" d="M94.5689 152.527C89.4664 134.558 89.8073 111.305 98.6843 111.435C105.805 111.542 104.596 140.015 102.276 154.305C102.276 154.305 97.5017 162.855 94.5689 152.527V152.527Z" fill="url(#paint35_linear_104_1005)"/>
<path fill-rule="evenodd" clip-rule="evenodd" d="M140.849 131.899C137.105 129.097 132.177 127.479 130.327 122.784C135.314 123.4 138.338 122.307 146.782 130.694L140.849 131.899Z" fill="url(#paint36_linear_104_1005)"/>
<path fill-rule="evenodd" clip-rule="evenodd" d="M56.1575 133.133C59.9012 130.331 64.8296 128.714 66.68 124.018C61.6928 124.634 62.5787 119.073 54.1353 127.46L56.1575 133.133V133.133Z" fill="url(#paint37_linear_104_1005)"/>
<path d="M83.918 98.0875C92.7167 96.9944 101.806 96.1921 113.215 97.7091" stroke="url(#paint38_linear_104_1005)" stroke-width="3.65714" stroke-linecap="round" stroke-linejoin="round"/>
<defs>
<linearGradient id="paint0_linear_104_1005" x1="99.1403" y1="177.734" x2="99.1403" y2="146.493" gradientUnits="userSpaceOnUse">
<stop/>
<stop offset="1" stop-color="#505070"/>
</linearGradient>
<linearGradient id="paint1_linear_104_1005" x1="98.072" y1="76.3364" x2="98.072" y2="143.036" gradientUnits="userSpaceOnUse">
<stop stop-color="#64779C"/>
<stop offset="1" stop-opacity="0"/>
</linearGradient>
<linearGradient id="paint2_linear_104_1005" x1="45.4732" y1="138.427" x2="152.807" y2="138.427" gradientUnits="userSpaceOnUse">
<stop stop-color="#181818"/>
<stop offset="1" stop-color="#181818"/>
</linearGradient>
<linearGradient id="paint3_linear_104_1005" x1="120.404" y1="130.588" x2="117.763" y2="148.829" gradientUnits="userSpaceOnUse">
<stop stop-color="#A7CC52"/>
<stop offset="1" stop-color="#AFC14D" stop-opacity="0.270833"/>
</linearGradient>
<linearGradient id="paint4_linear_104_1005" x1="75.7548" y1="130.3" x2="78.396" y2="148.541" gradientUnits="userSpaceOnUse">
<stop stop-color="#A7CC52"/>
<stop offset="1" stop-color="#AFC14D" stop-opacity="0.270833"/>
</linearGradient>
<linearGradient id="paint5_linear_104_1005" x1="86.8394" y1="165.975" x2="108.509" y2="165.975" gradientUnits="userSpaceOnUse">
<stop stop-color="#181818"/>
<stop offset="1" stop-color="#181818"/>
</linearGradient>
<linearGradient id="paint6_linear_104_1005" x1="51.8741" y1="163.748" x2="89.6061" y2="163.748" gradientUnits="userSpaceOnUse">
<stop stop-color="#181818"/>
<stop offset="1" stop-color="#181818"/>
</linearGradient>
<linearGradient id="paint7_linear_104_1005" x1="43.042" y1="168.097" x2="80.8081" y2="168.097" gradientUnits="userSpaceOnUse">
<stop stop-color="#181818"/>
<stop offset="1" stop-color="#181818"/>
</linearGradient>
<linearGradient id="paint8_linear_104_1005" x1="49.6236" y1="172.321" x2="87.5107" y2="172.321" gradientUnits="userSpaceOnUse">
<stop stop-color="#181818"/>
<stop offset="1" stop-color="#181818"/>
</linearGradient>
<linearGradient id="paint9_linear_104_1005" x1="74.7388" y1="174.804" x2="119.987" y2="174.804" gradientUnits="userSpaceOnUse">
<stop stop-color="#181818"/>
<stop offset="1" stop-color="#181818"/>
</linearGradient>
<linearGradient id="paint10_linear_104_1005" x1="62.7261" y1="146.24" x2="92.518" y2="146.24" gradientUnits="userSpaceOnUse">
<stop stop-color="#181818"/>
<stop offset="1" stop-color="#181818"/>
</linearGradient>
<linearGradient id="paint11_linear_104_1005" x1="79.1148" y1="127.472" x2="76.8571" y2="111.656" gradientUnits="userSpaceOnUse">
<stop/>
<stop offset="1" stop-opacity="0"/>
</linearGradient>
<linearGradient id="paint12_linear_104_1005" x1="87.6153" y1="129.641" x2="87.6153" y2="110.648" gradientUnits="userSpaceOnUse">
<stop/>
<stop offset="1" stop-opacity="0"/>
</linearGradient>
<linearGradient id="paint13_linear_104_1005" x1="66.9083" y1="135.812" x2="50.8765" y2="140.991" gradientUnits="userSpaceOnUse">
<stop/>
<stop offset="1" stop-opacity="0"/>
</linearGradient>
<linearGradient id="paint14_linear_104_1005" x1="80.2244" y1="147.115" x2="70.6847" y2="157.108" gradientUnits="userSpaceOnUse">
<stop/>
<stop offset="1" stop-opacity="0"/>
</linearGradient>
<linearGradient id="paint15_linear_104_1005" x1="118.312" y1="128.263" x2="120.569" y2="112.446" gradientUnits="userSpaceOnUse">
<stop/>
<stop offset="1" stop-opacity="0"/>
</linearGradient>
<linearGradient id="paint16_linear_104_1005" x1="108.421" y1="129.517" x2="108.421" y2="110.525" gradientUnits="userSpaceOnUse">
<stop/>
<stop offset="1" stop-opacity="0"/>
</linearGradient>
<linearGradient id="paint17_linear_104_1005" x1="130.4" y1="137.449" x2="145.874" y2="142.007" gradientUnits="userSpaceOnUse">
<stop/>
<stop offset="1" stop-opacity="0"/>
</linearGradient>
<linearGradient id="paint18_linear_104_1005" x1="115.572" y1="147.905" x2="125.112" y2="157.898" gradientUnits="userSpaceOnUse">
<stop/>
<stop offset="1" stop-opacity="0"/>
</linearGradient>
<linearGradient id="paint19_linear_104_1005" x1="53.9458" y1="182.539" x2="85.1865" y2="182.539" gradientUnits="userSpaceOnUse">
<stop stop-color="#181818"/>
<stop offset="1" stop-color="#181818"/>
</linearGradient>
<linearGradient id="paint20_linear_104_1005" x1="46.9512" y1="179.008" x2="81.8125" y2="179.008" gradientUnits="userSpaceOnUse">
<stop stop-color="#181818"/>
<stop offset="1" stop-color="#181818"/>
</linearGradient>
<linearGradient id="paint21_linear_104_1005" x1="108.859" y1="163.353" x2="142.934" y2="163.353" gradientUnits="userSpaceOnUse">
<stop stop-color="#181818"/>
<stop offset="1" stop-color="#181818"/>
</linearGradient>
<linearGradient id="paint22_linear_104_1005" x1="117.657" y1="167.702" x2="151.766" y2="167.702" gradientUnits="userSpaceOnUse">
<stop stop-color="#181818"/>
<stop offset="1" stop-color="#181818"/>
</linearGradient>
<linearGradient id="paint23_linear_104_1005" x1="109.126" y1="171.926" x2="147.013" y2="171.926" gradientUnits="userSpaceOnUse">
<stop stop-color="#181818"/>
<stop offset="1" stop-color="#181818"/>
</linearGradient>
<linearGradient id="paint24_linear_104_1005" x1="111.45" y1="182.144" x2="142.691" y2="182.144" gradientUnits="userSpaceOnUse">
<stop stop-color="#181818"/>
<stop offset="1" stop-color="#181818"/>
</linearGradient>
<linearGradient id="paint25_linear_104_1005" x1="114.824" y1="178.613" x2="149.685" y2="178.613" gradientUnits="userSpaceOnUse">
<stop stop-color="#181818"/>
<stop offset="1" stop-color="#181818"/>
</linearGradient>
<linearGradient id="paint26_linear_104_1005" x1="41.5726" y1="112.043" x2="78.9317" y2="104.466" gradientUnits="userSpaceOnUse">
<stop/>
<stop offset="1" stop-opacity="0"/>
</linearGradient>
<linearGradient id="paint27_linear_104_1005" x1="157.582" y1="111.467" x2="120.223" y2="103.89" gradientUnits="userSpaceOnUse">
<stop/>
<stop offset="1" stop-opacity="0"/>
</linearGradient>
<linearGradient id="paint28_linear_104_1005" x1="57.0542" y1="7.74121" x2="113.394" y2="49.7429" gradientUnits="userSpaceOnUse">
<stop/>
<stop offset="1" stop-color="#505070"/>
</linearGradient>
<linearGradient id="paint29_linear_104_1005" x1="73.668" y1="40.2908" x2="122.486" y2="40.2908" gradientUnits="userSpaceOnUse">
<stop stop-color="#181818"/>
<stop offset="1" stop-color="#181818"/>
</linearGradient>
<linearGradient id="paint30_linear_104_1005" x1="62.6764" y1="26.8299" x2="115.053" y2="65.7393" gradientUnits="userSpaceOnUse">
<stop/>
<stop offset="1" stop-color="#505070"/>
</linearGradient>
<linearGradient id="paint31_linear_104_1005" x1="81.7603" y1="73.3779" x2="113.804" y2="73.3779" gradientUnits="userSpaceOnUse">
<stop stop-color="#181818"/>
<stop offset="1" stop-color="#181818"/>
</linearGradient>
<linearGradient id="paint32_linear_104_1005" x1="9.34739" y1="6.55024" x2="144.132" y2="79.7052" gradientUnits="userSpaceOnUse">
<stop/>
<stop offset="1" stop-color="#505070"/>
</linearGradient>
<linearGradient id="paint33_linear_104_1005" x1="53.688" y1="82.3063" x2="143.38" y2="82.3063" gradientUnits="userSpaceOnUse">
<stop stop-color="#181818"/>
<stop offset="1" stop-color="#181818"/>
</linearGradient>
<linearGradient id="paint34_linear_104_1005" x1="103.748" y1="145.709" x2="133.54" y2="145.709" gradientUnits="userSpaceOnUse">
<stop stop-color="#181818"/>
<stop offset="1" stop-color="#181818"/>
</linearGradient>
<linearGradient id="paint35_linear_104_1005" x1="97.6639" y1="51.6056" x2="97.664" y2="163.523" gradientUnits="userSpaceOnUse">
<stop/>
<stop offset="1" stop-opacity="0"/>
</linearGradient>
<linearGradient id="paint36_linear_104_1005" x1="127.957" y1="122.784" x2="143.43" y2="127.341" gradientUnits="userSpaceOnUse">
<stop/>
<stop offset="1" stop-opacity="0"/>
</linearGradient>
<linearGradient id="paint37_linear_104_1005" x1="70.1671" y1="122.776" x2="54.1353" y2="127.955" gradientUnits="userSpaceOnUse">
<stop/>
<stop offset="1" stop-opacity="0"/>
</linearGradient>
<linearGradient id="paint38_linear_104_1005" x1="83.918" y1="97.4798" x2="113.215" y2="97.4798" gradientUnits="userSpaceOnUse">
<stop stop-color="#181818"/>
<stop offset="1" stop-color="#181818"/>
</linearGradient>
</defs>
</svg>
