<svg width="200" height="200" viewBox="0 0 200 200" fill="none" xmlns="http://www.w3.org/2000/svg">
<path fill-rule="evenodd" clip-rule="evenodd" d="M8.55516 108.642C15.8627 127.997 69.6034 154.592 115.532 149.956C161.46 145.32 199.431 113.785 193.411 91.454C189.3 76.2009 95.5642 53.2421 78.9679 54.6946C69.3847 55.5333 3.6481 95.6449 8.55516 108.642V108.642Z" fill="url(#paint0_linear_104_1079)" stroke="url(#paint1_linear_104_1079)" stroke-width="3.65714" stroke-linecap="round" stroke-linejoin="round"/>
<path fill-rule="evenodd" clip-rule="evenodd" d="M31.9082 109.341C33.7171 101.512 45.2357 96.2351 50.5749 89.8978C53.4323 86.5061 61.1767 83.1153 64.2892 83.1153C66.515 83.1153 65.4634 87.4878 66.5749 82.2109C67.6028 77.3306 72.1489 73.6197 76.0987 73.6197C80.2454 73.6197 84.227 75.2772 88.2892 74.0718C90.5235 73.4088 90.7871 75.3525 93.2415 73.1675C96.815 69.9864 101.258 73.7118 103.908 76.3327C108.055 80.4342 112.305 82.6631 117.622 82.6631C124.099 82.6631 130.575 82.6631 137.051 82.6631C143.074 82.6631 148.161 88.7988 151.908 92.6108C153.683 94.4168 154.095 93.6575 156.099 93.063C158.456 92.3635 159.164 91.7065 161.813 91.7065C163.854 91.7065 164.317 92.9017 166.384 93.5152C168.158 94.0416 168.67 95.1276 168.67 97.5847C168.67 100.084 168.187 99.2717 169.432 100.75C169.178 101.353 168.269 102.082 168.67 102.559C169.336 103.349 170.575 105.314 170.575 107.08C170.575 109.676 176.628 111.028 178.433 110.853C185.174 110.197 176.495 113.664 175.766 115.827C175.064 117.911 173.862 119.192 173.862 122.609C173.862 127.736 173.714 131.273 172.338 136.174C171.033 140.82 150.32 156.819 145.432 156.819C145.178 156.819 144.873 156.638 144.67 156.819C138.642 162.186 125.339 157.46 119.146 155.01C115.014 153.376 64.6088 139.733 44.8989 139.733C44.2933 139.733 34.3684 130.103 33.813 128.785C33.2211 127.379 32.6039 124.656 33.0511 122.002C33.5279 119.172 31.9082 111.849 31.9082 109.341V109.341Z" fill="url(#paint2_linear_104_1079)" stroke="url(#paint3_linear_104_1079)" stroke-width="3.65714" stroke-linecap="round" stroke-linejoin="round"/>
<path d="M49.3121 118.946C47.304 116.563 50.3051 110.985 52.3597 108.546C55.0707 105.329 59.3105 99.503 63.4073 99.503C66.4709 99.503 68.7401 100.679 71.4073 101.312C74.6443 102.08 75.256 102.55 78.2645 100.407C81.16 98.3453 82.6123 93.2514 83.9788 90.0075C84.7531 88.1692 88.745 89.3302 89.693 89.5553C91.1288 89.8961 91.5208 93.1498 93.1216 93.6248C94.8986 94.1521 96.3911 94.077 98.4549 94.077C99.9788 94.077 101.503 94.077 103.026 94.077" stroke="url(#paint4_linear_104_1079)" stroke-width="3.65714" stroke-linecap="round" stroke-linejoin="round"/>
<path d="M93.6108 132.014C95.4127 132.014 103.014 114.141 105.42 109.857C107.592 105.99 110.846 102.326 112.658 99.4575C113.825 97.6118 114.55 97.2283 115.325 95.388C116.192 93.3293 117.844 93.5356 119.516 94.0315C122.087 94.7945 123.983 96.7653 125.992 98.5532C127.548 99.9383 128.245 100.362 130.563 100.362C133.865 100.362 137.166 100.362 140.468 100.362C144.359 100.362 152.155 103.834 154.182 106.24C155.44 107.733 155.585 108.828 156.087 111.214C156.309 112.269 156.563 112.625 156.849 113.475" stroke="url(#paint5_linear_104_1079)" stroke-width="3.65714" stroke-linecap="round" stroke-linejoin="round"/>
<path fill-rule="evenodd" clip-rule="evenodd" d="M7.6626 108.674C7.6626 108.674 15.9547 138.234 16.9633 153.036C17.7987 165.297 116.54 187.812 129.948 185.343C147.164 182.173 183.467 147.916 184.734 140.352C187.039 126.583 195.549 102.017 193.778 95.2131C190.309 108.821 151.684 144.685 124.697 144.83C84.659 145.045 8.7037 118.56 7.6626 108.674Z" fill="url(#paint6_linear_104_1079)" stroke="url(#paint7_linear_104_1079)" stroke-width="3.65714" stroke-linecap="round" stroke-linejoin="round"/>
<defs>
<linearGradient id="paint0_linear_104_1079" x1="82.0964" y1="1.56594" x2="89.672" y2="105.724" gradientUnits="userSpaceOnUse">
<stop/>
<stop offset="1" stop-color="#505070"/>
</linearGradient>
<linearGradient id="paint1_linear_104_1079" x1="6.46537" y1="102.559" x2="195.87" y2="102.559" gradientUnits="userSpaceOnUse">
<stop stop-color="#181818"/>
<stop offset="1" stop-color="#181818"/>
</linearGradient>
<linearGradient id="paint2_linear_104_1079" x1="-13.0202" y1="69.7729" x2="-2.28074" y2="202.328" gradientUnits="userSpaceOnUse">
<stop stop-color="#776672" stop-opacity="0.640167"/>
<stop offset="1" stop-color="#0E0E0E" stop-opacity="0.543933"/>
</linearGradient>
<linearGradient id="paint3_linear_104_1079" x1="30.0796" y1="115.612" x2="182.811" y2="115.612" gradientUnits="userSpaceOnUse">
<stop stop-color="#181818"/>
<stop offset="1" stop-color="#181818"/>
</linearGradient>
<linearGradient id="paint4_linear_104_1079" x1="46.8204" y1="103.967" x2="104.855" y2="103.967" gradientUnits="userSpaceOnUse">
<stop stop-color="#181818"/>
<stop offset="1" stop-color="#181818"/>
</linearGradient>
<linearGradient id="paint5_linear_104_1079" x1="91.7823" y1="112.857" x2="158.677" y2="112.857" gradientUnits="userSpaceOnUse">
<stop stop-color="#181818"/>
<stop offset="1" stop-color="#181818"/>
</linearGradient>
<linearGradient id="paint6_linear_104_1079" x1="31.3037" y1="17.3034" x2="148.913" y2="155.761" gradientUnits="userSpaceOnUse">
<stop/>
<stop offset="1" stop-color="#505070"/>
</linearGradient>
<linearGradient id="paint7_linear_104_1079" x1="5.83402" y1="140.372" x2="195.847" y2="140.372" gradientUnits="userSpaceOnUse">
<stop stop-color="#181818"/>
<stop offset="1" stop-color="#181818"/>
</linearGradient>
</defs>
</svg>
