<svg width="200" height="200" viewBox="0 0 200 200" fill="none" xmlns="http://www.w3.org/2000/svg">
<path fill-rule="evenodd" clip-rule="evenodd" d="M144.864 47.0643C140.226 49.8126 137.118 56.2939 145.879 73.8143C153.096 88.2503 153.414 99.6289 152.879 108.836C143.162 90.6215 140.89 92.5221 127.107 77.5786C118.495 68.2418 100.281 60.0067 92.4777 56.3058C77.7334 61.73 52.3864 86.9361 42.5785 83.4357C42.5785 83.4357 38.8094 91.6786 41.2142 106.107C43.619 120.536 45.5673 117.169 47.6285 136.579C49.6897 155.989 48.4829 153.367 46.2499 166.593C44.0169 179.819 43.8247 183.744 56.557 181.714C70.7291 179.456 67.2639 162.272 66.1785 153.064C62.2483 119.725 80.173 110.212 83.8142 153.757C84.0912 159.72 82.4637 165.657 80.7535 171.611L75.1963 174.854L69.4964 182.071L69.2749 189.468L75.507 192.811L90.5928 185.55C97.1964 186.343 99.9936 184.103 101.336 179.929L116.293 171.4C117.197 171.814 124.113 174.973 125.278 175.143C133.89 176.398 104.969 180.109 104.214 190.471C103.54 199.726 125.072 192.152 141.936 185.786C154.262 182.699 182.22 170.667 160.836 163.5C166.899 149.676 162.608 138.291 163.914 129.971C164.937 123.457 171.511 118.957 170.686 109.464C167.766 79.92 159.515 63.8846 157.854 60.8C154.031 56.1781 151.592 43.1887 144.864 47.0643V47.0643Z" fill="url(#paint0_linear_104_1328)"/>
<path fill-rule="evenodd" clip-rule="evenodd" d="M42.7714 81.4139C42.7714 81.4139 39.7205 91.6791 42.1253 106.108C44.5301 120.536 45.5661 118.539 47.6273 137.949C49.6886 157.359 48.4862 153.826 46.2532 167.052C44.0202 180.278 43.8142 184.115 56.5593 182.168C70.9014 179.977 68.8094 164.521 66.1784 154.438C58.6143 125.45 78.4329 107.305 84.7295 155.126C85.9689 164.538 76.5077 182.284 86.1036 184.683C103.968 189.149 101.219 179.689 103.281 164.745C107.051 148.929 108.156 158.192 111.809 168.097C114.681 175.883 128.646 172.099 141.404 173.594C129.936 176.423 106.29 179.769 105.535 190.131C105.619 201.911 126.843 191.095 143.707 186.871C181.287 169.642 165.947 166.491 160.653 163.258C168.555 147.234 159.868 139.37 164.311 130.738C169.236 121.17 171.575 111.856 170.587 100.493C167.667 70.9483 160.825 66.5854 159.164 63.5007C155.428 58.8631 151.623 43.805 145.033 47.6015C140.395 50.3499 137.119 56.2946 145.879 73.8151C153.097 88.251 153.417 99.2709 152.881 108.478C144.415 90.085 142.411 95.8679 128.628 80.9244C112.31 63.2322 88.4455 59.5166 92.4861 57.7489" fill="url(#paint1_linear_104_1328)"/>
<path fill-rule="evenodd" clip-rule="evenodd" d="M118.146 75.9259C96.0197 104.557 94.064 96.352 90.124 85.9036C97.8071 76.7225 113.788 74.532 108.151 69.3911L118.146 75.9259Z" fill="url(#paint2_linear_104_1328)"/>
<path fill-rule="evenodd" clip-rule="evenodd" d="M132.857 89.1841C136.094 91.3451 123.233 104.231 109.374 105.624C106.676 94.1165 99.6011 110.053 124.055 81.7136L132.857 89.1841Z" fill="url(#paint3_linear_104_1328)"/>
<path fill-rule="evenodd" clip-rule="evenodd" d="M143.429 102.948C140.465 107.688 123.35 125.422 117.843 117.43C119.044 101.57 124.275 116.429 137.507 95.2024L143.429 102.948Z" fill="url(#paint4_linear_104_1328)"/>
<path fill-rule="evenodd" clip-rule="evenodd" d="M153.113 122.116C148.838 124.31 131.72 137.892 130.009 131.612C127.914 119.113 151.262 118.2 147.739 112.43L153.113 122.116Z" fill="url(#paint5_linear_104_1328)"/>
<path fill-rule="evenodd" clip-rule="evenodd" d="M159.265 140.611C151.263 139.601 144.183 146.258 141.069 142.366C140.197 129.724 158.02 136.232 155.073 130.147L159.265 140.611Z" fill="url(#paint6_linear_104_1328)"/>
<path fill-rule="evenodd" clip-rule="evenodd" d="M51.8916 134.6C52.5089 137.128 52.2449 139.411 53.8177 148.243C55.4179 144.007 58.9789 148.362 62.0131 135.195C53.9619 131.291 54.9222 131.569 51.8916 134.6Z" fill="url(#paint7_linear_104_1328)"/>
<path fill-rule="evenodd" clip-rule="evenodd" d="M51.2046 154.525C51.8219 157.053 51.5579 154.527 53.1307 163.359C54.7309 159.123 59.8021 167.93 62.8362 154.763C54.7851 150.859 54.2352 151.494 51.2046 154.525V154.525Z" fill="url(#paint8_linear_104_1328)"/>
<path fill-rule="evenodd" clip-rule="evenodd" d="M87.3442 139.858C87.9616 142.386 87.3403 141.813 88.9132 150.644C90.5134 146.409 96.2173 153.264 99.2515 140.096C91.2003 136.192 90.3749 136.827 87.3442 139.858Z" fill="url(#paint9_linear_104_1328)"/>
<path fill-rule="evenodd" clip-rule="evenodd" d="M88.3067 157.722C88.924 160.25 87.2315 155.582 88.8042 164.413C90.4045 160.177 96.9042 171.128 99.9384 157.96C91.8872 154.056 91.3373 154.691 88.3067 157.722Z" fill="url(#paint10_linear_104_1328)"/>
<path fill-rule="evenodd" clip-rule="evenodd" d="M157.015 98.6335C157.632 101.162 156.654 99.1596 158.226 107.991C159.827 103.755 164.39 110.019 167.425 96.8511C159.373 92.9473 160.045 95.6029 157.015 98.6335Z" fill="url(#paint11_linear_104_1328)"/>
<path fill-rule="evenodd" clip-rule="evenodd" d="M152.892 77.3341C153.509 79.8622 153.245 77.3361 154.818 86.1679C156.418 81.9323 161.49 90.7397 164.524 77.5721C156.473 73.6683 155.923 74.3035 152.892 77.3341V77.3341Z" fill="url(#paint12_linear_104_1328)"/>
<path fill-rule="evenodd" clip-rule="evenodd" d="M144.647 60.8444C145.264 63.3725 145 60.8464 146.573 69.6782C148.173 65.4425 153.244 74.25 156.279 61.0823C148.227 57.1785 147.678 57.8138 144.647 60.8444Z" fill="url(#paint13_linear_104_1328)"/>
<path d="M112.322 169.911C112.322 169.911 117.532 171.189 115.124 172.927C113.011 174.452 105.019 177.189 101.765 179.302M89.683 185.794C84.7896 188.237 81.5535 191.089 77.4431 191.664C74.9686 192.01 71.6094 192.064 70.1217 190.057C68.3284 187.637 69.1972 183.756 70.8359 181.05C73.1855 177.17 74.645 174.918 81.7859 171.75" stroke="url(#paint14_linear_104_1328)" stroke-width="3.61143" stroke-linecap="round" stroke-linejoin="round"/>
<path fill-rule="evenodd" clip-rule="evenodd" d="M171.482 101.763C173.562 102.006 164.197 119.053 163.201 134.722C162.425 146.936 170.61 147.699 160.048 162.336C192.854 176.165 106.672 198.447 110.868 191.648C131.964 168.405 132.851 93.7707 171.482 101.763V101.763Z" fill="url(#paint15_linear_104_1328)"/>
<path d="M43.7818 76.6287C43.7818 76.6287 39.7208 93.965 42.1255 108.394C44.5303 122.822 45.5664 121.739 47.6276 141.149C49.6888 160.559 48.9436 151.54 46.7106 164.767C44.4776 177.993 44.2844 181.912 57.0167 179.882C71.1888 177.624 69.4972 160.353 66.1787 151.696C58.6369 132.022 76.4669 103.491 83.3583 152.383C84.6834 161.784 76.0508 181.828 85.6468 184.227C103.511 188.693 103.109 177.085 102.824 162.002C102.433 141.348 97.865 133.198 99.3551 123.473M154.389 162.339C157.777 162.567 169.196 165.515 169.101 170.439C164.943 179.035 153.664 182.38 141.939 186.449C130.214 190.518 104.746 202.918 104.915 191.643C105.065 181.67 115.943 180.58 140.179 173.181C122.003 178.79 106.663 164.633 114.222 150.15" stroke="url(#paint16_linear_104_1328)" stroke-width="3.65714" stroke-linecap="round" stroke-linejoin="round"/>
<path d="M89.7847 55.5721C89.7847 55.5721 111.101 63.2485 127.711 80.6669C135.19 88.5102 144.849 92.7044 158.247 121.218C163.039 131.416 163.074 135.549 164.666 141.348C167.524 151.763 161.199 161.472 161.199 161.472M162.979 135.092C161.363 128.295 168.438 122.522 169.312 111.352C171.626 81.754 162.196 68.8713 160.535 65.7866C155.726 56.8546 149.357 44.4927 144.719 47.241C140.307 49.8554 142.603 70.162 146.913 75.879C151.224 81.596 154.475 108.547 151.701 108.944" stroke="url(#paint17_linear_104_1328)" stroke-width="3.65714" stroke-linecap="round" stroke-linejoin="round"/>
<path fill-rule="evenodd" clip-rule="evenodd" d="M51.4548 28.4046C44.2707 24.4161 44.6693 17.3625 31.662 13.2697C27.1675 11.8555 31.641 24.7904 31.3843 35.3326C31.1276 45.8761 24.9713 54.5003 29.02 63.4192C34.4004 75.2717 39.082 76.8536 43.0779 81.3957C50.3557 89.6685 60.8906 90.1447 67.8448 84.7483C73.728 80.1829 81.5237 78.394 88.5743 67.6334C94.2158 59.0235 92.0823 51.922 93.6751 42.3112C95.5331 31.1003 100.212 18.7569 95.5034 19.0459C81.1027 19.9301 79.172 30.5067 72.7188 31.7225C65.8433 33.0178 57.3612 31.6837 51.4548 28.4046V28.4046Z" fill="url(#paint18_linear_104_1328)"/>
<path fill-rule="evenodd" clip-rule="evenodd" d="M51.4548 28.4046C44.2707 24.4161 44.6693 17.3625 31.662 13.2697C27.1675 11.8555 31.641 24.7904 31.3843 35.3326C31.1276 45.8761 24.9713 54.5003 29.02 63.4192C34.4004 75.2717 39.082 76.8536 43.0779 81.3957C50.3557 89.6685 60.8906 90.1447 67.8448 84.7483C73.728 80.1829 81.5237 78.394 88.5743 67.6334C94.2158 59.0235 92.0823 51.922 93.6751 42.3112C95.5331 31.1003 100.212 18.7569 95.5034 19.0459C81.1027 19.9301 79.172 30.5067 72.7188 31.7225C65.8433 33.0178 57.3612 31.6837 51.4548 28.4046V28.4046Z" fill="url(#paint19_linear_104_1328)" stroke="url(#paint20_linear_104_1328)" stroke-width="3.25523" stroke-linecap="round" stroke-linejoin="round"/>
<path fill-rule="evenodd" clip-rule="evenodd" d="M66.6025 54.5979C69.5192 47.7598 75.8445 46.2425 81.5201 51.5249C82.9344 52.8412 78.2772 62.2726 66.6025 54.5979Z" fill="url(#paint21_linear_104_1328)"/>
<path fill-rule="evenodd" clip-rule="evenodd" d="M52.1531 52.9396C50.671 45.6547 44.78 42.8965 38.1581 46.9297C36.508 47.9347 39.1736 58.1099 52.1531 52.9396Z" fill="url(#paint22_linear_104_1328)"/>
<path fill-rule="evenodd" clip-rule="evenodd" d="M49.9321 67.4307C50.1106 68.8998 52.8383 70.513 54.0652 69.9793C54.2671 73.5082 54.9917 71.9794 55.5652 71.9472C56.0732 71.9187 56.648 73.9842 57.085 70.3012C58.3311 70.6364 61.2536 70.4533 61.6431 68.6082L61.7439 68.526C58.1069 67.6897 52.9364 67.2167 49.9321 67.4307V67.4307Z" fill="#C1856E" stroke="url(#paint23_linear_104_1328)" stroke-width="3.25523" stroke-linecap="round" stroke-linejoin="round"/>
<path d="M50.0967 69.0065C42.7437 65.9056 35.3668 65.0565 27.9854 64.6343" stroke="url(#paint24_linear_104_1328)" stroke-width="3.25523" stroke-linecap="round" stroke-linejoin="round"/>
<path d="M44.2334 69.3949C36.4497 67.6348 29.0385 68.0955 21.6978 68.9773" stroke="url(#paint25_linear_104_1328)" stroke-width="3.25523" stroke-linecap="round" stroke-linejoin="round"/>
<path d="M48.498 71.091C40.5247 70.7588 32.672 71.1715 25.6094 73.3585" stroke="url(#paint26_linear_104_1328)" stroke-width="3.25523" stroke-linecap="round" stroke-linejoin="round"/>
<path d="M69.1674 79.2406C62.137 81.0101 55.4769 77.0943 56.5059 74.1269C57.161 72.2375 55.4482 72.597 55.7341 74.0472C56.2365 76.596 46.5275 79.4485 41.9238 76.4142" stroke="url(#paint27_linear_104_1328)" stroke-width="3.25523" stroke-linecap="round" stroke-linejoin="round"/>
<path d="M50.5765 66.6812C50.4112 64.1006 54.0393 62.427 52.4552 54.6404C50.9731 47.3554 45.7761 42.7482 38.1582 46.9298C36.9282 47.6049 38.0089 57.9214 50.8291 53.4628" stroke="url(#paint28_linear_104_1328)" stroke-width="3.25523" stroke-linecap="round" stroke-linejoin="round"/>
<path fill-rule="evenodd" clip-rule="evenodd" d="M43.9872 47.6431C45.5059 49.2243 44.9383 50.8915 43.9357 52.5766C43.335 51.1829 43.0012 49.6809 43.9872 47.6431Z" fill="black" stroke="black" stroke-width="3.25523" stroke-linecap="round" stroke-linejoin="round"/>
<path fill-rule="evenodd" clip-rule="evenodd" d="M42.5322 36.0918C45.41 39.2552 45.3872 39.7303 47.3013 43.4858C49.2897 39.4971 50.4148 35.4207 55.1531 31.7114L42.5322 36.0918V36.0918Z" fill="url(#paint29_linear_104_1328)"/>
<path fill-rule="evenodd" clip-rule="evenodd" d="M53.1968 33.5581L54.2115 46.7343L55.811 33.5622L53.1968 33.5582V33.5581Z" fill="url(#paint30_linear_104_1328)"/>
<path fill-rule="evenodd" clip-rule="evenodd" d="M29.4425 54.0478C32.0818 52.4611 35.4184 51.7293 36.9432 48.7761C33.6347 48.8478 34.5853 45.2632 28.4951 50.1961L29.4425 54.0478V54.0478Z" fill="url(#paint31_linear_104_1328)"/>
<path fill-rule="evenodd" clip-rule="evenodd" d="M43.831 64.0838C47.1072 61.3351 46.3355 63.3421 50.1647 61.5801C46.2589 59.4334 44.3538 57.8385 36.6664 55.4077C31.7752 58.7514 38.832 60.3971 43.831 64.0838Z" fill="url(#paint32_linear_104_1328)"/>
<path fill-rule="evenodd" clip-rule="evenodd" d="M69.4243 35.1247L65.7808 47.8277L66.8627 34.603L69.4243 35.1247V35.1247Z" fill="url(#paint33_linear_104_1328)"/>
<path fill-rule="evenodd" clip-rule="evenodd" d="M88.641 60.3227C86.3747 58.2377 83.2533 56.8499 82.3535 53.6504C85.58 54.3859 87.6342 53.8716 92.608 59.9283L88.641 60.3227Z" fill="url(#paint34_linear_104_1328)"/>
<path fill-rule="evenodd" clip-rule="evenodd" d="M72.2434 67.4927C69.5868 64.1414 69.9391 66.2626 66.5425 63.7666C70.8001 62.4491 72.987 61.2699 81.0062 60.4346C85.1251 64.6935 77.8816 64.8866 72.2434 67.4927V67.4927Z" fill="url(#paint35_linear_104_1328)"/>
<path d="M46.7386 73.2661C39.185 75.8404 33.1111 80.1122 27.3179 84.7058" stroke="url(#paint36_linear_104_1328)" stroke-width="3.25523" stroke-linecap="round" stroke-linejoin="round"/>
<path d="M44.5565 72.7593C36.632 73.7009 29.8005 76.6114 23.1763 79.8951" stroke="url(#paint37_linear_104_1328)" stroke-width="3.25523" stroke-linecap="round" stroke-linejoin="round"/>
<path d="M63.9351 70.1507C71.7615 68.5918 79.1585 69.2434 86.474 70.3141" stroke="url(#paint38_linear_104_1328)" stroke-width="3.25523" stroke-linecap="round" stroke-linejoin="round"/>
<path d="M69.6006 71.7103C77.5792 71.5513 84.7465 73.4929 91.7599 75.8329" stroke="url(#paint39_linear_104_1328)" stroke-width="3.25523" stroke-linecap="round" stroke-linejoin="round"/>
<path d="M65.082 72.5144C72.9592 73.7923 80.5686 75.7756 87.0471 79.3381" stroke="url(#paint40_linear_104_1328)" stroke-width="3.25523" stroke-linecap="round" stroke-linejoin="round"/>
<path d="M66.3682 74.9985C73.2498 79.0392 78.3406 84.445 83.0918 90.1098" stroke="url(#paint41_linear_104_1328)" stroke-width="3.25523" stroke-linecap="round" stroke-linejoin="round"/>
<path d="M68.6074 74.9409C76.1806 77.4568 82.2873 81.6815 88.1159 86.2303" stroke="url(#paint42_linear_104_1328)" stroke-width="3.25523" stroke-linecap="round" stroke-linejoin="round"/>
<path fill-rule="evenodd" clip-rule="evenodd" d="M32.0483 16.9897C32.3676 19.2841 33.5586 29.4395 34.157 37.4017C35.9551 33.7948 42.8908 34.3879 47.1755 31.0336C39.6842 15.7151 34.6957 17.6209 32.0483 16.9897V16.9897Z" fill="url(#paint43_linear_104_1328)"/>
<path fill-rule="evenodd" clip-rule="evenodd" d="M95.3284 21.9039C94.5543 24.0871 92.6611 35.0618 90.4739 42.741C89.4379 38.8462 81.4266 37.9209 77.9038 33.7736C88.3224 20.2743 91.8533 21.913 95.3284 21.9039V21.9039Z" fill="url(#paint44_linear_104_1328)"/>
<path d="M62.3457 67.4788C63.0265 64.9842 61.1619 62.7992 64.2794 55.4901C67.1961 48.652 74.109 45.3677 80.7305 50.9957C81.7996 51.9044 78.6664 61.7929 67.0046 54.8474" stroke="url(#paint45_linear_104_1328)" stroke-width="3.25523" stroke-linecap="round" stroke-linejoin="round"/>
<path fill-rule="evenodd" clip-rule="evenodd" d="M73.5655 49.9314C71.7599 51.1749 71.9806 52.9222 72.6239 54.7745C73.4925 53.5301 74.1216 52.1258 73.5655 49.9314Z" fill="black" stroke="black" stroke-width="3.25523" stroke-linecap="round" stroke-linejoin="round"/>
<path fill-rule="evenodd" clip-rule="evenodd" d="M56.321 60.9862C54.1738 48.874 55.9447 33.6616 61.7522 34.3374C66.4101 34.8818 63.7235 53.4562 61.2524 62.6645C61.2524 62.6645 57.5552 67.9481 56.321 60.9862V60.9862Z" fill="url(#paint46_linear_104_1328)"/>
<path fill-rule="evenodd" clip-rule="evenodd" d="M88.016 50.5513C85.7497 48.4662 82.6283 47.0784 81.7285 43.8789C84.955 44.6144 87.0091 44.1001 91.983 50.1568L88.016 50.5513V50.5513Z" fill="url(#paint47_linear_104_1328)"/>
<path fill-rule="evenodd" clip-rule="evenodd" d="M32.4454 45.7236C35.0847 44.1369 38.4214 43.4051 39.9462 40.4519C36.6377 40.5236 37.5882 36.939 31.498 41.8718L32.4454 45.7236V45.7236Z" fill="url(#paint48_linear_104_1328)"/>
<defs>
<linearGradient id="paint0_linear_104_1328" x1="91.6292" y1="190.389" x2="120.742" y2="156.338" gradientUnits="userSpaceOnUse">
<stop stop-color="#EDE3DE"/>
<stop offset="1" stop-color="#D0B090"/>
</linearGradient>
<linearGradient id="paint1_linear_104_1328" x1="119.551" y1="43.1027" x2="86.1839" y2="140.252" gradientUnits="userSpaceOnUse">
<stop stop-color="#AB7469"/>
<stop offset="1" stop-opacity="0"/>
</linearGradient>
<linearGradient id="paint2_linear_104_1328" x1="69.9775" y1="133.285" x2="131.748" y2="65.641" gradientUnits="userSpaceOnUse">
<stop stop-color="#1A0F00"/>
<stop offset="1" stop-opacity="0"/>
</linearGradient>
<linearGradient id="paint3_linear_104_1328" x1="81.617" y1="146.157" x2="143.388" y2="78.5135" gradientUnits="userSpaceOnUse">
<stop stop-color="#1A0F00"/>
<stop offset="1" stop-opacity="0"/>
</linearGradient>
<linearGradient id="paint4_linear_104_1328" x1="90.4075" y1="161.414" x2="152.178" y2="93.7702" gradientUnits="userSpaceOnUse">
<stop stop-color="#1A0F00"/>
<stop offset="1" stop-opacity="0"/>
</linearGradient>
<linearGradient id="paint5_linear_104_1328" x1="86.8808" y1="165.182" x2="163.828" y2="115.478" gradientUnits="userSpaceOnUse">
<stop stop-color="#1A0F00"/>
<stop offset="1" stop-opacity="0"/>
</linearGradient>
<linearGradient id="paint6_linear_104_1328" x1="88.9213" y1="180.184" x2="170.327" y2="138.181" gradientUnits="userSpaceOnUse">
<stop stop-color="#1A0F00"/>
<stop offset="1" stop-opacity="0"/>
</linearGradient>
<linearGradient id="paint7_linear_104_1328" x1="42.0586" y1="142.135" x2="69.6992" y2="136.529" gradientUnits="userSpaceOnUse">
<stop stop-color="#1A0F00"/>
<stop offset="1" stop-opacity="0"/>
</linearGradient>
<linearGradient id="paint8_linear_104_1328" x1="41.3716" y1="162.06" x2="69.0121" y2="156.454" gradientUnits="userSpaceOnUse">
<stop stop-color="#1A0F00"/>
<stop offset="1" stop-opacity="0"/>
</linearGradient>
<linearGradient id="paint9_linear_104_1328" x1="75.7255" y1="147.393" x2="103.366" y2="141.787" gradientUnits="userSpaceOnUse">
<stop stop-color="#1A0F00"/>
<stop offset="1" stop-opacity="0"/>
</linearGradient>
<linearGradient id="paint10_linear_104_1328" x1="78.4737" y1="165.257" x2="106.114" y2="159.651" gradientUnits="userSpaceOnUse">
<stop stop-color="#1A0F00"/>
<stop offset="1" stop-opacity="0"/>
</linearGradient>
<linearGradient id="paint11_linear_104_1328" x1="137.182" y1="116.169" x2="174.822" y2="100.563" gradientUnits="userSpaceOnUse">
<stop stop-color="#1A0F00"/>
<stop offset="1" stop-opacity="0"/>
</linearGradient>
<linearGradient id="paint12_linear_104_1328" x1="143.059" y1="84.8695" x2="170.7" y2="79.2635" gradientUnits="userSpaceOnUse">
<stop stop-color="#1A0F00"/>
<stop offset="1" stop-opacity="0"/>
</linearGradient>
<linearGradient id="paint13_linear_104_1328" x1="134.814" y1="68.3797" x2="162.455" y2="62.7738" gradientUnits="userSpaceOnUse">
<stop stop-color="#1A0F00"/>
<stop offset="1" stop-opacity="0"/>
</linearGradient>
<linearGradient id="paint14_linear_104_1328" x1="67.3203" y1="180.88" x2="117.565" y2="180.88" gradientUnits="userSpaceOnUse">
<stop/>
<stop offset="1"/>
</linearGradient>
<linearGradient id="paint15_linear_104_1328" x1="194.414" y1="193.128" x2="137.194" y2="165.688" gradientUnits="userSpaceOnUse">
<stop stop-color="#1A0F00"/>
<stop offset="1" stop-opacity="0"/>
</linearGradient>
<linearGradient id="paint16_linear_104_1328" x1="39.5357" y1="136.446" x2="170.931" y2="136.446" gradientUnits="userSpaceOnUse">
<stop/>
<stop offset="1"/>
</linearGradient>
<linearGradient id="paint17_linear_104_1328" x1="87.9561" y1="104.161" x2="171.504" y2="104.161" gradientUnits="userSpaceOnUse">
<stop/>
<stop offset="1"/>
</linearGradient>
<linearGradient id="paint18_linear_104_1328" x1="57.6385" y1="77.8059" x2="59.7177" y2="57.3372" gradientUnits="userSpaceOnUse">
<stop stop-color="#EDE3DE"/>
<stop offset="1" stop-color="#D0B090"/>
</linearGradient>
<linearGradient id="paint19_linear_104_1328" x1="63.6868" y1="11.3011" x2="59.2478" y2="55.0013" gradientUnits="userSpaceOnUse">
<stop stop-color="#AB7469"/>
<stop offset="1" stop-opacity="0"/>
</linearGradient>
<linearGradient id="paint20_linear_104_1328" x1="26.0174" y1="50.7311" x2="99.1678" y2="50.7311" gradientUnits="userSpaceOnUse">
<stop/>
<stop offset="1"/>
</linearGradient>
<linearGradient id="paint21_linear_104_1328" x1="74.7077" y1="48.3318" x2="71.7632" y2="60.1074" gradientUnits="userSpaceOnUse">
<stop stop-color="#4F98AE"/>
<stop offset="1" stop-color="#7294CD" stop-opacity="0.1375"/>
</linearGradient>
<linearGradient id="paint22_linear_104_1328" x1="45.4735" y1="45.1717" x2="45.99" y2="57.2988" gradientUnits="userSpaceOnUse">
<stop stop-color="#4F98AE"/>
<stop offset="1" stop-color="#7294CD" stop-opacity="0.1375"/>
</linearGradient>
<linearGradient id="paint23_linear_104_1328" x1="48.3045" y1="69.9392" x2="63.3715" y2="69.9392" gradientUnits="userSpaceOnUse">
<stop/>
<stop offset="1"/>
</linearGradient>
<linearGradient id="paint24_linear_104_1328" x1="26.3577" y1="66.8204" x2="51.7244" y2="66.8204" gradientUnits="userSpaceOnUse">
<stop/>
<stop offset="1"/>
</linearGradient>
<linearGradient id="paint25_linear_104_1328" x1="20.0702" y1="68.7951" x2="45.861" y2="68.7951" gradientUnits="userSpaceOnUse">
<stop/>
<stop offset="1"/>
</linearGradient>
<linearGradient id="paint26_linear_104_1328" x1="23.9818" y1="72.1739" x2="50.1256" y2="72.1739" gradientUnits="userSpaceOnUse">
<stop/>
<stop offset="1"/>
</linearGradient>
<linearGradient id="paint27_linear_104_1328" x1="40.2962" y1="76.2577" x2="70.795" y2="76.2577" gradientUnits="userSpaceOnUse">
<stop/>
<stop offset="1"/>
</linearGradient>
<linearGradient id="paint28_linear_104_1328" x1="36.1443" y1="56.0121" x2="54.4841" y2="56.0121" gradientUnits="userSpaceOnUse">
<stop/>
<stop offset="1"/>
</linearGradient>
<linearGradient id="paint29_linear_104_1328" x1="47.8635" y1="43.5428" x2="47.4369" y2="33.0301" gradientUnits="userSpaceOnUse">
<stop stop-color="#1A0F00"/>
<stop offset="1" stop-opacity="0"/>
</linearGradient>
<linearGradient id="paint30_linear_104_1328" x1="53.2882" y1="45.5293" x2="54.5523" y2="33.0857" gradientUnits="userSpaceOnUse">
<stop stop-color="#1A0F00"/>
<stop offset="1" stop-opacity="0"/>
</linearGradient>
<linearGradient id="paint31_linear_104_1328" x1="39.3107" y1="48.1943" x2="28.4622" y2="50.5203" gradientUnits="userSpaceOnUse">
<stop stop-color="#1A0F00"/>
<stop offset="1" stop-opacity="0"/>
</linearGradient>
<linearGradient id="paint32_linear_104_1328" x1="47.2832" y1="56.4864" x2="40.3679" y2="62.3987" gradientUnits="userSpaceOnUse">
<stop stop-color="#1A0F00"/>
<stop offset="1" stop-opacity="0"/>
</linearGradient>
<linearGradient id="paint33_linear_104_1328" x1="66.9275" y1="46.833" x2="68.1915" y2="34.3894" gradientUnits="userSpaceOnUse">
<stop stop-color="#1A0F00"/>
<stop offset="1" stop-opacity="0"/>
</linearGradient>
<linearGradient id="paint34_linear_104_1328" x1="80.8008" y1="53.4926" x2="90.6352" y2="57.5084" gradientUnits="userSpaceOnUse">
<stop stop-color="#1A0F00"/>
<stop offset="1" stop-opacity="0"/>
</linearGradient>
<linearGradient id="paint35_linear_104_1328" x1="70.3895" y1="59.3563" x2="75.9746" y2="66.5384" gradientUnits="userSpaceOnUse">
<stop stop-color="#1A0F00"/>
<stop offset="1" stop-opacity="0"/>
</linearGradient>
<linearGradient id="paint36_linear_104_1328" x1="25.6902" y1="78.986" x2="48.3662" y2="78.986" gradientUnits="userSpaceOnUse">
<stop/>
<stop offset="1"/>
</linearGradient>
<linearGradient id="paint37_linear_104_1328" x1="21.5486" y1="76.3272" x2="46.1841" y2="76.3272" gradientUnits="userSpaceOnUse">
<stop/>
<stop offset="1"/>
</linearGradient>
<linearGradient id="paint38_linear_104_1328" x1="62.3074" y1="69.7687" x2="88.1016" y2="69.7687" gradientUnits="userSpaceOnUse">
<stop/>
<stop offset="1"/>
</linearGradient>
<linearGradient id="paint39_linear_104_1328" x1="67.9729" y1="73.767" x2="93.3875" y2="73.767" gradientUnits="userSpaceOnUse">
<stop/>
<stop offset="1"/>
</linearGradient>
<linearGradient id="paint40_linear_104_1328" x1="63.4544" y1="75.9263" x2="88.6747" y2="75.9263" gradientUnits="userSpaceOnUse">
<stop/>
<stop offset="1"/>
</linearGradient>
<linearGradient id="paint41_linear_104_1328" x1="64.7405" y1="82.5542" x2="84.7194" y2="82.5542" gradientUnits="userSpaceOnUse">
<stop/>
<stop offset="1"/>
</linearGradient>
<linearGradient id="paint42_linear_104_1328" x1="66.9798" y1="80.5856" x2="89.7435" y2="80.5856" gradientUnits="userSpaceOnUse">
<stop/>
<stop offset="1"/>
</linearGradient>
<linearGradient id="paint43_linear_104_1328" x1="24.2932" y1="30.935" x2="49.2745" y2="28.4571" gradientUnits="userSpaceOnUse">
<stop stop-color="#1A0F00"/>
<stop offset="1" stop-opacity="0"/>
</linearGradient>
<linearGradient id="paint44_linear_104_1328" x1="100.339" y1="38.2783" x2="76.3661" y2="30.8276" gradientUnits="userSpaceOnUse">
<stop stop-color="#1A0F00"/>
<stop offset="1" stop-opacity="0"/>
</linearGradient>
<linearGradient id="paint45_linear_104_1328" x1="60.7181" y1="57.8052" x2="82.5539" y2="57.8052" gradientUnits="userSpaceOnUse">
<stop/>
<stop offset="1"/>
</linearGradient>
<linearGradient id="paint46_linear_104_1328" x1="65.0653" y1="-4.92929" x2="57.6169" y2="68.3967" gradientUnits="userSpaceOnUse">
<stop stop-color="#1A0F00"/>
<stop offset="1" stop-opacity="0"/>
</linearGradient>
<linearGradient id="paint47_linear_104_1328" x1="80.1758" y1="43.7211" x2="90.0102" y2="47.7369" gradientUnits="userSpaceOnUse">
<stop stop-color="#1A0F00"/>
<stop offset="1" stop-opacity="0"/>
</linearGradient>
<linearGradient id="paint48_linear_104_1328" x1="42.3136" y1="39.8701" x2="31.4651" y2="42.1961" gradientUnits="userSpaceOnUse">
<stop stop-color="#1A0F00"/>
<stop offset="1" stop-opacity="0"/>
</linearGradient>
</defs>
</svg>
