<svg width="200" height="200" viewBox="0 0 200 200" fill="none" xmlns="http://www.w3.org/2000/svg">
<path fill-rule="evenodd" clip-rule="evenodd" d="M87.2777 101.325C76.5004 96.6972 76.0488 86.623 56.9871 82.6872C50.4005 81.3272 58.6193 99.0505 59.7755 114.058C60.9318 129.068 53.4334 142.203 60.4694 154.285C69.8197 170.34 76.6962 171.911 83.0258 177.785C94.5542 188.483 109.583 187.639 118.68 178.973C126.377 171.641 137.189 167.976 145.649 151.678C152.419 138.638 148.364 128.861 149.24 114.983C150.261 98.7945 155.125 80.591 148.48 81.6807C128.158 85.0135 126.942 100.312 117.953 102.969C108.376 105.8 96.1382 105.129 87.2777 101.325V101.325Z" fill="url(#paint0_linear_104_1206)"/>
<path fill-rule="evenodd" clip-rule="evenodd" d="M87.2777 101.325C76.5004 96.6972 76.0488 86.623 56.9871 82.6872C50.4005 81.3272 58.6193 99.0505 59.7755 114.058C60.9318 129.068 53.4334 142.203 60.4694 154.285C69.8197 170.34 76.6962 171.911 83.0258 177.785C94.5542 188.483 109.583 187.639 118.68 178.973C126.377 171.641 137.189 167.976 145.649 151.678C152.419 138.638 148.364 128.861 149.24 114.983C150.261 98.7945 155.125 80.591 148.48 81.6807C128.158 85.0135 126.942 100.312 117.953 102.969C108.376 105.8 96.1382 105.129 87.2777 101.325V101.325Z" fill="url(#paint1_linear_104_1206)" stroke="url(#paint2_linear_104_1206)" stroke-width="3.65715" stroke-linecap="round" stroke-linejoin="round"/>
<path fill-rule="evenodd" clip-rule="evenodd" d="M112.567 136.336C115.723 126.205 124.486 123.138 133.308 129.82C135.507 131.486 130.253 145.551 112.567 136.336Z" fill="url(#paint3_linear_104_1206)"/>
<path fill-rule="evenodd" clip-rule="evenodd" d="M91.809 136.065C88.6535 125.934 79.89 122.867 71.0682 129.55C68.8699 131.215 74.123 145.28 91.809 136.065Z" fill="url(#paint4_linear_104_1206)"/>
<path fill-rule="evenodd" clip-rule="evenodd" d="M93.3418 156.701C93.8072 158.761 97.9133 160.659 99.5787 159.724C100.374 164.706 101.183 162.431 101.993 162.302C102.71 162.188 103.824 165.039 103.913 159.746C105.731 160.042 109.855 159.36 110.142 156.684L110.273 156.553C104.988 155.89 97.5772 155.964 93.3418 156.701Z" fill="#C1856E" stroke="url(#paint5_linear_104_1206)" stroke-width="3.65715" stroke-linecap="round" stroke-linejoin="round"/>
<path d="M92.5043 159.047C81.6151 155.704 71.0167 155.562 60.4736 156.027" stroke="url(#paint6_linear_104_1206)" stroke-width="3.65715" stroke-linecap="round" stroke-linejoin="round"/>
<path d="M84.2335 160.444C72.9262 159.067 62.468 160.791 52.1709 163.102" stroke="url(#paint7_linear_104_1206)" stroke-width="3.65715" stroke-linecap="round" stroke-linejoin="round"/>
<path d="M90.5344 162.238C79.1637 162.916 68.0718 164.635 58.3579 168.76" stroke="url(#paint8_linear_104_1206)" stroke-width="3.65715" stroke-linecap="round" stroke-linejoin="round"/>
<path d="M121.062 170.829C111.334 174.356 101.311 169.756 102.344 165.393C103.002 162.616 100.622 163.373 101.237 165.391C102.318 168.938 88.942 174.39 81.9668 170.745" stroke="url(#paint9_linear_104_1206)" stroke-width="3.65715" stroke-linecap="round" stroke-linejoin="round"/>
<path d="M94.1488 155.543C93.5419 151.902 97.1543 149.134 93.7814 138.305C90.6259 128.174 81.2827 122.513 71.0679 129.55C69.4186 130.686 72.4416 145.18 90.0041 136.999" stroke="url(#paint10_linear_104_1206)" stroke-width="3.65715" stroke-linecap="round" stroke-linejoin="round"/>
<path fill-rule="evenodd" clip-rule="evenodd" d="M80.0972 129.656C82.482 131.682 81.9163 134.132 80.7356 136.669C79.6816 134.777 78.991 132.692 80.0972 129.656Z" fill="black" stroke="black" stroke-width="3.65715" stroke-linecap="round" stroke-linejoin="round"/>
<path fill-rule="evenodd" clip-rule="evenodd" d="M75.7158 113.528C80.2587 117.606 80.2949 118.283 83.5548 123.34C85.8032 117.389 86.8128 111.438 93.0065 105.487L75.7158 113.528V113.528Z" fill="url(#paint11_linear_104_1206)"/>
<path fill-rule="evenodd" clip-rule="evenodd" d="M90.4946 108.392L93.8364 126.957L94.2076 108.021L90.4946 108.392V108.392Z" fill="url(#paint12_linear_104_1206)"/>
<path fill-rule="evenodd" clip-rule="evenodd" d="M59.7178 140.915C63.2369 138.281 67.8696 136.761 69.609 132.347C64.921 132.926 65.7538 127.699 57.8169 135.582L59.7178 140.915V140.915Z" fill="url(#paint13_linear_104_1206)"/>
<path fill-rule="evenodd" clip-rule="evenodd" d="M81.5977 153.092C85.8537 148.716 85.0473 151.677 90.2308 148.623C84.3747 146.138 81.4394 144.147 70.172 141.804C63.7084 147.258 73.9669 148.577 81.5977 153.092V153.092Z" fill="url(#paint14_linear_104_1206)"/>
<path fill-rule="evenodd" clip-rule="evenodd" d="M129.852 114.271C125.309 118.348 125.273 119.026 122.013 124.083C119.764 118.132 118.755 112.181 112.561 106.23L129.852 114.271V114.271Z" fill="url(#paint15_linear_104_1206)"/>
<path fill-rule="evenodd" clip-rule="evenodd" d="M113.765 108.276L110.424 126.84L110.052 107.904L113.765 108.276Z" fill="url(#paint16_linear_104_1206)"/>
<path fill-rule="evenodd" clip-rule="evenodd" d="M144.689 141.287C141.17 138.653 136.538 137.132 134.798 132.719C139.486 133.298 142.329 132.271 150.266 140.154L144.689 141.287Z" fill="url(#paint17_linear_104_1206)"/>
<path fill-rule="evenodd" clip-rule="evenodd" d="M122.438 153.834C118.182 149.458 118.988 152.42 113.805 149.365C119.661 146.88 122.596 144.89 133.864 142.547C140.327 148.001 130.069 149.32 122.438 153.834Z" fill="url(#paint18_linear_104_1206)"/>
<path d="M88.3496 165.58C77.9943 170.325 69.9851 177.268 62.4209 184.627" stroke="url(#paint19_linear_104_1206)" stroke-width="3.65715" stroke-linecap="round" stroke-linejoin="round"/>
<path d="M85.1783 165.175C74.0608 167.655 64.7794 172.774 55.8462 178.393" stroke="url(#paint20_linear_104_1206)" stroke-width="3.65715" stroke-linecap="round" stroke-linejoin="round"/>
<path d="M112.321 158.675C123.211 155.333 133.809 155.191 144.352 155.656" stroke="url(#paint21_linear_104_1206)" stroke-width="3.65715" stroke-linecap="round" stroke-linejoin="round"/>
<path d="M120.592 160.073C131.899 158.696 142.357 160.419 152.654 162.73" stroke="url(#paint22_linear_104_1206)" stroke-width="3.65715" stroke-linecap="round" stroke-linejoin="round"/>
<path d="M114.291 161.866C125.662 162.545 136.754 164.264 146.468 168.388" stroke="url(#paint23_linear_104_1206)" stroke-width="3.65715" stroke-linecap="round" stroke-linejoin="round"/>
<path d="M116.476 165.209C126.831 169.954 134.84 176.897 142.404 184.256" stroke="url(#paint24_linear_104_1206)" stroke-width="3.65715" stroke-linecap="round" stroke-linejoin="round"/>
<path d="M119.647 164.804C130.765 167.284 140.046 172.403 148.979 178.021" stroke="url(#paint25_linear_104_1206)" stroke-width="3.65715" stroke-linecap="round" stroke-linejoin="round"/>
<path fill-rule="evenodd" clip-rule="evenodd" d="M58.0723 87.9141C58.8566 91.1261 62.0129 105.376 64.0111 116.596C66.0442 111.215 75.9792 111.057 81.58 105.675C68.732 85.0024 61.9228 88.4284 58.0723 87.9141V87.9141Z" fill="url(#paint26_linear_104_1206)"/>
<path fill-rule="evenodd" clip-rule="evenodd" d="M148.644 85.7644C147.86 88.9764 146.754 104.834 144.756 116.055C142.723 110.674 131.213 110.515 125.612 105.134C138.46 84.461 143.71 86.2787 148.644 85.7644V85.7644Z" fill="url(#paint27_linear_104_1206)"/>
<path d="M110.328 155.044C110.935 151.403 107.322 148.635 110.695 137.806C113.851 127.675 123.194 122.014 133.409 129.051C135.058 130.187 132.035 144.681 114.473 136.5" stroke="url(#paint28_linear_104_1206)" stroke-width="3.65715" stroke-linecap="round" stroke-linejoin="round"/>
<path fill-rule="evenodd" clip-rule="evenodd" d="M123.73 128.507C121.345 130.534 121.91 132.983 123.091 135.521C124.145 133.628 124.836 131.543 123.73 128.507Z" fill="black" stroke="black" stroke-width="3.65715" stroke-linecap="round" stroke-linejoin="round"/>
<path fill-rule="evenodd" clip-rule="evenodd" d="M98.8878 146.891C94.0914 130.001 94.4119 108.142 102.756 108.264C109.449 108.366 108.314 135.13 106.133 148.563C106.133 148.563 101.645 156.6 98.8878 146.891V146.891Z" fill="url(#paint29_linear_104_1206)"/>
<path fill-rule="evenodd" clip-rule="evenodd" d="M142.392 127.501C138.873 124.867 134.24 123.346 132.5 118.933C137.188 119.512 140.031 118.485 147.968 126.368L142.392 127.501V127.501Z" fill="url(#paint30_linear_104_1206)"/>
<path fill-rule="evenodd" clip-rule="evenodd" d="M62.7814 128.661C66.3006 126.027 70.9332 124.507 72.6725 120.093C67.9845 120.672 68.8173 115.445 60.8804 123.328L62.7814 128.661V128.661Z" fill="url(#paint31_linear_104_1206)"/>
<defs>
<linearGradient id="paint0_linear_104_1206" x1="103.185" y1="170.587" x2="103.185" y2="141.219" gradientUnits="userSpaceOnUse">
<stop stop-color="#EDE3DE"/>
<stop offset="1" stop-color="#D0B090"/>
</linearGradient>
<linearGradient id="paint1_linear_104_1206" x1="102.181" y1="75.2719" x2="102.181" y2="137.97" gradientUnits="userSpaceOnUse">
<stop stop-color="#AB7469"/>
<stop offset="1" stop-opacity="0"/>
</linearGradient>
<linearGradient id="paint2_linear_104_1206" x1="52.6279" y1="133.638" x2="153.743" y2="133.638" gradientUnits="userSpaceOnUse">
<stop/>
<stop offset="1"/>
</linearGradient>
<linearGradient id="paint3_linear_104_1206" x1="123.174" y1="126.269" x2="120.691" y2="143.416" gradientUnits="userSpaceOnUse">
<stop stop-color="#4F98AE"/>
<stop offset="1" stop-color="#7294CD" stop-opacity="0.1375"/>
</linearGradient>
<linearGradient id="paint4_linear_104_1206" x1="81.2029" y1="125.998" x2="83.6856" y2="143.145" gradientUnits="userSpaceOnUse">
<stop stop-color="#4F98AE"/>
<stop offset="1" stop-color="#7294CD" stop-opacity="0.1375"/>
</linearGradient>
<linearGradient id="paint5_linear_104_1206" x1="91.5132" y1="159.533" x2="112.102" y2="159.533" gradientUnits="userSpaceOnUse">
<stop/>
<stop offset="1"/>
</linearGradient>
<linearGradient id="paint6_linear_104_1206" x1="58.645" y1="157.44" x2="94.3328" y2="157.44" gradientUnits="userSpaceOnUse">
<stop/>
<stop offset="1"/>
</linearGradient>
<linearGradient id="paint7_linear_104_1206" x1="50.3424" y1="161.528" x2="86.0621" y2="161.528" gradientUnits="userSpaceOnUse">
<stop/>
<stop offset="1"/>
</linearGradient>
<linearGradient id="paint8_linear_104_1206" x1="56.5293" y1="165.499" x2="92.3631" y2="165.499" gradientUnits="userSpaceOnUse">
<stop/>
<stop offset="1"/>
</linearGradient>
<linearGradient id="paint9_linear_104_1206" x1="80.1382" y1="167.832" x2="122.891" y2="167.832" gradientUnits="userSpaceOnUse">
<stop/>
<stop offset="1"/>
</linearGradient>
<linearGradient id="paint10_linear_104_1206" x1="68.8457" y1="140.982" x2="97.0698" y2="140.982" gradientUnits="userSpaceOnUse">
<stop/>
<stop offset="1"/>
</linearGradient>
<linearGradient id="paint11_linear_104_1206" x1="84.3613" y1="123.34" x2="82.2391" y2="108.473" gradientUnits="userSpaceOnUse">
<stop stop-color="#1A0F00"/>
<stop offset="1" stop-opacity="0"/>
</linearGradient>
<linearGradient id="paint12_linear_104_1206" x1="92.3513" y1="125.379" x2="92.3513" y2="107.525" gradientUnits="userSpaceOnUse">
<stop stop-color="#1A0F00"/>
<stop offset="1" stop-opacity="0"/>
</linearGradient>
<linearGradient id="paint13_linear_104_1206" x1="72.887" y1="131.179" x2="57.8169" y2="136.047" gradientUnits="userSpaceOnUse">
<stop stop-color="#1A0F00"/>
<stop offset="1" stop-opacity="0"/>
</linearGradient>
<linearGradient id="paint14_linear_104_1206" x1="85.404" y1="141.805" x2="76.4366" y2="151.198" gradientUnits="userSpaceOnUse">
<stop stop-color="#1A0F00"/>
<stop offset="1" stop-opacity="0"/>
</linearGradient>
<linearGradient id="paint15_linear_104_1206" x1="121.206" y1="124.083" x2="123.329" y2="109.216" gradientUnits="userSpaceOnUse">
<stop stop-color="#1A0F00"/>
<stop offset="1" stop-opacity="0"/>
</linearGradient>
<linearGradient id="paint16_linear_104_1206" x1="111.909" y1="125.262" x2="111.909" y2="107.409" gradientUnits="userSpaceOnUse">
<stop stop-color="#1A0F00"/>
<stop offset="1" stop-opacity="0"/>
</linearGradient>
<linearGradient id="paint17_linear_104_1206" x1="132.57" y1="132.718" x2="147.115" y2="137.002" gradientUnits="userSpaceOnUse">
<stop stop-color="#1A0F00"/>
<stop offset="1" stop-opacity="0"/>
</linearGradient>
<linearGradient id="paint18_linear_104_1206" x1="118.632" y1="142.547" x2="127.599" y2="151.941" gradientUnits="userSpaceOnUse">
<stop stop-color="#1A0F00"/>
<stop offset="1" stop-opacity="0"/>
</linearGradient>
<linearGradient id="paint19_linear_104_1206" x1="60.5924" y1="175.103" x2="90.1782" y2="175.103" gradientUnits="userSpaceOnUse">
<stop/>
<stop offset="1"/>
</linearGradient>
<linearGradient id="paint20_linear_104_1206" x1="54.0176" y1="171.784" x2="87.007" y2="171.784" gradientUnits="userSpaceOnUse">
<stop/>
<stop offset="1"/>
</linearGradient>
<linearGradient id="paint21_linear_104_1206" x1="110.493" y1="157.068" x2="146.181" y2="157.068" gradientUnits="userSpaceOnUse">
<stop/>
<stop offset="1"/>
</linearGradient>
<linearGradient id="paint22_linear_104_1206" x1="118.763" y1="161.156" x2="154.483" y2="161.156" gradientUnits="userSpaceOnUse">
<stop/>
<stop offset="1"/>
</linearGradient>
<linearGradient id="paint23_linear_104_1206" x1="112.462" y1="165.127" x2="148.296" y2="165.127" gradientUnits="userSpaceOnUse">
<stop/>
<stop offset="1"/>
</linearGradient>
<linearGradient id="paint24_linear_104_1206" x1="114.647" y1="174.732" x2="144.233" y2="174.732" gradientUnits="userSpaceOnUse">
<stop/>
<stop offset="1"/>
</linearGradient>
<linearGradient id="paint25_linear_104_1206" x1="117.818" y1="171.413" x2="150.808" y2="171.413" gradientUnits="userSpaceOnUse">
<stop/>
<stop offset="1"/>
</linearGradient>
<linearGradient id="paint26_linear_104_1206" x1="49.0711" y1="108.836" x2="84.189" y2="101.714" gradientUnits="userSpaceOnUse">
<stop stop-color="#1A0F00"/>
<stop offset="1" stop-opacity="0"/>
</linearGradient>
<linearGradient id="paint27_linear_104_1206" x1="158.121" y1="108.295" x2="123.003" y2="101.172" gradientUnits="userSpaceOnUse">
<stop stop-color="#1A0F00"/>
<stop offset="1" stop-opacity="0"/>
</linearGradient>
<linearGradient id="paint28_linear_104_1206" x1="107.407" y1="140.483" x2="135.631" y2="140.483" gradientUnits="userSpaceOnUse">
<stop/>
<stop offset="1"/>
</linearGradient>
<linearGradient id="paint29_linear_104_1206" x1="101.797" y1="52.0246" x2="101.797" y2="157.228" gradientUnits="userSpaceOnUse">
<stop stop-color="#1A0F00"/>
<stop offset="1" stop-opacity="0"/>
</linearGradient>
<linearGradient id="paint30_linear_104_1206" x1="130.273" y1="118.932" x2="144.818" y2="123.217" gradientUnits="userSpaceOnUse">
<stop stop-color="#1A0F00"/>
<stop offset="1" stop-opacity="0"/>
</linearGradient>
<linearGradient id="paint31_linear_104_1206" x1="75.9505" y1="118.925" x2="60.8804" y2="123.793" gradientUnits="userSpaceOnUse">
<stop stop-color="#1A0F00"/>
<stop offset="1" stop-opacity="0"/>
</linearGradient>
</defs>
</svg>
