<svg width="200" height="200" viewBox="0 0 200 200" fill="none" xmlns="http://www.w3.org/2000/svg">
<path fill-rule="evenodd" clip-rule="evenodd" d="M81.9513 103.669C70.4863 98.7461 70.006 88.029 49.7277 83.8421C42.7208 82.3953 51.464 101.25 52.6939 117.215C53.924 133.183 45.9472 147.156 53.4322 160.009C63.3793 177.089 70.6946 178.76 77.4282 185.009C89.6924 196.39 105.681 195.492 115.358 186.273C123.546 178.473 135.048 174.574 144.048 157.236C151.25 143.363 146.937 132.962 147.868 118.199C148.955 100.977 154.129 81.612 147.06 82.7713C125.44 86.3169 124.147 102.591 114.584 105.418C104.396 108.43 91.3774 107.716 81.9513 103.669V103.669Z" fill="url(#paint0_linear_104_1248)"/>
<path fill-rule="evenodd" clip-rule="evenodd" d="M81.9513 103.669C70.4863 98.7461 70.006 88.029 49.7277 83.8421C42.7208 82.3953 51.464 101.25 52.6939 117.215C53.924 133.183 45.9472 147.156 53.4322 160.009C63.3793 177.089 70.6946 178.76 77.4282 185.009C89.6924 196.39 105.681 195.492 115.358 186.273C123.546 178.473 135.048 174.574 144.048 157.236C151.25 143.363 146.937 132.962 147.868 118.199C148.955 100.977 154.129 81.612 147.06 82.7713C125.44 86.3169 124.147 102.591 114.584 105.418C104.396 108.43 91.3774 107.716 81.9513 103.669V103.669Z" fill="url(#paint1_linear_104_1248)" stroke="url(#paint2_linear_104_1248)" stroke-width="3.65715" stroke-linecap="round" stroke-linejoin="round"/>
<path fill-rule="evenodd" clip-rule="evenodd" d="M108.855 140.915C112.212 130.137 121.535 126.874 130.919 133.983C133.258 135.755 127.67 150.718 108.855 140.915Z" fill="url(#paint3_linear_104_1248)"/>
<path fill-rule="evenodd" clip-rule="evenodd" d="M86.7716 140.627C83.4148 129.849 74.092 126.586 64.7072 133.695C62.3685 135.467 67.9569 150.43 86.7716 140.627Z" fill="url(#paint4_linear_104_1248)"/>
<path fill-rule="evenodd" clip-rule="evenodd" d="M88.4019 162.579C88.897 164.771 93.2652 166.79 95.0369 165.795C95.8834 171.095 96.7435 168.675 97.6049 168.538C98.368 168.417 99.5533 171.449 99.6483 165.818C101.582 166.133 105.969 165.408 106.274 162.561L106.414 162.421C100.791 161.716 92.9076 161.795 88.4019 162.579V162.579Z" fill="#C1856E" stroke="url(#paint5_linear_104_1248)" stroke-width="3.65715" stroke-linecap="round" stroke-linejoin="round"/>
<path d="M87.5114 165.075C75.9271 161.519 64.6525 161.368 53.4365 161.863" stroke="url(#paint6_linear_104_1248)" stroke-width="3.65715" stroke-linecap="round" stroke-linejoin="round"/>
<path d="M78.7134 166.561C66.6845 165.097 55.5588 166.93 44.6045 169.389" stroke="url(#paint7_linear_104_1248)" stroke-width="3.65715" stroke-linecap="round" stroke-linejoin="round"/>
<path d="M85.416 168.469C73.3197 169.191 61.5199 171.019 51.186 175.407" stroke="url(#paint8_linear_104_1248)" stroke-width="3.65715" stroke-linecap="round" stroke-linejoin="round"/>
<path d="M117.892 177.609C107.543 181.361 96.8804 176.467 97.9794 171.827C98.6792 168.872 96.1469 169.678 96.8014 171.825C97.9515 175.598 83.7217 181.397 76.3013 177.52" stroke="url(#paint9_linear_104_1248)" stroke-width="3.65715" stroke-linecap="round" stroke-linejoin="round"/>
<path d="M89.2613 161.348C88.6156 157.475 92.4585 154.53 88.8704 143.01C85.5135 132.232 75.574 126.209 64.7073 133.695C62.9527 134.904 66.1686 150.324 84.8519 141.621" stroke="url(#paint10_linear_104_1248)" stroke-width="3.65715" stroke-linecap="round" stroke-linejoin="round"/>
<path fill-rule="evenodd" clip-rule="evenodd" d="M74.3127 133.808C76.8497 135.964 76.248 138.57 74.992 141.269C73.8708 139.256 73.1359 137.038 74.3127 133.808Z" fill="black" stroke="black" stroke-width="3.65715" stroke-linecap="round" stroke-linejoin="round"/>
<path fill-rule="evenodd" clip-rule="evenodd" d="M69.6514 116.651C74.4843 120.989 74.5227 121.71 77.9907 127.09C80.3825 120.759 81.4566 114.428 88.0456 108.097L69.6514 116.651Z" fill="url(#paint11_linear_104_1248)"/>
<path fill-rule="evenodd" clip-rule="evenodd" d="M85.3735 111.187L88.9285 130.937L89.3235 110.792L85.3735 111.187Z" fill="url(#paint12_linear_104_1248)"/>
<path fill-rule="evenodd" clip-rule="evenodd" d="M52.6326 145.786C56.3763 142.984 61.3047 141.367 63.155 136.671C58.1679 137.287 59.0538 131.726 50.6104 140.113L52.6326 145.786Z" fill="url(#paint13_linear_104_1248)"/>
<path fill-rule="evenodd" clip-rule="evenodd" d="M75.909 158.74C80.4365 154.085 79.5788 157.235 85.0932 153.985C78.8633 151.342 75.7406 149.225 63.7541 146.732C56.878 152.534 67.7912 153.937 75.909 158.74Z" fill="url(#paint14_linear_104_1248)"/>
<path fill-rule="evenodd" clip-rule="evenodd" d="M127.243 117.441C122.41 121.779 122.371 122.5 118.904 127.88C116.512 121.549 115.438 115.218 108.849 108.887L127.243 117.441Z" fill="url(#paint15_linear_104_1248)"/>
<path fill-rule="evenodd" clip-rule="evenodd" d="M110.13 111.063L106.575 130.813L106.18 110.668L110.13 111.063V111.063Z" fill="url(#paint16_linear_104_1248)"/>
<path fill-rule="evenodd" clip-rule="evenodd" d="M143.027 146.181C139.283 143.379 134.355 141.762 132.504 137.066C137.492 137.682 140.516 136.59 148.959 144.977L143.027 146.181V146.181Z" fill="url(#paint17_linear_104_1248)"/>
<path fill-rule="evenodd" clip-rule="evenodd" d="M119.356 159.53C114.828 154.875 115.686 158.025 110.171 154.776C116.401 152.132 119.524 150.015 131.51 147.522C138.387 153.324 127.473 154.727 119.356 159.53Z" fill="url(#paint18_linear_104_1248)"/>
<path d="M83.0918 172.025C72.0756 177.073 63.5553 184.459 55.5083 192.287" stroke="url(#paint19_linear_104_1248)" stroke-width="3.65715" stroke-linecap="round" stroke-linejoin="round"/>
<path d="M79.7178 171.594C67.8908 174.233 58.017 179.678 48.5137 185.655" stroke="url(#paint20_linear_104_1248)" stroke-width="3.65715" stroke-linecap="round" stroke-linejoin="round"/>
<path d="M108.593 164.68C120.177 161.124 131.452 160.973 142.668 161.468" stroke="url(#paint21_linear_104_1248)" stroke-width="3.65715" stroke-linecap="round" stroke-linejoin="round"/>
<path d="M117.391 166.166C129.42 164.702 140.546 166.535 151.5 168.994" stroke="url(#paint22_linear_104_1248)" stroke-width="3.65715" stroke-linecap="round" stroke-linejoin="round"/>
<path d="M110.688 168.074C122.785 168.796 134.585 170.625 144.918 175.012" stroke="url(#paint23_linear_104_1248)" stroke-width="3.65715" stroke-linecap="round" stroke-linejoin="round"/>
<path d="M113.012 171.63C124.028 176.678 132.549 184.064 140.596 191.892" stroke="url(#paint24_linear_104_1248)" stroke-width="3.65715" stroke-linecap="round" stroke-linejoin="round"/>
<path d="M116.386 171.199C128.213 173.838 138.087 179.283 147.59 185.26" stroke="url(#paint25_linear_104_1248)" stroke-width="3.65715" stroke-linecap="round" stroke-linejoin="round"/>
<path fill-rule="evenodd" clip-rule="evenodd" d="M50.8823 89.4026C51.7167 92.8196 55.0745 107.979 57.2002 119.915C59.3631 114.191 69.932 114.022 75.8903 108.297C62.2223 86.3051 54.9785 89.9498 50.8823 89.4026V89.4026Z" fill="url(#paint26_linear_104_1248)"/>
<path fill-rule="evenodd" clip-rule="evenodd" d="M147.234 87.1155C146.399 90.5325 145.224 107.403 143.098 119.339C140.935 113.614 128.69 113.446 122.732 107.721C136.4 85.7289 141.985 87.6626 147.234 87.1155Z" fill="url(#paint27_linear_104_1248)"/>
<path fill-rule="evenodd" clip-rule="evenodd" d="M51.0464 50.6601C64.7124 53.7391 77.9553 79.2234 84.741 88.5454C79.7726 72.4432 77.1019 47.1637 79.1057 31.1082C83.2417 47.9025 89.7158 66.1648 96.7087 78.6652C100.879 70.5268 112.387 50.5628 114.099 32.8969C118.606 50.5962 111.536 69.177 110.414 86.2027C116.348 74.6404 128.058 56.2478 141.876 53.5688C127.859 73.6029 120.048 92.9507 116.741 107.777C104.384 105.938 92.0278 105.726 79.6713 108.297C76.6596 96.6393 56.9382 62.1096 51.0464 50.6601V50.6601Z" fill="url(#paint28_linear_104_1248)" stroke="url(#paint29_linear_104_1248)" stroke-width="3.65714" stroke-linecap="round" stroke-linejoin="round"/>
<path opacity="0.99" fill-rule="evenodd" clip-rule="evenodd" d="M61.5339 49.3614C61.5343 50.9815 61.211 52.5858 60.5827 54.0827C59.9543 55.5795 59.0331 56.9397 57.8718 58.0853C56.7104 59.231 55.3316 60.1399 53.8141 60.7599C52.2966 61.38 50.6701 61.6991 49.0275 61.6991C47.3849 61.6991 45.7584 61.38 44.2408 60.7599C42.7233 60.1399 41.3445 59.231 40.1831 58.0853C39.0218 56.9397 38.1006 55.5795 37.4723 54.0827C36.8439 52.5858 36.5207 50.9815 36.521 49.3614C36.5207 47.7413 36.8439 46.137 37.4723 44.6402C38.1006 43.1433 39.0218 41.7832 40.1831 40.6375C41.3445 39.4918 42.7233 38.5829 44.2408 37.9629C45.7584 37.3428 47.3849 37.0237 49.0275 37.0237C50.6701 37.0237 52.2966 37.3428 53.8141 37.9629C55.3316 38.5829 56.7104 39.4918 57.8718 40.6375C59.0331 41.7832 59.9543 43.1433 60.5827 44.6402C61.211 46.137 61.5343 47.7413 61.5339 49.3614V49.3614Z" fill="url(#paint30_linear_104_1248)" stroke="url(#paint31_linear_104_1248)" stroke-width="3.65714" stroke-linecap="round" stroke-linejoin="round"/>
<path opacity="0.99" fill-rule="evenodd" clip-rule="evenodd" d="M91.7439 34.1392C91.7442 35.7593 91.421 37.3636 90.7926 38.8605C90.1643 40.3574 89.2431 41.7175 88.0817 42.8632C86.9204 44.0089 85.5416 44.9177 84.024 45.5378C82.5065 46.1578 80.88 46.477 79.2374 46.477C77.5948 46.477 75.9683 46.1578 74.4508 45.5378C72.9333 44.9177 71.5545 44.0089 70.3931 42.8632C69.2317 41.7175 68.3106 40.3574 67.6822 38.8605C67.0539 37.3636 66.7306 35.7593 66.731 34.1392C66.7306 32.5191 67.0539 30.9149 67.6822 29.418C68.3106 27.9211 69.2317 26.561 70.3931 25.4153C71.5545 24.2696 72.9333 23.3608 74.4508 22.7407C75.9683 22.1207 77.5948 21.8015 79.2374 21.8015C80.88 21.8015 82.5065 22.1207 84.024 22.7407C85.5416 23.3608 86.9204 24.2696 88.0817 25.4153C89.2431 26.561 90.1643 27.9211 90.7926 29.418C91.421 30.9149 91.7442 32.5191 91.7439 34.1392V34.1392Z" fill="url(#paint32_linear_104_1248)" stroke="url(#paint33_linear_104_1248)" stroke-width="3.65714" stroke-linecap="round" stroke-linejoin="round"/>
<path opacity="0.99" fill-rule="evenodd" clip-rule="evenodd" d="M128.468 33.1925C128.469 34.8126 128.146 36.4169 127.517 37.9137C126.889 39.4106 125.968 40.7707 124.806 41.9164C123.645 43.0621 122.266 43.9709 120.749 44.591C119.231 45.2111 117.605 45.5302 115.962 45.5302C114.319 45.5302 112.693 45.2111 111.175 44.591C109.658 43.9709 108.279 43.0621 107.118 41.9164C105.956 40.7707 105.035 39.4106 104.407 37.9137C103.778 36.4169 103.455 34.8126 103.456 33.1925C103.455 31.5724 103.778 29.9681 104.407 28.4712C105.035 26.9743 105.956 25.6142 107.118 24.4685C108.279 23.3228 109.658 22.414 111.175 21.7939C112.693 21.1739 114.319 20.8547 115.962 20.8547C117.605 20.8547 119.231 21.1739 120.749 21.7939C122.266 22.414 123.645 23.3228 124.806 24.4685C125.968 25.6142 126.889 26.9743 127.517 28.4712C128.146 29.9681 128.469 31.5724 128.468 33.1925V33.1925Z" fill="url(#paint34_linear_104_1248)" stroke="url(#paint35_linear_104_1248)" stroke-width="3.65714" stroke-linecap="round" stroke-linejoin="round"/>
<path opacity="0.99" fill-rule="evenodd" clip-rule="evenodd" d="M157.062 52.0282C157.063 53.6483 156.739 55.2525 156.111 56.7494C155.483 58.2463 154.561 59.6064 153.4 60.7521C152.239 61.8978 150.86 62.8066 149.342 63.4267C147.825 64.0467 146.198 64.3659 144.556 64.3659C142.913 64.3659 141.287 64.0467 139.769 63.4267C138.252 62.8066 136.873 61.8978 135.711 60.7521C134.55 59.6064 133.629 58.2463 133.001 56.7494C132.372 55.2525 132.049 53.6483 132.049 52.0282C132.049 50.4081 132.372 48.8038 133.001 47.3069C133.629 45.81 134.55 44.4499 135.711 43.3042C136.873 42.1585 138.252 41.2497 139.769 40.6296C141.287 40.0096 142.913 39.6904 144.556 39.6904C146.198 39.6904 147.825 40.0096 149.342 40.6296C150.86 41.2497 152.239 42.1585 153.4 43.3042C154.561 44.4499 155.483 45.81 156.111 47.3069C156.739 48.8038 157.063 50.4081 157.062 52.0282V52.0282Z" fill="url(#paint36_linear_104_1248)" stroke="url(#paint37_linear_104_1248)" stroke-width="3.65714" stroke-linecap="round" stroke-linejoin="round"/>
<path d="M106.473 160.817C107.118 156.944 103.275 153.999 106.863 142.479C110.22 131.701 120.16 125.678 131.027 133.164C132.781 134.373 129.565 149.793 110.882 141.09" stroke="url(#paint38_linear_104_1248)" stroke-width="3.65715" stroke-linecap="round" stroke-linejoin="round"/>
<path fill-rule="evenodd" clip-rule="evenodd" d="M120.729 132.586C118.192 134.742 118.794 137.348 120.05 140.047C121.171 138.034 121.906 135.816 120.729 132.586Z" fill="black" stroke="black" stroke-width="3.65715" stroke-linecap="round" stroke-linejoin="round"/>
<path fill-rule="evenodd" clip-rule="evenodd" d="M94.3028 152.144C89.2003 134.175 89.5412 110.922 98.4182 111.052C105.538 111.159 104.33 139.632 102.01 153.922C102.01 153.922 97.2356 162.472 94.3028 152.144Z" fill="url(#paint39_linear_104_1248)"/>
<path fill-rule="evenodd" clip-rule="evenodd" d="M140.583 131.516C136.839 128.714 131.911 127.096 130.061 122.401C135.048 123.017 138.072 121.924 146.515 130.311L140.583 131.516V131.516Z" fill="url(#paint40_linear_104_1248)"/>
<path fill-rule="evenodd" clip-rule="evenodd" d="M55.8914 132.75C59.6351 129.948 64.5635 128.331 66.4138 123.635C61.4266 124.251 62.3126 118.69 53.8691 127.077L55.8914 132.75V132.75Z" fill="url(#paint41_linear_104_1248)"/>
<defs>
<linearGradient id="paint0_linear_104_1248" x1="98.8742" y1="177.351" x2="98.8742" y2="146.11" gradientUnits="userSpaceOnUse">
<stop stop-color="#EDE3DE"/>
<stop offset="1" stop-color="#D0B090"/>
</linearGradient>
<linearGradient id="paint1_linear_104_1248" x1="97.8059" y1="75.9536" x2="97.2671" y2="149.657" gradientUnits="userSpaceOnUse">
<stop stop-color="#AB7469"/>
<stop offset="1" stop-opacity="0"/>
</linearGradient>
<linearGradient id="paint2_linear_104_1248" x1="45.2071" y1="138.044" x2="152.541" y2="138.044" gradientUnits="userSpaceOnUse">
<stop/>
<stop offset="1"/>
</linearGradient>
<linearGradient id="paint3_linear_104_1248" x1="120.138" y1="130.205" x2="117.497" y2="148.446" gradientUnits="userSpaceOnUse">
<stop stop-color="#4F98AE"/>
<stop offset="1" stop-color="#7294CD" stop-opacity="0.1375"/>
</linearGradient>
<linearGradient id="paint4_linear_104_1248" x1="75.4887" y1="129.917" x2="78.1299" y2="148.158" gradientUnits="userSpaceOnUse">
<stop stop-color="#4F98AE"/>
<stop offset="1" stop-color="#7294CD" stop-opacity="0.1375"/>
</linearGradient>
<linearGradient id="paint5_linear_104_1248" x1="86.5733" y1="165.592" x2="108.243" y2="165.592" gradientUnits="userSpaceOnUse">
<stop/>
<stop offset="1"/>
</linearGradient>
<linearGradient id="paint6_linear_104_1248" x1="51.608" y1="163.365" x2="89.3399" y2="163.365" gradientUnits="userSpaceOnUse">
<stop/>
<stop offset="1"/>
</linearGradient>
<linearGradient id="paint7_linear_104_1248" x1="42.7759" y1="167.714" x2="80.542" y2="167.714" gradientUnits="userSpaceOnUse">
<stop/>
<stop offset="1"/>
</linearGradient>
<linearGradient id="paint8_linear_104_1248" x1="49.3575" y1="171.938" x2="87.2446" y2="171.938" gradientUnits="userSpaceOnUse">
<stop/>
<stop offset="1"/>
</linearGradient>
<linearGradient id="paint9_linear_104_1248" x1="74.4727" y1="174.421" x2="119.721" y2="174.421" gradientUnits="userSpaceOnUse">
<stop/>
<stop offset="1"/>
</linearGradient>
<linearGradient id="paint10_linear_104_1248" x1="62.46" y1="145.857" x2="92.2519" y2="145.857" gradientUnits="userSpaceOnUse">
<stop/>
<stop offset="1"/>
</linearGradient>
<linearGradient id="paint11_linear_104_1248" x1="78.8487" y1="127.09" x2="76.591" y2="111.273" gradientUnits="userSpaceOnUse">
<stop stop-color="#1A0F00"/>
<stop offset="1" stop-opacity="0"/>
</linearGradient>
<linearGradient id="paint12_linear_104_1248" x1="87.3487" y1="129.258" x2="87.3487" y2="110.266" gradientUnits="userSpaceOnUse">
<stop stop-color="#1A0F00"/>
<stop offset="1" stop-opacity="0"/>
</linearGradient>
<linearGradient id="paint13_linear_104_1248" x1="66.6422" y1="135.429" x2="50.6104" y2="140.608" gradientUnits="userSpaceOnUse">
<stop stop-color="#1A0F00"/>
<stop offset="1" stop-opacity="0"/>
</linearGradient>
<linearGradient id="paint14_linear_104_1248" x1="79.9582" y1="146.732" x2="70.4186" y2="156.725" gradientUnits="userSpaceOnUse">
<stop stop-color="#1A0F00"/>
<stop offset="1" stop-opacity="0"/>
</linearGradient>
<linearGradient id="paint15_linear_104_1248" x1="118.046" y1="127.88" x2="120.303" y2="112.064" gradientUnits="userSpaceOnUse">
<stop stop-color="#1A0F00"/>
<stop offset="1" stop-opacity="0"/>
</linearGradient>
<linearGradient id="paint16_linear_104_1248" x1="108.154" y1="129.134" x2="108.154" y2="110.142" gradientUnits="userSpaceOnUse">
<stop stop-color="#1A0F00"/>
<stop offset="1" stop-opacity="0"/>
</linearGradient>
<linearGradient id="paint17_linear_104_1248" x1="130.134" y1="137.066" x2="145.608" y2="141.624" gradientUnits="userSpaceOnUse">
<stop stop-color="#1A0F00"/>
<stop offset="1" stop-opacity="0"/>
</linearGradient>
<linearGradient id="paint18_linear_104_1248" x1="115.306" y1="147.522" x2="124.846" y2="157.515" gradientUnits="userSpaceOnUse">
<stop stop-color="#1A0F00"/>
<stop offset="1" stop-opacity="0"/>
</linearGradient>
<linearGradient id="paint19_linear_104_1248" x1="53.6797" y1="182.156" x2="84.9204" y2="182.156" gradientUnits="userSpaceOnUse">
<stop/>
<stop offset="1"/>
</linearGradient>
<linearGradient id="paint20_linear_104_1248" x1="46.6851" y1="178.625" x2="81.5463" y2="178.625" gradientUnits="userSpaceOnUse">
<stop/>
<stop offset="1"/>
</linearGradient>
<linearGradient id="paint21_linear_104_1248" x1="106.765" y1="162.97" x2="144.497" y2="162.97" gradientUnits="userSpaceOnUse">
<stop/>
<stop offset="1"/>
</linearGradient>
<linearGradient id="paint22_linear_104_1248" x1="115.563" y1="167.319" x2="153.329" y2="167.319" gradientUnits="userSpaceOnUse">
<stop/>
<stop offset="1"/>
</linearGradient>
<linearGradient id="paint23_linear_104_1248" x1="108.86" y1="171.543" x2="146.747" y2="171.543" gradientUnits="userSpaceOnUse">
<stop/>
<stop offset="1"/>
</linearGradient>
<linearGradient id="paint24_linear_104_1248" x1="111.184" y1="181.761" x2="142.424" y2="181.761" gradientUnits="userSpaceOnUse">
<stop/>
<stop offset="1"/>
</linearGradient>
<linearGradient id="paint25_linear_104_1248" x1="114.558" y1="178.23" x2="149.419" y2="178.23" gradientUnits="userSpaceOnUse">
<stop/>
<stop offset="1"/>
</linearGradient>
<linearGradient id="paint26_linear_104_1248" x1="41.3065" y1="111.66" x2="78.6655" y2="104.083" gradientUnits="userSpaceOnUse">
<stop stop-color="#1A0F00"/>
<stop offset="1" stop-opacity="0"/>
</linearGradient>
<linearGradient id="paint27_linear_104_1248" x1="157.316" y1="111.084" x2="119.957" y2="103.507" gradientUnits="userSpaceOnUse">
<stop stop-color="#1A0F00"/>
<stop offset="1" stop-opacity="0"/>
</linearGradient>
<linearGradient id="paint28_linear_104_1248" x1="38.8592" y1="0.210262" x2="142.66" y2="44.7721" gradientUnits="userSpaceOnUse">
<stop stop-color="#EDE3DE"/>
<stop offset="1" stop-color="#D0B090"/>
</linearGradient>
<linearGradient id="paint29_linear_104_1248" x1="49.2178" y1="69.7027" x2="143.705" y2="69.7027" gradientUnits="userSpaceOnUse">
<stop/>
<stop offset="1"/>
</linearGradient>
<linearGradient id="paint30_linear_104_1248" x1="18.7533" y1="18.6528" x2="55.8973" y2="63.5086" gradientUnits="userSpaceOnUse">
<stop stop-color="#EDE3DE"/>
<stop offset="1" stop-color="#D0B090"/>
</linearGradient>
<linearGradient id="paint31_linear_104_1248" x1="34.5993" y1="49.3614" x2="63.4556" y2="49.3614" gradientUnits="userSpaceOnUse">
<stop/>
<stop offset="1"/>
</linearGradient>
<linearGradient id="paint32_linear_104_1248" x1="47.8858" y1="4.5081" x2="85.7764" y2="48.7505" gradientUnits="userSpaceOnUse">
<stop stop-color="#EDE3DE"/>
<stop offset="1" stop-color="#D0B090"/>
</linearGradient>
<linearGradient id="paint33_linear_104_1248" x1="64.8093" y1="34.1392" x2="93.6656" y2="34.1392" gradientUnits="userSpaceOnUse">
<stop/>
<stop offset="1"/>
</linearGradient>
<linearGradient id="paint34_linear_104_1248" x1="91.6141" y1="3.02257" x2="122.364" y2="45.8755" gradientUnits="userSpaceOnUse">
<stop stop-color="#EDE3DE"/>
<stop offset="1" stop-color="#D0B090"/>
</linearGradient>
<linearGradient id="paint35_linear_104_1248" x1="101.534" y1="33.1925" x2="130.39" y2="33.1925" gradientUnits="userSpaceOnUse">
<stop/>
<stop offset="1"/>
</linearGradient>
<linearGradient id="paint36_linear_104_1248" x1="116.437" y1="5.69582" x2="148.371" y2="65.6526" gradientUnits="userSpaceOnUse">
<stop stop-color="#EDE3DE"/>
<stop offset="1" stop-color="#D0B090"/>
</linearGradient>
<linearGradient id="paint37_linear_104_1248" x1="130.128" y1="52.0282" x2="158.984" y2="52.0282" gradientUnits="userSpaceOnUse">
<stop/>
<stop offset="1"/>
</linearGradient>
<linearGradient id="paint38_linear_104_1248" x1="103.482" y1="145.326" x2="133.274" y2="145.326" gradientUnits="userSpaceOnUse">
<stop/>
<stop offset="1"/>
</linearGradient>
<linearGradient id="paint39_linear_104_1248" x1="97.3978" y1="51.2228" x2="97.3979" y2="163.14" gradientUnits="userSpaceOnUse">
<stop stop-color="#1A0F00"/>
<stop offset="1" stop-opacity="0"/>
</linearGradient>
<linearGradient id="paint40_linear_104_1248" x1="127.691" y1="122.401" x2="143.164" y2="126.958" gradientUnits="userSpaceOnUse">
<stop stop-color="#1A0F00"/>
<stop offset="1" stop-opacity="0"/>
</linearGradient>
<linearGradient id="paint41_linear_104_1248" x1="69.901" y1="122.393" x2="53.8692" y2="127.572" gradientUnits="userSpaceOnUse">
<stop stop-color="#1A0F00"/>
<stop offset="1" stop-opacity="0"/>
</linearGradient>
</defs>
</svg>
