<svg width="200" height="200" viewBox="0 0 200 200" fill="none" xmlns="http://www.w3.org/2000/svg">
<path fill-rule="evenodd" clip-rule="evenodd" d="M120.821 91.842C120.87 109.326 100.654 124.448 80.7163 116.833C77.6628 115.666 47.9616 142.784 43.5215 139.347C40.0187 136.635 47.4024 125.457 46.8656 126.884C44.3097 133.682 33.0262 141.249 23.9649 131.482C20.4213 127.662 21.749 114.911 31.1461 107.725C40.8774 100.284 47.1663 82.0545 50.2906 73.7759C56.5745 57.1246 54.1089 56.7609 66.1515 41.6603C68.4138 38.8234 62.474 27.8098 64.6328 20.6208C73.1603 22.1415 76.4477 30.7151 80.369 34.313C82.6548 29.0212 81.1189 14.802 85.1825 15.4645C89.246 16.1271 93.9202 28.4455 100.624 33.8559C180.912 58.5635 180.256 187.045 157.817 187.462C130.121 187.975 96.9622 187.859 69.1075 187.415C62.3583 187.308 59.234 178.576 60.5354 173.358C66.7423 148.472 92.9544 131.053 105.794 122.42C118.982 113.554 121.397 104.841 120.821 91.842V91.842Z" fill="url(#paint0_linear_104_545)" stroke="url(#paint1_linear_104_545)" stroke-width="3.65714" stroke-linecap="round" stroke-linejoin="round"/>
<path d="M80.2162 65.9486C73.4615 65.7554 67.9995 68.5557 63.9785 74.0259" stroke="url(#paint2_linear_104_545)" stroke-width="3.65714" stroke-linecap="round" stroke-linejoin="round"/>
<path d="M70.7407 74.7518C73.4723 76.7893 76.4898 76.4238 76.3509 72.2632" stroke="url(#paint3_linear_104_545)" stroke-width="3.65714" stroke-linecap="round" stroke-linejoin="round"/>
<path d="M34.4621 118.466C31.2953 117.372 29.0042 122.475 31.0247 122.683" stroke="url(#paint4_linear_104_545)" stroke-width="3.65714" stroke-linecap="round" stroke-linejoin="round"/>
<path d="M72.4287 108.412L74.5973 111.107" stroke="url(#paint5_linear_104_545)" stroke-width="3.65714" stroke-linecap="round" stroke-linejoin="round"/>
<path d="M120.858 84.3967L120.924 78.7012" stroke="url(#paint6_linear_104_545)" stroke-width="3.65714" stroke-linecap="round" stroke-linejoin="round"/>
<path d="M74.4866 37.177L72.175 38.3841" stroke="url(#paint7_linear_104_545)" stroke-width="3.65714" stroke-linecap="round" stroke-linejoin="round"/>
<path d="M86.6904 24.8855C93.5824 34.513 96.0708 36.4604 87.8759 35.0791" stroke="url(#paint8_linear_104_545)" stroke-width="3.65714" stroke-linecap="round" stroke-linejoin="round"/>
<path fill-rule="evenodd" clip-rule="evenodd" d="M103.873 29.9716C123.661 35.7736 120.323 31.5858 124.497 38.3821C126.835 42.1897 130.075 37.0843 137.787 37.5673C141.952 37.8281 126.359 31.3453 124.325 28.7529C121.501 25.154 100.97 29.1204 103.873 29.9716Z" fill="url(#paint9_linear_104_545)" stroke="url(#paint10_linear_104_545)" stroke-width="3.65714" stroke-linecap="round" stroke-linejoin="round"/>
<path fill-rule="evenodd" clip-rule="evenodd" d="M132.469 45.6508C138.684 50.3759 143.237 45.5766 142.991 53.7755C142.823 59.4051 150.421 55.6438 154.111 57.9921C157.511 60.1556 160.921 51.4287 158.758 51.4287C155.505 51.4287 149.981 52.9549 150.981 49.2813C153.175 41.2178 130.684 44.2936 132.469 45.6508V45.6508Z" fill="url(#paint11_linear_104_545)" stroke="url(#paint12_linear_104_545)" stroke-width="3.65714" stroke-linecap="round" stroke-linejoin="round"/>
<path fill-rule="evenodd" clip-rule="evenodd" d="M150.75 63.4778C151.96 63.9011 158.549 68.3623 158.244 70.4838C156.67 81.4262 164.739 80.7169 168.212 81.8736C173.077 83.4946 167.985 77.6853 165.53 74.6986C163.074 71.7118 167.207 70.3745 166.918 68.48C165.9 61.8158 150.119 63.2569 150.75 63.4778Z" fill="url(#paint13_linear_104_545)" stroke="url(#paint14_linear_104_545)" stroke-width="3.65714" stroke-linecap="round" stroke-linejoin="round"/>
<path fill-rule="evenodd" clip-rule="evenodd" d="M162.375 86.548C163.531 88.5639 166.242 90.8472 167.101 94.0096C167.961 97.1721 168.284 99.9915 170.003 103.388C171.721 106.785 178.636 106.342 181.618 105.345C185.636 104.002 171.905 99.8306 174.999 93.4707C176.957 89.4453 161.751 85.46 162.375 86.548V86.548Z" fill="url(#paint15_linear_104_545)" stroke="url(#paint16_linear_104_545)" stroke-width="3.65714" stroke-linecap="round" stroke-linejoin="round"/>
<path d="M100.148 166.743L94.2554 180.799" stroke="url(#paint17_linear_104_545)" stroke-width="3.65714" stroke-linecap="round" stroke-linejoin="round"/>
<path d="M103.765 127.083C124.227 127.753 147.173 127.484 167.943 120.781C175.283 118.412 173.088 126.704 167.675 126.941C119.906 139.978 70.4256 131.035 55.7622 122.544C59.3403 123.039 61.3286 131.519 60.1514 134.299C58.4449 138.33 55.9022 137.489 55.2329 132.631C54.5415 127.613 53.8653 121.795 49.1678 118.41C44.3992 114.974 41.4115 113.035 36.9588 108.772C33.0777 105.057 28.5961 105.329 31.4838 100.816C36.2849 97.9414 49.3588 113.129 54.435 116.953C66.7444 122.436 86.517 126.518 103.765 127.083V127.083Z" fill="url(#paint18_linear_104_545)" stroke="url(#paint19_linear_104_545)" stroke-width="3.65714"/>
<path d="M53.7119 114.599C49.6246 114.698 46.8435 117.592 48.7338 121.814C50.7625 126.345 56.6274 124.403 58.2034 121.71C60.3252 118.084 58.4128 114.484 53.7119 114.599Z" fill="url(#paint20_linear_104_545)" stroke="url(#paint21_linear_104_545)" stroke-width="3.65714"/>
<defs>
<linearGradient id="paint0_linear_104_545" x1="13.308" y1="117.805" x2="177.156" y2="175.229" gradientUnits="userSpaceOnUse">
<stop stop-color="#EDE3DE"/>
<stop offset="1" stop-color="#8A6737"/>
</linearGradient>
<linearGradient id="paint1_linear_104_545" x1="22.1976" y1="101.621" x2="172.665" y2="101.621" gradientUnits="userSpaceOnUse">
<stop/>
<stop offset="1"/>
</linearGradient>
<linearGradient id="paint2_linear_104_545" x1="61.723" y1="71.4146" x2="82.4166" y2="68.2045" gradientUnits="userSpaceOnUse">
<stop/>
<stop offset="1"/>
</linearGradient>
<linearGradient id="paint3_linear_104_545" x1="68.9411" y1="75.0792" x2="78.4103" y2="73.6104" gradientUnits="userSpaceOnUse">
<stop/>
<stop offset="1"/>
</linearGradient>
<linearGradient id="paint4_linear_104_545" x1="28.4341" y1="120.498" x2="36.2906" y2="120.498" gradientUnits="userSpaceOnUse">
<stop/>
<stop offset="1"/>
</linearGradient>
<linearGradient id="paint5_linear_104_545" x1="70.6001" y1="109.76" x2="76.4259" y2="109.76" gradientUnits="userSpaceOnUse">
<stop/>
<stop offset="1"/>
</linearGradient>
<linearGradient id="paint6_linear_104_545" x1="119.03" y1="81.5489" x2="122.752" y2="81.5489" gradientUnits="userSpaceOnUse">
<stop/>
<stop offset="1"/>
</linearGradient>
<linearGradient id="paint7_linear_104_545" x1="70.3465" y1="37.7805" x2="76.3152" y2="37.7805" gradientUnits="userSpaceOnUse">
<stop/>
<stop offset="1"/>
</linearGradient>
<linearGradient id="paint8_linear_104_545" x1="84.8619" y1="30.181" x2="94.8518" y2="30.181" gradientUnits="userSpaceOnUse">
<stop/>
<stop offset="1"/>
</linearGradient>
<linearGradient id="paint9_linear_104_545" x1="113.781" y1="35.6356" x2="140.32" y2="33.5354" gradientUnits="userSpaceOnUse">
<stop stop-color="#EDE3DE"/>
<stop offset="1" stop-color="#8A6737"/>
</linearGradient>
<linearGradient id="paint10_linear_104_545" x1="101.764" y1="33.5354" x2="140.32" y2="33.5354" gradientUnits="userSpaceOnUse">
<stop/>
<stop offset="1"/>
</linearGradient>
<linearGradient id="paint11_linear_104_545" x1="136.841" y1="48.8595" x2="161.265" y2="54.0086" gradientUnits="userSpaceOnUse">
<stop stop-color="#EDE3DE"/>
<stop offset="1" stop-color="#8A6737"/>
</linearGradient>
<linearGradient id="paint12_linear_104_545" x1="130.539" y1="51.1335" x2="161.265" y2="51.1335" gradientUnits="userSpaceOnUse">
<stop/>
<stop offset="1"/>
</linearGradient>
<linearGradient id="paint13_linear_104_545" x1="153.379" y1="69.332" x2="169.864" y2="80.5532" gradientUnits="userSpaceOnUse">
<stop stop-color="#EDE3DE"/>
<stop offset="1" stop-color="#8A6737"/>
</linearGradient>
<linearGradient id="paint14_linear_104_545" x1="148.903" y1="72.6747" x2="172.071" y2="72.6747" gradientUnits="userSpaceOnUse">
<stop/>
<stop offset="1"/>
</linearGradient>
<linearGradient id="paint15_linear_104_545" x1="161.21" y1="87.3801" x2="179.915" y2="107.343" gradientUnits="userSpaceOnUse">
<stop stop-color="#EDE3DE"/>
<stop offset="1" stop-color="#8A6737"/>
</linearGradient>
<linearGradient id="paint16_linear_104_545" x1="160.528" y1="96.2159" x2="184.19" y2="96.2159" gradientUnits="userSpaceOnUse">
<stop/>
<stop offset="1"/>
</linearGradient>
<linearGradient id="paint17_linear_104_545" x1="92.4268" y1="173.771" x2="101.976" y2="173.771" gradientUnits="userSpaceOnUse">
<stop/>
<stop offset="1"/>
</linearGradient>
<linearGradient id="paint18_linear_104_545" x1="102.305" y1="81.7817" x2="91.5375" y2="142.418" gradientUnits="userSpaceOnUse">
<stop stop-color="#EDE3DE"/>
<stop offset="1" stop-color="#8A6737"/>
</linearGradient>
<linearGradient id="paint19_linear_104_545" x1="28.7344" y1="118.66" x2="174.464" y2="118.66" gradientUnits="userSpaceOnUse">
<stop/>
<stop offset="1"/>
</linearGradient>
<linearGradient id="paint20_linear_104_545" x1="35.0179" y1="117.364" x2="62.6272" y2="118.237" gradientUnits="userSpaceOnUse">
<stop stop-color="#EDE3DE"/>
<stop offset="1" stop-color="#8A6737"/>
</linearGradient>
<linearGradient id="paint21_linear_104_545" x1="46.3001" y1="119.56" x2="60.8931" y2="119.56" gradientUnits="userSpaceOnUse">
<stop/>
<stop offset="1"/>
</linearGradient>
</defs>
</svg>
