<svg width="200" height="200" viewBox="0 0 200 200" fill="none" xmlns="http://www.w3.org/2000/svg">
<path d="M139.401 104.713C140.157 121.78 136.482 138.355 129.184 150.793C121.886 163.231 111.563 170.513 100.486 171.036C89.4098 171.56 78.4866 165.282 70.1197 153.585C61.7529 141.887 56.6278 125.728 55.872 108.661C55.1161 91.5947 58.7914 75.0193 66.0893 62.5813C73.3872 50.1433 83.7099 42.8617 94.7865 42.3382C105.863 41.8147 116.786 48.0922 125.153 59.7898C133.52 71.4875 138.645 87.6469 139.401 104.713V104.713Z" fill="url(#paint0_linear_104_564)" stroke="black" stroke-width="4.3213" stroke-linecap="round" stroke-linejoin="round"/>
<path d="M76.3713 58.0878C75.8631 57.3458 71.6815 56.7473 69.1954 56.2286C67.5416 55.8836 65.2211 56.4165 63.5324 56.4963C61.0061 56.6157 58.3447 57.6606 56.1807 58.6757C51.9231 60.6727 48.8975 63.849 45.5811 67.6035C43.5343 69.9205 42.5367 72.3523 40.9336 74.7844C39.4275 77.0694 38.8213 78.5744 36.5753 80.4862C34.2074 82.5019 32.4996 84.4586 30.8337 86.9861C29.8264 88.5143 29.8507 90.8858 29.2907 92.1884C28.5783 93.8456 28.049 94.9528 27.7153 96.6595" stroke="#5A462F" stroke-width="6.48193" stroke-linecap="round" stroke-linejoin="round"/>
<path d="M70.9699 72.2657C71.0525 74.13 67.4629 73.1643 65.7094 73.6135C60.8687 74.8538 58.5272 78.9621 57.6359 83.5211C56.8504 87.5395 55.8641 91.6736 53.9069 95.4217C52.1051 98.8721 49.8321 102.254 47.6193 105.611C45.7682 108.42 45.0955 112.288 43.7931 115.318C41.8597 119.815 40.5748 125.171 39.1155 129.828C37.9482 133.554 36.4626 138.018 35.7404 141.712C35.0173 145.411 33.635 149.029 32.3005 152.133C31.4633 154.081 30.4162 156.391 30.082 158.1" stroke="#37260F" stroke-width="6.48193" stroke-linecap="round" stroke-linejoin="round"/>
<path d="M62.5884 131.283C60.1809 134.936 59.6313 138.442 58.8755 143.55C58.3254 147.268 59.2144 151.236 58.6696 154.917C58.0052 159.408 55.4849 163.585 54.6352 167.931C54.1752 170.284 53.6836 171.976 52.4167 173.898C51.2541 175.662 49.78 178.015 49.1203 179.55C48.3834 181.264 47.8557 182.443 46.0806 182.991" stroke="#5A462F" stroke-width="6.48193" stroke-linecap="round" stroke-linejoin="round"/>
<path d="M79.3302 52.8186C78.761 54.1425 71.9761 50.8954 70.3522 50.3118C67.4169 49.257 64.5662 48.7426 61.7443 48.154C58.2741 47.43 53.5901 48.5393 50.0644 48.706C46.3019 48.8838 44.9809 48.702 43.0666 50.8686C41.0534 53.1477 38.4376 54.9571 36.6009 57.0364C36.4883 57.1638 36.3758 57.2913 36.2632 57.4187" stroke="#37260F" stroke-width="6.48193" stroke-linecap="round" stroke-linejoin="round"/>
<path d="M87.7923 51.6858C87.7518 51.7317 79.1954 44.2829 78.9416 44.0436C77.3332 42.5276 61.0246 36.8299 59.4727 36.9033C58.5992 36.9446 51.0285 24.8453 50.0737 24.8904" stroke="#37260F" stroke-width="6.48193" stroke-linecap="round" stroke-linejoin="round"/>
<path d="M91.6714 51.1882C91.6019 50.9483 95.0775 38.7668 95.3357 37.8251C97.5294 29.8251 92.8032 23.5518 95.8123 16.5522" stroke="#37260F" stroke-width="6.48193" stroke-linecap="round" stroke-linejoin="round"/>
<path d="M97.7428 52.1261C95.2566 53.5606 100.805 44.3571 102.758 37.2337C104.167 32.0948 112.35 27.1429 115.625 23.4357C116.64 22.2865 118.318 21.6177 119.405 20.6924" stroke="#37260F" stroke-width="6.48193" stroke-linecap="round" stroke-linejoin="round"/>
<path d="M101.885 49.5543C102.956 48.3414 105.838 43.1594 108.221 40.4616C111.808 36.4006 117.162 30.3786 122.247 28.8072C125.168 27.9042 128.693 28.1361 131.787 27.9899C132.848 27.9397 133.91 27.8895 134.972 27.8394" stroke="#37260F" stroke-width="6.48193" stroke-linecap="round" stroke-linejoin="round"/>
<path d="M116.253 53.6383C116.918 54.0089 126.748 52.3862 129.703 53.0026C133.126 53.7168 135.985 55.4904 139.421 56.2072C143.691 57.0979 147.923 52.7646 151.76 54.5248C154.083 55.5907 162.211 59.733 164.777 60.1382" stroke="#37260F" stroke-width="6.48193" stroke-linecap="round" stroke-linejoin="round"/>
<path d="M119.778 61.1656C121.887 62.1328 139.396 61.1318 146.469 63.2016C149.338 64.0411 151.869 66.3952 155.191 67.9189C158.548 69.4589 160.337 72.6348 162.272 75.6447C164.464 79.0564 166.184 82.2104 168.034 85.6311C168.115 85.7818 168.281 85.8637 168.404 85.98" stroke="#37260F" stroke-width="6.48193" stroke-linecap="round" stroke-linejoin="round"/>
<path d="M125.587 64.1886C127.495 67.7181 138.841 71.7173 144.14 74.6697C147.943 76.7891 150.694 80.5006 151.672 84.5725C153.002 90.1109 154.555 97.0252 157.742 101.506C159.72 104.286 159.352 107.505 160.978 110.512C161.377 111.25 161.451 113.185 161.494 114.152" stroke="#5A462F" stroke-width="6.48193" stroke-linecap="round" stroke-linejoin="round"/>
<path d="M135.585 89.7295C137.254 91.8223 141.523 94.0332 143.02 97.4386C144.053 99.7886 144.101 102.721 144.776 105.05C145.753 108.423 146.777 111 148.72 114.023C151.537 118.405 156.731 121.242 158.119 126.036C159.026 129.166 159.295 132.288 159.956 135.475C160.611 138.636 161.262 141.845 162.146 144.897C162.981 147.78 163.87 150.228 164.626 152.841C164.893 153.763 165.27 154.753 165.448 155.367" stroke="#5A462F" stroke-width="6.48193" stroke-linecap="round" stroke-linejoin="round"/>
<path d="M141.109 110.352C141.92 113.15 142.461 116.838 142.592 119.808C142.831 125.204 143.804 130.769 146.812 134.997C149.681 139.031 151.598 144.22 154.473 147.825C155.492 149.101 156.31 151.38 156.84 153.209C157.846 156.683 159.484 159.861 160.479 163.296C161.3 166.131 161.627 169.111 162.975 171.604C163.148 171.924 163.007 172.336 163.023 172.701" stroke="#37260F" stroke-width="6.48193" stroke-linecap="round" stroke-linejoin="round"/>
<path d="M69.3317 83.3346C65.4386 83.1182 58.9365 85.4841 54.2582 87.3445C53.3165 87.719 52.4029 88.165 51.4752 88.5752C49.4488 89.4713 49.6972 93.5177 48.9352 95.2902C47.1909 99.3477 41.6867 104.648 38.8515 107.857C38.2886 108.495 37.7257 109.132 37.1628 109.769C35.33 111.844 33.6835 114.267 32.1452 116.601C30.9337 118.439 29.6068 120.169 29.2026 122.236" stroke="black" stroke-width="5.40161" stroke-linecap="round" stroke-linejoin="round"/>
<path d="M66.262 94.105C65.7279 96.8372 61.3309 96.3876 58.9751 97.7468C54.207 100.498 52.9819 106.835 49.6154 110.646C45.6845 115.096 46.0041 119.606 39.4993 122.482C36.6284 123.752 33.2098 128.513 31.3773 131.293C30.1296 133.186 29.3872 134.572 28.0646 136.579C26.9055 138.337 26.2359 141.001 25.8623 142.912" stroke="black" stroke-width="5.40161" stroke-linecap="round" stroke-linejoin="round"/>
<path d="M63.5346 120.614C62.9949 123.374 58.0387 120.922 55.4265 121.729C51.1481 123.052 49.5269 124.663 49.7172 128.961C49.9768 134.822 42.9209 141.316 39.8116 145.55C35.3717 151.595 30.2678 157.48 26.8015 164.118C25.6786 166.268 24.6367 168.913 24.2615 170.832C24.2092 171.1 24.0471 171.331 23.9399 171.58" stroke="black" stroke-width="5.40161" stroke-linecap="round" stroke-linejoin="round"/>
<path d="M81.2243 57.569C80.7726 58.0805 73.4617 56.9458 71.6033 56.5582C68.6396 55.9399 64.3284 56.1692 61.3067 56.312C58.6388 56.4381 56.2606 56.1841 53.5039 56.314C50.6773 56.4476 47.4255 59.2023 45.1876 60.7373C41.6215 63.1832 39.1176 67.7194 36.0523 70.6951C34.7686 71.9412 30.8525 74.4451 29.1678 75.4171C27.8947 76.1516 25.8752 77.9353 24.7124 78.9251" stroke="black" stroke-width="5.40161" stroke-linecap="round" stroke-linejoin="round"/>
<path d="M90.4453 47.5302C89.9653 47.0777 90.1229 40.2498 90.0405 38.3897C89.911 35.4647 89.7814 32.5397 89.6519 29.6148C89.5281 26.8206 89.3004 24.3751 88.6039 21.9702C88.2935 20.8984 88.2765 20.3576 87.7827 19.4443" stroke="black" stroke-width="5.40161" stroke-linecap="round" stroke-linejoin="round"/>
<path d="M98.9077 46.3975C100.439 44.0747 105.86 39.2179 109.475 36.7384C111.735 35.1882 114.845 36.1182 117.599 35.9881C121.601 35.7989 124.964 37.1055 128.99 36.9152C132.729 36.7386 136.136 35.4784 139.914 35.2998C140.08 35.2918 140.139 35.0449 140.251 34.9175" stroke="black" stroke-width="5.40161" stroke-linecap="round" stroke-linejoin="round"/>
<path d="M105.086 49.7694C108.199 49.6223 113.763 48.2602 118.134 48.0536C121.563 47.8916 125.12 49.4965 128.527 50.4935C131.709 51.4245 134.775 51.2534 137.811 51.8867C142.855 52.939 150.702 53.1093 155.588 52.8784C157.823 52.7728 159.791 53.6646 161.67 54.0565" stroke="black" stroke-width="5.40161" stroke-linecap="round" stroke-linejoin="round"/>
<path d="M116.431 57.66C122.161 57.3892 129.414 58.8944 136.092 61.1274C136.555 61.2823 137.047 61.3266 137.524 61.4261C138.908 61.7149 141.404 64.7934 142.336 65.9617C144.348 68.4847 149.505 71.5789 152.216 72.8225C154.187 73.7269 155.199 76.322 155.998 78.1395C156.985 80.3852 158.282 82.2693 159.813 84.1878C161.018 85.6988 161.256 86.9492 162.468 88.0925" stroke="black" stroke-width="5.40161" stroke-linecap="round" stroke-linejoin="round"/>
<path d="M138.014 88.5155C143.974 95.9867 150.473 106.566 157.552 113.239C159.942 115.492 159.977 119.939 160.113 123.01C160.228 125.608 163.448 127.882 164.652 129.391C166.479 131.681 167.623 134.215 168.869 136.519C169.402 137.505 170.079 139.093 170.431 139.743" stroke="black" stroke-width="5.40161" stroke-linecap="round" stroke-linejoin="round"/>
<path d="M142.551 142.893C142.638 142.975 142.562 143.136 142.567 143.258C142.684 145.895 147.245 145.566 149.132 147.345C149.749 147.926 150.366 148.508 150.983 149.089C152.797 150.799 154.506 153.591 155.522 155.469C156.638 157.534 157.181 159.881 158.291 161.933C159.318 163.833 160.128 166.419 160.706 168.414C160.773 168.648 160.727 168.902 160.738 169.146C160.82 170.992 162.105 173.938 163.121 174.895" stroke="black" stroke-width="5.40161" stroke-linecap="round" stroke-linejoin="round"/>
<path d="M77.144 59.5168C73.9774 61.3439 69.1097 62.2144 63.6158 66.3848C59.6873 69.3668 57.1741 74.2252 54.9316 78.5195C54.6808 78.9997 54.5028 79.5168 54.2885 80.0154C52.1799 84.9201 51.7498 90.1229 50.3512 95.2233C47.749 104.713 44.3298 112.628 39.4347 121.02C37.2226 124.812 33.4466 127.69 31.7475 131.642C31.7208 131.704 30.85 133.004 30.7505 133.155" stroke="#4F3100" stroke-width="4.86145" stroke-linecap="round" stroke-linejoin="round"/>
<path d="M72.6747 70.7196C72.3171 72.5489 69.1218 69.7884 67.3171 69.8736C63.5757 70.0505 61.1862 70.839 58.2281 72.8679C56.1721 74.2781 55.1505 77.1198 53.532 78.952C50.1533 82.777 46.0242 85.8497 42.2893 89.3758C39.2886 92.2088 37.8678 96.214 35.6478 99.5821C34.3383 101.569 32.3424 103.708 31.2733 104.918C29.9846 106.377 29.1425 108.482 27.9445 109.839C27.4998 110.342 27.2818 110.342 26.915 110.62" stroke="black" stroke-width="5.40161" stroke-linecap="round" stroke-linejoin="round"/>
<path d="M68.6217 75.3077C68.2916 76.0754 64.2721 78.2744 63.5879 81.7742C63.4915 82.2672 63.3951 82.7603 63.2987 83.2534C62.5857 86.9006 62.4666 89.6252 60.9044 93.259C59.53 96.456 58.2056 100.446 57.1106 103.697C55.7157 107.839 52.9369 111.453 51.6119 115.681C51.3011 116.673 50.9903 117.665 50.6796 118.656C49.4532 122.57 48.5209 126.514 47.2883 130.175C45.6069 135.167 41.1928 141.299 37.6718 145.285C36.5389 146.567 34.9598 147.971 33.9404 149.125" stroke="#4F3100" stroke-width="4.86145" stroke-linecap="round" stroke-linejoin="round"/>
<path d="M65.1379 100.753C65.4795 101.97 62.5977 106.434 61.617 109.346C60.5269 112.583 60.1832 115.336 59.5443 118.604C59.3515 119.59 59.1587 120.576 58.966 121.562C58.8725 122.041 59.0092 122.537 59.0308 123.025C59.1829 126.459 57.4736 131.76 55.6394 134.543C53.6254 137.599 53.7591 140.136 53.9206 143.784C54.0486 146.672 54.48 149.892 53.9553 152.575C53.1548 156.671 50.1145 158.501 47.2328 160.954C45.7447 162.22 44.6539 164.996 43.5824 166.622C42.969 167.553 42.6732 169.322 42.3286 170.345" stroke="#4F3100" stroke-width="4.86145" stroke-linecap="round" stroke-linejoin="round"/>
<path d="M69.2055 127.505C67.1157 130.675 67.0984 135.144 66.2005 139.737C65.4284 143.687 65.3217 147.372 64.5789 151.172C64.0025 154.12 63.8106 157.85 63.9381 160.728C64.072 163.752 63.7427 166.097 62.1545 168.507C59.2703 172.882 55.9245 177.451 51.6845 180.359C50.8369 180.941 50.7333 181.436 50.3335 181.889" stroke="#37260F" stroke-width="4.86145" stroke-linecap="round" stroke-linejoin="round"/>
<path d="M62.8477 137.133C62.4185 139.329 58.7918 139.037 57.3304 140.692C53.8565 144.624 52.6673 147.518 52.8935 152.626C53.0652 156.503 51.8633 161.013 51.3042 164.791C50.9371 167.273 50.3128 170.218 49.5207 172.57C48.9428 174.286 49.1359 176.781 48.7341 178.836C48.6818 179.103 48.5198 179.334 48.4126 179.584" stroke="black" stroke-width="5.40161" stroke-linecap="round" stroke-linejoin="round"/>
<path d="M75.1151 53.7505C72.915 55.2595 69.8578 54.6009 67.3932 55.581C60.3179 58.3945 54.2375 58.5716 49.3286 64.1288C46.7862 67.0069 45.5235 69.2427 44.7621 73.1379C43.6872 78.6366 36.3003 86.2104 33.1192 90.5419C31.6388 92.5575 30.0818 93.9776 29.1148 96.2269C28.6784 97.2421 28.2478 98.2438 27.8286 99.2188" stroke="#4F3100" stroke-width="4.86145" stroke-linecap="round" stroke-linejoin="round"/>
<path d="M73.0908 64.105C72.8097 64.7588 62.5865 64.5816 60.3653 65.0728C58.1841 65.5551 54.7916 71.5854 53.9967 73.4342C51.7304 78.7059 46.0192 86.3048 42.3376 90.4726C39.6724 93.4898 39.4345 95.2091 38.0765 98.3681C36.6457 101.696 35.0256 104.738 33.8963 108.092C31.973 113.803 30.4068 119.089 28.6081 124.829C27.8529 127.239 27.7265 128.949 27.8377 131.46C27.8457 131.633 27.6126 131.715 27.5 131.843" stroke="#37260F" stroke-width="6.48193" stroke-linecap="round" stroke-linejoin="round"/>
<path d="M61.5821 100.555C61.253 102.238 58.955 107.472 57.7559 110.262C54.8286 117.071 53.5685 125.532 51.6488 132.533C50.3841 137.145 50.1095 141.986 49.4326 146.561C48.8624 150.414 46.8416 155.753 45.0281 159.226C43.8165 161.546 43.3364 164.052 42.1503 166.323C40.8612 168.792 39.3761 170.792 37.8406 173.122C36.428 175.265 34.8114 177.197 33.4985 179.189C32.658 180.464 31.9638 181.16 31.1343 181.866" stroke="#37260F" stroke-width="6.48193" stroke-linecap="round" stroke-linejoin="round"/>
<path d="M85.2822 51.0717C84.0983 53.8256 80.3049 47.8929 77.639 46.6699C73.0816 44.5792 67.4177 41.7303 62.8361 40.7746C59.5435 40.0877 42.441 50.8693 38.1762 52.5652C36.484 53.2382 35.7029 53.4453 34.7178 54.5606" stroke="#4F3100" stroke-width="4.86145" stroke-linecap="round" stroke-linejoin="round"/>
<path d="M89.4971 50.1398C87.4648 50.9479 89.3985 45.1418 87.7899 43.6255C84.729 40.7402 82.6847 36.5391 78.2637 36.748C75.8019 36.8644 74.4565 35.3199 72.1496 34.8387C71.6564 34.7358 70.8997 34.8978 70.3799 34.9223" stroke="#4F3100" stroke-width="4.86145" stroke-linecap="round" stroke-linejoin="round"/>
<path d="M84.6944 52.4394C82.7098 53.5844 78.383 49.065 75.9732 47.7222C73.573 46.3846 71.1898 44.9131 68.7325 44.4005C65.0961 43.6419 61.3757 43.0899 57.631 41.9941C55.3805 41.3356 53.9744 40.8691 51.887 40.4336C50.9243 40.2328 50.0211 39.8297 48.9907 39.105" stroke="black" stroke-width="5.40161" stroke-linecap="round" stroke-linejoin="round"/>
<path d="M99.3265 47.8433C99.2853 47.8343 97.1678 40.763 95.3661 38.5044C94.0834 36.8964 93.3963 34.0699 93.2887 31.6413C93.216 30.0007 92.7741 28.0305 92.6919 26.1737" stroke="#4F3100" stroke-width="4.86145" stroke-linecap="round" stroke-linejoin="round"/>
<path d="M91.8441 53.1377C89.5262 53.2472 91.1003 48.236 89.7667 46.2745C82.693 35.8703 73.1213 26.8911 73.444 14.0713" stroke="#37260F" stroke-width="6.48193" stroke-linecap="round" stroke-linejoin="round"/>
<path d="M107.902 49.2699C107.86 48.3253 107.621 42.9305 107.481 39.7638C107.367 37.2026 107.973 35.5059 109.329 33.4479C110.102 32.2757 111.696 31.5228 111.726 31.5027" stroke="#4F3100" stroke-width="4.86145" stroke-linecap="round" stroke-linejoin="round"/>
<path d="M111.556 51.688C112.612 50.086 116.413 48.7971 118.843 48.0461C119.069 47.9762 119.315 48.0238 119.55 48.0126C121.925 47.9004 124.499 47.4123 126.967 47.2957C131.613 47.0761 134.977 51.6801 139.565 51.4633C140.155 51.4354 140.745 51.4075 141.335 51.3797" stroke="#4F3100" stroke-width="4.86145" stroke-linecap="round" stroke-linejoin="round"/>
<path d="M91.3292 43.4582C90.9631 42.1939 93.811 42.2754 94.4175 41.114C96.1961 37.7081 98.3045 34.4364 100.367 31.3067C101.945 28.913 103.381 26.2144 104.999 23.7601C106.127 22.0484 108.148 20.443 109.776 19.5042" stroke="black" stroke-width="5.40161" stroke-linecap="round" stroke-linejoin="round"/>
<path d="M86.8413 46.235C85.0065 45.8523 80.2045 38.2272 77.5071 35.6846C75.5436 33.8338 74.7644 32.3986 72.663 30.4178C70.541 28.4175 69.0912 26.5156 67.4326 24.4364" stroke="black" stroke-width="5.40161" stroke-linecap="round" stroke-linejoin="round"/>
<path d="M105.713 47.9078C106.102 47.8895 110.923 44.9078 113 44.2659C117.246 42.9537 121.547 42.7628 126.047 42.5501C130.214 42.3532 132.423 42.6095 136.055 44.2755C141.148 46.6119 151.65 41.042 152.239 41.3123" stroke="#37260F" stroke-width="6.48193" stroke-linecap="round" stroke-linejoin="round"/>
<path d="M117.347 54.3192C119.654 54.2102 126.65 56.534 129.978 59.2181C132.171 60.9871 134.555 62.4814 136.592 64.4013C138.811 66.4937 140.379 69.0222 142.562 71.0804C144.724 73.1177 145.446 78.0914 146.893 80.7681C149.033 84.7258 152.149 88.0074 155.841 90.604C157.767 91.9591 159.364 92.54 161.617 92.8957" stroke="#4F3100" stroke-width="4.86145" stroke-linecap="round" stroke-linejoin="round"/>
<path d="M119.989 65.9187C123.669 68.5076 128.222 71.7507 131.044 75.2886C132.832 77.5304 134.212 80.5263 135.985 82.7492C137.798 85.0212 139.143 87.8276 141.264 89.8274C142.903 91.372 144.176 94.9255 145.481 96.9558C147.718 100.435 149.474 103.522 152.644 106.51C155.538 109.238 157.832 112.635 161.189 115.265C161.588 115.578 161.929 115.963 162.299 116.312" stroke="#4F3100" stroke-width="4.86145" stroke-linecap="round" stroke-linejoin="round"/>
<path d="M128.4 83.7776C131.149 85.9319 140.371 89.7367 144.476 94.3758C145.851 95.9299 145.318 99.4539 145.845 101.272C146.603 103.888 146.358 106.908 146.925 109.648C147.643 113.113 148.181 116.152 149.132 119.436C150.022 122.508 151.96 126.306 154.138 128.359C158.379 132.357 163.031 136.391 167.077 140.205C167.2 140.321 167.323 140.438 167.447 140.554" stroke="#4F3100" stroke-width="4.86143" stroke-linecap="round" stroke-linejoin="round"/>
<path d="M129.388 133.989C131.546 136.023 134.324 141.328 136.228 144.291C137.67 146.534 138.922 149.272 140.091 151.436C141.355 153.773 142.521 156.009 143.938 158.215C144.973 159.824 145.731 162.952 146.337 164.33" stroke="#4F3100" stroke-width="4.86145" stroke-linecap="round" stroke-linejoin="round"/>
<path d="M139.742 111.516C142.889 117.336 147.801 122.125 151.459 127.816C153.302 130.684 153.392 134.267 155.403 136.789C157.279 139.14 159.914 143.788 161.52 146.759C162.774 149.079 165.822 151.515 167.474 153.073C168.519 154.057 169.144 155.165 169.727 155.897" stroke="black" stroke-width="5.40161" stroke-linecap="round" stroke-linejoin="round"/>
<path d="M126.957 71.0852C129.878 76.4885 136.225 81.5739 140.732 85.8223C143.6 88.5259 146.649 92.3034 148.602 95.3428C149.713 97.0703 149.049 100.291 149.618 102.256C150.906 106.705 151.83 111.048 154.094 115.234C155.788 118.368 158.873 121.141 161.191 123.326C162.752 124.797 163.572 126.54 164.957 128.277C165.781 129.31 166.312 130.112 166.857 131.119" stroke="#37260F" stroke-width="6.48193" stroke-linecap="round" stroke-linejoin="round"/>
<path d="M133.596 106.944C133.657 107.001 134.713 113.586 135.417 116.017C136.753 120.632 137.464 125.141 138.493 129.428C139.055 131.769 139.223 133.806 139.847 135.959C140.974 139.852 142.628 143.422 145.271 146.328C145.903 147.022 146.516 147.735 147.138 148.438C150.317 152.031 154.005 155.261 157.518 158.573C159.478 160.42 161.443 162.701 163.778 163.773" stroke="#4F3100" stroke-width="4.86145" stroke-linecap="round" stroke-linejoin="round"/>
<path d="M130.898 71.998C134.681 76.7397 144.342 81.8677 149.646 86.8666C151.869 88.9623 153.014 91.794 155.278 93.9281C156.945 95.4991 157.487 97.2721 159.061 99.2451C160.59 101.162 162.413 102.642 163.905 104.512C165.66 106.712 166.633 109.665 168.138 112.006" stroke="#37260F" stroke-width="5.40161" stroke-linecap="round" stroke-linejoin="round"/>
<path d="M137.625 135.798C138.085 136.647 139.295 142.577 140.894 145.536C142.173 147.901 142.304 151.045 143.374 153.479C144.586 156.236 146.103 159.185 146.948 162.103C147.509 164.038 148.537 166.384 149.331 167.853C150.384 169.8 151.063 171.727 152.067 173.586C152.17 173.774 152.751 174.23 152.808 174.283" stroke="#37260F" stroke-width="6.48193" stroke-linecap="round" stroke-linejoin="round"/>
<path d="M73.2578 139.939C73.3998 141.591 71.5826 144.921 71.1041 147.368C70.4674 150.626 70.3014 153.269 70.4633 156.925C70.6868 161.97 69.836 166.786 70.0654 171.965C70.2506 176.146 68.9245 179.4 66.2716 182.403C65.4941 183.284 65.0402 184.021 64.2451 184.697" stroke="#2F1E00" stroke-width="4.57143" stroke-linecap="round" stroke-linejoin="round"/>
<path d="M87.5147 149.524C87.0695 151.801 85.7475 157.666 85.2013 161.357C84.8573 163.683 85.2665 166.405 84.8173 168.703C84.3771 170.955 81.7231 174.048 80.5238 175.868C79.0808 178.057 78.5654 179.698 78.6755 182.183C78.746 183.775 79.0995 182.968 79.4481 183.612" stroke="#755A00" stroke-width="5.71429" stroke-linecap="round" stroke-linejoin="round"/>
<path d="M93.4041 154.375C93.4874 156.255 90.6095 162.392 89.9966 165.527C89.5318 167.905 90.2435 171.102 90.3528 173.571C90.4808 176.461 89.776 180.32 89.3581 183.144C89.0333 185.34 89.7009 187.669 89.2956 189.742" stroke="#2F1E00" stroke-width="5.71429" stroke-linecap="round" stroke-linejoin="round"/>
<path d="M103.412 156.1C103.5 158.103 104.947 166.743 105.137 171.04C105.358 176.019 104.863 182.365 109.308 185.132C111.135 186.27 109.596 189.705 109.197 190.633C109.129 190.791 108.972 190.888 108.859 191.016" stroke="#755A00" stroke-width="5.71429" stroke-linecap="round" stroke-linejoin="round"/>
<path d="M109.38 154.719C109.133 155.293 113.616 162.269 113.775 165.869C113.968 170.219 114.306 173.228 116.401 177.103C117.488 179.114 117.296 181.29 117.4 183.651C117.498 185.871 117.445 188.142 118.046 190.215C118.493 191.761 118.263 190.52 118.802 191.279" stroke="#3C2600" stroke-width="5.71429" stroke-linecap="round" stroke-linejoin="round"/>
<path d="M118.966 146.938C119.254 153.433 127.565 160.214 129.413 166.596C130.233 169.425 129.334 172.814 129.464 175.753C129.528 177.195 129.711 177.889 130.318 179.01" stroke="#2F1E00" stroke-width="5.71429" stroke-linecap="round" stroke-linejoin="round"/>
<path d="M124.708 140.438C124.819 142.941 128.572 152.265 130.392 156.657C130.789 157.615 131.186 158.574 131.583 159.532C133.18 163.386 134.007 167.404 136.316 170.3" stroke="#3C2600" stroke-width="5.71429" stroke-linecap="round" stroke-linejoin="round"/>
<path d="M81.2179 127.472C81.2687 128.62 81.4245 132.136 81.5255 134.419C81.6246 136.655 81.6826 138.082 80.6904 139.588" stroke="#755A00" stroke-width="5.71429" stroke-linecap="round" stroke-linejoin="round"/>
<path d="M86.2053 127.969C86.2691 129.41 86.445 133.382 86.5615 136.013C86.6383 137.747 85.2622 139.691 84.6484 140.866" stroke="#755A00" stroke-width="5.71429" stroke-linecap="round" stroke-linejoin="round"/>
<path d="M97.9175 128.148C97.9959 129.918 99.4591 134.867 100.108 137.571C100.38 138.703 100.553 139.611 100.608 140.845" stroke="#755A00" stroke-width="5.71429" stroke-linecap="round" stroke-linejoin="round"/>
<path d="M104.353 129.31C104.524 130.022 105.272 134.046 105.401 136.954C105.46 138.295 105.52 139.635 105.579 140.976" stroke="#755A00" stroke-width="5.71429" stroke-linecap="round" stroke-linejoin="round"/>
<path d="M117.095 128.707C117.149 128.935 119.401 133.296 120.218 135.155C120.512 135.824 120.745 136.354 121.007 136.949" stroke="#755A00" stroke-width="5.71429" stroke-linecap="round" stroke-linejoin="round"/>
<path d="M89.0691 128.566C89.1917 131.334 88.6819 134.043 89.4254 136.61" stroke="#4E3400" stroke-width="5.71429" stroke-linecap="round" stroke-linejoin="round"/>
<path d="M95.7613 127.517C95.7899 128.163 95.6299 132.558 95.7474 135.212C95.8024 136.454 94.7499 138.072 94.5098 139.301" stroke="#4E3400" stroke-width="5.71429" stroke-linecap="round" stroke-linejoin="round"/>
<path d="M109.968 127.945C110 128.663 109.844 133.151 109.97 136.005C110.001 136.721 109.796 137.181 109.697 137.85" stroke="#4E3400" stroke-width="5.71429" stroke-linecap="round" stroke-linejoin="round"/>
<path d="M76.8133 140.137C77.452 142.343 74.4375 144.051 73.5331 146.154C72.8614 147.717 73.7841 151.824 73.8569 153.467C74.0092 156.906 71.1482 165.978 70.3384 170.12C70.1805 170.928 67.8472 173.092 67.3311 174.293" stroke="#4E3400" stroke-width="5.71429" stroke-linecap="round" stroke-linejoin="round"/>
<path d="M87.9171 150.604C84.8314 154.097 81.9438 167.888 82.2125 173.956C82.3817 177.777 82.9087 182.077 82.3767 185.672C82.3368 185.942 82.1624 186.171 82.0552 186.42" stroke="#4E3400" stroke-width="5.71429" stroke-linecap="round" stroke-linejoin="round"/>
<path d="M92.4235 156.253C91.9766 159.274 92.4852 167.245 93.4414 171.227C94.1827 174.314 93.7447 178.196 93.1707 181.132C92.7978 183.039 91.6488 185.075 90.936 186.733" stroke="#4E3400" stroke-width="5.71429" stroke-linecap="round" stroke-linejoin="round"/>
<path d="M113.965 154.136C114.293 161.544 118.79 172.964 121.196 181.273C121.457 182.175 121.549 184.04 121.696 184.547" stroke="#2F1E00" stroke-width="5.71429" stroke-linecap="round" stroke-linejoin="round"/>
<path d="M122.666 142.367C123.225 144.698 133.586 154.273 135.477 159.348C136.253 161.43 136.038 164.008 136.138 166.278C136.19 167.452 136.976 169.185 137.057 170.997" stroke="#4E3400" stroke-width="5.71429" stroke-linecap="round" stroke-linejoin="round"/>
<path d="M87.6859 129.365C86.9474 130.485 87.1948 134.294 87.3018 136.71C87.3974 138.868 86.4753 140.041 86.1128 141.896" stroke="#130500" stroke-width="5.71429" stroke-linecap="round" stroke-linejoin="round"/>
<path d="M81.9581 128.17C82.6489 129.788 82.936 133.319 81.2363 135.898C80.2789 137.35 79.2806 138.664 78.9692 140.768" stroke="#2F1E00" stroke-width="5.71429" stroke-linecap="round" stroke-linejoin="round"/>
<path d="M83.6143 125.527C83.6739 126.873 83.8437 130.707 83.9543 133.205C83.9867 133.936 84.0191 134.667 84.0515 135.398" stroke="#4E3400" stroke-width="5.71429" stroke-linecap="round" stroke-linejoin="round"/>
<path d="M94.7646 129.03C94.8309 130.527 95.0035 134.422 95.1209 137.074C95.1993 138.844 95.1928 140.495 94.9937 142.209" stroke="#130500" stroke-width="5.71429" stroke-linecap="round" stroke-linejoin="round"/>
<path d="M92.2383 128.05C92.2988 129.417 92.4967 133.885 92.6107 136.46C92.6637 137.656 92.6197 138.658 92.4025 139.767" stroke="#2F1E00" stroke-width="5.71429" stroke-linecap="round" stroke-linejoin="round"/>
<path d="M101.216 130.557C101.337 133.286 101.804 135.812 101.926 138.584C101.996 140.151 101.973 141.596 101.767 142.988" stroke="#130500" stroke-width="5.71429" stroke-linecap="round" stroke-linejoin="round"/>
<path d="M102.921 129.011C102.936 129.345 101.317 132.827 101.427 135.31C101.517 137.347 101.24 139.093 101.332 141.177" stroke="#4E3400" stroke-width="5.71429" stroke-linecap="round" stroke-linejoin="round"/>
<path d="M107.844 128.046C107.978 131.067 107.276 136.202 110.034 137.468C114.199 139.378 119.082 141.022 117.453 144.811" stroke="#130500" stroke-width="5.71429" stroke-linecap="round" stroke-linejoin="round"/>
<path d="M116.017 128.392C118.001 129.302 117.166 132.979 118.77 134.49C120.487 136.109 122.038 136.209 122.166 139.093C122.196 139.782 121.265 140.113 120.815 140.622" stroke="#130500" stroke-width="5.71429" stroke-linecap="round" stroke-linejoin="round"/>
<path d="M110.016 129.042C110.132 131.665 112.262 134.519 112.85 136.969C113.115 138.071 113.064 139.257 113.35 140.242" stroke="#2F1E00" stroke-width="5.71429" stroke-linecap="round" stroke-linejoin="round"/>
<path d="M113.829 127.03C113.84 127.277 117.449 130.858 117.981 132.696C118.254 133.637 118.403 134.222 118.448 135.238" stroke="#4E3400" stroke-width="5.71429" stroke-linecap="round" stroke-linejoin="round"/>
<path d="M78.2795 149.228C78.3255 150.266 76.2145 156.203 75.8367 158.136C74.5941 164.493 74.2785 167.779 70.1297 173.428C68.1044 176.185 66.139 179.081 64.8392 182.105C64.4938 182.908 64.1727 183.655 63.8745 184.349" stroke="#130500" stroke-width="4.57143" stroke-linecap="round" stroke-linejoin="round"/>
<path d="M88.4815 155.34C87.2775 158.141 84.4232 162.198 83.6421 166.194C83.0783 169.078 83.208 172.411 83.339 175.368C83.4696 178.318 82.1116 180.24 81.1691 182.432C80.4548 184.094 79.5707 184.779 79.2236 186.554" stroke="#130500" stroke-width="5.71429" stroke-linecap="round" stroke-linejoin="round"/>
<path d="M83.2987 146.426C82.8569 148.686 80.1676 153.474 79.5049 156.864C78.8715 160.104 80.1702 163.878 80.3122 167.084C80.4719 170.689 79.4955 173.768 77.1777 176.392C75.6749 178.093 74.7189 180.328 73.1733 182.077" stroke="#4E3400" stroke-width="5.71429" stroke-linecap="round" stroke-linejoin="round"/>
<path d="M79.2929 148.08C78.4122 149.078 77.8915 156.479 78.0252 159.498C78.1383 162.051 78.572 164.679 77.6412 166.844C76.5302 169.428 75.2869 170.815 74.7473 173.576C74.5421 174.625 74.3798 175.456 74.1689 176.534" stroke="#2F1E00" stroke-width="5.71429" stroke-linecap="round" stroke-linejoin="round"/>
<path d="M96.1061 151.316C94.5385 154.963 95.5096 161.872 95.6921 165.991C95.83 169.106 95.9735 172.809 95.0513 175.547C94.3041 177.766 93.6549 180 93.2191 182.229C92.7926 184.411 92.3429 186.469 92.4488 188.86" stroke="#130500" stroke-width="5.71429" stroke-linecap="round" stroke-linejoin="round"/>
<path d="M106.098 152.676C105.154 157.502 106.711 166.527 106.988 172.785C107.122 175.807 107.6 178.592 107.731 181.543C107.851 184.25 108.319 186.809 108.441 189.57C108.452 189.814 108.463 190.057 108.473 190.301" stroke="#130500" stroke-width="5.71429" stroke-linecap="round" stroke-linejoin="round"/>
<path d="M114.897 151.161C115.04 154.398 111.745 157.299 116.058 161.365C119.593 164.696 120.811 164.459 122.061 168.775C123.004 172.029 121.598 174.341 121.742 177.583C121.812 179.168 121.882 180.752 121.953 182.336" stroke="#130500" stroke-width="5.71429" stroke-linecap="round" stroke-linejoin="round"/>
<path d="M105.841 154.886C106.216 163.349 114.149 174.305 114.569 183.785C114.661 185.856 114.752 187.928 114.844 190C114.849 190.122 115.08 189.989 115.198 189.983" stroke="#2F1E00" stroke-width="5.71429" stroke-linecap="round" stroke-linejoin="round"/>
<path d="M102.639 154.671C101.074 162.675 100.204 171.767 100.636 181.512C100.794 185.087 102.355 188.292 102.521 192.048" stroke="#4E3400" stroke-width="5.71429" stroke-linecap="round" stroke-linejoin="round"/>
<path d="M99.1807 156.667C98.5494 160.933 95.3823 167.003 95.6459 172.955C95.7479 175.258 96.5241 176.767 96.6291 179.137C96.7206 181.204 96.7703 183.031 97.2259 184.604" stroke="#2F1E00" stroke-width="5.71429" stroke-linecap="round" stroke-linejoin="round"/>
<path d="M122.216 148.25C122.359 151.478 124.687 153.995 127.222 157.173C129.597 160.15 130.419 165.29 130.588 169.105C130.739 172.509 131.644 175.615 132.763 178.162C133.043 178.8 133.305 179.165 133.535 179.591" stroke="#130500" stroke-width="5.71429" stroke-linecap="round" stroke-linejoin="round"/>
<path d="M118.291 147.703C119.177 150.76 120.493 152.944 123.329 157.357C124.79 159.63 123.52 166.203 124.202 169.04C124.79 171.49 126.316 173.243 126.971 175.504" stroke="#4E3400" stroke-width="5.71429" stroke-linecap="round" stroke-linejoin="round"/>
<path d="M116.281 150.363C117.029 152.945 117.35 158.99 118.247 162.727C118.979 165.774 120.905 166.95 121.756 169.889C122.673 173.054 123.759 175.072 123.915 178.58C124.015 180.851 124.469 183.092 124.576 185.51" stroke="#3C2600" stroke-width="5.71429" stroke-linecap="round" stroke-linejoin="round"/>
<path d="M94.8372 107.782C93.3226 110.911 92.0244 111.331 91.4269 113.8C90.8801 116.059 90.3838 117.736 90.3838 120.804C90.3838 122.306 97.0786 122.42 98.2068 122.42C100.853 122.42 103.774 119.727 106.551 119.727" stroke="black" stroke-width="4.4978" stroke-linecap="round" stroke-linejoin="round"/>
<path d="M81.5329 83.8494C75.0904 84.8565 70.6592 91.7217 71.6085 99.3C71.8456 101.193 72.3957 102.953 73.1896 104.519C85.6896 108.719 89.3155 104.045 95.154 101.583C95.5358 99.8597 95.6341 98.0129 95.397 96.1201C94.4364 88.4519 88.3258 82.9414 81.7592 83.8192C81.6822 83.8295 81.6093 83.8375 81.5329 83.8495V83.8494Z" fill="url(#paint1_linear_104_564)" stroke="#130500" stroke-width="3.42857" stroke-linecap="round" stroke-linejoin="round"/>
<path d="M114.44 84.9014C107.951 84.2944 102.064 89.8718 101.239 97.4656C101.033 99.3622 101.161 101.207 101.571 102.924C108.339 107.188 115.8 107.287 123.58 105.476C124.349 103.896 124.87 102.127 125.076 100.23C125.911 92.5462 121.247 85.6908 114.667 84.9277C114.59 84.9187 114.517 84.9086 114.44 84.9014V84.9014Z" fill="url(#paint2_linear_104_564)" stroke="#130500" stroke-width="3.42857" stroke-linecap="round" stroke-linejoin="round"/>
<path d="M82.5887 102.419C82.1109 98.4423 80.6215 98.3296 84.606 97.3006C87.3529 96.5912 86.9202 99.4592 87.7007 101.072" stroke="black" stroke-width="4.4978" stroke-linecap="round" stroke-linejoin="round"/>
<path d="M109.271 102.246C110.932 100.903 110.627 96.6412 114.66 98.1417C115.09 98.3018 114.473 103.043 114.9 103.714" stroke="black" stroke-width="4.4978" stroke-linecap="round" stroke-linejoin="round"/>
<path fill-rule="evenodd" clip-rule="evenodd" d="M105.133 141.201C108.064 141.807 117.539 143.767 123.543 145.009C129.119 146.163 133.374 148.142 138.679 149.24C143.869 150.313 149.393 152.555 154.839 153.682C159.531 154.653 164.898 156.862 169.975 157.912C178.081 159.589 177.277 160.996 172.837 165.098C165.478 171.896 177.033 170.41 177.132 170.382C179.092 169.83 180.518 163.888 178.358 175.031C177.103 181.502 171.818 178.073 166.288 176.929C160.757 175.785 155.694 174.518 152.379 171.854C148.647 168.854 144.062 167.203 139.903 164.877C134.486 161.849 129.899 160.847 125.176 158.534C120.265 156.129 115.377 155.471 111.267 153.459C108.699 152.201 105.728 144.522 105.133 141.201V141.201Z" fill="black" stroke="black" stroke-width="4.4978"/>
<path fill-rule="evenodd" clip-rule="evenodd" d="M167.682 164.285C165.819 165.762 163.811 170.043 162.988 173.444C162.189 176.747 166.033 177.688 168.203 179.37C170.033 180.787 175.191 179.909 177.591 179.909C180.065 179.909 181.141 176.552 181.763 173.982C182.323 171.671 182.285 169.062 182.285 166.44C182.285 163.677 177.654 158.359 175.505 158.359C172.797 158.359 170.359 163.732 167.682 164.285V164.285Z" fill="url(#paint3_linear_104_564)" stroke="black" stroke-width="4.4978" stroke-linecap="round" stroke-linejoin="round"/>
<path d="M75.4287 78.4762C78.3879 75.9719 85.1604 74.4368 89.9049 73.1428" stroke="black" stroke-width="4.57143" stroke-linecap="round" stroke-linejoin="round"/>
<path d="M107.81 74.6667C109.968 73.7966 115.711 76.2274 118.476 77.3334C119.395 77.701 120.393 78.4072 121.143 78.8572" stroke="black" stroke-width="4.57143" stroke-linecap="round" stroke-linejoin="round"/>
<defs>
<linearGradient id="paint0_linear_104_564" x1="53.7483" y1="108.761" x2="141.536" y2="104.873" gradientUnits="userSpaceOnUse">
<stop/>
<stop offset="1" stop-color="#907050"/>
</linearGradient>
<linearGradient id="paint1_linear_104_564" x1="79.1769" y1="90.8908" x2="86.6105" y2="103.071" gradientUnits="userSpaceOnUse">
<stop stop-color="#808080"/>
<stop offset="1" stop-color="#FF0000" stop-opacity="0"/>
</linearGradient>
<linearGradient id="paint2_linear_104_564" x1="113.157" y1="89.7787" x2="105.992" y2="106.641" gradientUnits="userSpaceOnUse">
<stop stop-color="#808080"/>
<stop offset="1" stop-color="#FF0000" stop-opacity="0"/>
</linearGradient>
<linearGradient id="paint3_linear_104_564" x1="168.491" y1="162.264" x2="172.831" y2="175.653" gradientUnits="userSpaceOnUse">
<stop stop-color="#FF0000"/>
<stop offset="1" stop-color="#FF7000"/>
</linearGradient>
</defs>
</svg>
