<svg width="200" height="200" viewBox="0 0 200 200" fill="none" xmlns="http://www.w3.org/2000/svg">
<path fill-rule="evenodd" clip-rule="evenodd" d="M120.82 91.842C120.869 109.326 100.654 124.448 80.7162 116.833C77.6628 115.666 49.9578 140.788 45.5177 137.35C42.0149 134.639 49.3985 123.46 48.8617 124.888C46.3059 131.686 35.0224 139.253 25.9611 129.485C22.4175 125.666 23.5134 114.679 31.1461 105.729C39.0951 96.4082 47.1663 82.0545 50.2905 73.7759C56.5744 57.1246 54.1089 56.7609 66.1514 41.6603C68.4137 38.8234 62.474 27.8098 64.6328 20.6208C73.1603 22.1415 76.4476 30.7151 80.3689 34.3131C82.6548 29.0212 81.1188 14.802 85.1824 15.4645C89.246 16.1271 93.9202 28.4455 100.624 33.8559C180.912 58.5635 180.256 187.045 157.817 187.462C130.121 187.975 96.9621 187.859 69.1074 187.415C62.3582 187.308 59.2339 178.576 60.5354 173.358C66.7422 148.472 92.9544 131.053 105.794 122.42C118.982 113.554 121.397 104.841 120.82 91.842V91.842Z" fill="url(#paint0_linear_104_728)" stroke="black" stroke-width="3.65714" stroke-linecap="round" stroke-linejoin="round"/>
<path d="M34.4621 118.466C31.2953 117.372 29.0042 122.475 31.0247 122.683" stroke="black" stroke-width="3.65714" stroke-linecap="round" stroke-linejoin="round"/>
<path d="M72.4287 108.412L74.5973 111.107" stroke="black" stroke-width="3.65714" stroke-linecap="round" stroke-linejoin="round"/>
<path d="M120.858 84.3968L120.924 78.7013" stroke="black" stroke-width="3.65714" stroke-linecap="round" stroke-linejoin="round"/>
<path d="M74.4866 37.177L72.175 38.3841" stroke="black" stroke-width="3.65714" stroke-linecap="round" stroke-linejoin="round"/>
<path d="M86.6904 24.8854C93.5824 34.5128 96.0708 36.4603 87.8759 35.079" stroke="black" stroke-width="3.65714" stroke-linecap="round" stroke-linejoin="round"/>
<path d="M100.148 166.743L94.2554 180.799" stroke="black" stroke-width="3.65714" stroke-linecap="round" stroke-linejoin="round"/>
<path fill-rule="evenodd" clip-rule="evenodd" d="M50.6097 59.2235C61.8737 61.7821 88.7572 63.0035 111.191 58.4604C115.892 57.5085 124.149 58.5718 115.349 60.6489C105.865 62.8875 100.329 63.8457 90.9119 64.9665C81.2414 66.1174 77.8392 72.2697 74.9657 80.8632C73.264 85.9525 59.7662 83.4249 59.2669 79.1317C56.6473 56.6083 46.0076 65.9711 50.6097 59.2235V59.2235Z" fill="url(#paint1_linear_104_728)" stroke="black" stroke-width="3.65714" stroke-linecap="round" stroke-linejoin="round"/>
<path fill-rule="evenodd" clip-rule="evenodd" d="M104.202 31.1762C102.654 39.2503 110.63 73.6393 108.701 98.1751C107.347 115.393 90.6691 141.828 93.1532 159.485C93.9532 165.171 107.485 146.455 107.881 170.368C120.329 173.512 124.646 153.347 127.597 172.106C142.179 182.369 131.92 144.587 140.915 137.495C146.958 146.589 136.67 176.233 147.258 173.152C146.234 162.098 155.114 148.252 156.324 166.828C166.561 181.084 167.584 148.328 172.84 141.61C167.151 115.429 172.154 103.158 162.995 83.8303C161.544 80.7682 156.664 69.2342 153.627 65.9043C151.052 59.7388 141.812 54.469 139.096 52.5047C137.415 45.9495 123.817 36.9595 119.698 39.8528C116.51 32.2332 104.816 27.9718 104.202 31.1762V31.1762Z" fill="url(#paint2_linear_104_728)" stroke="black" stroke-width="3.65714" stroke-linecap="round" stroke-linejoin="round"/>
<path d="M120.679 48.5735C123.833 60.0175 126.05 76.7224 124.755 88.4929C122.787 100.656 118.429 112.602 119.51 125.098C119.51 127.512 123.281 145.55 123.281 147.965" stroke="black" stroke-width="3.65714" stroke-linecap="round" stroke-linejoin="round"/>
<path d="M138.012 61.0955C141.901 70.4449 144.98 88.2864 142.526 98.6893C141.363 107.579 143.991 115.965 141.152 124.521" stroke="black" stroke-width="3.65714" stroke-linecap="round" stroke-linejoin="round"/>
<path d="M154.082 84.931C154.604 93.3116 157.973 108.29 156.581 116.942C156.389 124.52 161.658 135.268 159.576 142.66C159.133 144.728 158.613 146.787 157.853 148.765" stroke="black" stroke-width="3.65714" stroke-linecap="round" stroke-linejoin="round"/>
<path fill-rule="evenodd" clip-rule="evenodd" d="M48.0558 126.831C55.7879 133.57 64.0261 131.115 72.5028 136.718C82.3832 136.406 84.0697 155.526 73.1027 152.391C67.2189 147.503 48.9056 136.299 42.0293 132.89C45.3554 128.76 42.8676 133.098 48.0558 126.831V126.831Z" fill="url(#paint3_linear_104_728)" stroke="black" stroke-width="3.65715" stroke-linecap="round" stroke-linejoin="round"/>
<path fill-rule="evenodd" clip-rule="evenodd" d="M72.043 143.235C70.9622 144.091 69.7976 146.575 69.3203 148.547C68.8565 150.464 71.0865 151.009 72.3455 151.985C73.4066 152.807 76.3989 152.297 77.7909 152.297C79.2259 152.297 79.8504 150.35 80.2111 148.86C80.5356 147.519 80.5136 146.006 80.5136 144.485C80.5136 142.882 77.8276 139.797 76.5808 139.797C75.0102 139.797 73.5958 142.914 72.043 143.235V143.235Z" fill="url(#paint4_linear_104_728)" stroke="black" stroke-width="2.60901" stroke-linecap="round" stroke-linejoin="round"/>
<defs>
<linearGradient id="paint0_linear_104_728" x1="22.1976" y1="13.6136" x2="172.665" y2="189.629" gradientUnits="userSpaceOnUse">
<stop/>
<stop offset="1" stop-color="#907050"/>
</linearGradient>
<linearGradient id="paint1_linear_104_728" x1="75.6556" y1="75.209" x2="55.8728" y2="57.7724" gradientUnits="userSpaceOnUse">
<stop/>
<stop offset="1" stop-color="#008040"/>
</linearGradient>
<linearGradient id="paint2_linear_104_728" x1="110.231" y1="194.716" x2="151.209" y2="30.5666" gradientUnits="userSpaceOnUse">
<stop/>
<stop offset="1" stop-color="#C00000"/>
</linearGradient>
<linearGradient id="paint3_linear_104_728" x1="54.8891" y1="160.68" x2="62.6935" y2="112.204" gradientUnits="userSpaceOnUse">
<stop/>
<stop offset="1" stop-color="#804000"/>
</linearGradient>
<linearGradient id="paint4_linear_104_728" x1="72.5122" y1="142.063" x2="75.0301" y2="149.829" gradientUnits="userSpaceOnUse">
<stop stop-color="#FF0000"/>
<stop offset="1" stop-color="#FF7000"/>
</linearGradient>
</defs>
</svg>
