<svg width="200" height="200" viewBox="0 0 200 200" fill="none" xmlns="http://www.w3.org/2000/svg">
<path fill-rule="evenodd" clip-rule="evenodd" d="M87.7984 83.9975C83.3196 84.0545 78.8243 85.9211 78.8541 89.2992C79.1859 127.714 59.2596 117.392 49.9448 123.972C42.2208 129.428 51.8958 186.685 62.1447 187.355C68.4955 187.771 108.782 189.84 114.879 187.315C117.08 186.403 119.983 152.614 120.253 152.647C130.696 153.194 137.715 165.145 148.158 165.805C154.534 167.402 156.886 161.391 155.316 156.273C156.347 145.541 155.12 111.051 150.106 110.421C144.495 109.571 139.062 118.495 139.894 123.009C139.654 130.062 141.228 131.117 138.122 137.735C134.183 141.448 131.353 133.295 129.615 131.645C128.935 132.555 128.455 124.358 127.937 123.325C121.661 110.826 97.1764 129.454 96.6552 89.3733C96.6062 85.6427 92.2078 83.9414 87.7984 83.9976V83.9975Z" fill="url(#paint0_linear_104_744)" stroke="black" stroke-width="3.45006" stroke-linecap="round" stroke-linejoin="round"/>
<path opacity="0.99" fill-rule="evenodd" clip-rule="evenodd" d="M107.325 81.2197C107.325 87.2306 105.306 92.9954 101.712 97.2457C98.1179 101.496 93.2433 103.884 88.1604 103.884C83.0776 103.884 78.203 101.496 74.6089 97.2457C71.0148 92.9954 68.9956 87.2306 68.9956 81.2197C68.9956 75.2087 71.0148 69.444 74.6089 65.1936C78.203 60.9433 83.0776 58.5554 88.1604 58.5554C93.2433 58.5554 98.1179 60.9433 101.712 65.1936C105.306 69.444 107.325 75.2087 107.325 81.2197Z" fill="url(#paint1_linear_104_744)" stroke="black" stroke-width="3.45007" stroke-linecap="round" stroke-linejoin="round"/>
<path fill-rule="evenodd" clip-rule="evenodd" d="M66.2083 111.535C60.9404 114.997 53.3508 117.975 50.5437 119.262C57.6693 127.81 90.2441 177.276 91.5688 190.095C95.3181 190.473 102.911 190.499 111.042 190.412C108.708 179.489 73.9169 124.967 66.2083 111.535V111.535ZM107.621 112.64C101.118 126.335 59.8954 180.759 57.8953 190.284C65.7188 190.15 72.928 189.99 76.5323 190.021C77.0434 185.464 117.555 123.408 122.193 118.636C113.954 112.37 113.545 114.523 108.524 112.91C108.225 112.814 107.926 112.726 107.621 112.64Z" fill="url(#paint2_linear_104_744)" stroke="black" stroke-width="3.45006" stroke-linecap="round" stroke-linejoin="round"/>
<path fill-rule="evenodd" clip-rule="evenodd" d="M85.9229 62.6011C75.3282 63.281 71.3766 75.6965 72.6351 84.1203C71.9208 92.5995 76.5484 101.673 78.1198 109.896C73.7987 118.708 68.2034 95.632 66.9545 103.96C69.0093 110.576 66.2824 117.674 58.3576 114.655C50.37 118.571 47.8962 110.054 54.3671 106.127C56.9863 98.8074 36.7451 110.317 45.6391 101.381C52.9828 96.9998 57.841 91.4803 58.5261 82.9362C59.5773 72.3252 64.4125 62.8345 71.7506 55.8056C77.5622 50.2389 87.6227 49.9657 94.7459 52.1105C102.422 54.4216 105.98 58.9741 109.909 65.0976C113.039 71.7672 114.538 79.1135 117.749 85.8177C119.261 95.0894 124.156 101.605 132.203 106.738C133.731 111.415 123.442 110.649 120.719 113.225C117.959 111.842 115.519 102.307 115.366 110.452C118.297 119.647 99.4389 123.248 101.213 113.613C103.848 110.102 104.593 105.337 98.8101 109.48C95.1083 107.516 101.956 97.0292 102.656 91.2131C103.546 83.8239 104.307 80.4892 101.33 73.4559C97.9653 68.4062 92.6101 62.0034 85.9229 62.6011V62.6011Z" fill="url(#paint3_linear_104_744)" stroke="black" stroke-width="3.45006" stroke-linecap="round" stroke-linejoin="round"/>
<path fill-rule="evenodd" clip-rule="evenodd" d="M92.0356 154.023C92.9268 155.152 112.934 154.744 109.379 163.659C107.769 167.698 95.6494 168.202 92.1321 169.884C86.1884 172.725 81.9715 178.581 80.6665 185.128C79.6307 190.324 78.4117 194.863 73.1191 197.197C60.7849 202.636 64.9757 188.276 62.8647 182.25C60.8973 176.634 52.2275 176.846 48.5641 171.937C46.8708 169.668 47.5398 165.954 50.3752 164.589C55.6391 162.054 61.0265 162.013 66.3767 160.589C71.4003 159.252 79.0408 151.107 80.072 146.504C82.0687 137.589 81.492 126.472 90.4205 124.821C94.7448 124.021 95.9609 135.134 95.6439 139.103C95.2365 144.204 91.2058 152.971 92.0356 154.023V154.023Z" fill="url(#paint4_linear_104_744)" stroke="black" stroke-width="3.19236" stroke-linecap="round" stroke-linejoin="round"/>
<path fill-rule="evenodd" clip-rule="evenodd" d="M72.6926 177.262L154.612 108.075L152.662 99.3691L68.011 171.937L72.6926 177.262V177.262Z" fill="url(#paint5_linear_104_744)" stroke="black" stroke-width="3.19236" stroke-linecap="round" stroke-linejoin="round"/>
<path fill-rule="evenodd" clip-rule="evenodd" d="M52.5333 121.688C50.9589 121.919 49.5337 122.518 48.415 123.837C47.4122 126.433 47.6409 129.388 46.386 131.928C42.3958 141.588 39.8949 151.783 35.7971 161.407C32.1693 166.885 37.0584 171.099 42.4092 171.323C52.1928 175.864 62.7673 178.822 73.3946 180.397C77.473 179.733 83.454 181.814 85.716 177.298C88.3841 172.293 83.4643 168.577 78.9284 167.86C72.3525 165.287 64.7272 164.265 59.5163 159.136C57.3223 154.189 59.0464 148.772 60.8643 144.047C60.691 140.924 62.2209 139.982 64.3559 138.893C59.8581 132.181 55.9407 125.919 52.5333 121.688V121.688Z" fill="url(#paint6_linear_104_744)" stroke="black" stroke-width="3.45006"/>
<path fill-rule="evenodd" clip-rule="evenodd" d="M154.566 107.511L175.182 104.376L173.174 86.4187L150.987 100.427L154.566 107.511Z" fill="url(#paint7_linear_104_744)" stroke="black" stroke-width="3.19236" stroke-linecap="round" stroke-linejoin="round"/>
<path d="M79.8164 80.2105C80.1512 80.4158 83.2307 79.3575 84.1265 79.1337" stroke="black" stroke-width="3.42759" stroke-linecap="round" stroke-linejoin="round"/>
<path d="M89.5137 79.1337C90.4116 78.9542 91.3095 78.7747 92.2074 78.5952C92.9991 78.437 94.076 78.5952 94.9011 78.5952" stroke="black" stroke-width="3.42759" stroke-linecap="round" stroke-linejoin="round"/>
<path d="M86.2812 91.5178C86.6159 91.7231 89.6954 90.6647 90.5913 90.4409" stroke="black" stroke-width="3.42759" stroke-linecap="round" stroke-linejoin="round"/>
<defs>
<linearGradient id="paint0_linear_104_744" x1="56.9106" y1="124.689" x2="163.925" y2="156.587" gradientUnits="userSpaceOnUse">
<stop/>
<stop offset="1" stop-color="#907050"/>
</linearGradient>
<linearGradient id="paint1_linear_104_744" x1="67.6814" y1="81.2197" x2="109.209" y2="85.934" gradientUnits="userSpaceOnUse">
<stop/>
<stop offset="1" stop-color="#907050"/>
</linearGradient>
<linearGradient id="paint2_linear_104_744" x1="44.4051" y1="116.295" x2="115.876" y2="154.406" gradientUnits="userSpaceOnUse">
<stop stop-color="#008000"/>
<stop offset="1" stop-color="#800080"/>
</linearGradient>
<linearGradient id="paint3_linear_104_744" x1="94.8034" y1="159.244" x2="62.3249" y2="58.6686" gradientUnits="userSpaceOnUse">
<stop/>
<stop offset="1" stop-color="#C0C000"/>
</linearGradient>
<linearGradient id="paint4_linear_104_744" x1="99.0199" y1="197.176" x2="56.9344" y2="164.838" gradientUnits="userSpaceOnUse">
<stop/>
<stop offset="1" stop-color="#00C000"/>
</linearGradient>
<linearGradient id="paint5_linear_104_744" x1="118.394" y1="163.771" x2="99.2848" y2="137.268" gradientUnits="userSpaceOnUse">
<stop/>
<stop offset="1" stop-color="#907050"/>
</linearGradient>
<linearGradient id="paint6_linear_104_744" x1="35.8716" y1="136.248" x2="60.4863" y2="190.625" gradientUnits="userSpaceOnUse">
<stop/>
<stop offset="1" stop-color="#907050"/>
</linearGradient>
<linearGradient id="paint7_linear_104_744" x1="175.437" y1="111.927" x2="161.513" y2="89.244" gradientUnits="userSpaceOnUse">
<stop/>
<stop offset="1" stop-color="#00C000"/>
</linearGradient>
</defs>
</svg>
