<svg width="200" height="200" viewBox="0 0 200 200" fill="none" xmlns="http://www.w3.org/2000/svg">
<path fill-rule="evenodd" clip-rule="evenodd" d="M36.0508 108.08C32.4111 126.068 33.664 142.886 19.8482 157.583C10.9449 166.864 15.6645 186.031 28.1134 174.619C41.6553 164.383 50.3097 172.455 64.9034 169.651C84.5235 174.246 114.094 179.149 134.927 176.613C157.42 166.652 174.508 188.323 185.025 169.093C179.862 155.728 164.667 149.332 166.03 130.766C167.793 108.161 156.815 81.6346 135.432 71.7425C117.55 65.217 95.5494 62.7937 78.036 71.2719C67.5736 72.6724 43.6824 114.604 36.0508 108.08V108.08Z" fill="url(#paint0_linear_104_671)" stroke="black" stroke-width="3.65714" stroke-linecap="round" stroke-linejoin="round"/>
<path d="M39.7963 129.886C40.5725 132.086 40.4201 137.782 39.7963 141.525C39.3625 144.128 37.5887 145.922 37.0251 148.176C36.4311 150.552 34.2521 152.243 33.1453 153.719C31.5116 155.897 30.2518 157.721 28.7113 159.262C26.6033 161.37 27.3702 163.637 29.8198 164.25C31.4916 164.668 35.866 161.491 38.1335 160.924C40.5308 160.325 42.0133 155.157 42.0133 153.165C42.0133 151.2 44.2946 149.156 45.3388 147.068C46.6742 144.397 47.866 149.153 47.5558 150.393C46.7741 153.52 48.9826 156.254 50.327 157.599C53.3195 160.591 56.4237 153.337 56.4237 152.61C56.4237 148.896 58.9717 151.055 60.3035 153.719C61.3068 155.726 61.4585 158.2 63.0747 159.816C63.3668 160.108 63.4442 160.555 63.629 160.924" stroke="black" stroke-width="1.82857"/>
<path d="M158.96 136.537C161.315 138.892 158.706 143.282 159.514 146.514C160.412 150.108 162.88 152.651 165.056 154.827C166.713 156.484 168.005 158.884 169.49 160.37C171.036 161.916 171.769 163.942 172.262 165.913C173.092 169.234 170.885 168.756 168.382 168.13C165.278 167.354 160.332 163.668 158.96 160.924C157.786 158.576 156.641 156.287 155.634 154.273C153.537 150.079 151.334 151.923 149.537 153.719C146.628 156.629 145.658 155.905 145.658 160.37C145.658 163.114 144.551 162.863 141.778 164.25C138.8 165.739 137.211 166.81 134.573 168.13" stroke="black" stroke-width="1.82857"/>
<path d="M102.719 43.9432C76.1831 43.9432 54.644 75.2724 54.644 113.884C54.644 152.496 85.883 183.167 102.719 183.834C118.593 184.463 150.794 152.496 150.794 113.884C150.794 75.2724 129.255 43.9432 102.719 43.9432V43.9432Z" fill="url(#paint1_linear_104_671)" stroke="black" stroke-width="3.65714" stroke-linecap="round" stroke-linejoin="round"/>
<path d="M99.5141 119.072C98.6853 127.897 89.9725 138.274 96.3937 144.026C100.056 147.308 106.218 146.287 108.262 146.287" stroke="black" stroke-width="3.65714" stroke-linecap="round" stroke-linejoin="round"/>
<path fill-rule="evenodd" clip-rule="evenodd" d="M100.594 42.791C84.9964 42.6426 61.3575 45.9741 52.9812 61.023C43.0326 80.9823 34.6626 83.1825 37.6245 107.105C39.8021 124.694 53.8869 138.033 55.0594 124.499C55.915 114.623 58.5608 97.5599 62.2931 88.111C68.625 68.1995 81.3637 61.3305 102.295 60.6296C124.909 59.8725 137.471 67.9846 145.072 85.7139C151.839 101.499 146.81 113.923 153.109 128.445C155.019 132.847 166.748 114.51 161.751 85.2561C156.932 49.7891 132.756 46.1589 100.594 42.791V42.791Z" fill="#402000" stroke="black" stroke-width="3.65714" stroke-linecap="round" stroke-linejoin="round"/>
<path opacity="0.99" fill-rule="evenodd" clip-rule="evenodd" d="M146.642 124.769C144.563 126.886 143 135.723 143 146.298C143 158.451 145.064 168.318 147.605 168.318C150.145 168.318 152.21 158.451 152.21 146.298C152.21 138.238 151.3 131.191 149.948 127.355C152.985 132.325 155.116 143.924 155.116 157.431C155.116 175.46 151.312 190.092 146.633 190.092C141.953 190.092 138.159 175.46 138.159 157.431C138.159 139.401 141.953 124.769 146.633 124.769C146.636 124.769 146.639 124.769 146.642 124.769H146.642Z" fill="#A0A000" stroke="black" stroke-width="3.65714" stroke-linecap="round" stroke-linejoin="round"/>
<path d="M122.75 154.822C121.853 155.242 111.134 159.298 103.078 159.431C95.8541 159.551 85.9894 156.065 84.8477 155.78" stroke="black" stroke-width="3.65714" stroke-linecap="round" stroke-linejoin="round"/>
<path fill-rule="evenodd" clip-rule="evenodd" d="M36.4047 115.8C47.6327 91.8827 73.4198 68.2497 104.934 70.168C127.06 71.5149 156.313 83.2086 164.879 114.663C173.449 102.261 167.199 90.984 162.593 72.7476C156.449 48.4192 134.017 26.5752 102.279 27.3569C70.5201 28.1391 52.1131 46.2531 44.778 71.2698C38.8867 91.3622 32.5258 88.928 36.4047 115.8V115.8Z" fill="url(#paint2_linear_104_671)" stroke="black" stroke-width="3.65714" stroke-linecap="round" stroke-linejoin="round"/>
<path opacity="0.99" fill-rule="evenodd" clip-rule="evenodd" d="M55.1068 123.966C53.0276 126.083 51.4646 134.919 51.4646 145.495C51.4646 157.648 53.5293 167.514 56.0696 167.514C58.6099 167.514 60.6745 157.648 60.6745 145.495C60.6745 137.434 59.765 130.387 58.4129 126.551C61.4498 131.521 63.581 143.12 63.581 156.627C63.581 174.656 59.7772 189.288 55.0977 189.288C50.4183 189.288 46.6235 174.656 46.6235 156.627C46.6235 138.598 50.4183 123.966 55.0977 123.966C55.1007 123.966 55.1037 123.966 55.1067 123.966H55.1068Z" fill="#A0A000" stroke="black" stroke-width="3.65714" stroke-linecap="round" stroke-linejoin="round"/>
<path d="M97.4907 109.186C99.0644 111.479 97.4268 113.649 95.7433 115.922C89.5382 118.715 77.3365 120.288 68.9589 113.124C64.2512 109.099 75.4287 102.793 83.4161 102.956C92.5026 103.136 94.9805 105.529 97.4907 109.186Z" fill="#808080" stroke="black" stroke-width="2.74286" stroke-linecap="round" stroke-linejoin="round"/>
<path d="M79.7422 111.359C79.7199 112.332 80.1977 113.274 81.0704 113.976C81.9432 114.678 83.1393 115.084 84.3958 115.104C85.6523 115.123 86.8662 114.755 87.7704 114.081C88.6746 113.406 89.1951 112.48 89.2173 111.507C89.2396 110.533 88.7618 109.591 87.8891 108.889C87.0164 108.187 85.8202 107.781 84.5637 107.762C83.3072 107.742 82.0934 108.11 81.1891 108.785C80.2849 109.459 79.7645 110.385 79.7422 111.359V111.359Z" fill="black" stroke="#713E01" stroke-width="2.74289" stroke-linecap="round" stroke-linejoin="round"/>
<path d="M95.4693 104.527C95.2879 103.729 96.6388 101.332 96.9821 100.126" stroke="black" stroke-width="2.74286" stroke-linecap="round" stroke-linejoin="round"/>
<path d="M89.2832 101.651C89.5115 100.485 89.969 95.968 89.871 94.1597" stroke="black" stroke-width="2.74286" stroke-linecap="round" stroke-linejoin="round"/>
<path d="M82.7512 100.735C82.8229 100.483 81.2779 94.566 81.9805 89.439" stroke="black" stroke-width="2.74286" stroke-linecap="round" stroke-linejoin="round"/>
<path d="M76.0515 102.576C76.0627 102.23 73.4141 98.2395 73.1469 97.0041C72.7598 95.2142 72.6262 93.0243 72.2964 91.4991" stroke="black" stroke-width="2.74286" stroke-linecap="round" stroke-linejoin="round"/>
<path d="M70.2466 105.027C70.0444 104.616 67.7695 104.069 67.2945 101.861C67.2186 101.508 65.977 99.2954 65.7935 98.9849" stroke="black" stroke-width="2.74286" stroke-linecap="round" stroke-linejoin="round"/>
<path fill-rule="evenodd" clip-rule="evenodd" d="M56.5407 119.317C55.2774 128.342 51.9424 145.536 59.2514 140.532C63.8865 137.358 57.015 129.168 61.3797 115.769" fill="url(#paint3_linear_104_671)"/>
<path d="M56.5407 119.317C55.2774 128.342 51.9424 145.536 59.2514 140.532C63.8865 137.358 57.015 129.168 61.3797 115.769" stroke="black" stroke-width="3.65714" stroke-linecap="round" stroke-linejoin="round"/>
<path fill-rule="evenodd" clip-rule="evenodd" d="M149.305 120.979C150.568 130.005 153.903 147.199 146.594 142.194C141.959 139.021 148.83 130.831 144.466 117.432" fill="url(#paint4_linear_104_671)"/>
<path d="M149.305 120.979C150.568 130.005 153.903 147.199 146.594 142.194C141.959 139.021 148.83 130.831 144.466 117.432" stroke="black" stroke-width="3.65714" stroke-linecap="round" stroke-linejoin="round"/>
<path d="M71.1309 87.2695C78.2499 84.8801 85.8175 83.3878 94.4093 83.9439" stroke="black" stroke-width="3.65714" stroke-linecap="round" stroke-linejoin="round"/>
<path d="M107.188 109.578C105.615 111.871 107.252 114.041 108.936 116.313C115.141 119.106 127.343 120.68 135.72 113.516C140.428 109.491 129.25 103.185 121.263 103.348C112.177 103.528 109.699 105.921 107.188 109.578Z" fill="#808080" stroke="black" stroke-width="2.74286" stroke-linecap="round" stroke-linejoin="round"/>
<path d="M124.937 111.751C124.96 112.724 124.482 113.666 123.609 114.368C122.737 115.07 121.54 115.476 120.284 115.496C119.027 115.515 117.814 115.147 116.909 114.473C116.005 113.798 115.485 112.872 115.462 111.899C115.44 110.925 115.918 109.983 116.791 109.281C117.663 108.579 118.86 108.173 120.116 108.154C121.372 108.134 122.586 108.502 123.491 109.176C124.395 109.851 124.915 110.777 124.937 111.751V111.751Z" fill="black" stroke="#713E01" stroke-width="2.74289" stroke-linecap="round" stroke-linejoin="round"/>
<path d="M109.21 104.919C109.392 104.12 108.041 101.723 107.697 100.518" stroke="black" stroke-width="2.74286" stroke-linecap="round" stroke-linejoin="round"/>
<path d="M115.396 102.043C115.168 100.877 114.71 96.3599 114.808 94.5516" stroke="black" stroke-width="2.74286" stroke-linecap="round" stroke-linejoin="round"/>
<path d="M121.928 101.127C121.857 100.875 123.401 94.958 122.699 89.8309" stroke="black" stroke-width="2.74286" stroke-linecap="round" stroke-linejoin="round"/>
<path d="M128.628 102.968C128.617 102.622 131.265 98.6315 131.533 97.396C131.92 95.6061 132.053 93.4163 132.383 91.8911" stroke="black" stroke-width="2.74286" stroke-linecap="round" stroke-linejoin="round"/>
<path d="M134.433 105.419C134.635 105.008 136.91 104.461 137.385 102.253C137.461 101.9 138.703 99.6873 138.886 99.3768" stroke="black" stroke-width="2.74286" stroke-linecap="round" stroke-linejoin="round"/>
<path d="M133.549 87.6613C126.43 85.272 118.862 83.7797 110.271 84.3358" stroke="black" stroke-width="3.65714" stroke-linecap="round" stroke-linejoin="round"/>
<path d="M47.7236 80.8591C58.6003 69.5971 82.1597 57.3841 100.23 58.163C127.697 59.3469 145.073 68.5685 159.514 83.328" stroke="black" stroke-width="3.65714" stroke-linecap="round" stroke-linejoin="round"/>
<defs>
<linearGradient id="paint0_linear_104_671" x1="90.4123" y1="109.238" x2="106.541" y2="198.473" gradientUnits="userSpaceOnUse">
<stop stop-color="#A000A0"/>
<stop offset="1" stop-color="#0000A0"/>
</linearGradient>
<linearGradient id="paint1_linear_104_671" x1="57.8684" y1="107.548" x2="202.967" y2="155.064" gradientUnits="userSpaceOnUse">
<stop/>
<stop offset="1" stop-color="#907050"/>
</linearGradient>
<linearGradient id="paint2_linear_104_671" x1="93.7482" y1="25.4553" x2="208.715" y2="241.724" gradientUnits="userSpaceOnUse">
<stop stop-color="#A000A0"/>
<stop offset="1" stop-color="#0000A0"/>
</linearGradient>
<linearGradient id="paint3_linear_104_671" x1="53.5831" y1="129.937" x2="91.5569" y2="138.25" gradientUnits="userSpaceOnUse">
<stop/>
<stop offset="1" stop-color="#907050"/>
</linearGradient>
<linearGradient id="paint4_linear_104_671" x1="152.262" y1="131.599" x2="114.289" y2="139.913" gradientUnits="userSpaceOnUse">
<stop/>
<stop offset="1" stop-color="#907050"/>
</linearGradient>
</defs>
</svg>
