<svg width="200" height="200" viewBox="0 0 200 200" fill="none" xmlns="http://www.w3.org/2000/svg">
<path d="M139.795 142.306C139.795 156.593 135.122 170.296 126.803 180.399C118.484 190.502 107.201 196.177 95.4356 196.177C83.6706 196.177 72.3875 190.502 64.0684 180.399C55.7493 170.296 51.0757 156.593 51.0757 142.306C51.0757 128.018 55.7493 114.316 64.0684 104.213C72.3875 94.1102 83.6706 88.4344 95.4356 88.4344C107.201 88.4344 118.484 94.1102 126.803 104.213C135.122 114.316 139.795 128.018 139.795 142.306V142.306Z" fill="url(#paint0_linear_104_914)" stroke="black" stroke-width="4.57143" stroke-linecap="round" stroke-linejoin="round"/>
<path fill-rule="evenodd" clip-rule="evenodd" d="M69.0994 118.07C64.5915 88.8724 44.5332 75.8365 27.1768 44.4037C38.6064 39.6335 51.6981 48.2182 61.1354 60.0303C59.1466 48.1891 60.1799 32.8227 57.0604 18.6194C67.018 24.5987 77.842 42.9144 82.7598 51.7912C85.1803 43.8287 90.3355 23.013 88.1865 8.72888C99.7234 17.3061 98.6488 39.1748 102.137 49.7861C103.171 45.8096 111.598 23.5292 113.936 9.16333C124.064 17.2555 120.022 37.4072 123.237 47.2338C129.745 44.7362 137.145 30.3804 140.708 20.0996C152.449 34.9634 140.58 46.4924 162.373 50.1598C144.825 76.5974 123.868 74.3646 127.669 104.604C128.204 113.036 119.723 100.561 112.509 98.6522C99.3474 95.1691 95.0464 97.0707 82.6263 102.893C76.1386 105.934 71.6823 110.361 69.0994 118.07V118.07Z" fill="url(#paint1_linear_104_914)" stroke="black" stroke-width="4.57143" stroke-linecap="round" stroke-linejoin="round"/>
<path fill-rule="evenodd" clip-rule="evenodd" d="M45.5648 120.845C60.9198 111.501 48.3894 121.208 49.512 121.204C52.7046 121.192 54.693 120.585 58.5232 122.84C67.8266 126.031 77.8815 124.562 87.4378 126.376C102.119 127.539 117.362 124.76 130.016 117.198C134.488 115.142 143.444 144.278 140.031 148.023C137.125 151.326 138.308 131.762 124.698 126.811C118.119 127.196 112.097 130.054 105.866 131.806C101.342 132.479 95.68 131.3 92.416 135.246C88.5923 140.408 93.4227 147.676 88.9063 152.581C84.6706 157.127 75.694 157.059 72.265 151.63C70.2398 148.071 70.7725 143.394 67.7071 140.357C62.8087 138.977 61.8876 145.341 59.7215 148.147C56.6126 152.177 49.1479 151.234 47.5644 146.282C43.7294 138.452 42.4213 129.12 45.5648 120.845V120.845Z" fill="url(#paint2_linear_104_914)" stroke="black" stroke-width="4.57143"/>
<path fill-rule="evenodd" clip-rule="evenodd" d="M60.1459 149.649C61.7152 153.855 57.0216 163.418 54.9175 167.532C50.9499 175.289 61.8294 174.346 67.4655 174.346" fill="url(#paint3_linear_104_914)"/>
<path d="M60.1459 149.649C61.7152 153.855 57.0216 163.418 54.9175 167.532C50.9499 175.289 61.8294 174.346 67.4655 174.346" stroke="black" stroke-width="4.57143" stroke-linecap="round" stroke-linejoin="round"/>
<path d="M118.703 131.931C118.445 132.434 121.387 145.356 122.885 148.286C127.542 157.39 116.06 157.874 128.462 161.915C133.069 163.416 135.433 152.238 135.433 148.286C135.433 139.447 135.733 136.166 129.857 133.293C121.433 129.176 125.328 139.431 127.068 142.834" stroke="black" stroke-width="4.57143" stroke-linecap="round" stroke-linejoin="round"/>
<path d="M129.688 156.707C124.623 157.823 121.059 162.728 121.551 168.256C122.085 174.252 127.185 178.723 132.935 178.234C138.685 177.745 142.919 172.48 142.385 166.484C142.028 162.464 139.622 159.133 136.34 157.52C138.135 158.785 139.399 160.867 139.616 163.301C139.993 167.54 137.049 171.26 133.047 171.6C129.044 171.941 125.487 168.774 125.11 164.535C124.799 161.038 126.748 157.89 129.688 156.707Z" fill="url(#paint4_linear_104_914)" stroke="black" stroke-width="4.57143" stroke-linecap="round" stroke-linejoin="round"/>
<defs>
<linearGradient id="paint0_linear_104_914" x1="50.2392" y1="142.306" x2="140.632" y2="142.306" gradientUnits="userSpaceOnUse">
<stop stop-color="white"/>
<stop offset="1" stop-color="#D0B090"/>
</linearGradient>
<linearGradient id="paint1_linear_104_914" x1="95.4803" y1="126.33" x2="77.4267" y2="16.0836" gradientUnits="userSpaceOnUse">
<stop stop-color="#808080"/>
<stop offset="1" stop-color="#4040FF"/>
</linearGradient>
<linearGradient id="paint2_linear_104_914" x1="75.6499" y1="115.145" x2="43.077" y2="158.208" gradientUnits="userSpaceOnUse">
<stop stop-color="#808080"/>
<stop offset="1" stop-color="#FF4040"/>
</linearGradient>
<linearGradient id="paint3_linear_104_914" x1="52.3933" y1="162.016" x2="96.6457" y2="172.079" gradientUnits="userSpaceOnUse">
<stop stop-color="white"/>
<stop offset="1" stop-color="#D0B090"/>
</linearGradient>
<linearGradient id="paint4_linear_104_914" x1="151.117" y1="155.168" x2="117.944" y2="177.915" gradientUnits="userSpaceOnUse">
<stop stop-color="#808080"/>
<stop offset="1" stop-color="#FFFF40"/>
</linearGradient>
</defs>
</svg>
