<svg width="200" height="200" viewBox="0 0 200 200" fill="none" xmlns="http://www.w3.org/2000/svg">
<path opacity="0.99" fill-rule="evenodd" clip-rule="evenodd" d="M8.83649 111.605V150.316C8.666 150.578 8.57715 150.845 8.57715 151.119C8.57715 154.035 18.6416 156.405 31.0385 156.405C42.4053 156.405 51.8043 154.414 53.2885 151.835H53.9176V111.605H8.83649Z" fill="url(#paint0_linear_104_896)" stroke="black" stroke-width="3.65714" stroke-linecap="round" stroke-linejoin="round"/>
<path opacity="0.99" fill-rule="evenodd" clip-rule="evenodd" d="M53.4944 112.28C53.4951 113.219 52.9148 114.148 51.7865 115.015C50.6583 115.881 49.0041 116.669 46.9186 117.333C44.8331 117.996 42.3571 118.522 39.632 118.882C36.9068 119.241 33.986 119.425 31.0362 119.425C28.0865 119.425 25.1657 119.241 22.4405 118.882C19.7154 118.522 17.2394 117.996 15.1539 117.333C13.0684 116.669 11.4142 115.881 10.286 115.015C9.15768 114.148 8.57735 113.219 8.57813 112.28C8.57735 111.342 9.15768 110.413 10.286 109.546C11.4142 108.679 13.0684 107.892 15.1539 107.228C17.2394 106.565 19.7154 106.038 22.4405 105.679C25.1657 105.32 28.0865 105.135 31.0362 105.135C33.986 105.135 36.9068 105.32 39.632 105.679C42.3571 106.038 44.8331 106.565 46.9186 107.228C49.0041 107.892 50.6583 108.679 51.7865 109.546C52.9148 110.413 53.4951 111.342 53.4944 112.28V112.28Z" fill="url(#paint1_linear_104_896)" stroke="black" stroke-width="3.65714" stroke-linecap="round" stroke-linejoin="round"/>
<path d="M42.4595 97.2828V188.626" stroke="black" stroke-width="3.65714" stroke-linecap="round" stroke-linejoin="round"/>
<path fill-rule="evenodd" clip-rule="evenodd" d="M72.83 85.8203C53.5458 92.7395 36.3537 95.648 13.9971 85.9217C23.0989 90.642 35.9002 94.9971 43.1697 99.7632C54.7922 93.1504 59.2601 91.1322 72.83 85.8203Z" fill="url(#paint2_linear_104_896)" stroke="black" stroke-width="3.65714" stroke-linecap="round" stroke-linejoin="round"/>
<path fill-rule="evenodd" clip-rule="evenodd" d="M12.9683 80.9623C31.5637 88.771 48.5061 89.9811 71.7982 81.5707C62.754 76.741 50.0061 72.2318 42.7946 67.3783C31.0932 73.8503 26.6013 75.8145 12.9683 80.9623V80.9623Z" fill="url(#paint3_linear_104_896)" stroke="black" stroke-width="3.65714" stroke-linecap="round" stroke-linejoin="round"/>
<path opacity="0.99" fill-rule="evenodd" clip-rule="evenodd" d="M121.865 144.324C121.865 154.469 117.608 164.198 110.031 171.372C102.453 178.545 92.1757 182.575 81.4593 182.575C70.743 182.575 60.4655 178.545 52.8879 171.372C45.3103 164.198 41.0532 154.469 41.0532 144.324C41.0532 134.179 45.3103 124.45 52.8879 117.276C60.4655 110.103 70.743 106.073 81.4593 106.073C92.1757 106.073 102.453 110.103 110.031 117.276C117.608 124.45 121.865 134.179 121.865 144.324V144.324Z" fill="url(#paint4_linear_104_896)" stroke="black" stroke-width="3.65714" stroke-linecap="round" stroke-linejoin="round"/>
<path opacity="0.99" fill-rule="evenodd" clip-rule="evenodd" d="M140.824 95.3541V127.149C140.653 127.364 140.564 127.584 140.564 127.808C140.564 130.204 150.629 132.15 163.026 132.15C174.393 132.15 183.792 130.515 185.276 128.397H185.905V95.3541H140.824Z" fill="url(#paint5_linear_104_896)" stroke="black" stroke-width="3.65714" stroke-linecap="round" stroke-linejoin="round"/>
<path opacity="0.99" fill-rule="evenodd" clip-rule="evenodd" d="M118.006 112.631V153.198C117.809 153.472 117.707 153.752 117.707 154.039C117.707 157.095 129.294 159.579 143.565 159.579C156.651 159.579 167.472 157.493 169.18 154.79H169.905V112.631H118.006V112.631Z" fill="url(#paint6_linear_104_896)" stroke="black" stroke-width="3.65714" stroke-linecap="round" stroke-linejoin="round"/>
<path opacity="0.99" fill-rule="evenodd" clip-rule="evenodd" d="M128.33 152.944C128.33 163.089 124.073 172.818 116.496 179.992C108.918 187.165 98.6405 191.195 87.9242 191.195C77.2078 191.195 66.9304 187.165 59.3527 179.992C51.7751 172.818 47.5181 163.089 47.5181 152.944C47.5181 142.799 51.7751 133.07 59.3527 125.896C66.9304 118.723 77.2078 114.693 87.9242 114.693C98.6405 114.693 108.918 118.723 116.496 125.896C124.073 133.07 128.33 142.799 128.33 152.944V152.944Z" fill="url(#paint7_linear_104_896)" stroke="black" stroke-width="3.65714" stroke-linecap="round" stroke-linejoin="round"/>
<path opacity="0.99" fill-rule="evenodd" clip-rule="evenodd" d="M169.417 113.239C169.418 114.084 168.75 114.921 167.451 115.702C166.152 116.483 164.248 117.192 161.847 117.79C159.446 118.388 156.596 118.862 153.458 119.186C150.321 119.509 146.958 119.676 143.563 119.676C140.167 119.676 136.804 119.509 133.667 119.186C130.53 118.862 127.679 118.388 125.278 117.79C122.877 117.192 120.973 116.483 119.674 115.702C118.375 114.921 117.707 114.084 117.708 113.239C117.707 112.393 118.375 111.556 119.674 110.775C120.973 109.994 122.877 109.285 125.278 108.687C127.679 108.089 130.53 107.615 133.667 107.292C136.804 106.968 140.167 106.802 143.563 106.802C146.958 106.802 150.321 106.968 153.458 107.292C156.596 107.615 159.446 108.089 161.847 108.687C164.248 109.285 166.152 109.994 167.451 110.775C168.75 111.556 169.418 112.393 169.417 113.239V113.239Z" fill="url(#paint8_linear_104_896)" stroke="black" stroke-width="3.65714" stroke-linecap="round" stroke-linejoin="round"/>
<path opacity="0.99" fill-rule="evenodd" clip-rule="evenodd" d="M185.482 95.9085C185.482 96.6791 184.902 97.4422 183.774 98.1542C182.646 98.8662 180.991 99.5131 178.906 100.058C176.82 100.603 174.344 101.035 171.619 101.33C168.894 101.625 165.973 101.777 163.024 101.777C160.074 101.777 157.153 101.625 154.428 101.33C151.703 101.035 149.227 100.603 147.141 100.058C145.056 99.5131 143.402 98.8662 142.273 98.1542C141.145 97.4422 140.565 96.6791 140.565 95.9085C140.565 95.1378 141.145 94.3747 142.273 93.6627C143.402 92.9507 145.056 92.3038 147.141 91.7588C149.227 91.2138 151.703 90.7815 154.428 90.4866C157.153 90.1916 160.074 90.0398 163.024 90.0398C165.973 90.0398 168.894 90.1916 171.619 90.4866C174.344 90.7815 176.82 91.2138 178.906 91.7588C180.991 92.3038 182.646 92.9507 183.774 93.6627C184.902 94.3747 185.482 95.1378 185.482 95.9085V95.9085Z" fill="url(#paint9_linear_104_896)" stroke="black" stroke-width="3.65714" stroke-linecap="round" stroke-linejoin="round"/>
<path fill-rule="evenodd" clip-rule="evenodd" d="M82.4425 62.2578C74.6225 60.639 66.9761 50.2279 61.7268 58.4621C57.7783 67.3516 74.3953 71.5017 79.4058 77.9524C81.6826 84.9414 76.6626 96.647 84.0975 101.107C91.4903 98.5709 109.307 107.529 115.397 101.977C112.733 92.2039 121.674 78.6382 137.821 79.099C144.855 79.5679 149.133 62.4257 139.307 64.5607C121.23 71.679 107.166 64.0338 109.961 56.0136C105.879 50.376 104.878 52.1555 98.9149 51.2515C97.9598 58.1937 93.9264 64.3854 82.4425 62.2578V62.2578Z" fill="url(#paint10_linear_104_896)" stroke="black" stroke-width="3.65714" stroke-linecap="round" stroke-linejoin="round"/>
<path fill-rule="evenodd" clip-rule="evenodd" d="M89.9813 37.0309C88.7865 30.7839 95.2318 27.5116 100.141 30.7415C106.329 32.8815 112.938 38.1958 112.16 45.4326C112.9 50.5335 108.402 57.1358 102.878 53.7762C93.6046 51.7397 91.7961 46.6052 89.9813 37.0309Z" fill="url(#paint11_linear_104_896)" stroke="black" stroke-width="3.65714" stroke-linecap="round" stroke-linejoin="round"/>
<path fill-rule="evenodd" clip-rule="evenodd" d="M95.8974 36.2206C91.7124 35.1744 92.6961 42.272 93.7424 46.4569C94.9066 51.1137 96.2141 51.0917 91.0486 52.3831C86.8736 53.4269 88.3142 52.1595 84.0449 51.3056C79.4617 50.389 80.2272 50.6777 75.9637 52.3831C75.2113 52.6841 69.8718 50.7925 67.8825 50.7669C61.6588 50.6867 92.0194 45.5752 80.8124 35.1432C77.9657 32.4933 86.598 28.7021 87.2774 25.9844C88.4282 21.3811 91.7164 22.2132 95.8974 22.2132C99.3516 22.2132 100.859 25.4457 105.595 25.4457C110.717 25.4457 113.283 26.1304 115.831 28.6782C117.308 30.1556 119.063 36.9367 119.063 39.4531C119.063 42.0518 125.387 47.9321 126.606 49.1506C132.853 55.3973 128.296 55.0768 122.296 55.0768C111.78 55.0768 119.111 53.5085 114.215 48.6119C112.622 47.0196 112.082 42.1911 110.982 39.9919C110.669 39.3655 105.385 35.4718 104.517 34.6044C102.819 32.9064 102.74 31.9107 99.1298 31.9107C95.9532 31.9107 99.7449 35.4511 95.8974 36.2206V36.2206Z" fill="url(#paint12_linear_104_896)" stroke="black" stroke-width="3.65714" stroke-linecap="round" stroke-linejoin="round"/>
<path d="M66.2661 59.9255L45.2549 47.5343" stroke="black" stroke-width="3.65714" stroke-linecap="round" stroke-linejoin="round"/>
<path d="M140.074 71.2392L165.395 59.3867" stroke="black" stroke-width="3.65714" stroke-linecap="round" stroke-linejoin="round"/>
<defs>
<linearGradient id="paint0_linear_104_896" x1="7.34773" y1="134.005" x2="55.1471" y2="134.005" gradientUnits="userSpaceOnUse">
<stop stop-color="white"/>
<stop offset="1" stop-color="#D0B090"/>
</linearGradient>
<linearGradient id="paint1_linear_104_896" x1="7.34868" y1="112.28" x2="54.7238" y2="112.28" gradientUnits="userSpaceOnUse">
<stop stop-color="white"/>
<stop offset="1" stop-color="#D0B090"/>
</linearGradient>
<linearGradient id="paint2_linear_104_896" x1="12.1685" y1="92.7917" x2="74.6586" y2="92.7917" gradientUnits="userSpaceOnUse">
<stop stop-color="white"/>
<stop offset="1" stop-color="#D0B090"/>
</linearGradient>
<linearGradient id="paint3_linear_104_896" x1="11.1397" y1="77.373" x2="73.6267" y2="77.373" gradientUnits="userSpaceOnUse">
<stop stop-color="white"/>
<stop offset="1" stop-color="#D0B090"/>
</linearGradient>
<linearGradient id="paint4_linear_104_896" x1="111.461" y1="184.404" x2="49.9672" y2="107.146" gradientUnits="userSpaceOnUse">
<stop stop-color="white"/>
<stop offset="1" stop-color="#80FF00"/>
</linearGradient>
<linearGradient id="paint5_linear_104_896" x1="139.335" y1="113.752" x2="187.134" y2="113.752" gradientUnits="userSpaceOnUse">
<stop stop-color="white"/>
<stop offset="1" stop-color="#D0B090"/>
</linearGradient>
<linearGradient id="paint6_linear_104_896" x1="116.292" y1="136.105" x2="171.32" y2="136.105" gradientUnits="userSpaceOnUse">
<stop stop-color="white"/>
<stop offset="1" stop-color="#D0B090"/>
</linearGradient>
<linearGradient id="paint7_linear_104_896" x1="45.7337" y1="152.944" x2="137.119" y2="175.547" gradientUnits="userSpaceOnUse">
<stop stop-color="white"/>
<stop offset="1" stop-color="#80FF00"/>
</linearGradient>
<linearGradient id="paint8_linear_104_896" x1="116.293" y1="113.239" x2="170.833" y2="113.239" gradientUnits="userSpaceOnUse">
<stop stop-color="white"/>
<stop offset="1" stop-color="#D0B090"/>
</linearGradient>
<linearGradient id="paint9_linear_104_896" x1="139.336" y1="95.9085" x2="186.711" y2="95.9085" gradientUnits="userSpaceOnUse">
<stop stop-color="white"/>
<stop offset="1" stop-color="#D0B090"/>
</linearGradient>
<linearGradient id="paint10_linear_104_896" x1="59.2974" y1="78.8863" x2="146.893" y2="78.8863" gradientUnits="userSpaceOnUse">
<stop stop-color="white"/>
<stop offset="1" stop-color="#D0B090"/>
</linearGradient>
<linearGradient id="paint11_linear_104_896" x1="88.0079" y1="42.0844" x2="114.068" y2="42.0844" gradientUnits="userSpaceOnUse">
<stop stop-color="white"/>
<stop offset="1" stop-color="#D0B090"/>
</linearGradient>
<linearGradient id="paint12_linear_104_896" x1="104.826" y1="24.1002" x2="106.106" y2="56.9082" gradientUnits="userSpaceOnUse">
<stop stop-color="#FF4040"/>
<stop offset="1" stop-color="#4040FF"/>
</linearGradient>
</defs>
</svg>
