<svg width="200" height="200" viewBox="0 0 200 200" fill="none" xmlns="http://www.w3.org/2000/svg">
<path fill-rule="evenodd" clip-rule="evenodd" d="M55.7567 188.546L44.2417 150.555L143.389 150.856L132.07 189.64L55.7567 188.546Z" fill="url(#paint0_linear_104_251)"/>
<path fill-rule="evenodd" clip-rule="evenodd" d="M140.049 163.721C112.118 153.74 75.2703 153.682 48.0732 163.697C50.9496 170.675 51.7117 184.954 51.7117 184.954C74.7332 178.514 113.873 178.71 136.714 185.911C136.714 185.911 137.242 170.664 140.049 163.721V163.721Z" fill="url(#paint1_linear_104_251)" stroke="url(#paint2_linear_104_251)" stroke-width="3.65714" stroke-linecap="round" stroke-linejoin="round"/>
<path fill-rule="evenodd" clip-rule="evenodd" d="M44.5951 159.524C72.4467 147.481 116.042 147.291 144.156 159.617C146.927 135.609 155.664 105.972 172.197 84.7146C159.661 89.6202 141.459 121.026 130.877 126.945C122.579 109.513 139.002 64.2697 145.387 54.6869C134.667 61.1369 111.982 101.091 105.279 119.781C95.6187 98.1933 97.88 57.819 97.6489 40.8987C90.3813 56.7966 80.8448 93.3268 79.8687 119.142C61.3104 105.23 54.761 67.6515 49.8113 52.7635C47.086 74.203 51.842 111.546 54.9824 126.644C42.9156 118.508 28.8248 100.605 17.1284 85.4313C31.9991 120.991 37.3817 131.761 44.5951 159.524V159.524Z" fill="url(#paint3_linear_104_251)" stroke="url(#paint4_linear_104_251)" stroke-width="3.65714" stroke-linecap="round" stroke-linejoin="round"/>
<path fill-rule="evenodd" clip-rule="evenodd" d="M93.2033 159.95C88.8608 159.928 91.2409 163.295 90.3875 164.776C88.4361 165.908 82.1028 163.901 84.1415 168.054C85.5858 170.997 87.7452 169.611 90.1706 170.56C91.3763 172.221 89.3379 177.272 93.6075 177.166C97.1338 177.078 95.2117 172.039 95.9654 170.681C98.0971 169.288 100.894 171.176 102.305 167.606C103.376 164.896 98.0732 165.901 95.9794 164.734C95.1023 163.424 97.7213 159.974 93.2033 159.95V159.95Z" fill="url(#paint5_linear_104_251)" stroke="url(#paint6_linear_104_251)" stroke-width="3.65714" stroke-linecap="round" stroke-linejoin="round"/>
<path fill-rule="evenodd" clip-rule="evenodd" d="M55.9023 188.634C76.2046 191.056 109.096 191.916 132.007 189.641C119.077 183.863 72.6035 183.911 55.9023 188.634Z" fill="url(#paint7_linear_104_251)" stroke="url(#paint8_linear_104_251)" stroke-width="3.65714" stroke-linecap="round" stroke-linejoin="round"/>
<path fill-rule="evenodd" clip-rule="evenodd" d="M108.485 18.8613C106.528 18.9042 100.497 19.9172 96.8735 21.7248C95.7741 24.4928 96.3452 32.6061 96.9036 39.2423C100.374 33.672 108.043 24.0987 108.485 18.8613H108.485Z" fill="url(#paint9_linear_104_251)" stroke="url(#paint10_linear_104_251)" stroke-width="3.65714" stroke-linecap="round" stroke-linejoin="round"/>
<path fill-rule="evenodd" clip-rule="evenodd" d="M105.969 41.5067C105.969 42.6547 105.737 43.7916 105.287 44.8523C104.836 45.913 104.175 46.8768 103.342 47.6887C102.509 48.5006 101.52 49.1446 100.431 49.584C99.3428 50.0234 98.1761 50.2495 96.9979 50.2495C95.8196 50.2495 94.6529 50.0234 93.5644 49.584C92.4758 49.1446 91.4868 48.5006 90.6537 47.6887C89.8207 46.8768 89.1599 45.913 88.7092 44.8523C88.2585 43.7916 88.0266 42.6547 88.0269 41.5067C88.0266 40.3587 88.2585 39.2218 88.7092 38.1611C89.1599 37.1004 89.8207 36.1366 90.6537 35.3247C91.4868 34.5129 92.4758 33.8689 93.5644 33.4295C94.6529 32.9901 95.8196 32.7639 96.9979 32.7639C98.1761 32.7639 99.3428 32.9901 100.431 33.4295C101.52 33.8689 102.509 34.5129 103.342 35.3247C104.175 36.1366 104.836 37.1004 105.287 38.1611C105.737 39.2218 105.969 40.3587 105.969 41.5067V41.5067Z" fill="url(#paint11_linear_104_251)" stroke="url(#paint12_linear_104_251)" stroke-width="3.65714" stroke-linecap="round" stroke-linejoin="round"/>
<path fill-rule="evenodd" clip-rule="evenodd" d="M163.406 47.0867C162.328 45.7946 163.015 43.4296 154.263 38.6172L143.095 52.5665C149.361 50.6123 159.27 47.6614 163.406 47.0867V47.0867Z" fill="url(#paint13_linear_104_251)" stroke="url(#paint14_linear_104_251)" stroke-width="3.65714" stroke-linecap="round" stroke-linejoin="round"/>
<path fill-rule="evenodd" clip-rule="evenodd" d="M153.512 55.2211C153.512 56.3691 153.28 57.5059 152.829 58.5667C152.379 59.6274 151.718 60.5912 150.885 61.403C150.052 62.2149 149.063 62.8589 147.974 63.2983C146.886 63.7377 145.719 63.9639 144.541 63.9639C143.363 63.9639 142.196 63.7377 141.107 63.2983C140.019 62.8589 139.03 62.2149 138.197 61.403C137.364 60.5912 136.703 59.6274 136.252 58.5667C135.801 57.5059 135.57 56.3691 135.57 55.2211C135.57 54.073 135.801 52.9362 136.252 51.8755C136.703 50.8148 137.364 49.851 138.197 49.0391C139.03 48.2272 140.019 47.5832 141.107 47.1438C142.196 46.7044 143.363 46.4783 144.541 46.4783C145.719 46.4783 146.886 46.7044 147.974 47.1438C149.063 47.5832 150.052 48.2272 150.885 49.0391C151.718 49.851 152.379 50.8148 152.829 51.8755C153.28 52.9362 153.512 54.073 153.512 55.2211V55.2211Z" fill="url(#paint15_linear_104_251)" stroke="url(#paint16_linear_104_251)" stroke-width="3.65714" stroke-linecap="round" stroke-linejoin="round"/>
<path fill-rule="evenodd" clip-rule="evenodd" d="M193.271 80.4324C193.882 77.2719 190.489 76.2568 187.234 71.9011C182.7 73.7576 177.447 75.9719 173.747 81.1632C183.088 79.2368 187.334 82.0908 193.271 80.4324Z" fill="url(#paint17_linear_104_251)" stroke="url(#paint18_linear_104_251)" stroke-width="3.65714" stroke-linecap="round" stroke-linejoin="round"/>
<path fill-rule="evenodd" clip-rule="evenodd" d="M181.538 83.9655C181.538 85.1135 181.307 86.2503 180.856 87.311C180.405 88.3718 179.744 89.3356 178.911 90.1474C178.078 90.9593 177.089 91.6033 176.001 92.0427C174.912 92.4821 173.745 92.7082 172.567 92.7082C171.389 92.7082 170.222 92.4821 169.134 92.0427C168.045 91.6033 167.056 90.9593 166.223 90.1474C165.39 89.3356 164.729 88.3718 164.279 87.311C163.828 86.2503 163.596 85.1135 163.596 83.9655C163.596 82.8174 163.828 81.6806 164.279 80.6199C164.729 79.5592 165.39 78.5953 166.223 77.7835C167.056 76.9716 168.045 76.3276 169.134 75.8882C170.222 75.4488 171.389 75.2227 172.567 75.2227C173.745 75.2227 174.912 75.4488 176.001 75.8882C177.089 76.3276 178.078 76.9716 178.911 77.7835C179.744 78.5953 180.405 79.5592 180.856 80.6199C181.307 81.6806 181.538 82.8174 181.538 83.9655V83.9655Z" fill="url(#paint19_linear_104_251)" stroke="url(#paint20_linear_104_251)" stroke-width="3.65714" stroke-linecap="round" stroke-linejoin="round"/>
<path fill-rule="evenodd" clip-rule="evenodd" d="M51.7988 35.3186C49.3851 32.6186 46.566 33.0061 40.1992 32.0708C40.4215 39.7797 45.0231 41.9304 47.7607 47.9281C51.2314 42.3578 50.6718 42.1559 51.7988 35.3186Z" fill="url(#paint21_linear_104_251)" stroke="url(#paint22_linear_104_251)" stroke-width="3.65714" stroke-linecap="round" stroke-linejoin="round"/>
<path fill-rule="evenodd" clip-rule="evenodd" d="M57.7403 53.3925C57.7406 54.5405 57.5087 55.6773 57.058 56.738C56.6073 57.7988 55.9465 58.7626 55.1134 59.5744C54.2804 60.3863 53.2914 61.0303 52.2028 61.4697C51.1143 61.9091 49.9476 62.1353 48.7693 62.1353C47.5911 62.1353 46.4244 61.9091 45.3359 61.4697C44.2473 61.0303 43.2583 60.3863 42.4252 59.5744C41.5922 58.7626 40.9314 57.7988 40.4807 56.738C40.03 55.6773 39.7981 54.5405 39.7983 53.3925C39.7981 52.2444 40.03 51.1076 40.4807 50.0469C40.9314 48.9862 41.5922 48.0223 42.4252 47.2105C43.2583 46.3986 44.2473 45.7546 45.3359 45.3152C46.4244 44.8758 47.5911 44.6497 48.7693 44.6497C49.9476 44.6497 51.1143 44.8758 52.2028 45.3152C53.2914 45.7546 54.2804 46.3986 55.1134 47.2105C55.9465 48.0223 56.6073 48.9862 57.058 50.0469C57.5087 51.1076 57.7406 52.2444 57.7403 53.3925V53.3925Z" fill="url(#paint23_linear_104_251)" stroke="url(#paint24_linear_104_251)" stroke-width="3.65714" stroke-linecap="round" stroke-linejoin="round"/>
<path fill-rule="evenodd" clip-rule="evenodd" d="M11.4886 66.2358C8.41497 66.8758 8.15491 73.1642 7.19043 76.3902C10.632 80.1834 14.1314 82.3445 17.138 88.2119C20.3527 82.4901 15.1358 70.6267 11.4886 66.2358Z" fill="url(#paint25_linear_104_251)" stroke="url(#paint26_linear_104_251)" stroke-width="3.65714" stroke-linecap="round" stroke-linejoin="round"/>
<path fill-rule="evenodd" clip-rule="evenodd" d="M29.0904 87.8119C29.0907 88.9599 28.8588 90.0968 28.4081 91.1575C27.9574 92.2182 27.2966 93.182 26.4635 93.9939C25.6305 94.8057 24.6415 95.4497 23.5529 95.8891C22.4644 96.3285 21.2977 96.5547 20.1194 96.5547C18.9412 96.5547 17.7745 96.3285 16.6859 95.8891C15.5974 95.4497 14.6084 94.8057 13.7753 93.9939C12.9423 93.182 12.2815 92.2182 11.8308 91.1575C11.3801 90.0968 11.1482 88.9599 11.1484 87.8119C11.1482 86.6639 11.3801 85.527 11.8308 84.4663C12.2815 83.4056 12.9423 82.4418 13.7753 81.6299C14.6084 80.818 15.5974 80.174 16.6859 79.7346C17.7745 79.2952 18.9412 79.0691 20.1194 79.0691C21.2977 79.0691 22.4644 79.2952 23.5529 79.7346C24.6415 80.174 25.6305 80.818 26.4635 81.6299C27.2966 82.4418 27.9574 83.4056 28.4081 84.4663C28.8588 85.527 29.0907 86.6639 29.0904 87.8119V87.8119Z" fill="url(#paint27_linear_104_251)" stroke="url(#paint28_linear_104_251)" stroke-width="3.65714" stroke-linecap="round" stroke-linejoin="round"/>
<defs>
<linearGradient id="paint0_linear_104_251" x1="35.1095" y1="86.9805" x2="174.026" y2="155.933" gradientUnits="userSpaceOnUse">
<stop stop-color="#000E1C"/>
<stop offset="1" stop-color="#50506F"/>
</linearGradient>
<linearGradient id="paint1_linear_104_251" x1="35.1096" y1="86.9805" x2="188" y2="154.382" gradientUnits="userSpaceOnUse">
<stop stop-color="#000E1C"/>
<stop offset="1" stop-color="#50506F"/>
</linearGradient>
<linearGradient id="paint2_linear_104_251" x1="46.2447" y1="171.061" x2="141.878" y2="171.061" gradientUnits="userSpaceOnUse">
<stop stop-color="#808080"/>
<stop offset="1" stop-color="#808080"/>
</linearGradient>
<linearGradient id="paint3_linear_104_251" x1="35.1094" y1="86.9806" x2="165.542" y2="141.483" gradientUnits="userSpaceOnUse">
<stop stop-color="#000E1C"/>
<stop offset="1" stop-color="#50506F"/>
</linearGradient>
<linearGradient id="paint4_linear_104_251" x1="15.2999" y1="100.258" x2="174.026" y2="100.258" gradientUnits="userSpaceOnUse">
<stop stop-color="#808080"/>
<stop offset="1" stop-color="#808080"/>
</linearGradient>
<linearGradient id="paint5_linear_104_251" x1="35.1095" y1="86.9805" x2="174.026" y2="155.933" gradientUnits="userSpaceOnUse">
<stop stop-color="#000E1C"/>
<stop offset="1" stop-color="#50506F"/>
</linearGradient>
<linearGradient id="paint6_linear_104_251" x1="81.9136" y1="168.559" x2="104.275" y2="168.559" gradientUnits="userSpaceOnUse">
<stop stop-color="#808080"/>
<stop offset="1" stop-color="#808080"/>
</linearGradient>
<linearGradient id="paint7_linear_104_251" x1="40.0999" y1="103.949" x2="157.058" y2="154.935" gradientUnits="userSpaceOnUse">
<stop stop-color="#000E1C"/>
<stop offset="1" stop-color="#50506F"/>
</linearGradient>
<linearGradient id="paint8_linear_104_251" x1="54.0738" y1="188.079" x2="133.836" y2="188.079" gradientUnits="userSpaceOnUse">
<stop stop-color="#808080"/>
<stop offset="1" stop-color="#808080"/>
</linearGradient>
<linearGradient id="paint9_linear_104_251" x1="92.8027" y1="23.6643" x2="107.619" y2="30.3987" gradientUnits="userSpaceOnUse">
<stop stop-color="#000E1C"/>
<stop offset="1" stop-color="#50506F"/>
</linearGradient>
<linearGradient id="paint10_linear_104_251" x1="94.419" y1="29.0518" x2="110.313" y2="29.0518" gradientUnits="userSpaceOnUse">
<stop stop-color="#808080"/>
<stop offset="1" stop-color="#808080"/>
</linearGradient>
<linearGradient id="paint11_linear_104_251" x1="86.1983" y1="41.5067" x2="107.797" y2="49.5809" gradientUnits="userSpaceOnUse">
<stop stop-color="#000E1C"/>
<stop offset="1" stop-color="#50506F"/>
</linearGradient>
<linearGradient id="paint12_linear_104_251" x1="86.1983" y1="41.5067" x2="107.797" y2="41.5067" gradientUnits="userSpaceOnUse">
<stop stop-color="#808080"/>
<stop offset="1" stop-color="#808080"/>
</linearGradient>
<linearGradient id="paint13_linear_104_251" x1="148.54" y1="39.1269" x2="162.541" y2="52.0568" gradientUnits="userSpaceOnUse">
<stop stop-color="#000E1C"/>
<stop offset="1" stop-color="#50506F"/>
</linearGradient>
<linearGradient id="paint14_linear_104_251" x1="141.267" y1="45.5918" x2="165.235" y2="45.5918" gradientUnits="userSpaceOnUse">
<stop stop-color="#808080"/>
<stop offset="1" stop-color="#808080"/>
</linearGradient>
<linearGradient id="paint15_linear_104_251" x1="133.741" y1="55.2211" x2="152.597" y2="65.7906" gradientUnits="userSpaceOnUse">
<stop stop-color="#000E1C"/>
<stop offset="1" stop-color="#50506F"/>
</linearGradient>
<linearGradient id="paint16_linear_104_251" x1="133.741" y1="55.2211" x2="155.34" y2="55.2211" gradientUnits="userSpaceOnUse">
<stop stop-color="#808080"/>
<stop offset="1" stop-color="#808080"/>
</linearGradient>
<linearGradient id="paint17_linear_104_251" x1="179.461" y1="67.3735" x2="192.208" y2="82.9918" gradientUnits="userSpaceOnUse">
<stop stop-color="#000E1C"/>
<stop offset="1" stop-color="#50506F"/>
</linearGradient>
<linearGradient id="paint18_linear_104_251" x1="171.919" y1="76.5322" x2="195.172" y2="76.5322" gradientUnits="userSpaceOnUse">
<stop stop-color="#808080"/>
<stop offset="1" stop-color="#808080"/>
</linearGradient>
<linearGradient id="paint19_linear_104_251" x1="161.768" y1="83.9655" x2="185.904" y2="92.0397" gradientUnits="userSpaceOnUse">
<stop stop-color="#000E1C"/>
<stop offset="1" stop-color="#50506F"/>
</linearGradient>
<linearGradient id="paint20_linear_104_251" x1="161.768" y1="83.9655" x2="183.367" y2="83.9655" gradientUnits="userSpaceOnUse">
<stop stop-color="#808080"/>
<stop offset="1" stop-color="#808080"/>
</linearGradient>
<linearGradient id="paint21_linear_104_251" x1="38.3706" y1="39.9994" x2="53.6274" y2="39.9994" gradientUnits="userSpaceOnUse">
<stop stop-color="#000E1C"/>
<stop offset="1" stop-color="#50506F"/>
</linearGradient>
<linearGradient id="paint22_linear_104_251" x1="38.3706" y1="39.9994" x2="53.6274" y2="39.9994" gradientUnits="userSpaceOnUse">
<stop stop-color="#808080"/>
<stop offset="1" stop-color="#808080"/>
</linearGradient>
<linearGradient id="paint23_linear_104_251" x1="37.9698" y1="53.3925" x2="64.1553" y2="59.8953" gradientUnits="userSpaceOnUse">
<stop stop-color="#000E1C"/>
<stop offset="1" stop-color="#50506F"/>
</linearGradient>
<linearGradient id="paint24_linear_104_251" x1="37.9698" y1="53.3925" x2="59.5689" y2="53.3925" gradientUnits="userSpaceOnUse">
<stop stop-color="#808080"/>
<stop offset="1" stop-color="#808080"/>
</linearGradient>
<linearGradient id="paint25_linear_104_251" x1="5.36186" y1="77.2239" x2="19.9705" y2="72.1058" gradientUnits="userSpaceOnUse">
<stop stop-color="#000E1C"/>
<stop offset="1" stop-color="#50506F"/>
</linearGradient>
<linearGradient id="paint26_linear_104_251" x1="5.36186" y1="77.2239" x2="19.9705" y2="77.2239" gradientUnits="userSpaceOnUse">
<stop stop-color="#808080"/>
<stop offset="1" stop-color="#808080"/>
</linearGradient>
<linearGradient id="paint27_linear_104_251" x1="9.31986" y1="87.8119" x2="36.7398" y2="95.387" gradientUnits="userSpaceOnUse">
<stop stop-color="#000E1C"/>
<stop offset="1" stop-color="#50506F"/>
</linearGradient>
<linearGradient id="paint28_linear_104_251" x1="9.31987" y1="87.8119" x2="30.919" y2="87.8119" gradientUnits="userSpaceOnUse">
<stop stop-color="#808080"/>
<stop offset="1" stop-color="#808080"/>
</linearGradient>
</defs>
</svg>
