<svg width="200" height="200" viewBox="0 0 200 200" fill="none" xmlns="http://www.w3.org/2000/svg">
<path fill-rule="evenodd" clip-rule="evenodd" d="M45.7834 73.9096C45.7834 73.9096 46.5264 47.1136 49.8188 38.2054C56.6985 36.7202 70.2416 36.0196 78.6545 37.2474C78.7486 42.6971 77.4129 54.1594 78.2908 59.3995C85.9355 59.0373 101.422 59.9656 111.278 58.8575C111.497 52.4645 109.616 43.4127 111.481 36.2862C117.737 35.8162 131.879 35.319 138.464 38.1486C137.586 47.2664 138.592 59.8012 138.592 59.8012L155.857 60.3986L153.286 74.113C131.731 82.1923 59.2679 80.9928 45.7834 73.9096V73.9096Z" fill="url(#paint0_linear_104_268)" stroke="url(#paint1_linear_104_268)" stroke-width="3.65714" stroke-linecap="round" stroke-linejoin="round"/>
<path fill-rule="evenodd" clip-rule="evenodd" d="M57.3068 160.566C51.8239 166.041 40.3664 171.55 32.1966 173.28C31.0118 177.191 29.846 181.713 32.2515 186.577C61.3708 186.84 138.26 186.502 166.084 186.406C167.585 180.981 168.72 177.058 167.219 172.794C158.652 171.098 148.306 168.538 140.648 160.567" fill="url(#paint2_linear_104_268)"/>
<path d="M57.3068 160.566C51.8239 166.041 40.3664 171.55 32.1966 173.28C31.0118 177.191 29.846 181.713 32.2515 186.577C61.3708 186.84 138.26 186.502 166.084 186.406C167.585 180.981 168.72 177.058 167.219 172.794C158.652 171.098 148.306 168.538 140.648 160.567" stroke="url(#paint3_linear_104_268)" stroke-width="3.65714" stroke-linecap="round" stroke-linejoin="round"/>
<path d="M45.2666 175.685C79.4285 175.702 116.504 174.425 153.041 175.818" stroke="url(#paint4_linear_104_268)" stroke-width="3.65714" stroke-linecap="round" stroke-linejoin="round"/>
<path fill-rule="evenodd" clip-rule="evenodd" d="M57.7699 71.0562C56.9084 81.3077 56.6604 152.722 56.8973 161.228C69.5092 160.162 128.123 160.095 141.049 161.099C140.317 145.092 140.519 71.281 140.519 71.281" fill="url(#paint5_linear_104_268)"/>
<path d="M57.7699 71.0562C56.9084 81.3077 56.6604 152.722 56.8973 161.228C69.5092 160.162 128.123 160.095 141.049 161.099C140.317 145.092 140.519 71.281 140.519 71.281" stroke="url(#paint6_linear_104_268)" stroke-width="3.65714" stroke-linejoin="round"/>
<path d="M66.6013 145.105C75.7186 144.433 94.8229 143.676 115.844 144.352" stroke="url(#paint7_linear_104_268)" stroke-width="3.65714" stroke-linecap="round" stroke-linejoin="round"/>
<path d="M66.2908 130.319C77.8914 129.203 89.1132 128.835 105.445 129.005" stroke="url(#paint8_linear_104_268)" stroke-width="3.65714" stroke-linecap="round" stroke-linejoin="round"/>
<path d="M66.4131 115.417C82.9316 114.275 83.397 114.396 101.274 114.139" stroke="url(#paint9_linear_104_268)" stroke-width="3.65714" stroke-linecap="round" stroke-linejoin="round"/>
<path d="M66.4131 100.803C74.7983 100.109 79.7292 99.7491 89.764 99.991" stroke="url(#paint10_linear_104_268)" stroke-width="3.65714" stroke-linecap="round" stroke-linejoin="round"/>
<path d="M76.5168 104.618C76.7178 111.46 76.4767 104.313 76.6776 110.23" stroke="url(#paint11_linear_104_268)" stroke-width="3.65714" stroke-linecap="round" stroke-linejoin="round"/>
<path d="M89.2437 119.143C89.4446 125.984 89.2034 118.837 89.4044 124.754" stroke="url(#paint12_linear_104_268)" stroke-width="3.65714" stroke-linecap="round" stroke-linejoin="round"/>
<path d="M76.5168 133.835C76.7178 140.677 76.4767 133.53 76.6776 139.447" stroke="url(#paint13_linear_104_268)" stroke-width="3.65714" stroke-linecap="round" stroke-linejoin="round"/>
<path d="M103.212 133.371C103.413 140.213 103.172 133.53 103.373 139.447" stroke="url(#paint14_linear_104_268)" stroke-width="3.65714" stroke-linecap="round" stroke-linejoin="round"/>
<path d="M89.2437 149.082C89.4446 155.923 89.2034 149.24 89.4044 155.157" stroke="url(#paint15_linear_104_268)" stroke-width="3.65714" stroke-linecap="round" stroke-linejoin="round"/>
<path d="M66.7014 87.5896C73.0688 86.8963 76.3133 86.6738 81.7359 86.7781" stroke="url(#paint16_linear_104_268)" stroke-width="3.65714" stroke-linecap="round" stroke-linejoin="round"/>
<path fill-rule="evenodd" clip-rule="evenodd" d="M30.1138 36.8637C31.2923 43.3146 32.1829 49.4348 33.3249 58.7015C40.6568 63.8136 44.761 65.599 45.5461 74.1657C67.5695 70.1975 133.996 71.1123 153.97 74.0854C155.362 66.3636 157.639 65.0443 168.399 58.5632C169.759 48.4233 170.952 43.5346 171.029 37.472C167.805 36.6879 144.636 29.75 141.775 30.7466C140.757 36.7792 142.196 41.962 140.857 47.6353C132.184 48.07 124.458 47.7399 115.482 45.4038C115.527 37.8203 115.516 33.6613 115.888 27.7919C112.098 26.442 89.555 26.202 85.3018 27.5941C84.5688 34.9034 85.4954 38.8852 84.908 45.384C77.2088 47.5619 69.9075 46.997 60.7165 47.5132C59.976 39.7864 61.3433 37.075 61.1695 31.6512C57.3774 30.6144 33.6942 35.7626 30.1138 36.8637V36.8637Z" fill="url(#paint17_linear_104_268)" stroke="url(#paint18_linear_104_268)" stroke-width="3.65714" stroke-linecap="round" stroke-linejoin="round"/>
<path d="M43.1406 59.9424C77.1187 56.5834 127.372 56.3745 156.534 60.7524" stroke="url(#paint19_linear_104_268)" stroke-width="3.65714" stroke-linecap="round" stroke-linejoin="round"/>
<defs>
<linearGradient id="paint0_linear_104_268" x1="-5.97935" y1="45.4488" x2="156.957" y2="61.8486" gradientUnits="userSpaceOnUse">
<stop stop-color="#000E1C"/>
<stop offset="1" stop-color="#50506F"/>
</linearGradient>
<linearGradient id="paint1_linear_104_268" x1="43.9549" y1="57.816" x2="157.685" y2="57.816" gradientUnits="userSpaceOnUse">
<stop stop-color="#808080"/>
<stop offset="1" stop-color="#808080"/>
</linearGradient>
<linearGradient id="paint2_linear_104_268" x1="38.4123" y1="163.186" x2="169.748" y2="166.881" gradientUnits="userSpaceOnUse">
<stop stop-color="#000E1C"/>
<stop offset="1" stop-color="#50506F"/>
</linearGradient>
<linearGradient id="paint3_linear_104_268" x1="29.0184" y1="173.621" x2="169.754" y2="173.621" gradientUnits="userSpaceOnUse">
<stop stop-color="#808080"/>
<stop offset="1" stop-color="#808080"/>
</linearGradient>
<linearGradient id="paint4_linear_104_268" x1="43.438" y1="175.492" x2="154.869" y2="175.492" gradientUnits="userSpaceOnUse">
<stop stop-color="#808080"/>
<stop offset="1" stop-color="#808080"/>
</linearGradient>
<linearGradient id="paint5_linear_104_268" x1="44.4688" y1="118.229" x2="153.278" y2="152.238" gradientUnits="userSpaceOnUse">
<stop stop-color="#000E1C"/>
<stop offset="1" stop-color="#50506F"/>
</linearGradient>
<linearGradient id="paint6_linear_104_268" x1="54.9837" y1="116.142" x2="142.877" y2="116.142" gradientUnits="userSpaceOnUse">
<stop stop-color="#808080"/>
<stop offset="1" stop-color="#808080"/>
</linearGradient>
<linearGradient id="paint7_linear_104_268" x1="64.7728" y1="144.596" x2="117.673" y2="144.596" gradientUnits="userSpaceOnUse">
<stop stop-color="#808080"/>
<stop offset="1" stop-color="#808080"/>
</linearGradient>
<linearGradient id="paint8_linear_104_268" x1="64.4622" y1="129.642" x2="107.274" y2="129.642" gradientUnits="userSpaceOnUse">
<stop stop-color="#808080"/>
<stop offset="1" stop-color="#808080"/>
</linearGradient>
<linearGradient id="paint9_linear_104_268" x1="64.5845" y1="114.778" x2="103.103" y2="114.778" gradientUnits="userSpaceOnUse">
<stop stop-color="#808080"/>
<stop offset="1" stop-color="#808080"/>
</linearGradient>
<linearGradient id="paint10_linear_104_268" x1="64.5845" y1="100.359" x2="91.5926" y2="100.359" gradientUnits="userSpaceOnUse">
<stop stop-color="#808080"/>
<stop offset="1" stop-color="#808080"/>
</linearGradient>
<linearGradient id="paint11_linear_104_268" x1="74.6882" y1="107.424" x2="78.5062" y2="107.424" gradientUnits="userSpaceOnUse">
<stop stop-color="#808080"/>
<stop offset="1" stop-color="#808080"/>
</linearGradient>
<linearGradient id="paint12_linear_104_268" x1="87.4154" y1="121.949" x2="91.2326" y2="121.949" gradientUnits="userSpaceOnUse">
<stop stop-color="#808080"/>
<stop offset="1" stop-color="#808080"/>
</linearGradient>
<linearGradient id="paint13_linear_104_268" x1="74.6882" y1="136.641" x2="78.5062" y2="136.641" gradientUnits="userSpaceOnUse">
<stop stop-color="#808080"/>
<stop offset="1" stop-color="#808080"/>
</linearGradient>
<linearGradient id="paint14_linear_104_268" x1="101.384" y1="136.409" x2="105.202" y2="136.409" gradientUnits="userSpaceOnUse">
<stop stop-color="#808080"/>
<stop offset="1" stop-color="#808080"/>
</linearGradient>
<linearGradient id="paint15_linear_104_268" x1="87.4154" y1="152.119" x2="91.2326" y2="152.119" gradientUnits="userSpaceOnUse">
<stop stop-color="#808080"/>
<stop offset="1" stop-color="#808080"/>
</linearGradient>
<linearGradient id="paint16_linear_104_268" x1="64.8728" y1="87.1717" x2="83.5645" y2="87.1717" gradientUnits="userSpaceOnUse">
<stop stop-color="#808080"/>
<stop offset="1" stop-color="#808080"/>
</linearGradient>
<linearGradient id="paint17_linear_104_268" x1="28.9192" y1="50.412" x2="161.891" y2="84.8576" gradientUnits="userSpaceOnUse">
<stop stop-color="#000E1C"/>
<stop offset="1" stop-color="#50506F"/>
</linearGradient>
<linearGradient id="paint18_linear_104_268" x1="28.2852" y1="50.412" x2="172.858" y2="50.412" gradientUnits="userSpaceOnUse">
<stop stop-color="#808080"/>
<stop offset="1" stop-color="#808080"/>
</linearGradient>
<linearGradient id="paint19_linear_104_268" x1="41.3121" y1="59.097" x2="158.363" y2="59.097" gradientUnits="userSpaceOnUse">
<stop stop-color="#808080"/>
<stop offset="1" stop-color="#808080"/>
</linearGradient>
</defs>
</svg>
