<svg width="200" height="200" viewBox="0 0 200 200" fill="none" xmlns="http://www.w3.org/2000/svg">
<path fill-rule="evenodd" clip-rule="evenodd" d="M99.6357 49.5702C102.109 45.3972 108.586 38.0298 115.265 34.1982C123.547 41.9825 134.84 60.1116 140.426 77.5323C144.78 91.1096 145.683 97.2104 145.909 111.715C146.136 126.219 138.508 140.507 133.826 145.793" fill="url(#paint0_linear_104_308)"/>
<path d="M99.6357 49.5702C102.109 45.3972 108.586 38.0298 115.265 34.1982C123.547 41.9825 134.84 60.1116 140.426 77.5323C144.78 91.1096 145.683 97.2104 145.909 111.715C146.136 126.219 138.508 140.507 133.826 145.793" stroke="url(#paint1_linear_104_308)" stroke-width="3.65714" stroke-linecap="round" stroke-linejoin="round"/>
<path fill-rule="evenodd" clip-rule="evenodd" d="M129.25 157.042C130.63 144.82 62.0224 145.722 64.8279 157.729C67.0947 162.732 65.3069 169.166 65.3069 169.166C65.3069 169.166 81.1418 166.919 98.7659 167.199C116.39 167.479 128.318 168.876 128.318 168.876C128.318 168.876 127.87 160.643 129.25 157.042Z" fill="url(#paint2_linear_104_308)" stroke="url(#paint3_linear_104_308)" stroke-width="3.65714" stroke-linecap="round" stroke-linejoin="round"/>
<path fill-rule="evenodd" clip-rule="evenodd" d="M63.8707 155.951C58.6614 154.103 54.8691 146.708 51.5827 141.992C46.3371 134.464 43.2444 118.808 46.3165 101.252C49.3886 83.6969 66.0849 49.7737 83.182 34.7261C104.019 49.7737 117.457 72.5232 128.062 102.836C133.737 119.058 136.554 136.811 131.345 155.423C119.19 152.915 78.0303 150.536 63.8707 155.951V155.951Z" fill="url(#paint4_linear_104_308)" stroke="url(#paint5_linear_104_308)" stroke-width="3.65714" stroke-linecap="round" stroke-linejoin="round"/>
<path fill-rule="evenodd" clip-rule="evenodd" d="M80.0981 31.7071C82.9506 26.8623 75.5882 23.7715 79.4393 20.3878C81.602 18.4877 85.3019 18.2976 87.3792 20.7623C90.3744 24.316 82.1804 27.3989 86.2119 31.6599" fill="url(#paint6_linear_104_308)"/>
<path d="M80.0981 31.7071C82.9506 26.8623 75.5882 23.7715 79.4393 20.3878C81.602 18.4877 85.3019 18.2976 87.3792 20.7623C90.3744 24.316 82.1804 27.3989 86.2119 31.6599" stroke="url(#paint7_linear_104_308)" stroke-width="3.65714" stroke-linecap="round" stroke-linejoin="round"/>
<path d="M99.7439 162.823C97.565 162.234 95.6063 163.27 94.8074 162.608C93.827 161.795 93.8844 158.416 94.5334 157.558C95.0884 156.824 102.221 156.733 102.921 157.408C103.573 158.037 102.902 162.132 102.297 163.168" stroke="url(#paint8_linear_104_308)" stroke-width="3.65714" stroke-linecap="round" stroke-linejoin="round"/>
<path fill-rule="evenodd" clip-rule="evenodd" d="M87.1571 79.6715C84.545 80.0858 83.245 82.9498 83.572 85.3785C83.527 87.4549 84.4366 90.13 82.7286 91.7572C80.4181 92.5259 77.9176 91.5633 75.5633 91.362C73.625 91.1849 71.2875 90.4522 69.5643 91.7001C68.2453 93.2625 69.786 95.6235 71.4857 96.1501C74.9035 97.6369 78.9613 96.8613 82.25 98.6215C83.3853 99.6688 83.1531 101.493 83.5 102.886C84.5691 111.183 84.5126 119.713 87.0214 127.75C87.6781 129.515 88.7038 131.963 90.9 131.979C92.5953 131.399 92.3813 129.147 92.4714 127.693C92.2661 118.579 89.7368 109.696 89.3357 100.6C89.2906 99.7046 89.3707 98.5808 90.5286 98.4858C94.6342 97.3041 99.4312 98.6185 103.164 96.1215C104.697 95.2907 105.977 92.1911 103.493 91.7858C99.1141 91.1413 94.6881 93.0286 90.3357 92.2072C88.9883 91.7302 89.1063 89.865 88.9499 88.6929C88.6949 85.9317 89.534 82.9926 88.4857 80.3572C88.2228 79.8976 87.6945 79.6051 87.1571 79.6715V79.6715Z" fill="url(#paint9_linear_104_308)" stroke="url(#paint10_linear_104_308)" stroke-width="3.65714" stroke-linecap="round" stroke-linejoin="round"/>
<path fill-rule="evenodd" clip-rule="evenodd" d="M72.6554 183.609C85.415 183.466 91.5578 176.207 97.2056 176.199C102.853 176.19 108.006 183.432 121.743 183.456C129.114 183.469 167.914 184.243 165.758 178.362C163.602 172.481 139.097 180.379 130.893 176.196C126.598 174.006 125.338 173.488 119.782 172.646C104.795 170.375 89.4715 170.466 75.9195 172.56C69.8863 173.492 67.4322 174.53 64.0342 176.818C58.3185 180.665 34.2415 172.666 32.3464 178.285C30.4514 183.905 57.1507 183.782 72.6554 183.609V183.609Z" fill="url(#paint11_linear_104_308)" stroke="url(#paint12_linear_104_308)" stroke-width="3.65714" stroke-linecap="round" stroke-linejoin="round"/>
<path fill-rule="evenodd" clip-rule="evenodd" d="M145.3 20.8357C140.595 20.8808 137.085 24.7425 135.133 28.6678C133.842 31.1604 131.565 32.9751 130.3 35.4643C130.034 36.9636 132.172 37.4522 133.3 37.1286C136.054 36.5458 138.235 34.3687 139.165 31.7521C140.269 29.0578 142.761 26.9381 145.714 26.7429C148.615 26.2329 151.294 28.513 151.879 31.2857C152.723 34.1924 152.341 37.6186 150 39.7286C146.346 43.5611 140.804 45.2761 137.729 49.7214C120.849 83.0308 103.996 116.362 87.3434 149.786C81.4317 161.909 75.1852 173.895 70.0072 186.35C69.6043 187.904 68.3952 189.627 69.0429 191.243C70.0645 192.037 71.3513 190.809 72.2358 190.271C75.8763 186.948 77.8945 182.254 80.3072 178.021C90.4729 158.298 100 138.249 109.895 118.387C120.638 96.6966 131.382 74.9991 142.357 53.4286C145.462 48.8333 151.355 47.2939 154.836 43.0491C157.053 40.616 158.471 37.3948 158.114 34.0571C157.886 28.5033 154.67 22.4928 148.921 21.1714C147.742 20.8725 146.521 20.7812 145.3 20.8357V20.8357Z" fill="url(#paint13_linear_104_308)" stroke="url(#paint14_linear_104_308)" stroke-width="3.65714" stroke-linecap="round" stroke-linejoin="round"/>
<path fill-rule="evenodd" clip-rule="evenodd" d="M111.937 30.8174C114.79 25.9727 107.427 22.8818 111.278 19.4982C113.441 17.598 117.141 17.4079 119.218 19.8726C122.214 23.4263 114.019 26.5093 118.051 30.7702" fill="url(#paint15_linear_104_308)"/>
<path d="M111.937 30.8174C114.79 25.9727 107.427 22.8818 111.278 19.4982C113.441 17.598 117.141 17.4079 119.218 19.8726C122.214 23.4263 114.019 26.5093 118.051 30.7702" stroke="url(#paint16_linear_104_308)" stroke-width="3.65714" stroke-linecap="round" stroke-linejoin="round"/>
<defs>
<linearGradient id="paint0_linear_104_308" x1="161.442" y1="44.2953" x2="137.718" y2="140.001" gradientUnits="userSpaceOnUse">
<stop stop-color="#EDE3DE"/>
<stop offset="1" stop-color="#8A6737"/>
</linearGradient>
<linearGradient id="paint1_linear_104_308" x1="97.8072" y1="89.9954" x2="147.743" y2="89.9954" gradientUnits="userSpaceOnUse">
<stop/>
<stop offset="1"/>
</linearGradient>
<linearGradient id="paint2_linear_104_308" x1="52.4544" y1="146.462" x2="140.749" y2="166.963" gradientUnits="userSpaceOnUse">
<stop stop-color="#EDE3DE"/>
<stop offset="1" stop-color="#8A6737"/>
</linearGradient>
<linearGradient id="paint3_linear_104_308" x1="62.9156" y1="158.728" x2="131.099" y2="158.728" gradientUnits="userSpaceOnUse">
<stop/>
<stop offset="1"/>
</linearGradient>
<linearGradient id="paint4_linear_104_308" x1="43.9543" y1="101.946" x2="140.249" y2="148.462" gradientUnits="userSpaceOnUse">
<stop stop-color="#EDE3DE"/>
<stop offset="1" stop-color="#8A6737"/>
</linearGradient>
<linearGradient id="paint5_linear_104_308" x1="43.2686" y1="95.3383" x2="135.921" y2="95.3383" gradientUnits="userSpaceOnUse">
<stop/>
<stop offset="1"/>
</linearGradient>
<linearGradient id="paint6_linear_104_308" x1="76.4688" y1="25.3223" x2="89.8821" y2="29.109" gradientUnits="userSpaceOnUse">
<stop stop-color="#EDE3DE"/>
<stop offset="1" stop-color="#8A6737"/>
</linearGradient>
<linearGradient id="paint7_linear_104_308" x1="76.4688" y1="25.3223" x2="89.8821" y2="25.3223" gradientUnits="userSpaceOnUse">
<stop/>
<stop offset="1"/>
</linearGradient>
<linearGradient id="paint8_linear_104_308" x1="92.2281" y1="160.059" x2="105.017" y2="160.059" gradientUnits="userSpaceOnUse">
<stop/>
<stop offset="1"/>
</linearGradient>
<linearGradient id="paint9_linear_104_308" x1="67.2393" y1="115.82" x2="59.7205" y2="118.32" gradientUnits="userSpaceOnUse">
<stop stop-color="#EDE3DE"/>
<stop offset="1" stop-color="#8A6737"/>
</linearGradient>
<linearGradient id="paint10_linear_104_308" x1="67.2393" y1="105.82" x2="106.721" y2="105.82" gradientUnits="userSpaceOnUse">
<stop/>
<stop offset="1"/>
</linearGradient>
<linearGradient id="paint11_linear_104_308" x1="35.6079" y1="152.413" x2="167.673" y2="192.238" gradientUnits="userSpaceOnUse">
<stop stop-color="#EDE3DE"/>
<stop offset="1" stop-color="#8A6737"/>
</linearGradient>
<linearGradient id="paint12_linear_104_308" x1="30.4222" y1="177.316" x2="167.673" y2="177.316" gradientUnits="userSpaceOnUse">
<stop/>
<stop offset="1"/>
</linearGradient>
<linearGradient id="paint13_linear_104_308" x1="129.028" y1="125.662" x2="139.498" y2="133.162" gradientUnits="userSpaceOnUse">
<stop stop-color="#EDE3DE"/>
<stop offset="1" stop-color="#8A6737"/>
</linearGradient>
<linearGradient id="paint14_linear_104_308" x1="67.0272" y1="106.162" x2="159.998" y2="106.162" gradientUnits="userSpaceOnUse">
<stop/>
<stop offset="1"/>
</linearGradient>
<linearGradient id="paint15_linear_104_308" x1="105.247" y1="19.7186" x2="122.224" y2="28.4733" gradientUnits="userSpaceOnUse">
<stop stop-color="#EDE3DE"/>
<stop offset="1" stop-color="#8A6737"/>
</linearGradient>
<linearGradient id="paint16_linear_104_308" x1="108.308" y1="24.4327" x2="121.721" y2="24.4327" gradientUnits="userSpaceOnUse">
<stop/>
<stop offset="1"/>
</linearGradient>
</defs>
</svg>
