<svg width="200" height="200" viewBox="0 0 200 200" fill="none" xmlns="http://www.w3.org/2000/svg">
<path fill-rule="evenodd" clip-rule="evenodd" d="M65.9736 139.997C71.2748 132.337 64.362 111.233 65.9778 101.585C68.6003 85.9258 89.1754 75.4156 91.9217 84.4941C95.1796 95.2635 81.9533 96.2801 78.2734 105.27C74.8933 113.527 75.6164 127.323 82.1971 135.626" fill="url(#paint0_linear_104_375)"/>
<path d="M65.9736 139.997C71.2748 132.337 64.362 111.233 65.9778 101.585C68.6003 85.9258 89.1754 75.4156 91.9217 84.4941C95.1796 95.2635 81.9533 96.2801 78.2734 105.27C74.8933 113.527 75.6164 127.323 82.1971 135.626" stroke="url(#paint1_linear_104_375)" stroke-width="3.65714" stroke-linecap="round" stroke-linejoin="round"/>
<path fill-rule="evenodd" clip-rule="evenodd" d="M134.146 141.101C128.845 133.441 135.758 112.338 134.142 102.689C131.52 87.0301 110.945 76.5198 108.199 85.5984C104.941 96.3678 118.167 97.3843 121.847 106.374C125.227 114.631 124.504 128.427 117.923 136.731" fill="url(#paint2_linear_104_375)"/>
<path d="M134.146 141.101C128.845 133.441 135.758 112.338 134.142 102.689C131.52 87.0301 110.945 76.5198 108.199 85.5984C104.941 96.3678 118.167 97.3843 121.847 106.374C125.227 114.631 124.504 128.427 117.923 136.731" stroke="url(#paint3_linear_104_375)" stroke-width="3.65714" stroke-linecap="round" stroke-linejoin="round"/>
<path fill-rule="evenodd" clip-rule="evenodd" d="M91.7065 65.855C92.9083 62.4263 96.0275 49.6435 94.8874 45.8777C89.7871 45.4741 79.1307 50.1525 72.224 48.6537C70.2788 45.1369 69.0642 37.5695 71.8585 33.4155C78.1111 31.5128 91.9112 34.8483 95.7256 35.3594C97.0779 31.5073 92.4127 19.8994 93.3164 15.6962C97.6022 13.6474 108.245 13.85 111.409 15.9325C111.248 20.3471 104.804 31.0696 104.648 34.7357C108.941 34.5155 122.315 30.8785 126.88 31.7668C128.85 35.5863 129.277 42.4102 126.1 46.7715C121.233 48.3928 108.346 44.7304 102.976 45.7955C100.713 50.3594 104.231 62.1436 105.097 65.591" fill="url(#paint4_linear_104_375)"/>
<path d="M91.7065 65.855C92.9083 62.4263 96.0275 49.6435 94.8874 45.8777C89.7871 45.4741 79.1307 50.1525 72.224 48.6537C70.2788 45.1369 69.0642 37.5695 71.8585 33.4155C78.1111 31.5128 91.9112 34.8483 95.7256 35.3594C97.0779 31.5073 92.4127 19.8994 93.3164 15.6962C97.6022 13.6474 108.245 13.85 111.409 15.9325C111.248 20.3471 104.804 31.0696 104.648 34.7357C108.941 34.5155 122.315 30.8785 126.88 31.7668C128.85 35.5863 129.277 42.4102 126.1 46.7715C121.233 48.3928 108.346 44.7304 102.976 45.7955C100.713 50.3594 104.231 62.1436 105.097 65.591" stroke="url(#paint5_linear_104_375)" stroke-width="3.65714" stroke-linecap="round" stroke-linejoin="round"/>
<path fill-rule="evenodd" clip-rule="evenodd" d="M93.351 84.9903C87.6973 80.0947 85.2061 80.054 86.3035 67.8003C87.2407 57.336 110.591 57.876 111.134 67.3453C111.816 79.2188 107.868 80.108 105.123 85.8571" fill="url(#paint6_linear_104_375)"/>
<path d="M93.351 84.9903C87.6973 80.0947 85.2061 80.054 86.3035 67.8003C87.2407 57.336 110.591 57.876 111.134 67.3453C111.816 79.2188 107.868 80.108 105.123 85.8571" stroke="url(#paint7_linear_104_375)" stroke-width="3.65714" stroke-linecap="round" stroke-linejoin="round"/>
<path fill-rule="evenodd" clip-rule="evenodd" d="M61.9339 189.783L47.311 144.927L155.021 144.455L137.904 191.157L61.9339 189.783V189.783Z" fill="url(#paint8_linear_104_375)"/>
<path fill-rule="evenodd" clip-rule="evenodd" d="M147.076 163.911C125.664 152.936 76.8726 152.42 53.9087 164.339C57.1255 174.505 58.4123 185.819 58.4123 185.819C79.3647 179.313 121.926 179.053 142.498 186.766C142.498 186.766 144.619 171.525 147.076 163.911V163.911Z" fill="url(#paint9_linear_104_375)" stroke="url(#paint10_linear_104_375)" stroke-width="3.65714" stroke-linecap="round" stroke-linejoin="round"/>
<path fill-rule="evenodd" clip-rule="evenodd" d="M126.522 131.207C118.238 127.707 108.989 117.761 98.6409 117.442C88.681 117.673 80.6853 126.257 75.0074 130.793C48.6593 118.8 48.9741 95.8461 67.4074 91.6356C70.4096 90.9498 79.346 91.7416 85.2502 91.4713C83.3702 86.2792 81.3207 82.5973 83.2645 75.6856C79.0981 73.0041 73.553 71.0812 67.2359 70.7071C65.3498 70.5953 63.4345 70.5477 61.5145 70.5713C42.9543 70.7999 23.6971 77.551 20.9645 94.6285C16.9762 119.554 39.0428 134.243 46.9859 160.607C72.1991 146.228 130.338 147.144 154.493 159.571C160.904 139.191 186.459 115.375 180.743 94.5999C175.45 75.361 149.716 69.731 132.736 70.6928C125.854 71.0825 119.247 73.3104 114.286 76.3713C115.246 81.8505 113.3 86.3301 111.686 91.0642C119.536 91.0672 133.309 89.242 138.715 92.2999C150.653 99.0534 151.563 123.362 126.522 131.207V131.207Z" fill="url(#paint11_linear_104_375)" stroke="url(#paint12_linear_104_375)" stroke-width="3.65714" stroke-linecap="round" stroke-linejoin="round"/>
<path fill-rule="evenodd" clip-rule="evenodd" d="M75.083 130.864C83.7676 124.766 87.8826 112.655 87.5353 102.879C87.0346 88.7811 79.4943 86.3238 83.8005 73.9839C86.7204 65.6164 111.038 65.1864 113.784 74.2649C117.042 85.0343 108.677 91.739 109.981 102.641C111.502 115.359 111.597 123.789 126.506 131.572" fill="url(#paint13_linear_104_375)"/>
<path d="M75.083 130.864C83.7676 124.766 87.8826 112.655 87.5353 102.879C87.0346 88.7811 79.4943 86.3238 83.8005 73.9839C86.7204 65.6164 111.038 65.1864 113.784 74.2649C117.042 85.0343 108.677 91.739 109.981 102.641C111.502 115.359 111.597 123.789 126.506 131.572" stroke="url(#paint14_linear_104_375)" stroke-width="3.65714" stroke-linecap="round" stroke-linejoin="round"/>
<path fill-rule="evenodd" clip-rule="evenodd" d="M63.0151 190.326C83.0984 192.723 115.178 193.116 137.842 190.866C122.162 184.47 79.2005 184.54 63.0151 190.326Z" fill="url(#paint15_linear_104_375)" stroke="url(#paint16_linear_104_375)" stroke-width="3.65714" stroke-linecap="round" stroke-linejoin="round"/>
<path fill-rule="evenodd" clip-rule="evenodd" d="M103.685 168.465C103.685 169.441 103.278 170.378 102.553 171.068C101.828 171.758 100.845 172.146 99.8203 172.146C98.7953 172.146 97.8123 171.758 97.0875 171.068C96.3627 170.378 95.9556 169.441 95.9556 168.465C95.9556 167.489 96.3627 166.553 97.0875 165.862C97.8123 165.172 98.7953 164.784 99.8203 164.784C100.845 164.784 101.828 165.172 102.553 165.862C103.278 166.553 103.685 167.489 103.685 168.465Z" fill="url(#paint17_linear_104_375)" stroke="url(#paint18_linear_104_375)" stroke-width="3.65714" stroke-linecap="round" stroke-linejoin="round"/>
<path fill-rule="evenodd" clip-rule="evenodd" d="M81.3991 170.318C81.5296 171.038 81.2069 171.81 80.5021 172.464C79.7972 173.118 78.7679 173.6 77.6406 173.804C76.5133 174.008 75.3803 173.918 74.491 173.553C73.6016 173.188 73.0287 172.578 72.8982 171.857C72.7677 171.137 73.0904 170.365 73.7953 169.711C74.5001 169.057 75.5294 168.575 76.6567 168.371C77.784 168.167 78.917 168.257 79.8064 168.623C80.6957 168.988 81.2687 169.597 81.3991 170.318Z" fill="url(#paint19_linear_104_375)" stroke="url(#paint20_linear_104_375)" stroke-width="3.65714" stroke-linecap="round" stroke-linejoin="round"/>
<path fill-rule="evenodd" clip-rule="evenodd" d="M126.149 171.762C126.032 172.484 125.482 173.106 124.619 173.491C123.757 173.876 122.654 173.991 121.551 173.812C120.449 173.633 119.439 173.175 118.742 172.537C118.046 171.9 117.72 171.136 117.838 170.413C117.955 169.69 118.505 169.068 119.368 168.684C120.23 168.299 121.333 168.184 122.436 168.362C123.538 168.541 124.548 169 125.245 169.637C125.941 170.275 126.267 171.039 126.149 171.762Z" fill="url(#paint21_linear_104_375)" stroke="url(#paint22_linear_104_375)" stroke-width="3.65714" stroke-linecap="round" stroke-linejoin="round"/>
<defs>
<linearGradient id="paint0_linear_104_375" x1="68.0123" y1="97.6114" x2="84.2428" y2="119.135" gradientUnits="userSpaceOnUse">
<stop stop-color="#EDE3DE"/>
<stop offset="1" stop-color="#8A6737"/>
</linearGradient>
<linearGradient id="paint1_linear_104_375" x1="63.8997" y1="110.564" x2="94.2601" y2="110.564" gradientUnits="userSpaceOnUse">
<stop/>
<stop offset="1"/>
</linearGradient>
<linearGradient id="paint2_linear_104_375" x1="113.211" y1="102.525" x2="136.222" y2="120.811" gradientUnits="userSpaceOnUse">
<stop stop-color="#EDE3DE"/>
<stop offset="1" stop-color="#8A6737"/>
</linearGradient>
<linearGradient id="paint3_linear_104_375" x1="105.86" y1="111.668" x2="136.22" y2="111.668" gradientUnits="userSpaceOnUse">
<stop/>
<stop offset="1"/>
</linearGradient>
<linearGradient id="paint4_linear_104_375" x1="71.7015" y1="23.1292" x2="122.555" y2="57.5816" gradientUnits="userSpaceOnUse">
<stop stop-color="#EDE3DE"/>
<stop offset="1" stop-color="#8A6737"/>
</linearGradient>
<linearGradient id="paint5_linear_104_375" x1="68.3895" y1="40.0579" x2="130.249" y2="40.0579" gradientUnits="userSpaceOnUse">
<stop/>
<stop offset="1"/>
</linearGradient>
<linearGradient id="paint6_linear_104_375" x1="84.2234" y1="62.4773" x2="113.041" y2="72.9774" gradientUnits="userSpaceOnUse">
<stop stop-color="#EDE3DE"/>
<stop offset="1" stop-color="#8A6737"/>
</linearGradient>
<linearGradient id="paint7_linear_104_375" x1="84.2234" y1="72.9774" x2="113.039" y2="72.9774" gradientUnits="userSpaceOnUse">
<stop/>
<stop offset="1"/>
</linearGradient>
<linearGradient id="paint8_linear_104_375" x1="29.7055" y1="97.9792" x2="185.684" y2="191.157" gradientUnits="userSpaceOnUse">
<stop stop-color="#EDE3DE"/>
<stop offset="1" stop-color="#8A6737"/>
</linearGradient>
<linearGradient id="paint9_linear_104_375" x1="45.1767" y1="143.98" x2="151.997" y2="180.657" gradientUnits="userSpaceOnUse">
<stop stop-color="#EDE3DE"/>
<stop offset="1" stop-color="#8A6737"/>
</linearGradient>
<linearGradient id="paint10_linear_104_375" x1="52.0818" y1="171.153" x2="148.903" y2="171.153" gradientUnits="userSpaceOnUse">
<stop/>
<stop offset="1"/>
</linearGradient>
<linearGradient id="paint11_linear_104_375" x1="29.7059" y1="97.9791" x2="159.733" y2="169.157" gradientUnits="userSpaceOnUse">
<stop stop-color="#EDE3DE"/>
<stop offset="1" stop-color="#8A6737"/>
</linearGradient>
<linearGradient id="paint12_linear_104_375" x1="18.66" y1="115.586" x2="183.397" y2="115.586" gradientUnits="userSpaceOnUse">
<stop/>
<stop offset="1"/>
</linearGradient>
<linearGradient id="paint13_linear_104_375" x1="29.7057" y1="97.9792" x2="160.232" y2="169.157" gradientUnits="userSpaceOnUse">
<stop stop-color="#EDE3DE"/>
<stop offset="1" stop-color="#8A6737"/>
</linearGradient>
<linearGradient id="paint14_linear_104_375" x1="73.2562" y1="99.577" x2="128.333" y2="99.577" gradientUnits="userSpaceOnUse">
<stop/>
<stop offset="1"/>
</linearGradient>
<linearGradient id="paint15_linear_104_375" x1="50.6402" y1="177.129" x2="139.669" y2="194.186" gradientUnits="userSpaceOnUse">
<stop stop-color="#EDE3DE"/>
<stop offset="1" stop-color="#8A6737"/>
</linearGradient>
<linearGradient id="paint16_linear_104_375" x1="61.1883" y1="189.191" x2="139.669" y2="189.191" gradientUnits="userSpaceOnUse">
<stop/>
<stop offset="1"/>
</linearGradient>
<linearGradient id="paint17_linear_104_375" x1="99.8203" y1="172.215" x2="99.8203" y2="175.715" gradientUnits="userSpaceOnUse">
<stop stop-color="#EDE3DE"/>
<stop offset="1" stop-color="#8A6737"/>
</linearGradient>
<linearGradient id="paint18_linear_104_375" x1="94.127" y1="168.465" x2="105.514" y2="168.465" gradientUnits="userSpaceOnUse">
<stop/>
<stop offset="1"/>
</linearGradient>
<linearGradient id="paint19_linear_104_375" x1="79.1858" y1="173.255" x2="80.6137" y2="177.422" gradientUnits="userSpaceOnUse">
<stop stop-color="#EDE3DE"/>
<stop offset="1" stop-color="#8A6737"/>
</linearGradient>
<linearGradient id="paint20_linear_104_375" x1="70.7017" y1="172.255" x2="83.5957" y2="169.92" gradientUnits="userSpaceOnUse">
<stop/>
<stop offset="1"/>
</linearGradient>
<linearGradient id="paint21_linear_104_375" x1="128" y1="171.087" x2="130.657" y2="176.74" gradientUnits="userSpaceOnUse">
<stop stop-color="#EDE3DE"/>
<stop offset="1" stop-color="#8A6737"/>
</linearGradient>
<linearGradient id="paint22_linear_104_375" x1="115.662" y1="170.06" x2="128.325" y2="172.115" gradientUnits="userSpaceOnUse">
<stop/>
<stop offset="1"/>
</linearGradient>
</defs>
</svg>
