<svg width="200" height="200" viewBox="0 0 200 200" fill="none" xmlns="http://www.w3.org/2000/svg">
<path fill-rule="evenodd" clip-rule="evenodd" d="M120.82 91.842C120.869 109.326 100.654 124.448 80.7162 116.833C77.6628 115.666 49.9578 140.788 45.5177 137.35C42.0149 134.639 49.3985 123.46 48.8617 124.888C46.3059 131.686 35.0224 139.253 25.9611 129.485C22.4175 125.666 23.5134 114.679 31.1461 105.729C39.0951 96.4082 47.1662 82.0545 50.2905 73.7759C56.5744 57.1246 54.1089 56.7609 66.1514 41.6603C68.4137 38.8234 62.474 27.8098 64.6328 20.6208C73.1603 22.1415 76.4476 30.7151 80.3689 34.313C82.6548 29.0212 81.1188 14.802 85.1824 15.4645C89.246 16.1271 93.9201 28.4455 100.624 33.8559C180.912 58.5635 180.256 187.045 157.817 187.462C130.121 187.975 96.9621 187.859 69.1074 187.415C62.3582 187.308 59.2339 178.576 60.5354 173.358C66.7422 148.472 92.9544 131.053 105.794 122.42C118.982 113.554 121.397 104.841 120.82 91.842V91.842Z" fill="url(#paint0_linear_104_343)" stroke="url(#paint1_linear_104_343)" stroke-width="3.65714" stroke-linecap="round" stroke-linejoin="round"/>
<path d="M78.8586 67.2226C72.2134 65.9963 66.3867 67.9262 61.5747 72.7154" stroke="url(#paint2_linear_104_343)" stroke-width="3.65714" stroke-linecap="round" stroke-linejoin="round"/>
<path d="M68.1458 74.4691C70.5327 76.9012 73.5706 77.0026 74.0711 72.8699" stroke="url(#paint3_linear_104_343)" stroke-width="3.65714" stroke-linecap="round" stroke-linejoin="round"/>
<path d="M34.4621 118.466C31.2953 117.372 29.0042 122.475 31.0247 122.683" stroke="url(#paint4_linear_104_343)" stroke-width="3.65714" stroke-linecap="round" stroke-linejoin="round"/>
<path d="M72.4287 108.412L74.5973 111.107" stroke="url(#paint5_linear_104_343)" stroke-width="3.65714" stroke-linecap="round" stroke-linejoin="round"/>
<path d="M120.858 84.3967L120.924 78.7012" stroke="url(#paint6_linear_104_343)" stroke-width="3.65714" stroke-linecap="round" stroke-linejoin="round"/>
<path d="M74.4866 37.177L72.175 38.3841" stroke="url(#paint7_linear_104_343)" stroke-width="3.65714" stroke-linecap="round" stroke-linejoin="round"/>
<path d="M86.6904 24.8855C93.5824 34.513 96.0708 36.4604 87.8759 35.0791" stroke="url(#paint8_linear_104_343)" stroke-width="3.65714" stroke-linecap="round" stroke-linejoin="round"/>
<path fill-rule="evenodd" clip-rule="evenodd" d="M103.873 29.9716C123.661 35.7736 120.323 31.5858 124.497 38.3821C126.835 42.1897 130.075 37.0843 137.787 37.5673C141.952 37.8281 126.359 31.3453 124.325 28.7529C121.501 25.154 100.97 29.1204 103.873 29.9716Z" fill="url(#paint9_linear_104_343)" stroke="url(#paint10_linear_104_343)" stroke-width="3.65714" stroke-linecap="round" stroke-linejoin="round"/>
<path fill-rule="evenodd" clip-rule="evenodd" d="M132.469 45.6508C138.684 50.3759 143.237 45.5766 142.991 53.7755C142.823 59.4051 150.421 55.6438 154.111 57.9921C157.511 60.1556 160.921 51.4287 158.758 51.4287C155.505 51.4287 149.981 52.9549 150.981 49.2813C153.175 41.2178 130.684 44.2936 132.469 45.6508V45.6508Z" fill="url(#paint11_linear_104_343)" stroke="url(#paint12_linear_104_343)" stroke-width="3.65714" stroke-linecap="round" stroke-linejoin="round"/>
<path fill-rule="evenodd" clip-rule="evenodd" d="M150.75 63.4778C151.96 63.9011 158.549 68.3623 158.244 70.4838C156.67 81.4262 164.739 80.7169 168.212 81.8736C173.077 83.4946 167.985 77.6853 165.53 74.6986C163.074 71.7118 167.207 70.3745 166.918 68.48C165.9 61.8158 150.119 63.2569 150.75 63.4778Z" fill="url(#paint13_linear_104_343)" stroke="url(#paint14_linear_104_343)" stroke-width="3.65714" stroke-linecap="round" stroke-linejoin="round"/>
<path fill-rule="evenodd" clip-rule="evenodd" d="M162.375 86.548C163.531 88.5639 166.242 90.8472 167.101 94.0096C167.961 97.1721 168.284 99.9915 170.003 103.388C171.721 106.785 178.636 106.342 181.618 105.345C185.636 104.002 171.905 99.8306 174.999 93.4707C176.957 89.4453 161.751 85.46 162.375 86.548V86.548Z" fill="url(#paint15_linear_104_343)" stroke="url(#paint16_linear_104_343)" stroke-width="3.65714" stroke-linecap="round" stroke-linejoin="round"/>
<path d="M100.148 166.743L94.2554 180.799" stroke="url(#paint17_linear_104_343)" stroke-width="3.65714" stroke-linecap="round" stroke-linejoin="round"/>
<defs>
<linearGradient id="paint0_linear_104_343" x1="13.3079" y1="117.805" x2="177.156" y2="175.229" gradientUnits="userSpaceOnUse">
<stop stop-color="#EDE3DE"/>
<stop offset="1" stop-color="#8A6737"/>
</linearGradient>
<linearGradient id="paint1_linear_104_343" x1="22.1976" y1="101.621" x2="172.665" y2="101.621" gradientUnits="userSpaceOnUse">
<stop/>
<stop offset="1"/>
</linearGradient>
<linearGradient id="paint2_linear_104_343" x1="59.7461" y1="69.7892" x2="80.6872" y2="69.7892" gradientUnits="userSpaceOnUse">
<stop/>
<stop offset="1"/>
</linearGradient>
<linearGradient id="paint3_linear_104_343" x1="66.3172" y1="74.5168" x2="75.8997" y2="74.5168" gradientUnits="userSpaceOnUse">
<stop/>
<stop offset="1"/>
</linearGradient>
<linearGradient id="paint4_linear_104_343" x1="28.4341" y1="120.498" x2="36.2906" y2="120.498" gradientUnits="userSpaceOnUse">
<stop/>
<stop offset="1"/>
</linearGradient>
<linearGradient id="paint5_linear_104_343" x1="70.6001" y1="109.76" x2="76.4259" y2="109.76" gradientUnits="userSpaceOnUse">
<stop/>
<stop offset="1"/>
</linearGradient>
<linearGradient id="paint6_linear_104_343" x1="119.03" y1="81.5489" x2="122.752" y2="81.5489" gradientUnits="userSpaceOnUse">
<stop/>
<stop offset="1"/>
</linearGradient>
<linearGradient id="paint7_linear_104_343" x1="70.3465" y1="37.7805" x2="76.3152" y2="37.7805" gradientUnits="userSpaceOnUse">
<stop/>
<stop offset="1"/>
</linearGradient>
<linearGradient id="paint8_linear_104_343" x1="84.8619" y1="30.181" x2="94.8518" y2="30.181" gradientUnits="userSpaceOnUse">
<stop/>
<stop offset="1"/>
</linearGradient>
<linearGradient id="paint9_linear_104_343" x1="113.781" y1="35.6356" x2="140.32" y2="33.5354" gradientUnits="userSpaceOnUse">
<stop stop-color="#EDE3DE"/>
<stop offset="1" stop-color="#8A6737"/>
</linearGradient>
<linearGradient id="paint10_linear_104_343" x1="101.764" y1="33.5354" x2="140.32" y2="33.5354" gradientUnits="userSpaceOnUse">
<stop/>
<stop offset="1"/>
</linearGradient>
<linearGradient id="paint11_linear_104_343" x1="136.841" y1="48.8595" x2="161.265" y2="54.0086" gradientUnits="userSpaceOnUse">
<stop stop-color="#EDE3DE"/>
<stop offset="1" stop-color="#8A6737"/>
</linearGradient>
<linearGradient id="paint12_linear_104_343" x1="130.539" y1="51.1335" x2="161.265" y2="51.1335" gradientUnits="userSpaceOnUse">
<stop/>
<stop offset="1"/>
</linearGradient>
<linearGradient id="paint13_linear_104_343" x1="153.379" y1="69.332" x2="169.864" y2="80.5532" gradientUnits="userSpaceOnUse">
<stop stop-color="#EDE3DE"/>
<stop offset="1" stop-color="#8A6737"/>
</linearGradient>
<linearGradient id="paint14_linear_104_343" x1="148.903" y1="72.6747" x2="172.071" y2="72.6747" gradientUnits="userSpaceOnUse">
<stop/>
<stop offset="1"/>
</linearGradient>
<linearGradient id="paint15_linear_104_343" x1="161.21" y1="87.3801" x2="179.915" y2="107.343" gradientUnits="userSpaceOnUse">
<stop stop-color="#EDE3DE"/>
<stop offset="1" stop-color="#8A6737"/>
</linearGradient>
<linearGradient id="paint16_linear_104_343" x1="160.528" y1="96.2159" x2="184.19" y2="96.2159" gradientUnits="userSpaceOnUse">
<stop/>
<stop offset="1"/>
</linearGradient>
<linearGradient id="paint17_linear_104_343" x1="92.4268" y1="173.771" x2="101.976" y2="173.771" gradientUnits="userSpaceOnUse">
<stop/>
<stop offset="1"/>
</linearGradient>
</defs>
</svg>
