<svg width="200" height="200" viewBox="0 0 200 200" fill="none" xmlns="http://www.w3.org/2000/svg">
<path fill-rule="evenodd" clip-rule="evenodd" d="M151.314 34.2644C103.456 177.664 96.0612 177.931 54.1713 34.943C53.9136 93.2141 61.663 134.202 72.8927 157.943H127.307C139.614 134.092 149.147 92.8498 151.314 34.2644V34.2644Z" fill="url(#paint0_linear_105_1762)" stroke="url(#paint1_linear_105_1762)" stroke-width="3.65714" stroke-linecap="round" stroke-linejoin="round"/>
<path fill-rule="evenodd" clip-rule="evenodd" d="M102.548 24.481C85.1798 118.592 93.7011 219.463 20.1406 67.0667C22.658 113.66 33.585 146.673 52.9621 165.945H144.862C164.606 146.913 176.572 114.412 181.155 68.2952C110.906 220.724 117.005 118.679 102.548 24.481V24.481Z" fill="url(#paint2_linear_105_1762)" stroke="url(#paint3_linear_105_1762)" stroke-width="3.65714" stroke-linecap="round" stroke-linejoin="round"/>
<path d="M149.41 173.105H47.3145V187.962H149.41V173.105Z" fill="url(#paint4_linear_105_1762)" stroke="url(#paint5_linear_105_1762)" stroke-width="3.65714" stroke-linecap="round" stroke-linejoin="round"/>
<defs>
<linearGradient id="paint0_linear_105_1762" x1="65.2888" y1="65.6275" x2="106.667" y2="134.199" gradientUnits="userSpaceOnUse">
<stop stop-color="#EDE3DE"/>
<stop offset="1" stop-color="#D0B090"/>
</linearGradient>
<linearGradient id="paint1_linear_105_1762" x1="52.3365" y1="96.1037" x2="153.143" y2="96.1037" gradientUnits="userSpaceOnUse">
<stop/>
<stop offset="1"/>
</linearGradient>
<linearGradient id="paint2_linear_105_1762" x1="38.1216" y1="54.8321" x2="164.317" y2="170.642" gradientUnits="userSpaceOnUse">
<stop stop-color="#EDE3DE"/>
<stop offset="1" stop-color="#D0B090"/>
</linearGradient>
<linearGradient id="paint3_linear_105_1762" x1="18.312" y1="95.2131" x2="182.983" y2="95.2131" gradientUnits="userSpaceOnUse">
<stop/>
<stop offset="1"/>
</linearGradient>
<linearGradient id="paint4_linear_105_1762" x1="45.4859" y1="180.533" x2="151.238" y2="180.533" gradientUnits="userSpaceOnUse">
<stop stop-color="#EDE3DE"/>
<stop offset="1" stop-color="#D0B090"/>
</linearGradient>
<linearGradient id="paint5_linear_105_1762" x1="45.4859" y1="180.533" x2="151.238" y2="180.533" gradientUnits="userSpaceOnUse">
<stop/>
<stop offset="1"/>
</linearGradient>
</defs>
</svg>
